<svg width="7" height="10" viewBox="0 0 7 10" fill="none" xmlns="http://www.w3.org/2000/svg">
<path d="M4.7577 5.00067L0.314141 8.52752C0.136778 8.66942 0.0256782 8.87248 0.00517178 9.09224C-0.0153346 9.312 0.0564222 9.53055 0.20473 9.70002C0.353037 9.86949 0.565808 9.97608 0.796448 9.99644C1.02709 10.0168 1.2568 9.94928 1.43528 9.80865L6.68552 5.64125C6.78397 5.56291 6.86316 5.46494 6.9175 5.35425C6.97184 5.24357 7 5.12287 7 5.00068C7 4.87849 6.97184 4.75779 6.9175 4.6471C6.86316 4.53642 6.78397 4.43844 6.68552 4.3601L1.43528 0.192715C1.25688 0.0514174 1.02689 -0.0166502 0.795834 0.00346279C0.564778 0.0235767 0.351552 0.130226 0.202995 0.299985C0.0544386 0.469744 -0.0172992 0.688727 0.00354052 0.908833C0.0243807 1.12894 0.136095 1.33216 0.314141 1.47387L4.7577 5.00067Z" fill="white"/>
</svg>
