<svg width="58" height="66" viewBox="0 0 58 66" fill="none" xmlns="http://www.w3.org/2000/svg">
<path d="M0.0348559 55.595C0.697116 54.0613 1.91707 53.6082 3.52043 53.6779C5.29808 53.7825 7.11058 53.7127 8.88822 53.7127C9.13221 53.7127 9.41106 53.7127 9.44591 53.7127C9.3762 52.9459 9.23678 52.2488 9.30649 51.5865C10.0036 44.3714 10.7356 37.1563 11.4675 29.9063C11.8161 26.5252 12.095 23.1094 12.4087 19.6587C11.6418 20.0769 10.8401 20.4603 10.0733 20.9135C9.89904 21.018 9.75962 21.3317 9.68991 21.5757C9.0625 23.5974 8.4351 25.5841 7.80769 27.6058C7.73798 27.78 7.70313 27.9543 7.63341 28.1286C7.35457 28.7212 6.90144 29.0349 6.20433 28.8954C5.50721 28.7212 5.15865 28.2332 5.26322 27.5361C5.68149 24.7825 6.09976 22.0637 6.58774 19.3101C6.65745 18.9267 7.00601 18.5781 7.28486 18.2993C9.65505 16.2079 12.0252 14.1514 14.3954 12.0601C15.3017 11.2584 17.3582 10.9796 18.4038 11.5373C18.613 11.6418 18.7176 11.9555 18.7873 12.1995C19.3798 13.9075 19.9724 15.6154 20.7392 17.3582C21.1575 15.5805 21.6106 13.8029 22.0288 11.9555C23.2488 12.2344 24.3642 12.6178 24.9567 13.768C26.2464 16.1731 27.4315 18.613 28.6514 21.018C28.8954 21.506 29.1743 21.7849 29.6971 21.9591C31.6142 22.5865 33.4964 23.2488 35.3786 23.9111C36.2151 24.2248 36.5637 24.7127 36.3546 25.375C36.1106 26.1418 35.518 26.2115 34.8209 26.1418C32.5204 25.8281 30.22 25.5144 27.9195 25.2704C26.9435 25.1659 26.2115 24.7825 25.6887 23.9808C25.3053 23.4231 24.8522 22.8654 24.2945 22.1334C24.1202 23.3185 24.0853 24.3642 23.8413 25.3401C23.3185 27.1875 23.9808 28.5469 25.2007 29.9411C26.8041 31.7885 28.3029 33.7404 29.7668 35.6923C30.0457 36.0409 30.22 36.5986 30.1851 37.0168C29.976 40.4675 29.732 43.9531 29.4531 47.4038C29.4183 47.7524 29.244 48.101 29.1046 48.5192C32.2067 48.5192 35.274 48.5192 38.5156 48.5192C38.5156 47.7175 38.5156 46.9159 38.5156 46.1142C38.5156 44.5805 39.5962 43.4651 41.1298 43.4651C46.637 43.4651 52.1442 43.4651 57.6166 43.4651C57.756 43.4651 57.8954 43.4303 58 43.4303C58 50.7849 58 58.1743 58 65.5289C38.655 65.5289 19.3101 65.5289 0 65.5289C0.0348558 62.2176 0.0348559 58.9062 0.0348559 55.595ZM19.2752 53.6779C19.2752 52.7716 19.2752 51.97 19.2752 51.1683C19.2752 49.6695 20.3906 48.5889 21.8894 48.5889C23.5276 48.5889 25.131 48.5889 26.6647 48.5889C26.5252 47.8221 26.3858 47.0901 26.3161 46.3582C26.1418 43.8486 26.0024 41.3389 25.8281 38.8642C25.7933 38.5156 25.5493 38.0625 25.2704 37.8534C23.3882 36.4591 21.4712 35.1346 19.5541 33.7752C19.0312 33.3918 18.4736 33.0433 17.8113 32.5901C15.7897 39.7356 13.8377 46.7067 11.8858 53.6779C14.256 53.6779 16.7308 53.6779 19.2752 53.6779Z" fill="#297B3D"/>
<path d="M21.1576 0C22.6564 0.278846 24.0158 0.801683 24.922 2.16106C26.1071 3.97356 26.0026 6.27404 24.5735 8.05168C23.4232 9.51562 21.0182 10.0733 19.1708 9.34135C17.2189 8.57452 15.999 6.6226 16.1732 4.53125C16.3475 2.37019 17.8115 0.66226 19.9377 0.209135C20.1817 0.139423 20.4605 0.104567 20.7045 0.0348559C20.8439 1.32445e-07 21.0182 0 21.1576 0Z" fill="#297B3D"/>
</svg>
