<svg width="34" height="33" viewBox="0 0 34 33" fill="none" xmlns="http://www.w3.org/2000/svg">
<path d="M16.5261 19.8C21.0825 19.8 24.7761 15.3676 24.7761 9.9C24.7761 4.43238 21.0825 0 16.5261 0C11.9698 0 8.27612 4.43238 8.27612 9.9C8.27612 15.3676 11.9698 19.8 16.5261 19.8Z" fill="#297B3D"/>
<path d="M32.6961 28.215C31.2111 25.245 28.4061 22.77 24.7761 21.285C23.7861 20.955 22.6311 20.955 21.8061 21.45C20.1561 22.44 18.5061 22.935 16.5261 22.935C14.5461 22.935 12.8961 22.44 11.2461 21.45C10.4211 21.12 9.26614 20.955 8.27614 21.45C4.64614 22.935 1.84114 25.41 0.356139 28.38C-0.798861 30.525 1.01614 33 3.49114 33H29.5611C32.0361 33 33.8511 30.525 32.6961 28.215Z" fill="#297B3D"/>
</svg>
