<svg width="38" height="40" viewBox="0 0 38 40" fill="none" xmlns="http://www.w3.org/2000/svg">
<path d="M19.9871 39.9792C17.3839 39.9792 14.8014 39.9792 12.1982 39.9792C11.0319 39.9792 10.4696 39.396 10.428 38.2298C10.4071 37.605 10.3238 37.001 10.1989 36.3971C10.0948 35.8973 9.76154 35.5641 9.26171 35.2933C7.82471 34.5228 6.24193 34.5228 4.70081 34.2937C4.18016 34.2104 3.63868 34.1271 3.13885 34.0021C1.61855 33.6272 0.993773 32.4401 1.4936 30.899C1.63938 30.42 1.86847 29.9618 2.0559 29.5037C2.18086 29.1705 2.18086 28.8581 1.99342 28.5249C1.68103 28.0042 1.70186 27.4419 2.01425 26.9212C2.1392 26.7338 2.16003 26.6089 2.03507 26.4214C1.66021 25.8383 1.66021 25.2343 2.03507 24.6304C2.09755 24.5471 2.1392 24.4638 2.20168 24.3596C2.65986 23.5683 2.55573 23.2767 1.70186 22.9226C1.43112 22.7977 1.16038 22.6936 0.889642 22.5478C-0.130834 21.9438 -0.297442 20.7151 0.514773 19.8612C1.91012 18.3617 3.30546 16.8831 4.70081 15.3836C5.20063 14.863 5.24228 14.6964 4.88824 14.0924C4.40924 13.2802 4.40924 12.468 4.67998 11.5725C5.38807 9.19829 6.70011 7.13651 8.19958 5.19969C9.9698 2.88799 12.4273 1.63843 15.1347 0.80539C16.9882 0.222261 18.9042 -0.0693037 20.841 0.0140005C25.1312 0.243087 29.2131 1.13861 32.7327 3.84599C34.8986 5.51208 36.2106 7.71964 36.8979 10.3229C37.7517 13.5718 37.8767 16.779 36.7937 20.0278C36.0232 22.3395 34.6278 24.2139 33.17 26.109C32.0454 27.5877 30.8791 29.0455 30.1294 30.7949C29.7545 31.6696 29.5463 32.5859 29.5463 33.5439C29.5463 34.2728 29.4838 35.0018 29.4838 35.7307C29.4838 36.5637 29.5046 37.3967 29.5671 38.209C29.6504 39.2919 29.0256 40 27.9218 40C25.2561 40 22.632 39.9792 19.9871 39.9792ZM24.1107 25.1719C24.194 25.0886 24.2981 25.0261 24.3814 24.9219C24.7146 24.5263 25.027 24.1097 25.3602 23.714C25.4435 23.6099 25.5685 23.485 25.6935 23.4641C26.9847 23.2142 27.2138 23.2975 28.2342 24.2555C28.9215 24.9011 28.9215 24.9011 29.7545 24.4429C29.9628 24.318 30.0669 24.2139 30.0253 23.9639C29.9628 23.5474 29.9836 23.1309 29.9003 22.7352C29.7962 22.277 30.0044 22.0063 30.2335 21.6314C30.7334 20.84 31.4206 20.7151 32.2537 20.7567C33.2117 20.7984 33.2117 20.7567 33.4824 19.8404C33.5657 19.5488 33.5032 19.3822 33.2741 19.2156C32.8576 18.924 32.4827 18.6117 32.0871 18.2784C31.9829 18.1951 31.8788 18.0494 31.858 17.9244C31.7122 16.4249 31.7122 16.4041 32.7535 15.3003C32.7951 15.2378 32.8576 15.1754 32.8993 15.1337C33.2325 14.9046 33.2533 14.6131 33.0242 14.3007C32.9617 14.1965 32.8993 14.0924 32.8576 13.9883C32.7327 13.6342 32.5036 13.5718 32.1704 13.6342C31.6705 13.7175 31.1707 13.7592 30.6709 13.8008C30.5459 13.8008 30.4001 13.78 30.3168 13.6967C29.2131 12.8012 29.2131 12.8012 29.1298 11.3642C29.1298 11.3434 29.1298 11.3017 29.1298 11.2809C29.0881 10.4687 29.0881 10.4687 28.2967 10.2188C28.2759 10.2188 28.2342 10.1979 28.2134 10.1771C27.9843 10.073 27.8177 10.1355 27.6511 10.3437C27.3387 10.7811 26.9847 11.1768 26.6515 11.5933C26.5681 11.6974 26.4224 11.7807 26.2974 11.8015C25.3186 11.9682 24.4647 11.8432 23.7775 10.9685C23.236 10.2812 23.1527 10.3645 22.3405 10.7811C22.1322 10.906 22.0072 11.0102 22.0489 11.3017C22.1322 11.8015 22.1739 12.3014 22.2155 12.8012C22.2363 12.9678 22.2155 13.1761 22.1322 13.301C21.8615 13.6551 21.5699 13.9883 21.2575 14.3007C21.1742 14.384 21.0076 14.4464 20.8618 14.4673C20.3203 14.4881 19.7997 14.5089 19.2582 14.5298C19.1541 14.5298 18.9666 14.5298 18.925 14.5922C18.7584 14.9463 18.6126 15.3211 18.5293 15.7168C18.5085 15.8418 18.7792 16.0084 18.925 16.1542C19.1749 16.3624 19.4248 16.5915 19.6956 16.7581C20.0913 17.0081 20.1329 17.3413 20.2162 17.7786C20.4245 18.695 20.0288 19.2573 19.404 19.8404C18.6543 20.5485 18.6751 20.5901 19.2582 21.4648C19.3207 21.569 19.5081 21.6523 19.6539 21.6523C20.1954 21.6106 20.7369 21.5481 21.2783 21.4857C21.6324 21.444 22.8195 22.4645 22.8403 22.8185C22.8611 23.36 22.8819 23.9223 22.9028 24.4638C22.9028 24.5887 22.9444 24.7553 23.0277 24.797C23.3818 24.9428 23.715 25.0469 24.1107 25.1719ZM12.7605 12.8637C13.0729 12.7179 13.4061 12.5721 13.7185 12.4263C13.8434 12.3638 14.01 12.3014 14.135 12.3638C14.6557 12.5721 15.2388 12.7179 15.3221 13.426C15.3221 13.5093 15.3846 13.5926 15.4054 13.6759C15.4887 13.9883 15.6137 14.1341 15.9885 14.1341C16.3426 14.1341 16.5508 14.0508 16.6341 13.6967C16.6966 13.4468 16.8007 13.1969 16.9049 12.947C16.9465 12.8637 16.9882 12.7387 17.0715 12.6971C17.613 12.5096 18.1336 12.1139 18.7167 12.5929C18.7792 12.6346 18.8625 12.6554 18.925 12.6971C19.1957 12.8637 19.4248 12.9261 19.6956 12.6346C19.9455 12.3638 20.0079 12.1556 19.8205 11.8224C19.6956 11.6141 19.5914 11.3642 19.5081 11.1351C19.4665 11.0518 19.4248 10.9268 19.4456 10.8435C19.6956 10.3437 19.758 9.65646 20.5286 9.61481C20.6119 9.61481 20.6952 9.55233 20.7785 9.5315C21.0909 9.4482 21.2575 9.28159 21.2575 8.90672C21.2575 8.53185 21.0909 8.38607 20.7785 8.28194C20.5286 8.21946 20.2995 8.11533 20.0704 8.03203C19.9663 7.99038 19.8413 7.9279 19.7997 7.82377C19.5706 7.30312 19.2582 6.76164 19.7372 6.19934C19.8205 6.11603 19.8205 5.97025 19.883 5.88694C20.0288 5.65786 19.9663 5.51208 19.7997 5.30381C19.5498 5.01225 19.2999 4.88729 18.925 5.13721C18.7376 5.26216 18.5085 5.34547 18.2794 5.42877C18.1753 5.47042 18.0295 5.5329 17.9462 5.49125C17.4255 5.26216 16.8007 5.13721 16.7174 4.38747C16.6966 4.22086 16.6133 4.07508 16.5508 3.9293C16.5092 3.84599 16.4259 3.76269 16.3634 3.72104C15.8636 3.57525 15.5928 3.70021 15.4262 4.20004C15.3429 4.42912 15.2804 4.63738 15.1763 4.86647C15.1347 4.9706 15.0722 5.09555 14.968 5.13721C14.4266 5.34547 13.9059 5.69951 13.3228 5.22051C13.2187 5.13721 13.0937 5.07473 12.9687 5.0539C12.8021 5.03308 12.5939 5.0539 12.4689 5.11638C12.1357 5.32464 11.9899 5.61621 12.2607 5.99108C12.4064 6.19934 12.4897 6.42842 12.5939 6.67833C12.6355 6.76164 12.6772 6.88659 12.6355 6.9699C12.3856 7.51138 12.2607 8.13616 11.4901 8.21946C11.3235 8.24029 11.1777 8.30277 11.0319 8.38607C10.9486 8.42772 10.8653 8.51103 10.8445 8.59433C10.6987 9.07333 10.8445 9.32324 11.3235 9.51068C11.5526 9.59398 11.8025 9.67728 12.0316 9.78141C12.1357 9.82307 12.2398 9.90637 12.2815 9.98967C12.5939 10.552 12.7605 11.1143 12.3023 11.6974C12.2398 11.7807 12.1982 11.8848 12.1774 11.9681C12.0524 12.2805 12.4689 12.8845 12.7605 12.8637Z" fill="#297B3D"/>
<path d="M26.0059 20.0903C24.6313 20.0903 23.5692 19.0073 23.5692 17.6328C23.5692 16.3 24.673 15.217 26.0059 15.1962C27.3387 15.1754 28.4633 16.3 28.4633 17.6537C28.4633 19.0282 27.3804 20.0903 26.0059 20.0903Z" fill="#297B3D"/>
<path d="M16.0302 10.552C15.1138 10.552 14.4058 9.84387 14.4058 8.92753C14.4058 8.03201 15.1555 7.3031 16.0718 7.32392C16.9465 7.34475 17.6754 8.07366 17.6754 8.94835C17.6963 9.84387 16.9465 10.552 16.0302 10.552Z" fill="#297B3D"/>
</svg>
