<svg width="30" height="36" viewBox="0 0 30 36" fill="none" xmlns="http://www.w3.org/2000/svg">
<path d="M28.9237 7.07627L22.1737 0.326269C22.0686 0.222002 21.944 0.139511 21.8069 0.0835262C21.6698 0.027541 21.5231 -0.000837201 21.375 1.88036e-05H3.375C2.47989 1.88036e-05 1.62145 0.355598 0.988515 0.988533C0.355579 1.62147 0 2.47991 0 3.37502V32.625C0 33.5201 0.355579 34.3786 0.988515 35.0115C1.62145 35.6444 2.47989 36 3.375 36H25.875C26.7701 36 27.6285 35.6444 28.2615 35.0115C28.8944 34.3786 29.25 33.5201 29.25 32.625V7.87502C29.2509 7.72696 29.2225 7.58019 29.1665 7.44312C29.1105 7.30606 29.028 7.18139 28.9237 7.07627ZM27 32.625C27 32.9234 26.8815 33.2095 26.6705 33.4205C26.4595 33.6315 26.1734 33.75 25.875 33.75H3.375C3.07663 33.75 2.79048 33.6315 2.5795 33.4205C2.36853 33.2095 2.25 32.9234 2.25 32.625V3.37502C2.25 3.07665 2.36853 2.7905 2.5795 2.57952C2.79048 2.36855 3.07663 2.25002 3.375 2.25002H20.25V6.75002C20.25 7.34676 20.4871 7.91905 20.909 8.34101C21.331 8.76297 21.9033 9.00002 22.5 9.00002H27V32.625Z" fill="#297B3D"/>
<path d="M18.4837 18L19.9125 16.5713L18.3263 14.985L16.875 16.3913C16.5232 16.1834 16.1447 16.0245 15.75 15.9188V13.5H13.5V15.9075C13.1053 16.0132 12.7268 16.1722 12.375 16.38L10.9462 14.9513L9.36 16.5375L10.7662 18C10.5584 18.3518 10.3994 18.7303 10.2937 19.125H7.875V21.375H10.2825C10.3882 21.7697 10.5472 22.1482 10.755 22.5L9.32625 23.9288L10.9125 25.515L12.375 24.1088C12.7268 24.3166 13.1053 24.4756 13.5 24.5813V27H15.75V24.5925C16.1447 24.4868 16.5232 24.3279 16.875 24.12L18.3037 25.5488L19.89 23.9625L18.4837 22.5C18.6916 22.1482 18.8506 21.7697 18.9562 21.375H21.375V19.125H18.9675C18.8583 18.7297 18.6955 18.3512 18.4837 18ZM14.625 22.5C14.18 22.5 13.745 22.3681 13.375 22.1208C13.005 21.8736 12.7166 21.5222 12.5463 21.1111C12.376 20.6999 12.3314 20.2475 12.4182 19.8111C12.505 19.3746 12.7193 18.9737 13.034 18.659C13.3487 18.3444 13.7496 18.1301 14.186 18.0432C14.6225 17.9564 15.0749 18.001 15.486 18.1713C15.8972 18.3416 16.2486 18.63 16.4958 19C16.743 19.37 16.875 19.805 16.875 20.25C16.875 20.8468 16.6379 21.419 16.216 21.841C15.794 22.263 15.2217 22.5 14.625 22.5Z" fill="#297B3D"/>
</svg>
