<svg width="44" height="39" viewBox="0 0 44 39" fill="none" xmlns="http://www.w3.org/2000/svg">
<path d="M27.751 11.5878C26.9844 11.2448 26.1976 10.922 25.4309 10.579C25.1686 10.458 25.0476 10.5185 24.866 10.7202C23.0704 12.7378 20.8511 13.5044 18.2283 12.8185C15.5854 12.1123 13.9512 10.3167 13.4871 7.59306C12.8617 4.00187 15.2827 0.672945 18.8538 0.0878624C22.8283 -0.577922 26.5204 2.62995 26.3791 6.665C26.359 7.45184 26.0967 8.23867 25.8949 9.00533C25.8344 9.22726 25.8142 9.36849 25.9958 9.55007C26.6011 10.1957 27.2063 10.8615 27.7914 11.5071C27.7712 11.5474 27.751 11.5676 27.751 11.5878ZM22.566 8.622C22.6669 8.19832 22.5862 8.03692 22.1625 8.0571C20.5888 8.07727 19.0353 8.0571 17.4617 8.07727C17.3204 8.07727 17.1792 8.09745 17.0178 8.11762C17.0178 8.31938 17.038 8.48078 17.038 8.64218C18.8941 8.622 20.7099 8.622 22.566 8.622ZM22.5862 4.50625C20.7099 4.50625 18.8941 4.50625 17.0582 4.50625C17.0582 4.708 17.0582 4.8694 17.0582 5.05098C18.9143 5.05098 20.7502 5.05098 22.5862 5.05098C22.5862 4.8694 22.5862 4.68783 22.5862 4.50625ZM22.5862 6.30185C20.7099 6.30185 18.8941 6.30185 17.0582 6.30185C17.0582 6.5036 17.0582 6.665 17.0582 6.84658C18.9143 6.84658 20.7502 6.84658 22.5862 6.84658C22.5862 6.64483 22.5862 6.48342 22.5862 6.30185Z" fill="#297B3D"/>
<path d="M30.5554 29.9068C29.8695 32.5094 29.2239 35.0515 28.5581 37.5936C28.3362 38.4409 27.7107 38.9655 26.9037 38.9856C26.1169 39.0058 25.4309 38.5216 25.2493 37.7348C25.1686 37.4523 25.1686 37.1093 25.2493 36.8269C26.016 33.8208 26.8028 30.8348 27.5897 27.8287C27.8318 26.9208 28.4572 26.477 29.4861 26.477C30.8782 26.477 32.2502 26.477 33.6423 26.477C33.8037 26.477 33.9449 26.477 34.187 26.477C33.9247 25.7305 33.723 25.0647 33.4607 24.4191C33.3194 24.0559 33.3194 23.834 33.6019 23.5314C34.3484 22.7446 35.0747 21.9174 35.801 21.1104C36.4063 20.4446 36.4063 19.577 35.8212 19.0323C35.2159 18.4674 34.3686 18.5279 33.7633 19.1937C32.694 20.3437 31.6449 21.5139 30.616 22.684C30.4142 22.906 30.2125 22.9665 29.93 23.0068C27.8721 23.1884 25.9353 22.6033 23.9783 22.1393C23.3125 21.9779 22.9695 21.3928 23.1108 20.8077C23.2722 20.2226 23.8572 19.8797 24.5029 20.0209C25.6125 20.263 26.7221 20.5454 27.8318 20.7875C28.0335 20.8279 28.2555 20.8481 28.437 20.9288C29.2239 21.2919 29.7484 21.0297 30.273 20.4042C30.7975 19.7586 31.4431 19.2139 31.9879 18.5884C32.7545 17.6806 34.0458 17.5595 35.0545 18.0034C35.7405 18.306 36.2449 18.7902 36.6484 19.4156C38.1212 21.6551 38.9685 24.1165 39.1703 26.7796C39.2712 28.0708 38.7869 29.1401 37.3545 29.584C36.7291 29.7857 36.0633 29.8866 35.4177 29.9068C33.7835 29.9471 32.1896 29.9068 30.5554 29.9068Z" fill="#297B3D"/>
<path d="M8.03983 20.8079C7.71703 20.4044 7.45475 20.0816 7.1723 19.7588C6.60739 19.093 5.7802 18.9921 5.15477 19.5167C4.54951 20.0009 4.46881 20.8886 5.01354 21.5544C6.12318 22.9465 7.253 24.3184 8.36264 25.7105C8.46351 25.8315 8.56439 25.9728 8.70562 26.1543C8.52404 26.1745 8.38281 26.1947 8.24158 26.2149C8.12053 26.4973 8.32229 26.4973 8.50386 26.4973C9.3714 26.4973 10.2591 26.4973 11.1266 26.4973C12.0749 26.4973 13.0231 26.4973 13.9714 26.4973C15.0205 26.5175 15.5854 26.9613 15.8477 27.9701C16.6143 30.8955 17.381 33.8209 18.1275 36.7464C18.4099 37.7955 17.9055 38.6832 16.8968 38.9455C15.9889 39.1876 15.081 38.6025 14.8187 37.6139C14.1529 35.0718 13.4872 32.5297 12.8214 29.9069C12.6801 29.9069 12.5187 29.9069 12.3775 29.9069C10.8442 29.9069 9.2907 29.8868 7.75738 29.9069C6.56704 29.9271 5.67932 29.4026 5.11442 28.3938C3.7425 25.9526 3.03636 23.35 3.11706 20.5456C3.15741 19.5167 3.56092 18.6693 4.40828 18.0439C5.49775 17.257 6.60739 17.4588 7.37405 18.5684C7.75738 19.1535 7.93895 19.6982 8.03983 20.8079Z" fill="#297B3D"/>
<path d="M2.00744 27.0017C2.18902 27.4859 2.35042 27.9499 2.532 28.4342C2.79428 29.1403 3.05655 29.8263 3.31883 30.5324C3.39953 30.7341 3.50041 30.7947 3.72234 30.7543C5.53811 30.4719 7.37406 30.4719 9.21001 30.5727C9.91615 30.6131 10.6425 30.7341 11.3486 30.835C11.51 30.8552 11.7521 31.0166 11.7521 31.0973C11.7521 31.2587 11.631 31.521 11.4898 31.5815C10.8846 31.8438 10.2793 32.0859 9.65387 32.2876C9.33106 32.3885 8.94773 32.3683 8.60476 32.449C8.30213 32.5297 8.01967 32.671 7.67669 32.792C7.67669 33.6394 7.67669 34.5271 7.69687 35.435C7.69687 35.5157 7.89862 35.6367 8.01967 35.6771C9.10914 36.0201 10.1986 36.363 11.2881 36.6858C11.5302 36.7665 11.7319 36.8271 11.6916 37.1499C11.6714 37.2306 11.7723 37.3516 11.8328 37.4323C12.1758 37.8157 12.196 38.2393 11.8731 38.5621C11.5705 38.8648 11.1065 38.8648 10.8039 38.5823C10.4811 38.2797 10.4811 37.8358 10.8039 37.4525C10.824 37.4122 10.8644 37.392 10.9249 37.3113C9.85562 36.9885 8.80651 36.6657 7.69687 36.3227C7.71704 36.8069 7.55564 37.2306 7.95915 37.6139C8.22143 37.8762 8.14072 38.3402 7.83809 38.6025C7.53546 38.885 7.09161 38.8648 6.80916 38.5823C6.5267 38.32 6.446 37.8358 6.70828 37.5937C7.11178 37.2306 6.97056 36.8069 6.97056 36.3227C5.88109 36.6657 4.8118 36.9885 3.72234 37.3113C3.80304 37.4122 3.86356 37.4727 3.92409 37.5534C4.18637 37.8964 4.12584 38.3604 3.82321 38.6227C3.52059 38.8849 3.07673 38.8648 2.79428 38.5823C2.49165 38.2797 2.49165 37.856 2.7741 37.513C2.83463 37.4323 2.97585 37.3516 2.95568 37.2911C2.89515 36.7262 3.33901 36.7262 3.66181 36.6253C4.67058 36.3025 5.67934 35.9999 6.6881 35.6771C6.80916 35.6367 6.97056 35.4955 6.97056 35.3946C6.99073 34.5069 6.99073 33.6192 6.99073 32.7315C5.90127 32.4692 4.85215 32.2069 3.80304 31.9245C3.25831 31.7833 2.91533 31.3999 2.71357 30.8552C1.86621 28.535 0.978501 26.2149 0.110964 23.8947C0.0100876 23.6123 -0.131139 23.3298 0.252191 23.1482C0.312717 23.1281 0.292542 22.9263 0.272366 22.8053C0.211841 22.1395 0.131139 21.4737 0.0504383 20.7877C0.0504383 20.707 0.0302631 20.6062 0.0706136 20.5456C0.191665 20.2833 0.332892 20.0211 0.474119 19.7588C0.675872 19.9404 0.93815 20.0816 1.0592 20.3035C2.02761 21.9579 2.67322 23.7737 3.25831 25.5894C3.46006 26.2351 3.60129 26.9008 3.72234 27.5666C3.76269 27.7482 3.68199 27.9298 3.64164 28.1315C3.43988 28.0912 3.19778 28.1315 3.05655 28.0105C2.71357 27.7078 2.37059 27.3447 2.00744 27.0017Z" fill="#297B3D"/>
<path d="M36.4265 32.7919C36.4265 33.6998 36.4265 34.6279 36.4265 35.5963C37.5361 35.9392 38.6458 36.2822 39.7756 36.6252C39.9168 36.6656 40.0782 36.7059 40.2194 36.7664C40.3001 36.7866 40.4212 36.8673 40.4212 36.8875C40.3808 37.2506 40.6431 37.4322 40.7844 37.6945C40.9659 38.0173 40.8449 38.4208 40.5422 38.6427C40.2396 38.8647 39.8563 38.8445 39.5738 38.5822C39.3116 38.3401 39.251 37.9164 39.4326 37.6138C39.4931 37.5129 39.594 37.412 39.6949 37.291C38.6256 36.9682 37.5563 36.6454 36.4467 36.3024C36.4668 36.7866 36.3054 37.1901 36.7089 37.5734C36.9914 37.8357 36.9107 38.3401 36.6081 38.6024C36.3054 38.8647 35.9019 38.8647 35.5993 38.6024C35.2967 38.3401 35.1958 37.8559 35.4783 37.5936C35.8818 37.2103 35.68 36.7866 35.7405 36.3226C34.6309 36.6656 33.5616 36.9884 32.6335 37.2708C32.6941 37.6541 32.8555 37.9971 32.7748 38.2998C32.7142 38.5217 32.3511 38.7638 32.1292 38.784C31.8871 38.8041 31.5844 38.5822 31.423 38.3805C31.2011 38.1383 31.302 37.8357 31.4835 37.5533C31.5844 37.3919 31.645 37.1901 31.7458 37.0287C31.8265 36.9077 31.9476 36.7866 32.0888 36.7463C33.1783 36.4033 34.2879 36.0401 35.3976 35.7375C35.6598 35.6568 35.7607 35.5357 35.7405 35.2735C35.7204 34.4463 35.7405 33.6191 35.7405 32.7516C34.7318 32.5094 33.7634 32.3279 32.7949 32.0454C32.4318 31.9445 32.0888 31.7428 31.8064 31.5007C31.4835 31.2384 31.5441 30.9358 31.9678 30.8752C33.0169 30.734 34.066 30.5524 35.1151 30.5524C36.7291 30.5323 38.3431 30.6331 40.0379 30.6735C40.4615 29.5235 40.9256 28.2928 41.4501 26.9209C41.1273 27.284 40.8852 27.5463 40.6229 27.7884C40.5019 27.9095 40.3607 28.0104 40.1993 28.0709C39.7756 28.2726 39.5335 28.1112 39.6344 27.6472C39.7958 26.8805 39.937 26.0937 40.2194 25.3472C40.8247 23.7332 41.4905 22.1595 42.1563 20.5859C42.2571 20.3438 42.4387 20.1218 42.6001 19.9201C42.8019 19.6376 43.0238 19.6981 43.165 19.9806C43.2659 20.1824 43.3668 20.4446 43.3466 20.6666C43.3063 21.3727 43.2256 22.0587 43.1449 22.7648C43.1247 22.9665 43.044 23.1078 43.2659 23.2692C43.3668 23.3499 43.387 23.6929 43.3063 23.8543C42.4589 26.1341 41.5712 28.4139 40.7642 30.7138C40.5019 31.4603 40.058 31.884 39.3317 32.0656C38.6861 32.227 38.0405 32.3279 37.3949 32.4691C37.0721 32.5296 36.7896 32.6708 36.4265 32.7919Z" fill="#297B3D"/>
<path d="M34.9536 14.251C34.9536 15.9457 33.622 17.3176 31.9071 17.358C30.2326 17.3781 28.8203 16.0062 28.8203 14.3115C28.8001 12.5966 30.1519 11.2045 31.8466 11.2045C33.5817 11.1641 34.9334 12.5159 34.9536 14.251Z" fill="#297B3D"/>
<path d="M5.61889 16.9544C3.92416 16.9544 2.55225 15.5623 2.55225 13.8675C2.57242 12.1728 3.94434 10.8009 5.63906 10.8009C7.35396 10.8009 8.72588 12.193 8.72588 13.9079C8.7057 15.6026 7.31361 16.9544 5.61889 16.9544Z" fill="#297B3D"/>
<path d="M27.973 25.5088C27.0248 25.5088 26.0766 25.5088 25.1283 25.5088C24.402 25.5088 23.9178 25.0649 23.9178 24.4395C23.8976 23.7939 24.4222 23.3299 25.1485 23.3299C26.7625 23.3299 28.3765 23.3299 29.9906 23.3299C30.3134 23.3299 30.5353 23.2491 30.7572 23.007C31.8265 21.7965 32.916 20.6062 33.9853 19.4158C34.2879 19.0729 34.6712 18.9115 35.1151 19.0325C35.5589 19.1536 35.8817 19.4562 35.9019 19.9202C35.9221 20.2229 35.8212 20.586 35.6396 20.8079C34.3484 22.2807 33.037 23.7334 31.6853 25.1658C31.4835 25.3676 31.1204 25.4886 30.8177 25.4886C29.8695 25.529 28.9213 25.5088 27.973 25.5088Z" fill="#297B3D"/>
<path d="M16.3721 28.6358C16.2713 28.2929 16.1906 27.97 16.0897 27.6472C15.8274 26.7595 15.1011 26.1946 14.173 26.1946C12.5994 26.1745 11.0459 26.1946 9.47219 26.1744C9.31079 26.1744 9.06869 26.0937 8.96781 25.9727C7.71694 24.4394 6.46607 22.9061 5.23538 21.3526C4.85205 20.8684 4.85205 20.2833 5.21521 19.8798C5.71959 19.335 6.4459 19.3754 6.97046 20.0008C7.73712 20.9289 8.4836 21.8771 9.23009 22.8052C9.67394 23.3499 10.1178 23.8745 10.5213 24.4192C10.7029 24.6613 10.8845 24.7218 11.1669 24.7017C12.5792 24.6613 13.9511 24.7622 15.3028 25.2464C16.1502 25.549 16.8967 26.0332 17.3405 26.8604C17.8046 27.7481 17.4212 28.4946 16.3721 28.6358Z" fill="#297B3D"/>
</svg>
