<svg width="18" height="17" viewBox="0 0 18 17" fill="none" xmlns="http://www.w3.org/2000/svg">
<path d="M4.32087 5.83245V16.8927H0.637835V5.83245H4.32087ZM4.55525 2.41727C4.56269 2.96043 4.37295 3.4143 3.98605 3.77888C3.60658 4.14346 3.10435 4.32575 2.47935 4.32575H2.45703C1.84691 4.32575 1.35584 4.14346 0.983817 3.77888C0.611793 3.4143 0.425781 2.96043 0.425781 2.41727C0.425781 1.86668 0.615513 1.41281 0.994978 1.05566C1.38188 0.691081 1.88411 0.508789 2.50167 0.508789C3.11923 0.508789 3.61403 0.691081 3.98605 1.05566C4.35807 1.41281 4.5478 1.86668 4.55525 2.41727ZM17.5686 10.5534V16.8927H13.8968V10.9775C13.8968 10.1963 13.7442 9.58617 13.4392 9.14718C13.1416 8.70075 12.6728 8.47754 12.0329 8.47754C11.5642 8.47754 11.1698 8.60775 10.8499 8.86816C10.5374 9.12114 10.303 9.43736 10.1468 9.81682C10.0649 10.04 10.024 10.3414 10.024 10.7208V16.8927H6.35212C6.367 13.924 6.37444 11.517 6.37444 9.67174C6.37444 7.8265 6.37072 6.72531 6.36328 6.36816L6.35212 5.83245H10.024V7.43959H10.0017C10.1505 7.2015 10.303 6.99316 10.4593 6.81459C10.6155 6.63602 10.8238 6.44257 11.0843 6.23424C11.3521 6.0259 11.6758 5.86593 12.0552 5.75432C12.4422 5.63528 12.87 5.57575 13.3387 5.57575C14.611 5.57575 15.6341 5.99986 16.4079 6.84807C17.1817 7.68885 17.5686 8.92397 17.5686 10.5534Z" fill="#297B3D"/>
</svg>
