<svg width="18" height="21" viewBox="0 0 18 21" fill="none" xmlns="http://www.w3.org/2000/svg">
<path d="M11.2628 14.7409V17.0958C11.2628 17.5943 11.1177 17.8435 10.8275 17.8435C10.6564 17.8435 10.489 17.7617 10.3253 17.598V14.2386C10.489 14.0749 10.6564 13.9931 10.8275 13.9931C11.1177 13.9931 11.2628 14.2424 11.2628 14.7409ZM15.0351 14.752V15.2654H14.0306V14.752C14.0306 14.2461 14.198 13.9931 14.5329 13.9931C14.8677 13.9931 15.0351 14.2461 15.0351 14.752ZM4.25384 12.319H5.44803V11.2699H1.96589V12.319H3.13777V18.6694H4.25384V12.319ZM7.46812 18.6694H8.46143V13.156H7.46812V17.3748C7.24491 17.6873 7.03285 17.8435 6.83196 17.8435C6.69803 17.8435 6.61991 17.7654 6.59759 17.6092C6.59015 17.5868 6.58643 17.4566 6.58643 17.2185V13.156H5.59312V17.5199C5.59312 17.8845 5.62288 18.156 5.68241 18.3346C5.77169 18.6099 5.98747 18.7476 6.32973 18.7476C6.68687 18.7476 7.06634 18.5206 7.46812 18.0668V18.6694ZM12.2561 17.0176V14.819C12.2561 14.2758 12.2226 13.9075 12.1556 13.7141C12.0291 13.2974 11.765 13.0891 11.3632 13.0891C10.9912 13.0891 10.6452 13.29 10.3253 13.6918V11.2699H9.33196V18.6694H10.3253V18.1337C10.6601 18.5429 11.0061 18.7476 11.3632 18.7476C11.765 18.7476 12.0291 18.5429 12.1556 18.1337C12.2226 17.9328 12.2561 17.5608 12.2561 17.0176ZM16.0284 16.906V16.761H15.0128C15.0128 17.1404 15.0053 17.3674 14.9904 17.4418C14.9384 17.7096 14.7896 17.8435 14.544 17.8435C14.2018 17.8435 14.0306 17.5868 14.0306 17.0735V16.1025H16.0284V14.9529C16.0284 14.3651 15.9279 13.9336 15.7271 13.6583C15.4369 13.2788 15.0425 13.0891 14.544 13.0891C14.0381 13.0891 13.64 13.2788 13.3498 13.6583C13.1415 13.9336 13.0373 14.3651 13.0373 14.9529V16.8837C13.0373 17.4715 13.1452 17.9031 13.361 18.1784C13.6512 18.5578 14.0529 18.7476 14.5663 18.7476C15.1021 18.7476 15.5038 18.5504 15.7717 18.156C15.9056 17.9551 15.9837 17.7543 16.0061 17.5534C16.021 17.4864 16.0284 17.2706 16.0284 16.906ZM9.24268 6.71631V4.37256C9.24268 3.85917 9.08271 3.60247 8.76276 3.60247C8.44282 3.60247 8.28285 3.85917 8.28285 4.37256V6.71631C8.28285 7.23714 8.44282 7.49756 8.76276 7.49756C9.08271 7.49756 9.24268 7.23714 9.24268 6.71631ZM17.2672 15.098C17.2672 16.8391 17.1705 18.1412 16.9771 19.0043C16.8729 19.4432 16.6571 19.8115 16.3297 20.1092C16.0023 20.4068 15.6229 20.5779 15.1913 20.6226C13.8223 20.7788 11.7576 20.8569 8.99714 20.8569C6.23672 20.8569 4.17199 20.7788 2.80294 20.6226C2.3714 20.5779 1.98821 20.4068 1.65339 20.1092C1.32601 19.8115 1.11396 19.4432 1.01723 19.0043C0.823777 18.1709 0.727051 16.8688 0.727051 15.098C0.727051 13.3569 0.823777 12.0549 1.01723 11.1918C1.1214 10.7528 1.33717 10.3845 1.66455 10.0868C1.99193 9.78923 2.37512 9.61437 2.8141 9.56229C4.17571 9.41348 6.23672 9.33908 8.99714 9.33908C11.7576 9.33908 13.8223 9.41348 15.1913 9.56229C15.6229 9.61437 16.0023 9.78923 16.3297 10.0868C16.6646 10.3845 16.8803 10.7528 16.9771 11.1918C17.1705 12.0251 17.2672 13.3272 17.2672 15.098ZM6.12884 0.856934H7.26723L5.91678 5.31006V8.33461H4.80071V5.31006C4.69654 4.75946 4.46961 3.97077 4.11991 2.94399C3.84461 2.17762 3.60279 1.48193 3.39446 0.856934H4.5775L5.36991 3.7922L6.12884 0.856934ZM10.2583 4.57345V6.52658C10.2583 7.12926 10.1541 7.56824 9.9458 7.84354C9.66306 8.22301 9.26872 8.41274 8.76276 8.41274C8.26425 8.41274 7.87363 8.22301 7.59089 7.84354C7.38256 7.5608 7.27839 7.12182 7.27839 6.52658V4.57345C7.27839 3.97821 7.38256 3.54295 7.59089 3.26765C7.87363 2.88818 8.26425 2.69845 8.76276 2.69845C9.26872 2.69845 9.66306 2.88818 9.9458 3.26765C10.1541 3.54295 10.2583 3.97821 10.2583 4.57345ZM13.9971 2.76542V8.33461H12.9815V7.72077C12.5872 8.18208 12.204 8.41274 11.832 8.41274C11.4897 8.41274 11.2702 8.27509 11.1735 7.99979C11.114 7.82122 11.0842 7.5422 11.0842 7.16274V2.76542H12.0998V6.8614C12.0998 7.10693 12.1035 7.23714 12.111 7.25202C12.1333 7.41571 12.2114 7.49756 12.3454 7.49756C12.5462 7.49756 12.7583 7.33759 12.9815 7.01765V2.76542H13.9971Z" fill="#F2BE1A"/>
</svg>
