<?xml version="1.0" encoding="utf-8"?>
<!-- Generator: Adobe Illustrator 26.0.0, SVG Export Plug-In . SVG Version: 6.00 Build 0)  -->
<svg version="1.1" id="Layer_1" xmlns="http://www.w3.org/2000/svg" xmlns:xlink="http://www.w3.org/1999/xlink" x="0px" y="0px"
	 viewBox="0 0 48 48" style="enable-background:new 0 0 48 48;" xml:space="preserve">
<style type="text/css">
	.st0{fill:#FFFFFF;}
	.st1{fill:#297B3D;}
</style>
<circle class="st0" cx="24" cy="24" r="24"/>
<path class="st1" d="M33.1,28.5c-0.8-0.9-3.2-2.5-4.8-2.5c-0.4,0-0.7,0.1-0.9,0.2c-0.8,0.5-1.4,0.9-1.7,0.9c-0.2,0-0.3-0.1-0.7-0.5
	L25,26.7c-1-0.9-1.3-1.1-1.7-1.6L23.2,25c-0.1-0.1-0.1-0.1-0.2-0.2c-0.4-0.4-0.6-0.6-1.5-1.7l0,0c-0.4-0.5-0.7-0.8-0.7-1
	c0-0.2,0.2-0.6,0.7-1.3c0.6-0.8,0.6-1.9,0.1-3.1c-0.5-0.9-1.2-1.8-1.8-2.6L19.6,15c-0.6-0.7-1.2-1-1.9-1c-0.8,0-1.5,0.4-1.8,0.7
	c0,0-0.1,0-0.1,0.1c-0.8,0.5-1.4,1.2-1.6,1.9c-0.3,1.1-0.5,2.4,1,5.3c1.3,2.5,2.6,4.1,4.5,6.1c1.8,1.9,2.6,2.5,4.5,3.8
	c2,1.5,4,2.3,5.3,2.3c1.3,0,2.3,0,3.7-1.7C34.6,30.6,34,29.5,33.1,28.5z"/>
</svg>
