<svg width="80" height="80" viewBox="0 0 80 80" fill="none" xmlns="http://www.w3.org/2000/svg">
<circle cx="40" cy="40" r="40" fill="#297B3D"/>
<g clip-path="url(#clip0_409_5)">
<path d="M41 24C37.8355 24 34.7421 24.9384 32.1109 26.6965C29.4797 28.4546 27.4289 30.9534 26.2179 33.8771C25.0069 36.8007 24.6901 40.0177 25.3074 43.1214C25.9248 46.2251 27.4487 49.0761 29.6863 51.3137C31.9239 53.5513 34.7749 55.0752 37.8786 55.6926C40.9823 56.3099 44.1993 55.9931 47.1229 54.7821C50.0466 53.5711 52.5454 51.5203 54.3035 48.8891C56.0616 46.2579 57 43.1645 57 40C56.9954 35.7579 55.3082 31.6909 52.3087 28.6914C49.3091 25.6918 45.2421 24.0046 41 24ZM41 53.3333C38.3629 53.3333 35.7851 52.5513 33.5924 51.0863C31.3997 49.6212 29.6908 47.5388 28.6816 45.1024C27.6724 42.6661 27.4084 39.9852 27.9229 37.3988C28.4373 34.8124 29.7072 32.4366 31.5719 30.5719C33.4366 28.7072 35.8124 27.4373 38.3988 26.9229C40.9852 26.4084 43.6661 26.6724 46.1025 27.6816C48.5388 28.6908 50.6212 30.3997 52.0863 32.5924C53.5514 34.7851 54.3333 37.3629 54.3333 40C54.3295 43.535 52.9235 46.9242 50.4238 49.4238C47.9242 51.9234 44.535 53.3294 41 53.3333Z" fill="white"/>
<path d="M42.3334 39.448V32C42.3334 31.6463 42.1929 31.3072 41.9429 31.0572C41.6928 30.8071 41.3537 30.6666 41.0001 30.6666C40.6465 30.6666 40.3073 30.8071 40.0573 31.0572C39.8072 31.3072 39.6667 31.6463 39.6667 32V40C39.6668 40.3536 39.8073 40.6926 40.0574 40.9426L44.0574 44.9426C44.3089 45.1855 44.6457 45.3199 44.9953 45.3169C45.3449 45.3138 45.6793 45.1736 45.9265 44.9264C46.1737 44.6792 46.3139 44.3448 46.317 43.9952C46.32 43.6456 46.1856 43.3088 45.9427 43.0573L42.3334 39.448Z" fill="white"/>
</g>
<defs>
<clipPath id="clip0_409_5">
<rect width="32" height="32" fill="white" transform="translate(25 24)"/>
</clipPath>
</defs>
</svg>
