<svg width="46" height="46" viewBox="0 0 46 46" fill="none" xmlns="http://www.w3.org/2000/svg">
<circle cx="23" cy="23" r="23" fill="#297B3D"/>
<path d="M22.6878 15.952C21.8771 15.952 21.1731 15.664 20.5758 15.088C19.9998 14.4907 19.7118 13.7867 19.7118 12.976C19.7118 12.1653 19.9998 11.472 20.5758 10.896C21.1731 10.2987 21.8771 10 22.6878 10C23.4984 10 24.1918 10.2987 24.7678 10.896C25.3651 11.472 25.6638 12.1653 25.6638 12.976C25.6638 13.7867 25.3651 14.4907 24.7678 15.088C24.1918 15.664 23.4984 15.952 22.6878 15.952ZM21.2158 34.48L19.5838 18.64L26.4318 17.584L24.3838 34.192L21.2158 34.48Z" fill="white"/>
</svg>
