<svg width="113" height="112" viewBox="0 0 113 112" fill="none" xmlns="http://www.w3.org/2000/svg">
<path d="M112.09 0H0V112H112.09V0Z" fill="url(#paint0_radial_7_537)"/>
<path d="M20.9889 87.4719H18.9057C18.6817 87.9871 18.3905 88.6815 18.2113 89.1743H17.3153L19.6225 83.3503H20.2497L22.5569 89.1743H21.6609L20.9889 87.4719ZM19.2193 86.7103H20.6529L19.9361 84.6719L19.2193 86.7103Z" fill="white"/>
<path d="M22.6688 87.4493V83.4397H23.4976V87.4717C23.4976 88.0989 24.1696 88.4125 24.7968 88.4125C25.4016 88.4125 26.0736 88.0989 26.0736 87.4493V83.4397H26.9024V87.4717C26.9024 88.6365 25.76 89.2413 24.7744 89.2413C23.7888 89.2413 22.6688 88.6141 22.6688 87.4493Z" fill="white"/>
<path d="M30.5313 84.9182C30.4193 84.403 29.8593 84.179 29.3665 84.179C28.9857 84.179 28.5601 84.3134 28.3137 84.6046C28.2017 84.7614 28.1569 84.9406 28.1793 85.1422C28.2241 85.7246 28.8737 85.8142 29.4785 85.859C30.2625 85.9486 31.2481 86.1726 31.4721 87.091C31.4945 87.203 31.5169 87.3598 31.5169 87.4718C31.5169 88.5918 30.4193 89.219 29.3889 89.219C28.4929 89.219 27.4177 88.7038 27.3281 87.6734V87.5166L28.1569 87.4942V87.6286V87.6062C28.2241 88.1438 28.8737 88.4126 29.3889 88.4126C30.0161 88.4126 30.6881 88.0766 30.6881 87.4718C30.6881 87.4046 30.6881 87.3598 30.6657 87.2702C30.5761 86.8446 29.9713 86.755 29.4113 86.7102C28.5153 86.6206 27.4625 86.419 27.3729 85.2318C27.3505 84.851 27.4401 84.4702 27.6865 84.1342C28.0673 83.6414 28.7617 83.3726 29.4337 83.3726C30.3297 83.3726 31.2481 83.843 31.3825 84.8734L30.5313 84.9182Z" fill="white"/>
<path d="M32.7041 89.1965V84.2013H30.9569V83.4397H35.2577V84.2013H33.5329V89.1965H32.7041Z" fill="white"/>
<path d="M36.781 86.2623H37.7442C38.4386 86.2623 38.797 85.7695 38.797 85.2543C38.797 84.7615 38.461 84.2687 37.7442 84.2687H36.4673V89.1743H35.6385V83.4175H37.7442C38.9986 83.4175 39.6258 84.3359 39.6258 85.2543C39.6258 86.0607 39.1329 86.8447 38.1473 87.0015L39.9618 89.1519H38.8865L36.781 86.6207V86.2623Z" fill="white"/>
<path d="M43.4338 87.4719H41.373C41.149 87.9871 40.8578 88.6815 40.6786 89.1743H39.7826L42.0898 83.3503H42.6946L45.0018 89.1743H44.1058L43.4338 87.4719ZM41.6866 86.7103H43.1202L42.4034 84.6719L41.6866 86.7103Z" fill="white"/>
<path d="M46.1441 88.3453H48.8545V89.1741H45.3153V83.4397H46.1441V88.3453Z" fill="white"/>
<path d="M52.1697 84.2463H51.0945V88.3455H52.1697V89.1743H49.2129V88.3455H50.2881V84.2463H49.2129V83.4175H52.1697V84.2463Z" fill="white"/>
<path d="M55.9553 87.4719H53.8945C53.6705 87.9871 53.3793 88.6815 53.2001 89.1743H52.3041L54.6113 83.3503H55.2161L57.5233 89.1743H56.6273L55.9553 87.4719ZM54.1857 86.7103H55.6193L54.9025 84.6719L54.1857 86.7103Z" fill="white"/>
<path d="M57.7921 89.1743V83.4175H58.4417L61.2417 87.4719V83.4175H62.0705V89.1743H61.4209L58.6433 85.1647V89.1743H57.7921Z" fill="white"/>
<path d="M66.3265 85.8589H68.7681V83.4397H69.5969V89.1741H68.7681V86.6877H66.3265V89.1741H65.4977V83.4397H66.3265V85.8589Z" fill="white"/>
<path d="M72.8449 84.2463H71.7697V88.3455H72.8449V89.1743H69.8881V88.3455H70.9633V84.2463H69.8881V83.4175H72.8449V84.2463Z" fill="white"/>
<path d="M77.5266 85.4782C77.3026 84.5598 76.4066 84.2238 75.6898 84.2238C74.5698 84.2238 73.6962 85.0974 73.6962 86.307C73.6962 87.5166 74.5698 88.4126 75.6898 88.4126C76.4066 88.4126 77.1458 88.0766 77.5042 87.2478H75.3538V86.419H78.445C78.4002 86.9118 78.3554 87.2254 78.2882 87.4046C77.885 88.5022 76.7202 89.219 75.6674 89.219C74.0546 89.219 72.845 88.0094 72.845 86.307C72.845 84.6046 74.077 83.395 75.6674 83.395C76.765 83.395 78.109 83.955 78.4002 85.4782H77.5266Z" fill="white"/>
<path d="M79.7217 85.8589H82.1633V83.4397H82.9921V89.1741H82.1633V86.6877H79.7217V89.1741H78.8929V83.4397H79.7217V85.8589Z" fill="white"/>
<path d="M84.3361 88.3453H87.0017V89.1741H83.4849V83.4397H87.0017V84.2685H84.3361V85.8813H86.9345V86.7101H84.3361V88.3453Z" fill="white"/>
<path d="M88.5025 86.2623H89.4657C90.1601 86.2623 90.5185 85.7695 90.5185 85.2543C90.5185 84.7615 90.1825 84.2687 89.4657 84.2687H88.1889V89.1743H87.3601V83.4175H89.4657C90.7201 83.4175 91.3473 84.3359 91.3473 85.2543C91.3473 86.0607 90.8545 86.8447 89.8689 87.0015L91.6833 89.1519H90.6081L88.5025 86.6207V86.2623Z" fill="white"/>
<path d="M13.7985 98.2015H16.4641V99.0303H12.9473V93.2959H16.4417V94.1247H13.7985V95.7375H16.3969V96.5663H13.7985V98.2015Z" fill="white"/>
<path d="M18.9056 93.2959C20.7872 93.2959 21.728 94.7295 21.728 96.1631C21.728 97.5967 20.7872 99.0303 18.9056 99.0303H16.8448V93.2959H18.9056ZM18.9056 98.2015C20.2272 98.2015 20.8992 97.1935 20.8992 96.1631C20.8992 95.1327 20.2272 94.1247 18.9056 94.1247H17.6736V98.2015H18.9056Z" fill="white"/>
<path d="M22.1985 97.3055V93.2959H23.0273V97.3279C23.0273 97.9551 23.6993 98.2687 24.3265 98.2687C24.9313 98.2687 25.6033 97.9551 25.6033 97.3055V93.2959H26.4321V97.3279C26.4321 98.4927 25.2897 99.0975 24.3041 99.0975C23.3185 99.0975 22.1985 98.4703 22.1985 97.3055Z" fill="white"/>
<path d="M27.4625 94.1019C27.9553 93.5867 28.6721 93.2507 29.4561 93.2507C30.7777 93.2507 31.8081 94.0795 32.1441 95.3787H31.3153C31.0017 94.5051 30.3073 94.0795 29.4561 94.0795C28.8961 94.0795 28.4033 94.3259 28.0449 94.7067C27.6865 95.0875 27.4625 95.6027 27.4625 96.1851C27.4625 96.7675 27.6865 97.2603 28.0449 97.6411C28.4033 98.0219 28.9185 98.2683 29.4561 98.2683C30.3297 98.2683 31.0689 97.7755 31.3601 96.9019H32.1665C31.8305 98.2011 30.7777 99.0971 29.4561 99.0971C28.6721 99.0971 27.9777 98.7611 27.4625 98.2459C26.9697 97.7307 26.6337 96.9915 26.6337 96.2075C26.6561 95.3563 26.9697 94.6395 27.4625 94.1019Z" fill="white"/>
<path d="M35.6608 97.3277H33.6C33.376 97.8429 33.0848 98.5373 32.9056 99.0301H32.0096L34.3168 93.2061H34.9216L37.2288 99.0301H36.3328L35.6608 97.3277ZM33.9136 96.5661H35.3472L34.6304 94.5277L33.9136 96.5661Z" fill="white"/>
<path d="M38.1025 99.0527V94.0575H36.3553V93.2959H40.6561V94.0575H38.9313V99.0527H38.1025Z" fill="white"/>
<path d="M43.9041 94.1022H42.8289V98.2014H43.9041V99.0302H40.9473V98.2014H42.0225V94.1022H40.9473V93.2734H43.9041V94.1022Z" fill="white"/>
<path d="M44.7329 94.0797C45.2481 93.5421 45.9873 93.2061 46.7937 93.2061C47.6001 93.2061 48.3393 93.5421 48.8769 94.0797C49.3921 94.6173 49.7281 95.3341 49.7281 96.1629C49.7281 96.9693 49.3921 97.7085 48.8769 98.2461C48.3393 98.7837 47.6225 99.1197 46.7937 99.1197C45.9873 99.1197 45.2481 98.7837 44.7329 98.2461C44.2177 97.7085 43.8817 96.9917 43.8817 96.1629C43.8817 95.3341 44.2177 94.6173 44.7329 94.0797ZM48.2721 94.6621C47.8913 94.2813 47.3537 94.0349 46.7937 94.0349C46.2337 94.0349 45.6961 94.2813 45.3153 94.6621C44.9345 95.0429 44.6881 95.5581 44.6881 96.1405C44.6881 96.7229 44.9345 97.2381 45.3153 97.6189C45.6961 97.9997 46.2113 98.2461 46.7937 98.2461C47.3537 98.2461 47.8913 97.9997 48.2721 97.6189C48.6305 97.2381 48.8769 96.7229 48.8769 96.1405C48.8993 95.5581 48.6529 95.0429 48.2721 94.6621Z" fill="white"/>
<path d="M50.2433 99.0302V93.2734H50.8929L53.6929 97.3278V93.2734H54.5217V99.0302H53.8497L51.0721 95.0206V99.0302H50.2433Z" fill="white"/>
<path d="M61.1074 94.7744C60.9954 94.2592 60.4354 94.0352 59.9426 94.0352C59.5618 94.0352 59.1362 94.1696 58.8898 94.4608C58.7778 94.6176 58.733 94.7968 58.7554 94.9984C58.8002 95.5808 59.4498 95.6704 60.0546 95.7152C60.8386 95.8048 61.8242 96.0288 62.0482 96.9472C62.0706 97.0592 62.093 97.216 62.093 97.328C62.093 98.448 60.9954 99.0752 59.965 99.0752C59.069 99.0752 57.9938 98.56 57.9042 97.5296V97.3728L58.733 97.3504V97.4848V97.4624C58.8002 98 59.4498 98.2688 59.965 98.2688C60.5922 98.2688 61.2642 97.9328 61.2642 97.328C61.2642 97.2608 61.2642 97.216 61.2418 97.1264C61.1522 96.7008 60.5474 96.6112 59.9874 96.5664C59.0914 96.4768 58.0386 96.2752 57.949 95.088C57.9266 94.7072 58.0162 94.3264 58.2626 93.9904C58.6434 93.4976 59.3378 93.2288 60.0098 93.2288C60.9058 93.2288 61.8242 93.6992 61.9586 94.7296L61.1074 94.7744Z" fill="white"/>
<path d="M63.1458 94.0797C63.661 93.5421 64.4002 93.2061 65.2066 93.2061C66.013 93.2061 66.7522 93.5421 67.2898 94.0797C67.805 94.6173 68.141 95.3341 68.141 96.1629C68.141 96.9693 67.805 97.7085 67.2898 98.2461C66.7522 98.7837 66.0354 99.1197 65.2066 99.1197C64.4002 99.1197 63.661 98.7837 63.1458 98.2461C62.6306 97.7085 62.2946 96.9917 62.2946 96.1629C62.2946 95.3341 62.6306 94.6173 63.1458 94.0797ZM66.7074 94.6621C66.3266 94.2813 65.789 94.0349 65.229 94.0349C64.669 94.0349 64.1314 94.2813 63.7506 94.6621C63.3698 95.0429 63.1234 95.5581 63.1234 96.1405C63.1234 96.7229 63.3698 97.2381 63.7506 97.6189C64.1314 97.9997 64.6466 98.2461 65.229 98.2461C65.789 98.2461 66.3266 97.9997 66.7074 97.6189C67.0658 97.2381 67.3122 96.7229 67.3122 96.1405C67.3122 95.5581 67.0658 95.0429 66.7074 94.6621Z" fill="white"/>
<path d="M69.5296 98.2015H72.24V99.0303H68.7008V93.2959H69.5296V98.2015Z" fill="white"/>
<path d="M72.4417 97.3055V93.2959H73.2705V97.3279C73.2705 97.9551 73.9425 98.2687 74.5697 98.2687C75.1745 98.2687 75.8465 97.9551 75.8465 97.3055V93.2959H76.6752V97.3279C76.6752 98.4927 75.5328 99.0975 74.5472 99.0975C73.5392 99.0975 72.4417 98.4703 72.4417 97.3055Z" fill="white"/>
<path d="M78.0193 99.0527V94.0575H76.2721V93.2959H80.5729V94.0575H78.8481V99.0527H78.0193Z" fill="white"/>
<path d="M83.8433 94.1022H82.7681V98.2014H83.8433V99.0302H80.8865V98.2014H81.9617V94.1022H80.8865V93.2734H83.8433V94.1022Z" fill="white"/>
<path d="M84.6497 94.0797C85.1649 93.5421 85.9041 93.2061 86.7105 93.2061C87.5169 93.2061 88.2561 93.5421 88.7937 94.0797C89.3089 94.6173 89.6449 95.3341 89.6449 96.1629C89.6449 96.9693 89.3089 97.7085 88.7937 98.2461C88.2561 98.7837 87.5393 99.1197 86.7105 99.1197C85.9041 99.1197 85.1649 98.7837 84.6497 98.2461C84.1345 97.7085 83.7985 96.9917 83.7985 96.1629C83.7985 95.3341 84.1345 94.6173 84.6497 94.0797ZM88.2113 94.6621C87.8305 94.2813 87.2929 94.0349 86.7329 94.0349C86.1729 94.0349 85.6353 94.2813 85.2545 94.6621C84.8737 95.0429 84.6273 95.5581 84.6273 96.1405C84.6273 96.7229 84.8737 97.2381 85.2545 97.6189C85.6353 97.9997 86.1505 98.2461 86.7329 98.2461C87.2929 98.2461 87.8305 97.9997 88.2113 97.6189C88.5697 97.2381 88.8161 96.7229 88.8161 96.1405C88.8161 95.5581 88.5697 95.0429 88.2113 94.6621Z" fill="white"/>
<path d="M90.1602 99.0302V93.2734H90.8098L93.6098 97.3278V93.2734H94.4386V99.0302H93.789L91.0114 95.0206V99.0302H90.1602Z" fill="white"/>
<path d="M98.0449 94.7744C97.9329 94.2592 97.3729 94.0352 96.8801 94.0352C96.4993 94.0352 96.0737 94.1696 95.8273 94.4608C95.7153 94.6176 95.6705 94.7968 95.6929 94.9984C95.7377 95.5808 96.3873 95.6704 96.9921 95.7152C97.7761 95.8048 98.7617 96.0288 98.9857 96.9472C99.0081 97.0592 99.0305 97.216 99.0305 97.328C99.0305 98.448 97.9329 99.0752 96.9025 99.0752C96.0065 99.0752 94.9313 98.56 94.8417 97.5296V97.3728L95.6705 97.3504V97.4848V97.4624C95.7377 98 96.3873 98.2688 96.9025 98.2688C97.5297 98.2688 98.2017 97.9328 98.2017 97.328C98.2017 97.2608 98.2017 97.216 98.1793 97.1264C98.0897 96.7008 97.4849 96.6112 96.9249 96.5664C96.0289 96.4768 94.9761 96.2752 94.8865 95.088C94.8641 94.7072 94.9537 94.3264 95.2001 93.9904C95.5809 93.4976 96.2753 93.2288 96.9473 93.2288C97.8433 93.2288 98.7617 93.6992 98.8961 94.7296L98.0449 94.7744Z" fill="white"/>
<path d="M73.0239 69.7984C72.7999 69.5744 72.5311 69.5744 72.2623 69.7088C72.0607 69.7984 71.8367 69.9104 71.6575 70.0224C71.1423 70.3584 70.6943 70.336 70.2015 69.9552C69.7087 69.5968 69.1711 69.2832 68.6335 68.992C68.1631 68.7456 68.1631 68.7904 67.7151 69.0592C67.5807 68.5216 67.1327 68.3424 66.6623 68.1632C66.4383 68.0736 66.2367 67.872 66.1247 67.6704C65.8335 67.2 65.6095 66.7072 65.3855 66.2144C65.3407 66.1248 65.3407 65.9232 65.4079 65.8784C65.8111 65.5424 65.6767 65.1168 65.5199 64.8032C65.2511 64.2432 64.8479 63.7504 64.4671 63.2352C64.3103 63.0112 64.0639 62.9664 63.7727 63.0336C63.5487 63.1008 63.3023 63.056 63.0335 63.056C63.9519 62.0928 63.9743 61.04 63.0783 60.1888C62.9439 60.5248 62.7871 60.816 62.6975 61.1296C62.5407 61.7792 62.1823 62.1152 61.4879 62.0928C61.3535 62.0928 61.2415 62.1152 61.0847 62.1376C61.1295 61.7792 61.3087 61.5776 61.6895 61.6448C61.9807 61.712 62.0479 61.5552 62.0703 61.3312C62.1375 60.9056 62.1823 60.5024 62.2943 60.0768C62.3391 59.8752 62.4511 59.696 62.5855 59.5392C62.8095 59.2704 63.0559 59.0016 63.0111 58.6208C63.0111 58.5536 63.0335 58.464 63.0783 58.4416C63.6607 58.128 63.1455 57.7472 63.2127 57.4112C63.1679 57.3888 63.1007 57.3664 63.0559 57.344C62.6527 57.8592 62.2719 58.3744 61.8687 58.8672C61.8015 58.9568 61.6895 59.0464 61.5775 59.1136C61.4207 59.2032 61.2415 59.2928 61.0847 59.3824C59.9423 59.9648 59.7631 60.1888 59.5391 61.3536C59.3375 61.3536 59.1583 61.376 58.9119 61.3984C58.7775 61.1744 58.5983 60.8832 58.4191 60.6144C58.4863 60.5248 58.6431 60.4352 58.6207 60.3456C58.5759 59.8752 58.4415 59.4272 58.0831 59.0464C57.9487 58.8896 57.8367 58.6656 57.8143 58.4864C57.7471 58.1056 57.6575 57.8368 57.1871 57.8816C57.0527 57.8816 56.8511 57.792 56.8063 57.68C56.7391 57.5008 56.6719 57.232 56.7615 57.0752C56.9407 56.7392 56.9407 56.6272 56.5599 56.5376C56.5151 56.5152 56.4479 56.5152 56.4031 56.5152C56.2463 55.9776 55.9551 55.9776 55.4847 55.7984C54.7007 55.5072 53.8271 55.5744 53.0879 55.1264C52.9087 55.0144 52.7295 54.88 52.5503 54.768C52.1471 54.5216 51.7439 54.4096 51.2287 54.4992C50.7583 54.5888 50.2879 54.544 49.7951 54.5216C48.8543 54.4992 47.9807 54.7008 47.1071 55.0816C46.1215 55.5296 45.1135 55.8656 44.0159 55.9552C43.9487 55.9552 43.9039 55.9776 43.8367 55.9552C43.0751 55.7536 42.4927 56.1568 41.8879 56.5152C41.3279 56.8288 40.7231 57.0528 40.1631 57.3664C39.9167 57.5008 39.6927 57.7248 39.5359 57.9712C39.3791 58.1952 39.3343 58.464 39.2223 58.7104C38.9983 59.2032 38.3263 59.4944 37.7887 59.36C37.5199 59.2928 36.6239 59.4496 36.4671 59.5616C36.2431 59.5168 36.0863 59.4496 35.9295 59.4272C35.7055 59.4048 35.4591 59.4048 35.2351 59.4272C34.7423 59.4944 34.2495 59.5616 33.7567 59.6512C33.5775 59.6736 33.3983 59.7408 33.1967 59.7632C32.4575 59.808 32.1887 60.032 31.9423 60.704C31.8975 60.816 31.6511 60.928 31.4943 60.928C31.1583 60.9056 30.8895 60.928 30.7551 61.2864C30.7103 61.3984 30.5535 61.4432 30.4639 61.5328C30.3743 61.6448 30.3071 61.8016 30.2175 61.9136C30.1727 61.9808 30.1279 62.0704 30.0607 62.1152C29.6351 62.3168 29.2095 62.496 28.6943 62.384C28.5151 62.3392 28.2911 62.4288 28.0895 62.4288C27.1935 62.496 26.4095 62.272 25.7151 61.7344C25.4911 61.5552 25.1551 61.4432 24.8639 61.4432C24.5951 61.4432 24.4607 61.3536 24.4159 61.152C24.3263 60.7936 24.3039 60.4128 24.2367 60.0544C24.9759 59.9872 25.3567 59.472 25.2223 58.8448C25.1551 58.4864 25.2223 58.1056 25.1327 57.7472C24.9759 57.0976 25.1103 56.4032 24.6623 55.7984C24.1247 55.0592 23.4975 54.32 23.2735 53.4016C23.1615 52.9312 23.0719 52.4384 22.9823 51.968C22.9599 51.8336 22.9375 51.6768 22.8703 51.5648C22.4671 50.96 22.0639 50.3104 21.5935 49.7504C21.3247 49.4144 21.0783 49.1232 21.0335 48.6528C20.9439 47.824 20.2943 47.2864 19.7791 46.704C19.3311 46.1888 18.9055 45.6736 18.5023 45.136C18.4127 45.024 18.3903 44.8896 18.4351 44.7104C18.5023 44.8672 18.5919 45.0016 18.6591 45.136C18.7711 45.3376 18.8159 45.6064 19.1743 45.5392C19.2415 45.5392 19.3535 45.696 19.3983 45.808C19.5551 46.0768 19.6895 46.3456 19.8463 46.6144C20.3391 46.3008 20.3391 46.0992 19.9359 45.7632C19.3535 45.2704 19.2639 45.0912 19.4431 44.5536C19.6223 44.912 19.7791 45.2704 19.9807 45.6512C20.0479 45.6288 20.1375 45.5616 20.2271 45.5168C20.3615 45.7184 20.5183 45.8976 20.7199 46.1888C20.9215 45.5616 20.8991 45.1136 20.5631 44.6656C20.0255 43.904 19.4431 43.1648 18.9951 42.3584C18.7039 41.8432 18.8383 41.2384 19.1071 40.7008C19.3983 40.0736 19.4431 39.4464 19.1295 38.8192C19.1071 38.7744 19.0847 38.752 19.0847 38.7072C19.1071 38.1024 19.2863 37.52 19.6223 36.9152C19.7343 37.408 19.8015 37.7888 19.8911 38.192C19.9359 38.192 19.9807 38.2144 20.0255 38.2144C20.1375 38.0576 20.2719 37.9232 20.3167 37.7664C20.6303 36.9376 21.2799 36.4672 22.0415 36.0864C22.2655 35.9744 22.4447 35.8176 22.6239 35.6608C23.1615 35.2128 23.6543 34.6976 24.2591 34.3616C24.6175 34.16 25.1775 34.1824 25.6255 34.2048C25.9391 34.2272 26.5215 34.1376 26.7231 33.9136C26.8799 33.7344 27.1039 33.5776 27.3055 33.5104C27.8431 33.3312 28.4255 33.264 28.8287 32.7712C28.9407 32.6368 29.2095 32.6144 29.4111 32.592C29.7247 32.5472 30.0607 32.6592 30.3295 32.5472C31.1135 32.256 31.9199 31.9424 32.6591 31.5616C33.1743 31.2928 33.4431 30.7776 33.6671 30.24C33.8239 29.8816 34.1151 29.568 34.3839 29.2768C34.5631 29.0976 34.8095 28.9856 35.0111 28.8288C35.2575 28.6496 35.1903 28.448 34.9663 28.2688C34.9215 28.224 34.8095 28.224 34.7871 28.1792C34.4735 27.664 34.7423 26.7456 35.2351 26.3872C35.4591 26.208 35.6607 25.984 35.7951 25.7376C36.0415 25.3344 36.1759 25.2 36.5343 25.2224C36.3999 25.3568 36.2879 25.4912 36.2207 25.5808C36.4895 26.0064 36.7135 26.4096 36.9599 26.8128C37.0495 26.9472 37.2287 27.0144 37.3631 27.1264C37.4079 26.992 37.4527 26.8352 37.5199 26.7008C37.5871 26.5664 37.6991 26.4544 37.8335 26.2752C37.6319 26.0512 37.3631 25.7824 37.0719 25.4912C37.1615 25.3568 37.2511 25.2224 37.3407 25.0656C37.2063 24.9536 37.0719 24.864 36.9375 24.7744C36.9599 24.7296 36.9599 24.6848 36.9823 24.6624C37.5871 24.7968 38.1919 24.9312 38.8415 25.0656C38.9983 24.8864 39.1999 24.6624 39.4687 24.3488C39.2223 24.304 39.1103 24.2816 38.9983 24.2816C38.9983 23.8336 38.9983 23.408 38.9983 22.96C39.6031 23.2512 39.8495 23.072 39.8495 22.4C40.0287 22.4448 40.1855 22.512 40.4543 22.5792C40.4095 22.2208 40.3647 21.9296 40.3199 21.6384C40.8575 21.7056 41.1711 21.4144 41.3503 20.8992C41.5295 21.1456 41.6639 21.3248 41.8207 21.5488C42.0447 21.3024 41.7759 20.832 42.2911 20.8992C42.2015 20.6976 42.1343 20.5408 42.0671 20.4064C42.1119 20.384 42.1567 20.3616 42.2239 20.3392C42.2911 20.4736 42.3359 20.608 42.4255 20.7648C42.5823 20.6976 42.7391 20.6528 42.8959 20.5856C43.0079 20.6528 43.0975 20.7424 43.2767 20.8768C43.3439 20.6752 43.3887 20.5408 43.4335 20.384C43.5231 20.0704 43.7023 20.0032 43.9935 20.1376C44.2175 20.2496 44.4863 20.2944 44.6879 20.4288C44.9791 20.6304 45.2479 20.8992 45.5167 21.1456C45.7631 21.3696 45.9647 21.6384 46.1887 21.8848C46.2111 21.8624 46.2559 21.84 46.2783 21.8176C46.2335 22.0192 46.1887 22.1984 46.1215 22.4C46.2111 22.4 46.2559 22.4224 46.2559 22.4224C46.7935 21.8848 47.3983 21.9744 48.0479 22.2208C48.2271 22.288 48.4511 22.176 48.6751 22.1312C48.8543 22.1088 49.0111 22.064 49.2351 22.0192C49.3247 21.6384 49.0335 21.4144 48.6751 21.2352C48.7423 20.8992 48.7647 20.5856 49.1903 20.4736C49.3023 20.4512 49.4143 20.272 49.4591 20.1376C49.5487 19.7568 49.6383 19.4208 50.1087 19.3088C50.2207 19.2864 50.2879 19.152 50.4447 19.04C50.2655 18.928 50.1311 18.8608 49.9743 18.7712C49.9743 18.7264 49.9743 18.6816 49.9967 18.6592C50.3327 18.2784 50.6687 17.92 51.0047 17.5392C51.0495 17.4944 51.1615 17.4272 51.2287 17.4496C51.7439 17.584 51.9007 17.2704 51.9903 16.8896C52.8863 17.024 53.7599 17.2928 54.6783 16.9568C55.1039 16.8 55.1935 16.352 54.9919 15.9488C54.7679 15.5008 54.5439 15.3888 54.0735 15.568C53.9615 15.6128 53.7375 15.3888 53.5359 15.2768C53.9167 14.6944 54.6559 15.3664 55.0367 14.7392C55.0591 14.9632 55.1039 15.12 55.1039 15.2768C55.1263 15.7024 55.1711 15.7248 55.5519 15.5008C55.5967 15.4784 55.6639 15.456 55.7087 15.4336C56.0223 15.568 56.0895 16.1728 56.6271 15.904C56.6719 15.9936 56.7391 16.1728 56.7615 16.1728C57.4335 16.0608 57.8591 16.6432 58.4639 16.7104C59.0015 16.7776 59.5615 16.6432 60.0991 17.024C60.2783 17.1584 60.7487 16.8896 61.0847 16.7776C61.1967 16.7328 61.3087 16.6208 61.4207 16.5312C61.4431 16.5536 61.4879 16.576 61.5103 16.5984C61.3759 16.7552 61.2415 16.9344 61.1071 17.0912C61.1071 17.136 61.1295 17.1584 61.1295 17.2032C61.3311 17.1808 61.5327 17.136 61.7791 17.0912C61.7791 17.2704 61.8015 17.4496 61.8015 17.6064C62.3391 17.6288 62.4735 17.4272 62.3391 17.0016C62.2943 16.8448 62.5407 16.6432 62.6527 16.4416C62.6975 16.464 62.7423 16.4864 62.7871 16.5088C62.8319 16.6432 62.8543 16.8 62.9215 16.9344C62.9887 17.024 63.1007 17.0688 63.2127 17.1136C63.3695 17.1808 63.5263 17.2256 63.6831 17.3376C63.1455 17.696 62.9215 18.1216 62.9663 18.6816C62.9663 18.7712 62.7871 18.928 62.6527 18.9952C62.3391 19.1296 62.0255 19.2192 61.7119 19.3312C61.3983 19.4656 61.3087 19.7344 61.4879 20.0032C61.7343 20.3616 61.6447 20.7872 61.3087 21.0784C61.0623 21.3024 60.8383 21.5264 60.6591 21.7952C60.4575 22.1088 60.5695 22.4 60.8831 22.6464C61.2639 22.9152 61.6447 23.2288 62.0255 23.4976C62.2047 23.632 62.3615 23.7888 62.5631 23.8336C62.8991 23.9232 63.2575 23.9232 63.6607 23.968C63.6383 23.9232 63.6383 23.9456 63.6383 23.9456C63.4815 24.5504 63.9743 24.64 64.3551 24.864C64.7359 25.088 65.1167 25.312 65.4079 25.6256C65.8559 26.096 66.4383 26.208 66.9983 26.4096C67.3567 26.5216 67.6031 26.6784 67.6927 27.0592C67.7375 27.216 67.8495 27.3728 67.9839 27.44C68.4543 27.7312 68.9023 28 69.3951 28.2464C69.8207 28.448 70.6943 28.0448 71.0303 27.5296C71.3215 27.0816 71.6127 26.6336 71.8367 26.1632C72.0159 25.8048 72.1055 25.4016 72.2399 25.0208C72.3519 24.64 72.4415 24.2592 72.5535 23.9008C72.7103 23.4528 72.8447 23.0496 72.7775 22.5568C72.6879 21.952 72.7103 21.3472 72.6655 20.7424C72.6655 20.6976 72.6431 20.608 72.6655 20.5856C73.0687 19.936 72.8447 19.0848 73.3823 18.48C73.4271 18.4352 73.4271 18.368 73.4719 18.2784C73.3375 18.2112 73.2255 18.1664 73.1135 18.1216C73.1135 18.0768 73.0911 18.032 73.1135 17.9872C73.3375 17.5616 73.6063 17.1584 73.8079 16.7328C73.9871 16.3072 74.0991 15.8592 74.2335 15.4336C74.2559 15.344 74.2559 15.2096 74.3231 15.1648C74.5695 15.008 74.8383 14.8512 75.0623 14.7168C75.1519 14.8736 75.2415 15.008 75.3087 15.1648C75.3983 15.4336 75.5551 15.7024 75.5551 15.9936C75.5775 16.5536 75.6223 17.0464 76.2943 17.2032C75.9583 17.808 75.9583 17.808 76.4511 18.256C76.6079 18.3904 76.6975 18.5024 76.5855 18.7264C76.5407 18.816 76.6303 18.9504 76.6975 19.0848C76.7199 19.1296 76.8095 19.1744 76.8095 19.2192C76.8319 19.6896 76.7647 20.16 76.8543 20.6304C76.9439 21.1456 77.0783 21.6608 77.3023 22.1312C77.4591 22.4672 77.6607 22.4 78.0639 21.9968C78.3327 21.9744 78.5119 21.952 78.7583 21.9296C78.7135 22.624 79.3407 22.8032 79.8111 23.0944C80.1695 23.3184 80.3487 23.5872 80.1919 23.9456C79.9903 24.3936 80.1695 24.8192 80.2143 25.2672C80.2591 25.6256 80.4159 25.9392 80.2367 26.3424C80.1471 26.5216 80.5279 26.9024 80.7071 27.1712C80.7967 27.3056 80.9759 27.3728 81.0655 27.4624C81.0655 28.4032 81.7599 29.344 80.9759 30.3072C81.2223 30.3072 81.3791 30.3072 81.6031 30.3072C81.5807 30.5984 81.5359 30.8448 81.5583 31.0912C81.5807 31.36 81.5807 31.7408 81.7599 31.8528C82.1407 32.0992 82.4095 32.48 82.9471 32.592C83.4399 32.704 84.1119 32.928 83.9327 33.7568C84.1343 33.6672 84.2463 33.6448 84.3583 33.5776C84.4031 33.824 84.4255 34.0256 84.7839 34.0032C84.9407 34.0032 85.1199 34.3168 85.2991 34.5408C85.3663 34.496 85.4783 34.4288 85.5679 34.384C85.8367 34.5856 86.1055 34.7872 86.3967 34.9664C86.4191 34.9888 86.4863 34.9216 86.5311 34.8768C86.5535 35.0336 86.5983 35.1904 86.6431 35.3472C86.5311 35.3024 86.4191 35.1904 86.3071 35.1904C85.8591 35.1904 85.7471 35.3696 85.9711 35.7728C86.0607 35.9296 86.1727 36.1088 86.3071 36.1984C86.5983 36.3776 86.7327 36.6464 86.7551 36.96C86.8223 37.5648 87.0911 38.1472 87.0239 38.7744C87.0015 38.9536 87.1359 39.1776 87.2703 39.3344C87.3375 39.4464 87.5391 39.4912 87.6735 39.5136C87.7183 39.5136 87.7855 39.3344 87.8303 39.2224C87.8751 39.1328 87.8975 39.0432 87.9199 38.976C88.2559 39.312 88.5695 39.648 88.8831 39.9616C88.9279 39.9392 88.9727 39.9392 89.0175 39.9168C89.0175 39.7376 89.0175 39.5808 89.0175 39.4016C89.3983 39.76 89.3759 40.208 89.3311 40.656C89.2863 41.0592 89.2639 41.4848 89.2639 41.888C89.2639 41.9552 89.4655 42.112 89.5103 42.112C89.8687 41.9776 89.9583 42.1792 89.9807 42.448C90.0031 42.5824 89.9807 42.7392 90.0255 42.8512C90.0703 42.9856 90.1599 43.1872 90.2719 43.232C90.6303 43.3664 90.7647 43.6128 90.9439 43.904C91.1455 44.24 91.3919 44.5312 91.6159 44.8672C91.7503 45.0688 91.8847 45.2704 91.9071 45.4944C91.9967 46.032 92.3999 46.2784 92.7807 46.5696C93.0047 46.1664 93.2063 45.808 93.4079 45.4496C93.4527 45.4496 93.4751 45.4496 93.5199 45.472C93.4527 45.7408 93.4303 46.0544 93.2959 46.2784C93.0047 46.7488 92.6239 47.152 92.7583 47.8016C92.8031 48.048 92.5343 48.3616 92.4671 48.6528C92.3999 48.9888 92.4223 49.3248 92.3551 49.6608C92.3327 49.8176 92.2207 49.952 92.1535 50.1088C91.9519 50.4448 92.1535 50.7136 92.3327 50.9824C92.3999 51.072 92.5343 51.1168 92.6463 51.184C92.6911 51.1616 92.7135 51.1168 92.7583 51.0944C92.7135 51.2288 92.6687 51.3856 92.6239 51.52C92.4895 51.856 92.4671 52.1472 92.5119 52.528C92.5791 53.0432 92.5343 53.6032 92.1535 54.0736C91.8623 54.4544 91.6607 54.9248 91.4367 55.3504C91.4143 55.4176 91.3919 55.4848 91.3695 55.552C90.9887 56.448 90.4735 57.2768 90.2047 58.24C90.0927 58.6656 89.7119 59.0464 89.4431 59.4496C89.2191 59.808 89.0399 60.1888 88.7711 60.5024C88.5695 60.7488 88.3007 61.0176 88.0095 61.1072C87.0239 61.4432 86.5087 62.2272 85.9039 62.9664C85.7023 63.2128 85.4559 63.392 85.2991 63.6608C85.0079 64.1312 84.7615 64.624 84.4927 65.1168C84.4255 65.2288 84.3807 65.3632 84.2687 65.4304C83.4847 65.8784 82.9471 66.5056 82.8351 67.4016C82.8351 67.424 82.8351 67.4688 82.8127 67.4912C82.1631 68.0736 82.1407 68.9024 81.8495 69.6416C81.7151 70 80.9311 70.224 80.3935 70.112C79.9007 70.0224 79.4079 69.888 78.9151 69.8656C78.2655 69.8208 77.7279 70.1568 77.1903 70.4704C76.7423 70.7392 76.2495 70.9184 75.8239 71.1648C75.6447 71.2768 75.5775 71.5008 75.3983 71.7248C75.3983 71.232 74.8831 71.1872 74.6143 70.896C74.3455 70.6048 74.0095 70.3584 73.6735 70.0672C73.5391 70.0448 73.3375 70.0224 73.1359 70C73.2927 69.9104 73.5391 69.888 73.6063 69.7536C73.6959 69.5744 73.6735 69.3056 73.6735 69.0816C73.6735 69.0368 73.5391 68.9472 73.4943 68.9472C73.2031 69.0592 72.9343 69.1936 72.7551 69.2832C72.8671 69.4624 72.9343 69.6192 73.0239 69.7984ZM74.8383 78.2656C74.9279 78.1088 75.1071 77.9744 75.1071 77.8176C75.1071 77.504 75.3311 77.5264 75.5103 77.5264C75.5551 77.5264 75.5999 77.7504 75.6447 77.8624C75.6895 77.952 75.7567 78.0192 75.8239 78.1088C75.8911 78.064 75.9807 78.0192 75.9807 77.952C76.0479 77.616 76.0031 77.3248 76.2047 76.9664C76.4063 76.6304 76.4287 76.1824 76.8767 75.9808C76.9439 75.9584 76.9887 75.8912 77.0111 75.824C77.1455 75.1744 77.2575 74.5024 77.3695 73.8528C77.3919 73.7408 77.3247 73.5168 77.2575 73.4944C77.0111 73.4272 76.6751 73.3376 76.4735 73.4496C76.2495 73.5616 76.1151 73.6512 75.8687 73.5616C75.6671 73.4944 75.3983 73.5168 75.1743 73.5616C74.7711 73.6736 74.4575 73.5392 74.0991 73.3824C73.5615 73.1136 73.2255 72.5088 72.5311 72.4864C72.5087 72.4864 72.4639 72.4192 72.4415 72.3968C72.3519 72.3296 72.2399 72.2176 72.1727 72.24C72.0831 72.2848 71.9935 72.3968 71.9711 72.5088C71.7471 73.1808 71.9263 73.7856 72.1727 74.4128C72.2847 74.704 72.3071 75.0176 72.3071 75.3312C72.3071 75.6448 72.1727 76.0032 72.2623 76.272C72.4639 76.8768 72.7551 77.4368 73.0239 78.0416C73.0463 78.0864 73.1135 78.1088 73.1583 78.1312C73.4719 78.2656 73.7855 78.3776 73.9871 78.4672C74.2783 78.3552 74.5023 78.2656 74.7039 78.176C74.7935 78.2208 74.8159 78.2432 74.8383 78.2656ZM51.2959 16.128C51.7439 16.2176 52.1023 16.1056 52.4831 15.904C52.8191 15.7248 52.7967 15.4336 52.7295 15.1872C52.6175 14.8512 52.3487 15.008 52.1247 15.0752C51.6319 15.2544 51.1167 15.4784 50.6911 14.9408C50.6911 14.9184 50.6463 14.9408 50.5567 14.9408C50.4223 15.2768 50.2879 15.6352 50.1535 16.016C50.5119 16.0608 50.9151 16.0384 51.2959 16.128ZM63.1231 20.6752C63.0783 20.4736 63.1231 20.2496 63.1231 19.936C62.5631 20.2048 62.5407 20.5632 62.5183 20.944C62.8543 21.0112 63.1455 21.056 63.3247 21.0784C63.2575 20.9664 63.1455 20.832 63.1231 20.6752ZM67.7599 26.2528C68.1407 26.096 68.4767 25.9392 68.7903 25.8048C68.1855 25.5584 67.9615 25.6704 67.7599 26.2528Z" fill="white"/>
<path d="M42.9184 49.504H40.096C40.0288 49.504 39.9392 49.4592 39.9168 49.392L36.6912 40.2528L33.4656 49.3696C33.4432 49.4592 33.3536 49.4816 33.264 49.4816H30.464C30.2848 49.4816 30.1952 49.3696 30.2624 49.2352L36.4672 33.2192C36.5344 33.0624 36.8256 33.0624 36.8704 33.2192L43.0976 49.2352C43.1648 49.3696 43.0528 49.504 42.9184 49.504Z" fill="#057039"/>
<path d="M57.1872 33.3088V49.3248C57.1872 49.4144 57.0976 49.504 56.9632 49.504H54.2752C54.1632 49.504 54.0512 49.392 54.0512 49.3248V46.4352H47.8464V49.3248C47.8464 49.4144 47.7568 49.504 47.6224 49.504H44.9344C44.8224 49.504 44.7104 49.392 44.7104 49.3248V43.3664H47.8464V43.3888H54.0512V42.8288V39.7824V33.3088C54.0512 33.2192 54.1632 33.1296 54.2752 33.1296H56.9632C57.0976 33.1296 57.1872 33.2192 57.1872 33.3088ZM44.7104 40.2304V33.3088C44.7104 33.2192 44.8224 33.1296 44.9344 33.1296H47.6224C47.7568 33.1296 47.8464 33.2416 47.8464 33.3088V39.7824V40.2304H44.7104Z" fill="#057039"/>
<path d="M66.5728 49.504H59.0016C58.8896 49.504 58.7776 49.392 58.7776 49.3248V33.3088C58.7776 33.2192 58.8896 33.1296 59.0016 33.1296H66.5504V36.1088H61.9136V39.8048H68.3424C68.4544 39.8048 68.5664 39.8944 68.5664 39.984V42.5824C68.5664 42.672 68.4544 42.7616 68.3424 42.7616H61.9136V46.4576H66.5728V49.504Z" fill="#057039"/>
<path d="M80.2143 44.7328C80.2143 47.8016 77.7503 49.504 75.1295 49.504C75.1295 49.504 75.1295 49.504 75.1071 49.504V46.5472C75.1295 46.5472 75.1295 46.5472 75.1295 46.5472C76.2047 46.5472 77.1679 45.808 77.1679 44.7328C77.1679 43.5232 76.0479 42.784 75.1295 42.7392C74.9951 42.7392 73.8751 42.7392 72.6879 42.1792C70.9855 41.3952 70.0223 39.9392 70.0223 38.0352C70.0223 34.9664 72.5087 33.1072 75.1295 33.1072C77.9295 33.1072 80.1023 34.9888 80.1471 37.7664C80.1695 37.8336 80.0575 37.9232 79.9231 37.9232H77.3695C77.2575 37.9232 77.1455 37.8112 77.1455 37.7664C77.1007 36.6016 76.2047 36.0416 75.1295 36.0416C74.0095 36.0416 73.0911 36.7136 73.0911 38.0352C73.0911 39.2224 74.0991 39.8272 75.1295 39.8272C75.2415 39.8272 76.3839 39.8272 77.5487 40.3872C79.2735 41.216 80.2143 42.8064 80.2143 44.7328Z" fill="#057039"/>
<defs>
<radialGradient id="paint0_radial_7_537" cx="0" cy="0" r="1" gradientUnits="userSpaceOnUse" gradientTransform="translate(57.5058 1.15143) scale(205.226 105.659)">
<stop offset="0.1244" stop-color="#7AC143"/>
<stop offset="0.1573" stop-color="#73B742"/>
<stop offset="0.4099" stop-color="#478B3E"/>
<stop offset="0.6429" stop-color="#287039"/>
<stop offset="0.847" stop-color="#0F6135"/>
<stop offset="1" stop-color="#025C33"/>
</radialGradient>
</defs>
</svg>
