<svg width="11" height="7" viewBox="0 0 11 7" fill="none" xmlns="http://www.w3.org/2000/svg">
<path d="M5.49926 4.7577L1.61973 0.314141C1.46364 0.136779 1.24027 0.0256788 0.998535 0.0051722C0.756799 -0.0153344 0.516399 0.0564229 0.32998 0.20473C0.143561 0.353038 0.0263148 0.565809 0.00391743 0.796449C-0.01848 1.02709 0.0557965 1.2568 0.210481 1.43528L4.79462 6.68552C4.8808 6.78397 4.98857 6.86316 5.11032 6.9175C5.23208 6.97184 5.36485 7 5.49926 7C5.63366 7 5.76643 6.97184 5.88819 6.9175C6.00994 6.86316 6.11771 6.78397 6.20389 6.68552L10.788 1.43528C10.9434 1.25688 11.0183 1.02689 10.9962 0.795835C10.9741 0.564778 10.8568 0.351552 10.67 0.202996C10.4833 0.0544393 10.2424 -0.0172987 10.0003 0.0035412C9.75817 0.0243811 9.53462 0.136095 9.37875 0.314142L5.49926 4.7577Z" fill="#46953D"/>
</svg>
