<svg width="73" height="68" viewBox="0 0 73 68" fill="none" xmlns="http://www.w3.org/2000/svg">
<path d="M54.1633 31.9304C54.1633 22.1148 46.2398 14.1913 36.4242 14.1913C26.6085 14.1913 18.6851 22.1148 18.6851 31.9304C18.6851 40.0904 24.1251 46.8313 31.5755 48.96L36.5424 54.2817L41.5094 48.96C48.7233 46.8313 54.1633 39.9722 54.1633 31.9304Z" fill="#297B3D"/>
<path d="M67.6452 22.4696H66.8174C62.6783 9.22435 50.3791 0 36.4244 0C22.4696 0 10.0522 9.22435 6.0313 22.4696H5.20348C2.36522 22.4696 0 24.8348 0 27.673V37.0157C0 39.8539 2.36522 42.2191 5.20348 42.2191H10.407C11.1165 42.2191 11.7078 41.6278 11.7078 40.9183V23.7704C11.7078 23.0609 11.1165 22.4696 10.407 22.4696H8.7513C12.7722 10.6435 23.8887 2.60174 36.4244 2.60174C48.96 2.60174 60.1948 10.6435 64.0974 22.4696H62.4417C61.7322 22.4696 61.1409 23.0609 61.1409 23.7704V41.0365C61.1409 41.7461 61.7322 42.3374 62.4417 42.3374H63.7426C60.0765 51.7983 51.68 58.8939 41.6278 60.6678C40.9183 58.4209 38.7896 56.8835 36.4244 56.8835C33.3496 56.8835 30.8661 59.367 30.8661 62.4417C30.8661 65.5165 33.3496 68 36.4244 68C39.2626 68 41.5096 65.8713 41.8643 63.2696C53.2174 61.2591 62.6783 53.2174 66.4626 42.3374H67.527C70.3652 42.3374 72.7304 39.9722 72.7304 37.1339V27.7913C72.8487 24.8348 70.4835 22.4696 67.6452 22.4696ZM9.10609 39.7357H5.20348C3.78435 39.7357 2.60174 38.553 2.60174 37.1339V27.7913C2.60174 26.3722 3.78435 25.1896 5.20348 25.1896H9.10609V39.7357ZM36.4244 65.5165C34.7687 65.5165 33.4678 64.2157 33.4678 62.56C33.4678 60.9043 34.7687 59.6035 36.4244 59.6035C38.08 59.6035 39.3809 60.9043 39.3809 62.56C39.3809 64.0974 38.08 65.5165 36.4244 65.5165ZM70.247 37.1339C70.247 38.553 69.0644 39.7357 67.6452 39.7357H65.9896C65.7531 39.7357 65.6348 39.7357 65.3983 39.7357H63.7426V25.0713H67.6452C69.0644 25.0713 70.247 26.2539 70.247 27.673V37.1339Z" fill="#297B3D"/>
<path d="M46.2402 31.9304C46.2402 31.2209 45.6489 30.6296 44.9393 30.6296H27.9098C27.2002 30.6296 26.6089 31.2209 26.6089 31.9304C26.6089 32.64 27.2002 33.2313 27.9098 33.2313H45.0576C45.7671 33.2313 46.2402 32.64 46.2402 31.9304Z" fill="white"/>
<path d="M41.3911 25.6626C42.1007 25.6626 42.692 25.0713 42.692 24.3617C42.692 23.6522 42.1007 23.0609 41.3911 23.0609H31.339C30.6294 23.0609 30.0381 23.6522 30.0381 24.3617C30.0381 25.0713 30.6294 25.6626 31.339 25.6626H41.3911Z" fill="white"/>
<path d="M41.3911 40.8C42.1007 40.8 42.692 40.2087 42.692 39.4992C42.692 38.7896 42.1007 38.1983 41.3911 38.1983H31.339C30.6294 38.1983 30.0381 38.7896 30.0381 39.4992C30.0381 40.2087 30.6294 40.8 31.339 40.8H41.3911Z" fill="white"/>
</svg>
