<svg width="72" height="61" viewBox="0 0 72 61" fill="none" xmlns="http://www.w3.org/2000/svg">
<path d="M71.6668 15.8C71.5001 16.6 71.3668 17.4333 71.1668 18.2C69.6001 23.9333 64.7668 28.0333 58.8668 28.8C55.9668 29.1667 53.3335 28.4333 50.8335 27.1C50.3668 26.8667 50.0668 26.8333 49.6001 27.1333C47.6001 28.4 45.4001 28.8 43.0668 28.5667C42.8668 28.5333 42.6668 28.3667 42.4668 28.2333C42.5668 28.0667 42.6668 27.8333 42.8001 27.7333C44.3335 26.4667 45.1335 24.8333 45.2335 22.8667C45.2668 22.4667 45.2001 22 44.9668 21.7C41.7668 17.0333 42.3668 10.0333 45.9668 5.56667C48.5001 2.43333 51.7335 0.6 55.7335 0.133333C55.9001 0.0999999 56.0668 0.0333333 56.2335 0C56.9668 0 57.7001 0 58.4335 0C58.6001 0.0333333 58.7335 0.0999999 58.9001 0.133333C64.5335 0.933333 68.4668 3.9 70.6668 9.16667C71.1668 10.3667 71.3668 11.7 71.7001 12.9667C71.6668 13.9667 71.6668 14.8667 71.6668 15.8Z" fill="#297B3D"/>
<path d="M0 58.6333C0.1 57.1333 0.166667 55.6333 0.3 54.1667C0.5 51.9667 0.7 49.7667 1 47.6C1.26667 45.7667 2.3 44.4333 3.96667 43.6333C9 41.2667 14.2333 39.4667 19.5 37.6333C20.1667 37.4 20.7333 37.4667 21.2 38.1667C21.8667 39.1667 22.6667 40.0333 23.3333 41.0333C23.5667 41.3667 23.6667 41.8333 23.6333 42.2C22.7667 48.3667 21.8667 54.5333 20.9667 60.7C20.9667 60.8 20.9667 60.9 20.9667 61C13.9667 61 6.96667 61 0 61C0 60.1667 0 59.4 0 58.6333Z" fill="#297B3D"/>
<path d="M30.8998 60.9666C30.4331 57.6999 29.9331 54.4333 29.4664 51.1999C29.0331 48.2666 28.6331 45.3333 28.1664 42.4333C28.0664 41.7999 28.1664 41.3333 28.5664 40.8333C29.1664 40.0999 29.6998 39.3333 30.2664 38.5666C31.1664 37.3666 31.3664 37.2999 32.7998 37.7999C34.8664 38.5333 36.9331 39.2333 38.9664 39.9999C41.6998 41.0666 44.3998 42.1999 47.0998 43.2999C49.2998 44.1999 50.6664 45.7999 50.8664 48.1999C51.1998 52.3333 51.4664 56.4666 51.7664 60.5999C51.7664 60.7333 51.7331 60.8333 51.7331 60.9666C44.7664 60.9666 37.8331 60.9666 30.8998 60.9666Z" fill="#297B3D"/>
<path d="M25.8997 34.0333C21.2331 34.0667 17.2664 30.8667 16.2997 26.3C15.7331 23.7 15.1997 21.0667 14.7664 18.4333C13.6664 12.3667 18.4331 6.73334 24.6997 6.50001C27.0331 6.43334 29.2997 6.50001 31.4331 7.60001C35.4997 9.66668 37.7664 14.0667 36.9997 18.5667C36.5664 21.0667 36.0997 23.5333 35.5997 26C34.6331 30.8 30.6997 34.0333 25.8997 34.0333Z" fill="#297B3D"/>
</svg>
