<svg width="80" height="80" viewBox="0 0 80 80" fill="none" xmlns="http://www.w3.org/2000/svg">
<circle cx="40" cy="40" r="40" fill="#297B3D"/>
<path d="M32.6389 38.1256C34.8789 42.5278 38.48 46.1289 42.89 48.3689L46.3122 44.9389C46.74 44.5111 47.3544 44.3867 47.8911 44.5578C49.6333 45.1333 51.5078 45.4444 53.4444 45.4444C54.3078 45.4444 55 46.1367 55 47V52.4444C55 53.3078 54.3078 54 53.4444 54C38.8378 54 27 42.1622 27 27.5556C27 26.6922 27.7 26 28.5556 26H34C34.8633 26 35.5556 26.6922 35.5556 27.5556C35.5556 29.4922 35.8667 31.3667 36.4422 33.1089C36.6133 33.6456 36.4889 34.26 36.0611 34.6878L32.6389 38.1256Z" fill="white"/>
</svg>
