<svg width="26" height="32" viewBox="0 0 26 32" fill="none" xmlns="http://www.w3.org/2000/svg">
<path d="M25.71 6.29002L19.71 0.290017C19.6166 0.197335 19.5057 0.12401 19.3839 0.0742455C19.2621 0.0244809 19.1316 -0.000744179 19 1.67143e-05H3C2.20435 1.67143e-05 1.44129 0.316087 0.87868 0.878696C0.316071 1.44131 0 2.20437 0 3.00002V29C0 29.7957 0.316071 30.5587 0.87868 31.1213C1.44129 31.6839 2.20435 32 3 32H23C23.7956 32 24.5587 31.6839 25.1213 31.1213C25.6839 30.5587 26 29.7957 26 29V7.00002C26.0008 6.86841 25.9755 6.73795 25.9258 6.61611C25.876 6.49427 25.8027 6.38346 25.71 6.29002ZM24 29C24 29.2652 23.8946 29.5196 23.7071 29.7071C23.5196 29.8947 23.2652 30 23 30H3C2.73478 30 2.48043 29.8947 2.29289 29.7071C2.10536 29.5196 2 29.2652 2 29V3.00002C2 2.7348 2.10536 2.48045 2.29289 2.29291C2.48043 2.10537 2.73478 2.00002 3 2.00002H18V6.00002C18 6.53045 18.2107 7.03916 18.5858 7.41423C18.9609 7.7893 19.4696 8.00002 20 8.00002H24V29Z" fill="#297B3D"/>
<path d="M16.43 16L17.7 14.73L16.29 13.32L15 14.57C14.6873 14.3852 14.3509 14.2439 14 14.15V12H12V14.14C11.6491 14.2339 11.3127 14.3752 11 14.56L9.73 13.29L8.32 14.7L9.57 16C9.38525 16.3127 9.24395 16.6491 9.15 17H7V19H9.14C9.23395 19.3509 9.37525 19.6873 9.56 20L8.29 21.27L9.7 22.68L11 21.43C11.3127 21.6148 11.6491 21.7561 12 21.85V24H14V21.86C14.3509 21.7661 14.6873 21.6248 15 21.44L16.27 22.71L17.68 21.3L16.43 20C16.6148 19.6873 16.7561 19.3509 16.85 19H19V17H16.86C16.7629 16.6486 16.6182 16.3122 16.43 16ZM13 20C12.6044 20 12.2178 19.8827 11.8889 19.6629C11.56 19.4432 11.3036 19.1308 11.1522 18.7654C11.0009 18.3999 10.9613 17.9978 11.0384 17.6098C11.1156 17.2219 11.3061 16.8655 11.5858 16.5858C11.8655 16.3061 12.2219 16.1156 12.6098 16.0384C12.9978 15.9613 13.3999 16.0009 13.7654 16.1522C14.1308 16.3036 14.4432 16.56 14.6629 16.8889C14.8827 17.2178 15 17.6044 15 18C15 18.5304 14.7893 19.0391 14.4142 19.4142C14.0391 19.7893 13.5304 20 13 20Z" fill="#297B3D"/>
</svg>
