<svg width="55" height="42" viewBox="0 0 55 42" fill="none" xmlns="http://www.w3.org/2000/svg">
<path d="M29.6588 10.9714C29.6588 7.65546 30.7714 4.99832 33 3C35.2286 1 38.0034 0 41.3143 0C45.5445 0 48.8571 1.34286 51.2571 4.02857C53.6571 6.71261 54.8588 10.2857 54.8588 14.7429C54.8588 19.3126 54.1462 23.2 52.716 26.4C51.2874 29.5983 49.5748 32.2538 47.5714 34.3714C45.5748 36.4857 43.4874 38.1429 41.3143 39.3429C39.1445 40.5429 37.2588 41.4252 35.6588 42L30.1714 32.7429C32.4571 31.8269 34.4017 30.3697 36 28.3697C37.6017 26.3697 38.5143 24.2269 38.7445 21.9429C36.4605 21.9429 34.3714 20.9395 32.4857 18.9412C30.6 16.9412 29.6588 14.284 29.6588 10.9714ZM0 10.9714C0 7.65546 1.11429 4.99832 3.34286 3C5.57143 0.998319 8.34454 0 11.6571 0C15.8891 0 19.2 1.34286 21.6 4.02857C24.0017 6.71261 25.2017 10.2857 25.2017 14.7429C25.2017 19.3126 24.4891 23.2 23.0588 26.4C21.6303 29.5983 19.9176 32.2538 17.916 34.3714C15.9193 36.4857 13.8303 38.1429 11.6571 39.3429C9.4874 40.5429 7.60336 41.4252 6.00168 42L0.515966 32.7429C2.80168 31.8269 4.74454 30.3697 6.34286 28.3697C7.94454 26.3697 8.85882 24.2269 9.08739 21.9429C6.80336 21.9429 4.71429 20.9395 2.83025 18.9412C0.942857 16.9412 0 14.284 0 10.9714Z" fill="#E5E5E5"/>
</svg>
