<svg width="56" height="52" viewBox="0 0 56 52" fill="none" xmlns="http://www.w3.org/2000/svg">
<path d="M8.93543 7.5472H22.0617C22.8278 7.5472 23.4499 8.16932 23.4499 8.9361V17.6318C23.4499 18.3986 22.8278 19.0207 22.0617 19.0207H8.93543C8.16865 19.0207 7.54653 18.3986 7.54653 17.6318V8.9361C7.54653 8.16932 8.16865 7.5472 8.93543 7.5472ZM48.296 22.4929L55.0396 28.5247C56.3937 29.7354 54.5494 31.7967 53.196 30.5852L46.4524 24.5542C45.1848 25.635 43.7055 26.3583 42.1552 26.7152V50.6118C42.1552 51.3785 41.5337 52 40.7669 52H1.38823C0.621455 52 0 51.3785 0 50.6118V1.38823C0 0.621455 0.621455 0 1.38823 0H40.7669C41.5337 0 42.1552 0.621455 42.1552 1.38823V6.90766C46.5502 7.91887 49.7666 11.728 50.0178 16.2469C50.1383 18.4079 49.5711 20.6085 48.296 22.4929ZM39.3064 6.6639L39.378 6.66055V2.77646H2.77646V49.2229H39.378V26.963C34.1948 26.7145 30.0127 22.58 29.7227 17.376C29.4106 11.7768 33.7073 6.9753 39.3064 6.6639ZM39.4584 9.43032C35.3774 9.65733 32.2621 13.1443 32.4891 17.224C32.7161 21.3023 36.2078 24.4202 40.2828 24.1932C44.3323 23.9662 47.4784 20.4618 47.252 16.3989C47.0223 12.2744 43.4912 9.20597 39.4584 9.43032ZM7.62287 44.4521C5.79668 44.4521 5.79668 41.675 7.62287 41.675H25.6712C27.4974 41.675 27.4974 44.4521 25.6712 44.4521H7.62287ZM7.62287 25.3785C5.79668 25.3785 5.79668 22.6014 7.62287 22.6014H25.6712C27.4974 22.6014 27.4974 25.3785 25.6712 25.3785H7.62287ZM7.62287 31.7364C5.79668 31.7364 5.79668 28.9593 7.62287 28.9593H25.6712C27.4974 28.9593 27.4974 31.7364 25.6712 31.7364H7.62287ZM7.62287 38.0943C5.79668 38.0943 5.79668 35.3171 7.62287 35.3171H25.6712C27.4974 35.3171 27.4974 38.0943 25.6712 38.0943H7.62287ZM20.6728 10.3243H10.3237V16.2436H20.6728V10.3243Z" fill="#297B3D"/>
</svg>
