<svg width="15" height="9" viewBox="0 0 15 9" fill="none" xmlns="http://www.w3.org/2000/svg">
<path d="M7.49899 6.11705L2.20869 0.403896C1.99587 0.175858 1.69128 0.0330151 1.36163 0.00664952C1.03198 -0.0197161 0.70419 0.0725432 0.449985 0.263224C0.195778 0.453906 0.0358953 0.727468 0.00536533 1.024C-0.0252524 1.32055 0.0760431 1.61588 0.287014 1.84537L6.53811 8.59566C6.65562 8.72223 6.80259 8.82409 6.96861 8.89396C7.13464 8.96376 7.31569 9 7.49898 9C7.68226 9 7.86331 8.96376 8.02934 8.89396C8.19537 8.82409 8.34233 8.72223 8.45984 8.59566L14.7109 1.84537C14.9229 1.61599 15.025 1.32029 14.9948 1.02322C14.9646 0.726144 14.8047 0.451996 14.55 0.260994C14.2954 0.0699934 13.9669 -0.0222412 13.6367 0.00455292C13.3066 0.031347 13.0018 0.17498 12.7892 0.403896L7.49899 6.11705Z" fill="#21285B"/>
</svg>
