<svg width="14" height="9" viewBox="0 0 14 9" fill="none" xmlns="http://www.w3.org/2000/svg">
<path d="M6.99906 6.11705L2.06148 0.403896C1.86282 0.175859 1.57853 0.0330153 1.27086 0.00664999C0.963199 -0.0197163 0.657235 0.0725432 0.419975 0.263225C0.182714 0.453905 0.0334917 0.727468 0.00498592 1.02401C-0.0235199 1.32054 0.0710138 1.61589 0.267886 1.84536L6.10225 8.59567C6.21192 8.72225 6.34909 8.82406 6.50405 8.89393C6.65901 8.96379 6.82799 9 6.99905 9C7.17012 9 7.3391 8.96379 7.49406 8.89393C7.64902 8.82406 7.78618 8.72225 7.89586 8.59567L13.7302 1.84536C13.928 1.61599 14.0233 1.32029 13.9952 1.02322C13.967 0.726143 13.8177 0.451996 13.58 0.260994C13.3424 0.0699932 13.0358 -0.0222414 12.7276 0.00455299C12.4195 0.0313465 12.135 0.174979 11.9366 0.403896L6.99906 6.11705Z" fill="#C52E3B"/>
</svg>
