<svg width="131" height="131" viewBox="0 0 131 131" fill="none" xmlns="http://www.w3.org/2000/svg">
<circle cx="65.5" cy="65.5" r="65.5" fill="#F5F5F5"/>
<path d="M40.0349 87.595C40.6971 86.0613 41.9171 85.6082 43.5204 85.6779C45.2981 85.7825 47.1106 85.7127 48.8882 85.7127C49.1322 85.7127 49.4111 85.7127 49.4459 85.7127C49.3762 84.9459 49.2368 84.2488 49.3065 83.5865C50.0036 76.3714 50.7356 69.1563 51.4675 61.9063C51.8161 58.5252 52.095 55.1094 52.4087 51.6587C51.6418 52.0769 50.8401 52.4603 50.0733 52.9135C49.899 53.018 49.7596 53.3317 49.6899 53.5757C49.0625 55.5974 48.4351 57.5841 47.8077 59.6058C47.738 59.78 47.7031 59.9543 47.6334 60.1286C47.3546 60.7212 46.9014 61.0349 46.2043 60.8954C45.5072 60.7212 45.1587 60.2332 45.2632 59.5361C45.6815 56.7825 46.0998 54.0637 46.5877 51.3101C46.6575 50.9267 47.006 50.5781 47.2849 50.2993C49.655 48.2079 52.0252 46.1514 54.3954 44.0601C55.3017 43.2584 57.3582 42.9796 58.4038 43.5373C58.613 43.6418 58.7176 43.9555 58.7873 44.1995C59.3798 45.9075 59.9724 47.6154 60.7392 49.3582C61.1575 47.5805 61.6106 45.8029 62.0288 43.9555C63.2488 44.2344 64.3642 44.6178 64.9567 45.768C66.2464 48.1731 67.4315 50.613 68.6514 53.018C68.8954 53.506 69.1743 53.7849 69.6971 53.9591C71.6142 54.5865 73.4964 55.2488 75.3786 55.9111C76.2151 56.2248 76.5637 56.7127 76.3546 57.375C76.1106 58.1418 75.518 58.2115 74.8209 58.1418C72.5204 57.8281 70.22 57.5144 67.9195 57.2704C66.9435 57.1659 66.2115 56.7825 65.6887 55.9808C65.3053 55.4231 64.8522 54.8654 64.2945 54.1334C64.1202 55.3185 64.0853 56.3642 63.8413 57.3401C63.3185 59.1875 63.9808 60.5469 65.2007 61.9411C66.8041 63.7885 68.3029 65.7404 69.7668 67.6923C70.0457 68.0409 70.22 68.5986 70.1851 69.0168C69.976 72.4675 69.732 75.9531 69.4531 79.4038C69.4183 79.7524 69.244 80.101 69.1046 80.5192C72.2067 80.5192 75.274 80.5192 78.5156 80.5192C78.5156 79.7175 78.5156 78.9159 78.5156 78.1142C78.5156 76.5805 79.5962 75.4651 81.1298 75.4651C86.637 75.4651 92.1442 75.4651 97.6166 75.4651C97.756 75.4651 97.8954 75.4303 98 75.4303C98 82.7849 98 90.1743 98 97.5289C78.655 97.5289 59.3101 97.5289 40 97.5289C40.0349 94.2176 40.0349 90.9062 40.0349 87.595ZM59.2752 85.6779C59.2752 84.7716 59.2752 83.97 59.2752 83.1683C59.2752 81.6695 60.3906 80.5889 61.8894 80.5889C63.5276 80.5889 65.131 80.5889 66.6647 80.5889C66.5252 79.8221 66.3858 79.0901 66.3161 78.3582C66.1418 75.8486 66.0024 73.3389 65.8281 70.8642C65.7933 70.5156 65.5493 70.0625 65.2704 69.8534C63.3882 68.4591 61.4712 67.1346 59.5541 65.7752C59.0312 65.3918 58.4736 65.0433 57.8113 64.5901C55.7897 71.7356 53.8377 78.7067 51.8858 85.6779C54.256 85.6779 56.7308 85.6779 59.2752 85.6779Z" fill="#297B3D"/>
<path d="M61.1576 32C62.6564 32.2788 64.0158 32.8017 64.922 34.1611C66.1071 35.9736 66.0026 38.274 64.5735 40.0517C63.4232 41.5156 61.0182 42.0733 59.1708 41.3413C57.2189 40.5745 55.999 38.6226 56.1732 36.5312C56.3475 34.3702 57.8115 32.6623 59.9377 32.2091C60.1817 32.1394 60.4605 32.1046 60.7045 32.0349C60.8439 32 61.0182 32 61.1576 32Z" fill="#297B3D"/>
</svg>
