<svg width="90" height="90" viewBox="0 0 90 90" fill="none" xmlns="http://www.w3.org/2000/svg">
<circle cx="45" cy="45" r="45" fill="#F5F5F5"/>
<path d="M57.71 36.29L51.71 30.29C51.6166 30.1973 51.5057 30.124 51.3839 30.0742C51.2621 30.0245 51.1316 29.9993 51 30H35C34.2044 30 33.4413 30.3161 32.8787 30.8787C32.3161 31.4413 32 32.2044 32 33V59C32 59.7957 32.3161 60.5587 32.8787 61.1213C33.4413 61.6839 34.2044 62 35 62H55C55.7956 62 56.5587 61.6839 57.1213 61.1213C57.6839 60.5587 58 59.7957 58 59V37C58.0008 36.8684 57.9755 36.7379 57.9258 36.6161C57.876 36.4943 57.8027 36.3835 57.71 36.29ZM56 59C56 59.2652 55.8946 59.5196 55.7071 59.7071C55.5196 59.8947 55.2652 60 55 60H35C34.7348 60 34.4804 59.8947 34.2929 59.7071C34.1054 59.5196 34 59.2652 34 59V33C34 32.7348 34.1054 32.4804 34.2929 32.2929C34.4804 32.1054 34.7348 32 35 32H50V36C50 36.5304 50.2107 37.0392 50.5858 37.4142C50.9609 37.7893 51.4696 38 52 38H56V59Z" fill="#297B3D"/>
<path d="M48.43 46L49.7 44.73L48.29 43.32L47 44.57C46.6873 44.3852 46.3509 44.2439 46 44.15V42H44V44.14C43.6491 44.2339 43.3127 44.3752 43 44.56L41.73 43.29L40.32 44.7L41.57 46C41.3852 46.3127 41.2439 46.6491 41.15 47H39V49H41.14C41.2339 49.3509 41.3752 49.6873 41.56 50L40.29 51.27L41.7 52.68L43 51.43C43.3127 51.6148 43.6491 51.7561 44 51.85V54H46V51.86C46.3509 51.7661 46.6873 51.6248 47 51.44L48.27 52.71L49.68 51.3L48.43 50C48.6148 49.6873 48.7561 49.3509 48.85 49H51V47H48.86C48.7629 46.6486 48.6182 46.3122 48.43 46ZM45 50C44.6044 50 44.2178 49.8827 43.8889 49.6629C43.56 49.4432 43.3036 49.1308 43.1522 48.7654C43.0009 48.3999 42.9613 47.9978 43.0384 47.6098C43.1156 47.2219 43.3061 46.8655 43.5858 46.5858C43.8655 46.3061 44.2219 46.1156 44.6098 46.0384C44.9978 45.9613 45.3999 46.0009 45.7654 46.1522C46.1308 46.3036 46.4432 46.56 46.6629 46.8889C46.8827 47.2178 47 47.6044 47 48C47 48.5304 46.7893 49.0391 46.4142 49.4142C46.0391 49.7893 45.5304 50 45 50Z" fill="#297B3D"/>
</svg>
