<svg width="131" height="131" viewBox="0 0 131 131" fill="none" xmlns="http://www.w3.org/2000/svg">
<circle cx="65.5" cy="65.5" r="65.5" fill="#F5F5F5"/>
<path d="M95 54.5091C94.5915 66.5209 90.6764 77.1599 82.9142 86.3232C78.6587 91.3682 73.5861 95.3149 67.7985 98.3693C66.2325 99.193 64.8366 99.2273 63.2706 98.3693C49.9592 91.2309 41.38 80.283 37.499 65.5943C36.4776 61.7162 36.0691 57.7008 36.001 53.6854C35.967 51.7979 36.784 50.5967 38.5544 49.9446C47.0314 46.7186 55.5425 43.5269 64.0196 40.3009C64.9728 39.9234 65.892 39.889 66.8453 40.2666C75.3904 43.4926 83.9356 46.7186 92.4807 49.9446C94.1829 50.5967 94.9319 51.7636 94.9319 53.5825C95 53.9257 95 54.2346 95 54.5091ZM65.5175 70.6736C63.611 68.7517 61.8067 66.8984 59.9683 65.0795C59.1172 64.2215 58.0618 64.1529 57.3128 64.9422C56.5979 65.6972 56.666 66.6925 57.483 67.5505C59.2874 69.3694 61.0918 71.1883 62.8961 73.0073C64.4622 74.586 66.5048 74.586 68.0709 73.0073C71.0327 70.0558 73.9606 67.07 76.9224 64.0842C77.7735 63.2262 77.8416 62.1967 77.1267 61.476C76.3777 60.6866 75.3564 60.7209 74.4712 61.6132C72.2583 63.844 70.0454 66.0404 67.8666 68.2712C67.1176 68.9919 66.3686 69.8156 65.5175 70.6736Z" fill="#297B3D"/>
</svg>
