<svg width="131" height="131" viewBox="0 0 131 131" fill="none" xmlns="http://www.w3.org/2000/svg">
<circle cx="65.5" cy="65.5" r="65.5" fill="#F5F5F5"/>
<path d="M104.667 49.8C104.5 50.6 104.367 51.4333 104.167 52.2C102.6 57.9333 97.7668 62.0333 91.8668 62.8C88.9668 63.1667 86.3335 62.4333 83.8335 61.1C83.3668 60.8667 83.0668 60.8333 82.6001 61.1333C80.6001 62.4 78.4001 62.8 76.0668 62.5667C75.8668 62.5333 75.6668 62.3667 75.4668 62.2333C75.5668 62.0667 75.6668 61.8333 75.8001 61.7333C77.3335 60.4667 78.1335 58.8333 78.2335 56.8667C78.2668 56.4667 78.2001 56 77.9668 55.7C74.7668 51.0333 75.3668 44.0333 78.9668 39.5667C81.5001 36.4333 84.7335 34.6 88.7335 34.1333C88.9001 34.1 89.0668 34.0333 89.2335 34C89.9668 34 90.7001 34 91.4335 34C91.6001 34.0333 91.7335 34.1 91.9001 34.1333C97.5335 34.9333 101.467 37.9 103.667 43.1667C104.167 44.3667 104.367 45.7 104.7 46.9667C104.667 47.9667 104.667 48.8667 104.667 49.8Z" fill="#297B3D"/>
<path d="M33 92.6333C33.1 91.1333 33.1667 89.6333 33.3 88.1667C33.5 85.9667 33.7 83.7667 34 81.6C34.2667 79.7667 35.3 78.4333 36.9667 77.6333C42 75.2667 47.2333 73.4667 52.5 71.6333C53.1667 71.4 53.7333 71.4667 54.2 72.1667C54.8667 73.1667 55.6667 74.0333 56.3333 75.0333C56.5667 75.3667 56.6667 75.8333 56.6333 76.2C55.7667 82.3667 54.8667 88.5333 53.9667 94.7C53.9667 94.8 53.9667 94.9 53.9667 95C46.9667 95 39.9667 95 33 95C33 94.1667 33 93.4 33 92.6333Z" fill="#297B3D"/>
<path d="M63.8998 94.9666C63.4331 91.6999 62.9331 88.4333 62.4664 85.1999C62.0331 82.2666 61.6331 79.3333 61.1664 76.4333C61.0664 75.7999 61.1664 75.3333 61.5664 74.8333C62.1664 74.0999 62.6998 73.3333 63.2664 72.5666C64.1664 71.3666 64.3664 71.2999 65.7998 71.7999C67.8664 72.5333 69.9331 73.2333 71.9664 73.9999C74.6998 75.0666 77.3998 76.1999 80.0998 77.2999C82.2998 78.1999 83.6664 79.7999 83.8664 82.1999C84.1998 86.3333 84.4664 90.4666 84.7664 94.5999C84.7664 94.7333 84.7331 94.8333 84.7331 94.9666C77.7664 94.9666 70.8331 94.9666 63.8998 94.9666Z" fill="#297B3D"/>
<path d="M58.8997 68.0333C54.2331 68.0667 50.2664 64.8667 49.2997 60.3C48.7331 57.7 48.1997 55.0667 47.7664 52.4333C46.6664 46.3667 51.4331 40.7333 57.6997 40.5C60.0331 40.4333 62.2997 40.5 64.4331 41.6C68.4997 43.6667 70.7664 48.0667 69.9997 52.5667C69.5664 55.0667 69.0997 57.5333 68.5997 60C67.6331 64.8 63.6997 68.0333 58.8997 68.0333Z" fill="#297B3D"/>
</svg>
