<svg width="131" height="131" viewBox="0 0 131 131" fill="none" xmlns="http://www.w3.org/2000/svg">
<circle cx="65.5" cy="65.5" r="65.5" fill="#F5F5F5"/>
<path d="M95.2351 57.8606H77.3705V47.1888L65.6175 36L53.8645 47.1888V57.8606H36V72.4343H53.8645V91.239H39.761V76.1952H36V95H95.2351V76.1952H91.4741V91.239H77.3705V72.4343H95.2351V57.8606ZM53.8645 68.6733H39.761V61.6215H53.8645V68.6733ZM73.6096 91.239H67.498V80.8964H63.7371V91.239H57.6255V48.7873L65.6175 41.1713L73.6096 48.7873V91.239ZM91.4741 68.6733H77.3705V61.6215H91.4741V68.6733Z" fill="#297B3D"/>
<path d="M49.1636 80.8965H44.4624V85.5977H49.1636V80.8965Z" fill="#297B3D"/>
<path d="M86.773 80.8965H82.0718V85.5977H86.773V80.8965Z" fill="#297B3D"/>
<path d="M67.4978 48.9283H63.7368V52.6893H67.4978V48.9283Z" fill="#297B3D"/>
</svg>
