<svg width="131" height="131" viewBox="0 0 131 131" fill="none" xmlns="http://www.w3.org/2000/svg">
<circle cx="65.5" cy="65.5" r="65.5" fill="#F5F5F5"/>
<path d="M50.9354 46.5472H64.0617C64.8278 46.5472 65.4499 47.1693 65.4499 47.9361V56.6318C65.4499 57.3986 64.8278 58.0207 64.0617 58.0207H50.9354C50.1687 58.0207 49.5465 57.3986 49.5465 56.6318V47.9361C49.5465 47.1693 50.1687 46.5472 50.9354 46.5472ZM90.296 61.4929L97.0396 67.5247C98.3937 68.7354 96.5494 70.7967 95.196 69.5852L88.4524 63.5542C87.1848 64.635 85.7055 65.3583 84.1552 65.7152V89.6118C84.1552 90.3785 83.5337 91 82.7669 91H43.3882C42.6215 91 42 90.3785 42 89.6118V40.3882C42 39.6215 42.6215 39 43.3882 39H82.7669C83.5337 39 84.1552 39.6215 84.1552 40.3882V45.9077C88.5502 46.9189 91.7666 50.728 92.0178 55.2469C92.1383 57.4079 91.5711 59.6085 90.296 61.4929ZM81.3064 45.6639L81.378 45.6606V41.7765H44.7765V88.2229H81.378V65.963C76.1948 65.7145 72.0127 61.58 71.7227 56.376C71.4106 50.7768 75.7073 45.9753 81.3064 45.6639ZM81.4584 48.4303C77.3774 48.6573 74.2621 52.1443 74.4891 56.224C74.7161 60.3023 78.2078 63.4202 82.2828 63.1932C86.3323 62.9662 89.4784 59.4618 89.252 55.3989C89.0223 51.2744 85.4912 48.206 81.4584 48.4303ZM49.6229 83.4521C47.7967 83.4521 47.7967 80.675 49.6229 80.675H67.6712C69.4974 80.675 69.4974 83.4521 67.6712 83.4521H49.6229ZM49.6229 64.3785C47.7967 64.3785 47.7967 61.6014 49.6229 61.6014H67.6712C69.4974 61.6014 69.4974 64.3785 67.6712 64.3785H49.6229ZM49.6229 70.7364C47.7967 70.7364 47.7967 67.9593 49.6229 67.9593H67.6712C69.4974 67.9593 69.4974 70.7364 67.6712 70.7364H49.6229ZM49.6229 77.0943C47.7967 77.0943 47.7967 74.3171 49.6229 74.3171H67.6712C69.4974 74.3171 69.4974 77.0943 67.6712 77.0943H49.6229ZM62.6728 49.3243H52.3237V55.2436H62.6728V49.3243Z" fill="#297B3D"/>
</svg>
