<svg width="90" height="90" viewBox="0 0 90 90" fill="none" xmlns="http://www.w3.org/2000/svg">
<circle cx="45" cy="45" r="45" fill="#F5F5F5"/>
<path d="M54.751 37.5878C53.9844 37.2448 53.1976 36.922 52.4309 36.579C52.1686 36.458 52.0476 36.5185 51.866 36.7202C50.0704 38.7378 47.8511 39.5044 45.2283 38.8185C42.5854 38.1123 40.9512 36.3167 40.4871 33.5931C39.8617 30.0019 42.2827 26.6729 45.8538 26.0879C49.8283 25.4221 53.5204 28.6299 53.3791 32.665C53.359 33.4518 53.0967 34.2387 52.8949 35.0053C52.8344 35.2273 52.8142 35.3685 52.9958 35.5501C53.6011 36.1957 54.2063 36.8615 54.7914 37.5071C54.7712 37.5474 54.751 37.5676 54.751 37.5878ZM49.566 34.622C49.6669 34.1983 49.5862 34.0369 49.1625 34.0571C47.5888 34.0773 46.0353 34.0571 44.4617 34.0773C44.3204 34.0773 44.1792 34.0974 44.0178 34.1176C44.0178 34.3194 44.038 34.4808 44.038 34.6422C45.8941 34.622 47.7099 34.622 49.566 34.622ZM49.5862 30.5062C47.7099 30.5062 45.8941 30.5062 44.0582 30.5062C44.0582 30.708 44.0582 30.8694 44.0582 31.051C45.9143 31.051 47.7502 31.051 49.5862 31.051C49.5862 30.8694 49.5862 30.6878 49.5862 30.5062ZM49.5862 32.3018C47.7099 32.3018 45.8941 32.3018 44.0582 32.3018C44.0582 32.5036 44.0582 32.665 44.0582 32.8466C45.9143 32.8466 47.7502 32.8466 49.5862 32.8466C49.5862 32.6448 49.5862 32.4834 49.5862 32.3018Z" fill="#297B3D"/>
<path d="M57.5554 55.9068C56.8695 58.5094 56.2239 61.0515 55.5581 63.5936C55.3362 64.4409 54.7107 64.9655 53.9037 64.9856C53.1169 65.0058 52.4309 64.5216 52.2493 63.7348C52.1686 63.4523 52.1686 63.1093 52.2493 62.8269C53.016 59.8208 53.8028 56.8348 54.5897 53.8287C54.8318 52.9208 55.4572 52.477 56.4861 52.477C57.8782 52.477 59.2502 52.477 60.6423 52.477C60.8037 52.477 60.9449 52.477 61.187 52.477C60.9247 51.7305 60.723 51.0647 60.4607 50.4191C60.3194 50.0559 60.3194 49.834 60.6019 49.5314C61.3484 48.7446 62.0747 47.9174 62.801 47.1104C63.4063 46.4446 63.4063 45.577 62.8212 45.0323C62.2159 44.4674 61.3686 44.5279 60.7633 45.1937C59.694 46.3437 58.6449 47.5139 57.616 48.684C57.4142 48.906 57.2125 48.9665 56.93 49.0068C54.8721 49.1884 52.9353 48.6033 50.9783 48.1393C50.3125 47.9779 49.9695 47.3928 50.1108 46.8077C50.2722 46.2226 50.8572 45.8797 51.5029 46.0209C52.6125 46.263 53.7221 46.5454 54.8318 46.7875C55.0335 46.8279 55.2555 46.8481 55.437 46.9288C56.2239 47.2919 56.7484 47.0297 57.273 46.4042C57.7975 45.7586 58.4431 45.2139 58.9879 44.5884C59.7545 43.6806 61.0458 43.5595 62.0545 44.0034C62.7405 44.306 63.2449 44.7902 63.6484 45.4156C65.1212 47.6551 65.9685 50.1165 66.1703 52.7796C66.2712 54.0708 65.7869 55.1401 64.3545 55.584C63.7291 55.7857 63.0633 55.8866 62.4177 55.9068C60.7835 55.9471 59.1896 55.9068 57.5554 55.9068Z" fill="#297B3D"/>
<path d="M35.0398 46.8079C34.717 46.4044 34.4547 46.0816 34.1723 45.7588C33.6074 45.093 32.7802 44.9921 32.1548 45.5167C31.5495 46.0009 31.4688 46.8886 32.0135 47.5544C33.1232 48.9465 34.253 50.3184 35.3626 51.7105C35.4635 51.8315 35.5644 51.9728 35.7056 52.1543C35.524 52.1745 35.3828 52.1947 35.2416 52.2149C35.1205 52.4973 35.3223 52.4973 35.5039 52.4973C36.3714 52.4973 37.2591 52.4973 38.1266 52.4973C39.0749 52.4973 40.0231 52.4973 40.9714 52.4973C42.0205 52.5175 42.5854 52.9613 42.8477 53.9701C43.6143 56.8955 44.381 59.8209 45.1275 62.7464C45.4099 63.7955 44.9055 64.6832 43.8968 64.9455C42.9889 65.1876 42.081 64.6025 41.8187 63.6139C41.1529 61.0718 40.4872 58.5297 39.8214 55.9069C39.6801 55.9069 39.5187 55.9069 39.3775 55.9069C37.8442 55.9069 36.2907 55.8868 34.7574 55.9069C33.567 55.9271 32.6793 55.4026 32.1144 54.3938C30.7425 51.9526 30.0364 49.35 30.1171 46.5456C30.1574 45.5167 30.5609 44.6693 31.4083 44.0439C32.4977 43.257 33.6074 43.4588 34.374 44.5684C34.7574 45.1535 34.939 45.6982 35.0398 46.8079Z" fill="#297B3D"/>
<path d="M29.0074 53.0017C29.189 53.4859 29.3504 53.9499 29.532 54.4342C29.7943 55.1403 30.0566 55.8263 30.3188 56.5324C30.3995 56.7341 30.5004 56.7947 30.7223 56.7543C32.5381 56.4719 34.3741 56.4719 36.21 56.5727C36.9161 56.6131 37.6425 56.7341 38.3486 56.835C38.51 56.8552 38.7521 57.0166 38.7521 57.0973C38.7521 57.2587 38.631 57.521 38.4898 57.5815C37.8846 57.8438 37.2793 58.0859 36.6539 58.2876C36.3311 58.3885 35.9477 58.3683 35.6048 58.449C35.3021 58.5297 35.0197 58.671 34.6767 58.792C34.6767 59.6394 34.6767 60.5271 34.6969 61.435C34.6969 61.5157 34.8986 61.6367 35.0197 61.6771C36.1091 62.0201 37.1986 62.363 38.2881 62.6858C38.5302 62.7665 38.7319 62.8271 38.6916 63.1499C38.6714 63.2306 38.7723 63.3516 38.8328 63.4323C39.1758 63.8157 39.196 64.2393 38.8731 64.5621C38.5705 64.8648 38.1065 64.8648 37.8039 64.5823C37.4811 64.2797 37.4811 63.8358 37.8039 63.4525C37.824 63.4122 37.8644 63.392 37.9249 63.3113C36.8556 62.9885 35.8065 62.6657 34.6969 62.3227C34.717 62.8069 34.5556 63.2306 34.9591 63.6139C35.2214 63.8762 35.1407 64.3402 34.8381 64.6025C34.5355 64.885 34.0916 64.8648 33.8092 64.5823C33.5267 64.32 33.446 63.8358 33.7083 63.5937C34.1118 63.2306 33.9706 62.8069 33.9706 62.3227C32.8811 62.6657 31.8118 62.9885 30.7223 63.3113C30.803 63.4122 30.8636 63.4727 30.9241 63.5534C31.1864 63.8964 31.1258 64.3604 30.8232 64.6227C30.5206 64.8849 30.0767 64.8648 29.7943 64.5823C29.4916 64.2797 29.4916 63.856 29.7741 63.513C29.8346 63.4323 29.9759 63.3516 29.9557 63.2911C29.8952 62.7262 30.339 62.7262 30.6618 62.6253C31.6706 62.3025 32.6793 61.9999 33.6881 61.6771C33.8092 61.6367 33.9706 61.4955 33.9706 61.3946C33.9907 60.5069 33.9907 59.6192 33.9907 58.7315C32.9013 58.4692 31.8522 58.2069 30.803 57.9245C30.2583 57.7833 29.9153 57.3999 29.7136 56.8552C28.8662 54.535 27.9785 52.2149 27.111 49.8947C27.0101 49.6123 26.8689 49.3298 27.2522 49.1482C27.3127 49.1281 27.2925 48.9263 27.2724 48.8053C27.2118 48.1395 27.1311 47.4737 27.0504 46.7877C27.0504 46.707 27.0303 46.6062 27.0706 46.5456C27.1917 46.2833 27.3329 46.0211 27.4741 45.7588C27.6759 45.9404 27.9381 46.0816 28.0592 46.3035C29.0276 47.9579 29.6732 49.7737 30.2583 51.5894C30.4601 52.2351 30.6013 52.9008 30.7223 53.5666C30.7627 53.7482 30.682 53.9298 30.6416 54.1315C30.4399 54.0912 30.1978 54.1315 30.0566 54.0105C29.7136 53.7078 29.3706 53.3447 29.0074 53.0017Z" fill="#297B3D"/>
<path d="M63.4265 58.7919C63.4265 59.6998 63.4265 60.6279 63.4265 61.5963C64.5361 61.9392 65.6458 62.2822 66.7756 62.6252C66.9168 62.6656 67.0782 62.7059 67.2194 62.7664C67.3001 62.7866 67.4212 62.8673 67.4212 62.8875C67.3808 63.2506 67.6431 63.4322 67.7844 63.6945C67.9659 64.0173 67.8449 64.4208 67.5422 64.6427C67.2396 64.8647 66.8563 64.8445 66.5738 64.5822C66.3116 64.3401 66.251 63.9164 66.4326 63.6138C66.4931 63.5129 66.594 63.412 66.6949 63.291C65.6256 62.9682 64.5563 62.6454 63.4467 62.3024C63.4668 62.7866 63.3054 63.1901 63.7089 63.5734C63.9914 63.8357 63.9107 64.3401 63.6081 64.6024C63.3054 64.8647 62.9019 64.8647 62.5993 64.6024C62.2967 64.3401 62.1958 63.8559 62.4783 63.5936C62.8818 63.2103 62.68 62.7866 62.7405 62.3226C61.6309 62.6656 60.5616 62.9884 59.6335 63.2708C59.6941 63.6541 59.8555 63.9971 59.7748 64.2998C59.7142 64.5217 59.3511 64.7638 59.1292 64.784C58.8871 64.8041 58.5844 64.5822 58.423 64.3805C58.2011 64.1383 58.302 63.8357 58.4835 63.5533C58.5844 63.3919 58.645 63.1901 58.7458 63.0287C58.8265 62.9077 58.9476 62.7866 59.0888 62.7463C60.1783 62.4033 61.2879 62.0401 62.3976 61.7375C62.6598 61.6568 62.7607 61.5357 62.7405 61.2735C62.7204 60.4463 62.7405 59.6191 62.7405 58.7516C61.7318 58.5094 60.7634 58.3279 59.7949 58.0454C59.4318 57.9445 59.0888 57.7428 58.8064 57.5007C58.4835 57.2384 58.5441 56.9358 58.9678 56.8752C60.0169 56.734 61.066 56.5524 62.1151 56.5524C63.7291 56.5323 65.3431 56.6331 67.0379 56.6735C67.4615 55.5235 67.9256 54.2928 68.4501 52.9209C68.1273 53.284 67.8852 53.5463 67.6229 53.7884C67.5019 53.9095 67.3607 54.0104 67.1993 54.0709C66.7756 54.2726 66.5335 54.1112 66.6344 53.6472C66.7958 52.8805 66.937 52.0937 67.2194 51.3472C67.8247 49.7332 68.4905 48.1595 69.1563 46.5859C69.2571 46.3438 69.4387 46.1218 69.6001 45.9201C69.8019 45.6376 70.0238 45.6981 70.165 45.9806C70.2659 46.1824 70.3668 46.4446 70.3466 46.6666C70.3063 47.3727 70.2256 48.0587 70.1449 48.7648C70.1247 48.9665 70.044 49.1078 70.2659 49.2692C70.3668 49.3499 70.387 49.6929 70.3063 49.8543C69.4589 52.1341 68.5712 54.4139 67.7642 56.7138C67.5019 57.4603 67.058 57.884 66.3317 58.0656C65.6861 58.227 65.0405 58.3279 64.3949 58.4691C64.0721 58.5296 63.7896 58.6708 63.4265 58.7919Z" fill="#297B3D"/>
<path d="M61.9536 40.251C61.9536 41.9457 60.622 43.3176 58.9071 43.358C57.2326 43.3781 55.8203 42.0062 55.8203 40.3115C55.8001 38.5966 57.1519 37.2045 58.8466 37.2045C60.5817 37.1641 61.9334 38.5159 61.9536 40.251Z" fill="#297B3D"/>
<path d="M32.6189 42.9544C30.9242 42.9544 29.5522 41.5623 29.5522 39.8675C29.5724 38.1728 30.9443 36.8009 32.6391 36.8009C34.354 36.8009 35.7259 38.193 35.7259 39.9079C35.7057 41.6026 34.3136 42.9544 32.6189 42.9544Z" fill="#297B3D"/>
<path d="M54.973 51.5088C54.0248 51.5088 53.0766 51.5088 52.1283 51.5088C51.402 51.5088 50.9178 51.0649 50.9178 50.4395C50.8976 49.7939 51.4222 49.3299 52.1485 49.3299C53.7625 49.3299 55.3765 49.3299 56.9906 49.3299C57.3134 49.3299 57.5353 49.2491 57.7572 49.007C58.8265 47.7965 59.916 46.6062 60.9853 45.4158C61.2879 45.0729 61.6712 44.9115 62.1151 45.0325C62.5589 45.1536 62.8817 45.4562 62.9019 45.9202C62.9221 46.2229 62.8212 46.586 62.6396 46.8079C61.3484 48.2807 60.037 49.7334 58.6853 51.1658C58.4835 51.3676 58.1204 51.4886 57.8177 51.4886C56.8695 51.529 55.9213 51.5088 54.973 51.5088Z" fill="#297B3D"/>
<path d="M43.3721 54.6358C43.2713 54.2929 43.1906 53.97 43.0897 53.6472C42.8274 52.7595 42.1011 52.1946 41.173 52.1946C39.5994 52.1745 38.0459 52.1946 36.4722 52.1744C36.3108 52.1744 36.0687 52.0937 35.9678 51.9727C34.7169 50.4394 33.4661 48.9061 32.2354 47.3526C31.8521 46.8684 31.8521 46.2833 32.2152 45.8798C32.7196 45.335 33.4459 45.3754 33.9705 46.0008C34.7371 46.9289 35.4836 47.8771 36.2301 48.8052C36.6739 49.3499 37.1178 49.8745 37.5213 50.4192C37.7029 50.6613 37.8845 50.7218 38.1669 50.7017C39.5792 50.6613 40.9511 50.7622 42.3028 51.2464C43.1502 51.549 43.8967 52.0332 44.3405 52.8604C44.8046 53.7481 44.4212 54.4946 43.3721 54.6358Z" fill="#297B3D"/>
</svg>
