<svg width="131" height="131" viewBox="0 0 131 131" fill="none" xmlns="http://www.w3.org/2000/svg">
<circle cx="65.5" cy="65.5" r="65.5" fill="#F5F5F5"/>
<path d="M84.1633 68.9304C84.1633 59.1148 76.2398 51.1913 66.4242 51.1913C56.6085 51.1913 48.6851 59.1148 48.6851 68.9304C48.6851 77.0904 54.1251 83.8313 61.5755 85.96L66.5424 91.2817L71.5094 85.96C78.7233 83.8313 84.1633 76.9722 84.1633 68.9304Z" fill="#297B3D"/>
<path d="M97.6452 59.4696H96.8174C92.6783 46.2243 80.3791 37 66.4244 37C52.4696 37 40.0522 46.2243 36.0313 59.4696H35.2035C32.3652 59.4696 30 61.8348 30 64.673V74.0157C30 76.8539 32.3652 79.2191 35.2035 79.2191H40.407C41.1165 79.2191 41.7078 78.6278 41.7078 77.9183V60.7704C41.7078 60.0609 41.1165 59.4696 40.407 59.4696H38.7513C42.7722 47.6435 53.8887 39.6017 66.4244 39.6017C78.96 39.6017 90.1948 47.6435 94.0974 59.4696H92.4417C91.7322 59.4696 91.1409 60.0609 91.1409 60.7704V78.0365C91.1409 78.7461 91.7322 79.3374 92.4417 79.3374H93.7426C90.0765 88.7983 81.68 95.8939 71.6278 97.6678C70.9183 95.4209 68.7896 93.8835 66.4244 93.8835C63.3496 93.8835 60.8661 96.367 60.8661 99.4417C60.8661 102.517 63.3496 105 66.4244 105C69.2626 105 71.5096 102.871 71.8643 100.27C83.2174 98.2591 92.6783 90.2174 96.4626 79.3374H97.527C100.365 79.3374 102.73 76.9722 102.73 74.1339V64.7913C102.849 61.8348 100.483 59.4696 97.6452 59.4696ZM39.1061 76.7357H35.2035C33.7843 76.7357 32.6017 75.553 32.6017 74.1339V64.7913C32.6017 63.3722 33.7843 62.1896 35.2035 62.1896H39.1061V76.7357ZM66.4244 102.517C64.7687 102.517 63.4678 101.216 63.4678 99.56C63.4678 97.9043 64.7687 96.6035 66.4244 96.6035C68.08 96.6035 69.3809 97.9043 69.3809 99.56C69.3809 101.097 68.08 102.517 66.4244 102.517ZM100.247 74.1339C100.247 75.553 99.0644 76.7357 97.6452 76.7357H95.9896C95.7531 76.7357 95.6348 76.7357 95.3983 76.7357H93.7426V62.0713H97.6452C99.0644 62.0713 100.247 63.2539 100.247 64.673V74.1339Z" fill="#297B3D"/>
<path d="M76.2402 68.9304C76.2402 68.2209 75.6489 67.6296 74.9393 67.6296H57.9098C57.2002 67.6296 56.6089 68.2209 56.6089 68.9304C56.6089 69.64 57.2002 70.2313 57.9098 70.2313H75.0576C75.7671 70.2313 76.2402 69.64 76.2402 68.9304Z" fill="white"/>
<path d="M71.3911 62.6626C72.1007 62.6626 72.692 62.0713 72.692 61.3617C72.692 60.6522 72.1007 60.0609 71.3911 60.0609H61.339C60.6294 60.0609 60.0381 60.6522 60.0381 61.3617C60.0381 62.0713 60.6294 62.6626 61.339 62.6626H71.3911Z" fill="white"/>
<path d="M71.3911 77.8C72.1007 77.8 72.692 77.2087 72.692 76.4992C72.692 75.7896 72.1007 75.1983 71.3911 75.1983H61.339C60.6294 75.1983 60.0381 75.7896 60.0381 76.4992C60.0381 77.2087 60.6294 77.8 61.339 77.8H71.3911Z" fill="white"/>
</svg>
