<svg width="90" height="90" viewBox="0 0 90 90" fill="none" xmlns="http://www.w3.org/2000/svg">
<circle cx="45" cy="45" r="45" fill="#F5F5F5"/>
<circle cx="45" cy="45" r="23" fill="#297B3D"/>
<path d="M44.6878 37.952C43.8771 37.952 43.1731 37.664 42.5758 37.088C41.9998 36.4907 41.7118 35.7867 41.7118 34.976C41.7118 34.1653 41.9998 33.472 42.5758 32.896C43.1731 32.2987 43.8771 32 44.6878 32C45.4984 32 46.1918 32.2987 46.7678 32.896C47.3651 33.472 47.6638 34.1653 47.6638 34.976C47.6638 35.7867 47.3651 36.4907 46.7678 37.088C46.1918 37.664 45.4984 37.952 44.6878 37.952ZM43.2158 56.48L41.5838 40.64L48.4318 39.584L46.3838 56.192L43.2158 56.48Z" fill="white"/>
</svg>
