<svg width="59" height="59" viewBox="0 0 59 59" fill="none" xmlns="http://www.w3.org/2000/svg">
<path d="M59 14.5091C58.5915 26.5209 54.6764 37.1599 46.9142 46.3232C42.6587 51.3682 37.5861 55.3149 31.7985 58.3693C30.2325 59.193 28.8366 59.2273 27.2706 58.3693C13.9592 51.2309 5.38004 40.283 1.49897 25.5943C0.477642 21.7162 0.0691094 17.7008 0.00102052 13.6854C-0.0330239 11.7979 0.784042 10.5967 2.55435 9.94463C11.0314 6.71861 19.5425 3.5269 28.0196 0.300879C28.9728 -0.0766344 29.892 -0.110954 30.8453 0.26656C39.3904 3.49258 47.9356 6.71861 56.4807 9.94463C58.1829 10.5967 58.9319 11.7636 58.9319 13.5825C59 13.9257 59 14.2346 59 14.5091ZM29.5175 30.6736C27.611 28.7517 25.8067 26.8984 23.9683 25.0795C23.1172 24.2215 22.0618 24.1529 21.3128 24.9422C20.5979 25.6972 20.666 26.6925 21.483 27.5505C23.2874 29.3694 25.0918 31.1883 26.8961 33.0073C28.4622 34.586 30.5048 34.586 32.0709 33.0073C35.0327 30.0558 37.9606 27.07 40.9224 24.0842C41.7735 23.2262 41.8416 22.1967 41.1267 21.476C40.3777 20.6866 39.3564 20.7209 38.4712 21.6132C36.2583 23.844 34.0454 26.0404 31.8666 28.2712C31.1176 28.9919 30.3686 29.8156 29.5175 30.6736Z" fill="#297B3D"/>
</svg>
