<svg width="60" height="59" viewBox="0 0 60 59" fill="none" xmlns="http://www.w3.org/2000/svg">
<path d="M59.2351 21.8606H41.3705V11.1888L29.6175 0L17.8645 11.1888V21.8606H0V36.4343H17.8645V55.239H3.76096V40.1952H0V59H59.2351V40.1952H55.4741V55.239H41.3705V36.4343H59.2351V21.8606ZM17.8645 32.6733H3.76096V25.6215H17.8645V32.6733ZM37.6096 55.239H31.498V44.8964H27.7371V55.239H21.6255V12.7873L29.6175 5.17131L37.6096 12.7873V55.239ZM55.4741 32.6733H41.3705V25.6215H55.4741V32.6733Z" fill="#297B3D"/>
<path d="M13.1636 44.8965H8.4624V49.5977H13.1636V44.8965Z" fill="#297B3D"/>
<path d="M50.773 44.8965H46.0718V49.5977H50.773V44.8965Z" fill="#297B3D"/>
<path d="M31.4978 12.9283H27.7368V16.6893H31.4978V12.9283Z" fill="#297B3D"/>
</svg>
