<svg width="80" height="80" viewBox="0 0 80 80" fill="none" xmlns="http://www.w3.org/2000/svg">
<rect width="80" height="80" fill="white"/>
<path d="M40.0254 43.2C44.4437 43.2 48.0254 38.9019 48.0254 33.6C48.0254 28.2981 44.4437 24 40.0254 24C35.6071 24 32.0254 28.2981 32.0254 33.6C32.0254 38.9019 35.6071 43.2 40.0254 43.2Z" fill="#C0C0C0"/>
<path d="M55.7053 51.3596C54.2653 48.4796 51.5453 46.0796 48.0253 44.6396C47.0653 44.3196 45.9453 44.3196 45.1453 44.7996C43.5453 45.7596 41.9453 46.2396 40.0253 46.2396C38.1053 46.2396 36.5053 45.7596 34.9053 44.7996C34.1053 44.4796 32.9853 44.3196 32.0253 44.7996C28.5053 46.2396 25.7853 48.6396 24.3453 51.5196C23.2253 53.5996 24.9853 55.9996 27.3853 55.9996H52.6653C55.0653 55.9996 56.8253 53.5996 55.7053 51.3596Z" fill="#C0C0C0"/>
</svg>
