<?xml version="1.0" standalone="no"?>
<!DOCTYPE svg PUBLIC "-//W3C//DTD SVG 1.1//EN" "http://www.w3.org/Graphics/SVG/1.1/DTD/svg11.dtd" >
<svg xmlns="http://www.w3.org/2000/svg" xmlns:xlink="http://www.w3.org/1999/xlink" version="1.1">
<metadata>
Created by FontForge 20190801 at Wed Apr 29 19:19:59 2015
 By www-data
(c) 2015 Microsoft Corporation. All Rights Reserved.
</metadata>
<defs>
<font id="VerdanaProBold" horiz-adv-x="1456" >
  <font-face 
    font-family="VerdanaProBold"
    font-weight="700"
    font-stretch="normal"
    units-per-em="2048"
    panose-1="2 11 8 4 3 5 4 4 2 4"
    ascent="1638"
    descent="-410"
    x-height="1123"
    cap-height="1489"
    bbox="-1111 -621 3496 2076"
    underline-thickness="102"
    underline-position="-409"
    unicode-range="U+0020-FB04"
  />
<missing-glyph horiz-adv-x="2048" 
d="M256 0v1536h1536v-1536h-1536zM384 128h1280v1280h-1280v-1280z" />
    <glyph glyph-name="uniFB00" unicode="ff" horiz-adv-x="1690" 
d="M1663 1292h-27l-50 13q-52 12 -95 12q-104 0 -142.5 -36.5t-38.5 -148.5v-9h278v-244h-266v-879h-360v879h-405v-879h-360v879h-154v244h154v31q0 412 441 412q147 0 260 -20v-254h-27l-50 13q-52 12 -95 12q-104 0 -142.5 -36.5t-38.5 -148.5v-9h417v31q0 412 441 412
q147 0 260 -20v-254z" />
    <glyph glyph-name="uniFB01" unicode="fi" horiz-adv-x="1490" 
d="M545 1123h775v-1123h-360v884h-403v-884h-360v879h-154v244h154v31q0 412 424 412q141 0 250 -20v-254h-26l-59 15q-37 10 -75 10q-98 0 -132 -38t-34 -147v-9zM1330 1283h-360v273h360v-273z" />
    <glyph glyph-name="uniFB02" unicode="fl" horiz-adv-x="1496" 
d="M545 1123h278v-244h-266v-879h-360v879h-154v244h154v29q0 212 135.5 313t420.5 101q79 0 193 -14l150 -18l230 22v-1556h-360v1306q-104 16 -175 16q-246 0 -246 -169v-30z" />
    <glyph glyph-name="uniFB03" unicode="ffi" horiz-adv-x="2255" 
d="M1310 1123h775v-1123h-360v884h-403v-884h-360v879h-405v-879h-360v879h-154v244h154v31q0 412 441 412q147 0 260 -20v-254h-27l-50 13q-52 12 -95 12q-104 0 -142.5 -36.5t-38.5 -148.5v-9h417v31q0 412 424 412q141 0 250 -20v-254h-26l-59 15q-37 10 -75 10
q-98 0 -132 -38t-34 -147v-9zM2095 1283h-360v273h360v-273z" />
    <glyph glyph-name="uniFB04" unicode="ffl" horiz-adv-x="2261" 
d="M1310 1123h278v-244h-266v-879h-360v879h-405v-879h-360v879h-154v244h154v31q0 412 441 412q147 0 260 -20v-254h-27l-50 13q-52 12 -95 12q-104 0 -142.5 -36.5t-38.5 -148.5v-9h417v29q0 212 135.5 313t420.5 101q79 0 193 -14l150 -18l230 22v-1556h-360v1306
q-104 16 -175 16q-246 0 -246 -169v-30z" />
    <glyph glyph-name="f_j.liga" unicode="fj" horiz-adv-x="1509" 
d="M545 1123h795v-1143q0 -191 -118 -297t-300 -106q-180 0 -296 26v258h28l49 -12q55 -12 97 -12q104 0 142 62t38 204v781h-423v-884h-360v879h-154v244h154v31q0 412 424 412q141 0 250 -20v-254h-26l-59 15q-37 10 -75 10q-98 0 -132 -38t-34 -147v-9zM1340 1283h-360
v273h360v-273z" />
    <glyph glyph-name=".notdef" horiz-adv-x="2048" 
d="M256 0v1536h1536v-1536h-1536zM384 128h1280v1280h-1280v-1280z" />
    <glyph glyph-name="glyph1" horiz-adv-x="0" 
 />
    <glyph glyph-name="glyph2" horiz-adv-x="720" 
 />
    <glyph glyph-name="space" unicode=" " horiz-adv-x="700" 
 />
    <glyph glyph-name="space" unicode="&#xa0;" horiz-adv-x="700" 
 />
    <glyph glyph-name="exclam" unicode="!" horiz-adv-x="824" 
d="M621 1489l-46 -1060h-326l-46 1060h418zM614 0h-404v264h404v-264z" />
    <glyph glyph-name="quotedbl" unicode="&#x22;" horiz-adv-x="1203" 
d="M1036 1556l-60 -589h-226l-60 589h346zM513 1556l-60 -589h-226l-60 589h346z" />
    <glyph glyph-name="numbersign" unicode="#" horiz-adv-x="1776" 
d="M1624 905h-316l-78 -311h282v-240h-342l-91 -354h-241l89 354h-264l-89 -354h-245l90 354h-270v240h330l77 311h-293v239h353l86 345h245l-86 -345h263l87 345h245l-87 -345h255v-239zM1068 907h-268l-80 -316h269z" />
    <glyph glyph-name="dollar" unicode="$" 
d="M821 2v-363h-174v357q-306 9 -489 92v292h45q178 -96 449 -119v274l-97 22q-245 56 -333 149.5t-88 253.5q0 148 135 254t378 129v233h174v-231q245 -15 410 -77v-288h-44q-153 88 -366 102v-254l80 -16q233 -47 336 -137t103 -246q0 -168 -141 -289t-378 -138zM663 850
v232q-171 -18 -171 -114q0 -49 36 -74.5t135 -43.5zM817 513v-248q160 25 160 125q0 91 -160 123z" />
    <glyph glyph-name="percent" unicode="%" horiz-adv-x="2605" 
d="M599 547q-456 0 -456 485q0 486 456 486q450 0 450 -482q0 -489 -450 -489zM596 1305q-82 0 -120 -54.5t-38 -218.5t38 -218.5t120 -54.5t120 54.5t38 219.5q0 163 -38 217.5t-120 54.5zM1829 1489l-780 -1489h-269l780 1489h269zM2012 -31q-456 0 -456 485
q0 486 456 486q450 0 450 -482q0 -489 -450 -489zM2009 727q-82 0 -120 -54.5t-38 -218.5t38 -218.5t120 -54.5t120 54.5t38 219.5q0 163 -38 217.5t-120 54.5z" />
    <glyph glyph-name="ampersand" unicode="&#x26;" horiz-adv-x="1766" 
d="M1802 0h-476l-139 126q-199 -157 -475 -157q-277 0 -434 127t-157 333q0 259 278 405q-113 83 -158 157t-45 173q0 156 139.5 256t395.5 100q240 0 371 -89t131 -233q0 -273 -341 -382l306 -269v322h373v-111q0 -249 -150 -405l381 -333v-20zM860 1154q0 153 -147 153
q-61 0 -100 -36.5t-39 -102.5q0 -99 173 -227q113 89 113 213zM1011 295l-427 379q-72 -84 -72 -186q0 -117 82.5 -188t192.5 -71q142 0 224 66z" />
    <glyph glyph-name="quotesingle" unicode="'" horiz-adv-x="680" 
d="M513 1556l-60 -589h-226l-60 589h346z" />
    <glyph glyph-name="parenleft" unicode="(" horiz-adv-x="1113" 
d="M947 -412h-377q-377 438 -377 984t377 984h377v-29q-205 -185 -315.5 -434t-110.5 -521q0 -563 426 -955v-29z" />
    <glyph glyph-name="parenright" unicode=")" horiz-adv-x="1113" 
d="M543 -412h-377v29q192 171 309 418t117 537q0 272 -110.5 521t-315.5 434v29h377q377 -438 377 -984t-377 -984z" />
    <glyph glyph-name="asterisk" unicode="*" 
d="M1252 836l-111 -165l-320 218l11 -355h-213l8 346l-314 -210l-109 166l355 209l-354 211l108 167l313 -213l-7 346h212l-8 -347l317 211l111 -166l-358 -208z" />
    <glyph glyph-name="plus" unicode="+" horiz-adv-x="1776" 
d="M1558 528h-533v-528h-274v528h-533v268h533v528h274v-528h533v-268z" />
    <glyph glyph-name="comma" unicode="," horiz-adv-x="740" 
d="M618 393l-360 -763h-223l197 763h386z" />
    <glyph glyph-name="hyphen" unicode="-" horiz-adv-x="983" 
d="M873 518h-763v288h763v-288z" />
    <glyph glyph-name="hyphen" unicode="&#xad;" horiz-adv-x="983" 
d="M873 518h-763v288h763v-288z" />
    <glyph glyph-name="period" unicode="." horiz-adv-x="740" 
d="M557 0h-374v393h374v-393z" />
    <glyph glyph-name="slash" unicode="/" horiz-adv-x="1412" 
d="M1223 1556l-793 -1880h-307l790 1880h310z" />
    <glyph glyph-name="zero" unicode="0" 
d="M728 -31q-318 0 -467 185t-149 590t150.5 590t465.5 185q320 0 468 -188t148 -586q0 -401 -147 -588.5t-469 -187.5zM728 1244q-125 0 -177 -116.5t-52 -384.5q0 -265 54 -382t175 -117t175 117t54 384q0 266 -52 382.5t-177 116.5z" />
    <glyph glyph-name="one" unicode="1" 
d="M1260 0h-994v260h314v787h-314v243q187 0 268.5 48.5t87.5 154.5h331v-1233h307v-260z" />
    <glyph glyph-name="two" unicode="2" 
d="M1354 0h-1169v246q180 131 350.5 274t263.5 262.5t93 233.5q0 213 -254 213q-176 0 -382 -135h-32v331q233 93 487 93q276 0 425 -116t149 -334q0 -197 -142.5 -376.5t-457.5 -406.5h669v-285z" />
    <glyph glyph-name="three" unicode="3" 
d="M140 63v327h39q217 -128 424 -128q322 0 322 214q0 72 -39 111t-103.5 49t-212.5 10h-82v266h85q195 0 261.5 37.5t66.5 133.5q0 146 -264 146q-200 0 -417 -126h-37v323q255 94 509 94q281 0 432.5 -96.5t151.5 -276.5q0 -123 -76.5 -221t-203.5 -125v-14
q319 -54 319 -336q0 -221 -168.5 -351.5t-473.5 -130.5q-306 0 -533 94z" />
    <glyph glyph-name="four" unicode="4" 
d="M1375 343h-203v-347h-367v347h-721v282l697 864h391v-874h203v-272zM805 615v538l-433 -538h433z" />
    <glyph glyph-name="five" unicode="5" 
d="M164 59v329h42q213 -126 405 -126q322 0 322 229q0 204 -352 204q-124 0 -317 -46h-44v840h1059v-285h-698v-243l78 3q663 26 663 -460q0 -241 -173.5 -388t-480.5 -147q-289 0 -504 90z" />
    <glyph glyph-name="six" unicode="6" 
d="M1226 1492v-293h-38q-109 46 -238 46q-377 0 -428 -356q175 103 347 103q224 0 353.5 -128.5t129.5 -356.5q0 -231 -158.5 -384.5t-438.5 -153.5q-303 0 -462 177t-159 518q0 423 211.5 638t607.5 215q105 0 273 -25zM520 697q0 -161 4.5 -215t33 -121.5t77.5 -103
t121 -35.5q85 0 147 67t62 200q0 243 -265 243q-84 0 -180 -35z" />
    <glyph glyph-name="seven" unicode="7" 
d="M1323 1193l-674 -1193h-428l700 1204h-765v285h1167v-296z" />
    <glyph glyph-name="eight" unicode="8" 
d="M391 752v6q-252 115 -252 362q0 177 164 290t427 113q276 0 432.5 -102.5t156.5 -273.5q0 -217 -268 -330v-6q306 -116 306 -395q0 -198 -168.5 -324t-462.5 -126q-303 0 -465 119t-162 317q0 236 292 350zM858 901q86 97 86 203q0 73 -57.5 119.5t-156.5 46.5
q-85 0 -147 -38.5t-62 -103.5q0 -71 61 -115t276 -112zM589 668q-112 -105 -112 -219q0 -104 73.5 -165.5t195.5 -61.5q87 0 158 45t71 132q0 79 -55.5 126t-224.5 105q-33 11 -106 38z" />
    <glyph glyph-name="nine" unicode="9" 
d="M226 -4v293h40q97 -46 237 -46q380 0 430 356q-100 -57 -171 -80t-176 -23q-218 0 -350 126t-132 357q0 239 166.5 389.5t436.5 150.5q300 0 457.5 -174t157.5 -517q0 -408 -206.5 -632.5t-616.5 -224.5q-153 0 -273 25zM936 791l2 123q0 71 -14.5 140.5t-46 117.5
t-74 71t-99.5 23q-94 0 -153.5 -72t-59.5 -196q0 -242 265 -242q93 0 180 35z" />
    <glyph glyph-name="colon" unicode=":" horiz-adv-x="824" 
d="M599 730h-374v393h374v-393zM599 0h-374v393h374v-393z" />
    <glyph glyph-name="semicolon" unicode=";" horiz-adv-x="824" 
d="M599 730h-374v393h374v-393zM660 393l-360 -763h-223l197 763h386z" />
    <glyph glyph-name="semicolon" unicode="&#x37e;" horiz-adv-x="824" 
d="M599 730h-374v393h374v-393zM660 393l-360 -763h-223l197 763h386z" />
    <glyph glyph-name="less" unicode="&#x3c;" horiz-adv-x="1776" 
d="M1540 -7l-1336 555v228l1336 555v-287l-935 -383l935 -381v-287z" />
    <glyph glyph-name="equal" unicode="=" horiz-adv-x="1776" 
d="M1527 791h-1278v268h1278v-268zM1527 265h-1278v268h1278v-268z" />
    <glyph glyph-name="greater" unicode="&#x3e;" horiz-adv-x="1776" 
d="M1572 548l-1336 -555v287l935 382l-935 382v287l1336 -555v-228z" />
    <glyph glyph-name="question" unicode="?" horiz-adv-x="1263" 
d="M738 628v-228h-352v337q375 93 375 317q0 185 -246 185q-152 0 -328 -111h-40v305q223 86 467 86q247 0 392 -109t145 -285q0 -184 -101 -300t-312 -197zM766 0h-404v264h404v-264z" />
    <glyph glyph-name="at" unicode="@" horiz-adv-x="1974" 
d="M1688 139h-506l-16 78q-85 -55 -133 -69t-130 -14q-164 0 -264.5 135t-100.5 362q0 232 125.5 370.5t289.5 138.5q113 0 196 -76v62h232v-816h170q71 156 71 349q0 320 -168.5 499t-454.5 179q-259 0 -451 -195t-192 -495q0 -317 180.5 -506t456.5 -189q194 0 386 56
v-194q-189 -43 -386 -43q-372 0 -610 245t-238 631q0 371 249 621t604 250t592.5 -238.5t237.5 -616.5q0 -291 -140 -524zM1144 404v504q-78 40 -155 40q-94 0 -147 -81.5t-53 -232.5q0 -158 43 -234t142 -76q89 0 170 80z" />
    <glyph glyph-name="A" unicode="A" horiz-adv-x="1590" 
d="M1566 0h-397l-103 301h-552l-103 -301h-387l550 1489h442zM973 574l-183 534l-183 -534h366z" />
    <glyph glyph-name="B" unicode="B" horiz-adv-x="1560" 
d="M190 0v1489h578q226 0 340 -29t185.5 -109.5t71.5 -207.5q0 -221 -218 -319v-8q317 -69 317 -360q0 -199 -152.5 -327.5t-471.5 -128.5h-650zM572 1216v-315h60q167 0 215.5 9.5t86.5 43.5t38 114q0 56 -31.5 93.5t-90.5 46t-242 8.5h-36zM572 644v-371h167
q125 0 187.5 13.5t101 57t38.5 118.5q0 92 -51 134.5t-194 46.5l-81 1h-168z" />
    <glyph glyph-name="C" unicode="C" horiz-adv-x="1482" 
d="M1390 1394v-361h-44q-229 198 -423 198q-189 0 -305 -126.5t-116 -362.5q0 -235 117 -359.5t306 -124.5q204 0 425 197h40v-356q-150 -70 -261.5 -99t-265.5 -29q-347 0 -553.5 201t-206.5 571q0 359 206.5 567t554.5 208q280 0 526 -124z" />
    <glyph glyph-name="D" unicode="D" horiz-adv-x="1700" 
d="M190 0v1489h540q456 0 661.5 -212t205.5 -534q0 -246 -126.5 -424t-300.5 -248.5t-455 -70.5h-525zM574 1211v-932h97q180 0 282 36.5t174.5 140t72.5 290.5q0 179 -71 282.5t-175 143t-283 39.5h-97z" />
    <glyph glyph-name="E" unicode="E" horiz-adv-x="1399" 
d="M1267 0h-1077v1489h1077v-288h-695v-257h645v-288h-645v-368h695v-288z" />
    <glyph glyph-name="F" unicode="F" horiz-adv-x="1332" 
d="M1257 1201h-685v-277h635v-288h-635v-636h-382v1489h1067v-288z" />
    <glyph glyph-name="G" unicode="G" horiz-adv-x="1661" 
d="M1507 85q-318 -116 -594 -116q-381 0 -595.5 206.5t-214.5 570.5q0 348 218 560t604 212q315 0 576 -132v-349h-43q-258 203 -486 203q-218 0 -344 -132t-126 -356q0 -509 518 -509q53 0 97 4v292h-297v281h687v-735z" />
    <glyph glyph-name="H" unicode="H" horiz-adv-x="1715" 
d="M1525 0h-384v656h-567v-656h-384v1489h384v-545h567v545h384v-1489z" />
    <glyph glyph-name="I" unicode="I" horiz-adv-x="1118" 
d="M995 0h-872v264h244v961h-244v264h872v-264h-244v-961h244v-264z" />
    <glyph glyph-name="J" unicode="J" horiz-adv-x="1137" 
d="M966 437q0 -208 -145.5 -334t-424.5 -126q-209 0 -354 29v302h36q125 -49 233 -49q123 0 180 38t74 98t17 227v593h-341v274h725v-1052z" />
    <glyph glyph-name="K" unicode="K" horiz-adv-x="1579" 
d="M1580 0h-471l-445 596l-90 -109v-487h-384v1489h384v-674l532 674h445l-582 -689z" />
    <glyph glyph-name="L" unicode="L" horiz-adv-x="1305" 
d="M1264 0h-1074v1489h384v-1201h690v-288z" />
    <glyph glyph-name="M" unicode="M" horiz-adv-x="1941" 
d="M1751 0h-382v997l-276 -647h-265l-276 647v-997h-362v1489h446l335 -747l334 747h446v-1489z" />
    <glyph glyph-name="N" unicode="N" horiz-adv-x="1734" 
d="M1544 0h-370l-632 1022v-1022h-352v1489h459l543 -853v853h352v-1489z" />
    <glyph glyph-name="O" unicode="O" horiz-adv-x="1741" 
d="M870 -31q-360 0 -563.5 209.5t-203.5 565.5q0 358 204 567t563 209q356 0 562 -208t206 -568q0 -356 -203.5 -565.5t-564.5 -209.5zM1239 745q0 239 -101 366.5t-267 127.5q-170 0 -269.5 -129t-99.5 -366t100 -365.5t269 -128.5q163 0 265.5 126t102.5 369z" />
    <glyph glyph-name="P" unicode="P" horiz-adv-x="1501" 
d="M574 485v-485h-384v1489h632q297 0 447 -123t150 -347q0 -232 -163 -383t-443 -151h-239zM574 1211v-446h110q208 0 273 62t65 183q0 74 -45 122.5t-106.5 63.5t-230.5 15h-66z" />
    <glyph glyph-name="Q" unicode="Q" horiz-adv-x="1741" 
d="M1170 18q4 -97 53 -141t172 -44q79 0 175 39h38v-264q-132 -33 -322 -33q-450 0 -476 398q-336 19 -521.5 223.5t-185.5 547.5q0 358 204 567t563 209q356 0 562 -208t206 -568q0 -264 -119 -456t-349 -270zM1239 745q0 239 -101 366.5t-267 127.5q-170 0 -269.5 -129
t-99.5 -366t100 -365.5t269 -128.5q163 0 265.5 126t102.5 369z" />
    <glyph glyph-name="R" unicode="R" horiz-adv-x="1602" 
d="M1624 0h-469l-406 546h-177v-546h-382v1489h644q327 0 457.5 -115.5t130.5 -293.5q0 -299 -295 -442zM572 1215v-401h118q211 0 273 59.5t62 159.5q0 73 -33.5 112.5t-91 54.5t-189.5 15h-139z" />
    <glyph glyph-name="S" unicode="S" horiz-adv-x="1455" 
d="M109 88v357h42q250 -197 550 -197q286 0 286 151q0 43 -39 83.5t-211 74.5q-221 44 -345.5 91.5t-199 147t-74.5 249.5q0 208 187 339.5t479 131.5q286 0 539 -100v-343h-41q-221 169 -487 169q-132 0 -207 -40.5t-75 -105.5q0 -59 46.5 -92t248.5 -72
q334 -66 454 -173.5t120 -290.5q0 -220 -186.5 -357.5t-506.5 -137.5q-302 0 -580 115z" />
    <glyph glyph-name="T" unicode="T" horiz-adv-x="1396" 
d="M1355 1201h-465v-1201h-384v1201h-465v288h1314v-288z" />
    <glyph glyph-name="U" unicode="U" horiz-adv-x="1663" 
d="M1494 539q0 -276 -168 -423t-495 -147q-321 0 -491.5 144.5t-170.5 424.5v951h386v-929q0 -155 65 -231t211 -76q144 0 210.5 73t66.5 234v929h386v-950z" />
    <glyph glyph-name="V" unicode="V" horiz-adv-x="1564" 
d="M1540 1489l-543 -1489h-430l-543 1489h403l360 -1046l360 1046h393z" />
    <glyph glyph-name="W" unicode="W" horiz-adv-x="2311" 
d="M2245 1489l-401 -1489h-425l-267 970l-260 -970h-425l-401 1489h401l229 -1025l274 1025h383l261 -1025l240 1025h391z" />
    <glyph glyph-name="X" unicode="X" horiz-adv-x="1564" 
d="M1540 0h-444l-321 490l-327 -490h-424l528 750l-517 739h443l310 -464l319 464h425l-520 -724z" />
    <glyph glyph-name="Y" unicode="Y" horiz-adv-x="1509" 
d="M1500 1489l-549 -913v-576h-384v558l-558 931h436l322 -576l311 576h422z" />
    <glyph glyph-name="Z" unicode="Z" horiz-adv-x="1417" 
d="M1341 0h-1251v279l742 922h-706v288h1175v-284l-741 -917h781v-288z" />
    <glyph glyph-name="bracketleft" unicode="[" horiz-adv-x="1113" 
d="M916 -392h-668v1948h668v-240h-355v-1468h355v-240z" />
    <glyph glyph-name="backslash" unicode="\" horiz-adv-x="1412" 
d="M1289 -324h-307l-793 1880h310z" />
    <glyph glyph-name="bracketright" unicode="]" horiz-adv-x="1113" 
d="M866 -392h-668v240h355v1468h-355v240h668v-1948z" />
    <glyph glyph-name="asciicircum" unicode="^" horiz-adv-x="1776" 
d="M1580 642h-320l-388 567l-357 -569h-318l550 849h249z" />
    <glyph glyph-name="underscore" unicode="_" 
d="M1472 -350h-1488v211h1488v-211z" />
    <glyph glyph-name="grave" unicode="`" 
d="M972 1283h-246l-352 373v20h351z" />
    <glyph glyph-name="a" unicode="a" horiz-adv-x="1368" 
d="M850 119q-108 -85 -190 -117t-198 -32q-160 0 -268 99t-108 253q0 195 151 293.5t615 122.5v6q0 85 -68 124.5t-232 39.5q-115 0 -335 -80h-33v271q235 56 443 56q306 0 443 -95t137 -296v-764h-357v119zM850 293v234q-250 -20 -324 -55.5t-74 -120.5q0 -78 45 -108
t146 -30q111 0 207 80z" />
    <glyph glyph-name="b" unicode="b" horiz-adv-x="1432" 
d="M530 56l-15 -56h-345v1556h360v-550q184 148 369 148q212 0 327.5 -153t115.5 -424q0 -265 -147 -432t-365 -167q-170 0 -300 78zM530 822v-564q64 -24 158 -24q283 0 283 336q0 150 -51 231t-182 81q-106 0 -208 -60z" />
    <glyph glyph-name="c" unicode="c" horiz-adv-x="1205" 
d="M1137 1064v-307h-51q-155 140 -327 140q-144 0 -221.5 -91.5t-77.5 -248.5q0 -330 305 -330q185 0 321 137h51v-307q-185 -87 -382 -87q-312 0 -489.5 151.5t-177.5 435.5q0 289 179 443t477 154q202 0 393 -90z" />
    <glyph glyph-name="d" unicode="d" horiz-adv-x="1432" 
d="M1262 0h-360v117q-179 -148 -361 -148q-205 0 -328 157.5t-123 426.5q0 270 148.5 435.5t365.5 165.5q143 0 298 -76v478h360v-1556zM902 310v551q-71 30 -157 30q-284 0 -284 -334q0 -165 57 -239.5t183 -74.5q104 0 201 67z" />
    <glyph glyph-name="e" unicode="e" horiz-adv-x="1360" 
d="M1276 495h-824q18 -272 373 -272q208 0 390 129h40v-289q-224 -93 -469 -93q-336 0 -517 151t-181 434q0 278 170.5 440.5t467.5 162.5q274 0 412 -138.5t138 -398.5v-126zM918 706q-5 227 -221 227q-229 0 -246 -227h467z" />
    <glyph glyph-name="f" unicode="f" horiz-adv-x="865" 
d="M898 1292h-27l-50 13q-52 12 -95 12q-104 0 -142.5 -36.5t-38.5 -148.5v-9h278v-244h-266v-879h-360v879h-154v244h154v31q0 412 441 412q147 0 260 -20v-254z" />
    <glyph glyph-name="g" unicode="g" horiz-adv-x="1432" 
d="M1262 129q0 -282 -149 -417t-476 -135q-220 0 -427 48v281h44q188 -69 331 -69q169 0 243 57t74 216v21q-141 -115 -320 -115q-492 0 -492 574q0 264 147.5 414t361.5 150q171 0 301 -81l13 50h349v-994zM902 354v509q-72 28 -157 28q-284 0 -284 -309
q0 -163 60.5 -226.5t179.5 -63.5q104 0 201 62z" />
    <glyph glyph-name="h" unicode="h" horiz-adv-x="1459" 
d="M1298 0h-362v557q0 179 -35 242.5t-162 63.5q-95 0 -209 -67v-796h-360v1556h360v-557q197 155 381 155q188 0 287.5 -110t99.5 -313v-731z" />
    <glyph glyph-name="i" unicode="i" horiz-adv-x="700" 
d="M540 1283h-380v273h380v-273zM530 0h-360v1123h360v-1123z" />
    <glyph glyph-name="j" unicode="j" horiz-adv-x="825" 
d="M656 1283h-383v273h383v-273zM656 -20q0 -191 -118 -297t-300 -106q-180 0 -296 26v258h28l49 -12q55 -12 97 -12q104 0 142 62t38 204v776h-213v244h573v-1143z" />
    <glyph glyph-name="k" unicode="k" horiz-adv-x="1374" 
d="M1362 0h-419l-315 489l-98 -119v-370h-360v1556h360v-929l388 496h415l-404 -484z" />
    <glyph glyph-name="l" unicode="l" horiz-adv-x="700" 
d="M530 0h-360v1556h360v-1556z" />
    <glyph glyph-name="m" unicode="m" horiz-adv-x="2167" 
d="M1268 796v-796h-362v561q0 187 -32.5 244.5t-150.5 57.5q-81 0 -193 -67v-796h-360v1123h360v-124q195 155 366 155q232 0 329 -195q234 195 410 195q371 0 371 -423v-731h-362v561q0 186 -30.5 244t-152.5 58q-78 0 -193 -67z" />
    <glyph glyph-name="n" unicode="n" horiz-adv-x="1459" 
d="M1298 0h-362v557q0 179 -35 242.5t-162 63.5q-95 0 -209 -67v-796h-360v1123h360v-124q197 155 381 155q188 0 287.5 -110t99.5 -313v-731z" />
    <glyph glyph-name="o" unicode="o" horiz-adv-x="1406" 
d="M703 -35q-294 0 -454.5 159.5t-160.5 436.5q0 280 162.5 438.5t452.5 158.5q295 0 455 -161t160 -436q0 -276 -161 -436t-454 -160zM945 559q0 348 -242 348t-242 -348q0 -343 245 -343q239 0 239 343z" />
    <glyph glyph-name="p" unicode="p" horiz-adv-x="1432" 
d="M530 56v-468h-360v1535h360v-117q184 148 369 148q212 0 327.5 -155.5t115.5 -421.5q0 -262 -145.5 -430.5t-366.5 -168.5q-155 0 -300 78zM530 822v-565q53 -22 158 -22q283 0 283 335q0 164 -56 238t-177 74q-106 0 -208 -60z" />
    <glyph glyph-name="q" unicode="q" horiz-adv-x="1432" 
d="M1262 -412h-360v522q-168 -141 -361 -141q-206 0 -328.5 157.5t-122.5 426.5q0 270 148.5 435.5t365.5 165.5q142 0 296 -81l13 50h349v-1535zM902 310v551q-71 30 -157 30q-284 0 -284 -334q0 -165 57 -239.5t183 -74.5q104 0 201 67z" />
    <glyph glyph-name="r" unicode="r" horiz-adv-x="1018" 
d="M984 780h-32l-44 8q-54 8 -115 8q-143 0 -263 -44v-752h-360v1123h360v-165q190 169 369 169q48 0 85 -4v-343z" />
    <glyph glyph-name="s" unicode="s" horiz-adv-x="1215" 
d="M95 59v296h33q211 -146 442 -146q208 0 208 93q0 43 -43.5 66.5t-209.5 47.5q-425 63 -425 361q0 162 154 269.5t419 107.5q223 0 422 -80v-284h-31q-187 124 -390 124q-87 0 -146.5 -24t-59.5 -68q0 -47 42 -70t231 -54q241 -40 323 -126.5t82 -215.5
q0 -175 -155.5 -281t-427.5 -106q-260 0 -468 90z" />
    <glyph glyph-name="t" unicode="t" horiz-adv-x="933" 
d="M888 10q-116 -32 -282 -32q-210 0 -312.5 84.5t-102.5 291.5v525h-148v244h148v321h360v-321h337v-244h-337v-398q0 -123 10 -163t45.5 -67.5t114.5 -27.5q68 0 137 34h30v-247z" />
    <glyph glyph-name="u" unicode="u" horiz-adv-x="1459" 
d="M1289 0h-360v124q-126 -94 -202.5 -124.5t-178.5 -30.5q-186 0 -286.5 107t-100.5 316v731h362v-557q0 -213 44.5 -259.5t151.5 -46.5q104 0 210 67v796h360v-1123z" />
    <glyph glyph-name="v" unicode="v" horiz-adv-x="1331" 
d="M1301 1123l-433 -1123h-408l-430 1123h381l260 -772l257 772h373z" />
    <glyph glyph-name="w" unicode="w" horiz-adv-x="2006" 
d="M1961 1123l-348 -1123h-382l-229 757l-225 -757h-387l-345 1123h378l192 -774l240 774h319l228 -774l189 774h370z" />
    <glyph glyph-name="x" unicode="x" horiz-adv-x="1370" 
d="M1344 0h-420l-240 336l-246 -336h-412l443 561l-436 562h420l236 -330l237 330h413l-437 -553z" />
    <glyph glyph-name="y" unicode="y" horiz-adv-x="1333" 
d="M677 397l256 726h370l-624 -1535h-390l178 420l-437 1115h378z" />
    <glyph glyph-name="z" unicode="z" horiz-adv-x="1222" 
d="M1139 0h-1055v231l592 629h-568v263h1020v-227l-583 -628h594v-268z" />
    <glyph glyph-name="braceleft" unicode="{" 
d="M1255 -392h-274q-193 0 -309 98t-116 289v147q0 178 -79.5 247.5t-254.5 69.5h-70v246h70q176 0 255 69t79 248v147q0 191 116 289t309 98h274v-224h-114q-155 0 -206.5 -57.5t-51.5 -188.5v-109q0 -268 -302 -383v-24q302 -115 302 -383v-109q0 -124 48.5 -185
t209.5 -61h114v-224z" />
    <glyph glyph-name="bar" unicode="|" horiz-adv-x="1113" 
d="M702 -392h-291v1948h291v-1948z" />
    <glyph glyph-name="braceright" unicode="}" 
d="M1304 459h-70q-175 0 -254.5 -69.5t-79.5 -247.5v-147q0 -190 -116.5 -288.5t-308.5 -98.5h-274v224h114q155 0 206.5 57.5t51.5 188.5v109q0 268 302 383v24q-302 115 -302 383v109q0 132 -51.5 189t-206.5 57h-114v224h274q192 0 308.5 -98.5t116.5 -288.5v-147
q0 -178 78.5 -247.5t255.5 -69.5h70v-246z" />
    <glyph glyph-name="asciitilde" unicode="~" horiz-adv-x="1776" 
d="M1623 1007q0 -331 -110.5 -505.5t-322.5 -174.5q-112 0 -189 42.5t-177 158.5l-57 70q-64 79 -97.5 105.5t-72.5 26.5q-87 0 -126.5 -78.5t-43.5 -326.5h-270q0 680 433 680q103 0 195 -46t226 -221q102 -136 172 -136q96 0 131.5 88t38.5 317h270z" />
    <glyph glyph-name="exclamdown" unicode="&#xa1;" horiz-adv-x="824" 
d="M614 1225h-404v264h404v-264zM621 0h-418l46 1060h326z" />
    <glyph glyph-name="cent" unicode="&#xa2;" 
d="M1271 67q-177 -72 -307 -80v-348h-174v345q-287 19 -444.5 170t-157.5 413t155.5 417t446.5 176v315h174v-319q145 -14 307 -82v-295h-49q-138 110 -262 130v-676q145 21 262 129h49v-295zM794 236v672q-115 -24 -179.5 -116t-64.5 -225q0 -275 244 -331z" />
    <glyph glyph-name="sterling" unicode="&#xa3;" 
d="M1325 0h-1171v281q124 34 166 106t42 216h-176v217h176v261q0 192 147.5 314.5t389.5 122.5q194 0 368 -48v-312h-45q-136 86 -268 86q-106 0 -168.5 -60.5t-62.5 -165.5v-198h437v-217h-437q0 -89 -48 -178.5t-121 -128.5v-11h771v-285z" />
    <glyph glyph-name="currency" unicode="&#xa4;" 
d="M1283 273l-160 -161l-208 207q-83 -48 -187 -48q-102 0 -187 48l-209 -209l-163 163l210 208q-45 81 -45 183q0 109 50 192l-208 210l156 157l209 -209q82 45 188 45q99 0 182 -44l210 208l162 -162l-209 -208q49 -83 49 -187q0 -107 -47 -186zM725 836q-71 0 -120 -49
t-49 -120q0 -70 49 -119t120 -49q70 0 119 49t49 119q0 71 -49 120t-119 49z" />
    <glyph glyph-name="yen" unicode="&#xa5;" 
d="M1404 1489l-495 -819v-28h315v-174h-313v-136h313v-174h-313v-158h-368v158h-313v174h313v136h-313v174h315v28l-493 819h418l265 -532l265 532h404z" />
    <glyph glyph-name="brokenbar" unicode="&#xa6;" horiz-adv-x="1113" 
d="M702 758h-291v798h291v-798zM702 -392h-291v798h291v-798z" />
    <glyph glyph-name="section" unicode="&#xa7;" 
d="M1091 278v-7q182 -96 182 -281q0 -163 -162 -272.5t-449 -109.5q-94 0 -229 16.5t-210 40.5v290h34q161 -93 350 -93q256 0 256 117q0 55 -52.5 86t-159.5 60l-136 41q-364 110 -364 355q0 196 214 329v7q-185 98 -185 291q0 159 169 265.5t443 106.5q239 0 427 -57v-290
h-32q-180 93 -341 93q-113 0 -184.5 -32.5t-71.5 -84.5q0 -48 39.5 -76.5t164.5 -64.5q335 -98 423 -192t88 -209q0 -204 -214 -329zM618 752q-108 -79 -108 -171q0 -71 73 -114.5t256 -91.5q107 77 107 172q0 70 -70.5 113t-257.5 92z" />
    <glyph glyph-name="dieresis" unicode="&#xa8;" 
d="M1145 1283h-297v273h297v-273zM608 1283h-297v273h297v-273z" />
    <glyph glyph-name="copyright" unicode="&#xa9;" horiz-adv-x="1974" 
d="M987 -210q-359 0 -612 253t-253 612q0 358 253.5 611.5t611.5 253.5q357 0 611 -254t254 -611q0 -358 -253.5 -611.5t-611.5 -253.5zM988 1335q-278 0 -476 -200.5t-198 -479.5t197 -479.5t477 -200.5t477 201t197 479t-198 479t-476 201zM1321 277q-155 -72 -288 -72
q-222 0 -349 124t-127 331q0 208 134 333t342 125q138 0 288 -71v-206h-21q-130 101 -263 101q-230 0 -230 -282q0 -136 60.5 -207.5t169.5 -71.5q137 0 263 101h21v-205z" />
    <glyph glyph-name="ordfeminine" unicode="&#xaa;" horiz-adv-x="1224" 
d="M1028 596h-286v95q-129 -119 -300 -119q-123 0 -206.5 79.5t-83.5 202.5q0 161 117 237t474 96v4q0 75 -57.5 103.5t-172.5 28.5q-95 0 -260 -65h-25v216q181 46 337 46q238 0 350.5 -76t112.5 -237v-611zM742 831v187q-193 -15 -254 -42t-61 -99q0 -60 35 -85t119 -25
q86 0 161 64z" />
    <glyph glyph-name="guillemotleft" unicode="&#xab;" horiz-adv-x="1740" 
d="M819 128l-602 463v135l602 462v-307l-302 -223l302 -223v-307zM1446 128l-602 463v135l602 462v-307l-302 -223l302 -223v-307z" />
    <glyph glyph-name="logicalnot" unicode="&#xac;" horiz-adv-x="1776" 
d="M1545 29h-285v528h-1044v269h1329v-797z" />
    <glyph glyph-name="registered" unicode="&#xae;" horiz-adv-x="1974" 
d="M987 -210q-359 0 -612 253t-253 612q0 358 253.5 611.5t611.5 253.5q357 0 611 -254t254 -611q0 -358 -253.5 -611.5t-611.5 -253.5zM988 1335q-278 0 -476 -200.5t-198 -479.5t197 -479.5t477 -200.5t477 201t197 479t-198 479t-476 201zM1473 245h-271l-261 316h-86
v-316h-212v861h327q132 0 202.5 -19.5t118.5 -74t48 -146.5q0 -173 -191 -250zM855 957v-243h51q116 0 156.5 35.5t40.5 100.5q0 107 -181 107h-67z" />
    <glyph glyph-name="macron" unicode="&#xaf;" 
d="M1472 1628h-1488v211h1488v-211z" />
    <glyph glyph-name="degree" unicode="&#xb0;" horiz-adv-x="1203" 
d="M602 684q-179 0 -300.5 121.5t-121.5 296.5t121.5 296.5t300.5 121.5q180 0 301 -122t121 -296q0 -175 -122 -296.5t-300 -121.5zM602 1301q-84 0 -139 -59t-55 -140q0 -85 56 -141.5t138 -56.5q84 0 139 59t55 139q0 81 -56 140t-138 59z" />
    <glyph glyph-name="plusminus" unicode="&#xb1;" horiz-adv-x="1776" 
d="M1558 0h-1340v268h534v416h-534v268h533v529h274v-529h533v-268h-534v-416h534v-268z" />
    <glyph glyph-name="uni00B2" unicode="&#xb2;" horiz-adv-x="1224" 
d="M1037 566h-807v189q174 103 276.5 182.5t132 132t29.5 109.5q0 122 -160 122q-106 0 -249 -80h-23v237q184 61 352 61q386 0 386 -286q0 -110 -65 -205t-294 -256h422v-206z" />
    <glyph glyph-name="uni00B3" unicode="&#xb3;" horiz-adv-x="1224" 
d="M224 600v216h22q141 -70 277 -70q198 0 198 102q0 45 -31 68.5t-129 23.5h-153v195h137q151 0 151 93q0 87 -172 87q-119 0 -262 -70h-23v213q177 61 361 61q178 0 283.5 -60t105.5 -178q0 -169 -173 -226v-8q196 -42 196 -219q0 -286 -430 -286q-213 0 -358 58z" />
    <glyph glyph-name="acute" unicode="&#xb4;" 
d="M1083 1676v-20l-352 -373h-246l247 393h351z" />
    <glyph glyph-name="mu" unicode="&#xb5;" horiz-adv-x="1477" 
d="M1307 0h-319l-16 80h-7q-110 -95 -224 -95q-120 0 -211 87v-484h-360v1535h360v-799q83 -66 208 -66q124 0 209 66v799h360v-1123z" />
    <glyph glyph-name="paragraph" unicode="&#xb6;" 
d="M1252 -363h-202v1672h-151v-1672h-212v956q-275 6 -413.5 127t-138.5 329t152 324t423 116h542v-1852z" />
    <glyph glyph-name="periodcentered" unicode="&#xb7;" horiz-adv-x="740" 
d="M557 464h-374v393h374v-393z" />
    <glyph glyph-name="periodcentered" unicode="&#x2219;" horiz-adv-x="740" 
d="M557 464h-374v393h374v-393z" />
    <glyph glyph-name="cedilla" unicode="&#xb8;" 
d="M434 -399v200h23q87 -35 158 -35q77 0 115 34t43 63.5t5 156.5h223q5 -82 5 -106q0 -161 -99.5 -249t-259.5 -88q-136 0 -213 24z" />
    <glyph glyph-name="uni00B9" unicode="&#xb9;" horiz-adv-x="1224" 
d="M986 566h-698v188h217v426h-226v178q247 0 262 135h238v-739h207v-188z" />
    <glyph glyph-name="ordmasculine" unicode="&#xba;" horiz-adv-x="1224" 
d="M612 566q-229 0 -357 127t-128 350q0 221 128 349t357 128q231 0 358 -128t127 -349t-128 -349t-357 -128zM801 1041q0 279 -189 279t-189 -279q0 -274 191 -274q187 0 187 274z" />
    <glyph glyph-name="guillemotright" unicode="&#xbb;" horiz-adv-x="1740" 
d="M1523 591l-602 -463v307l302 223l-302 223v307l602 -462v-135zM896 591l-602 -463v307l302 223l-302 223v307l602 -462v-135z" />
    <glyph glyph-name="onequarter" unicode="&#xbc;" horiz-adv-x="2420" 
d="M1689 1498l-785 -1498h-269l785 1498h269zM711 559h-277v607h-234v182q252 0 269 145h242v-934zM2262 198h-167v-197h-262v197h-474v261l459 486h277v-561h167v-186zM1837 384v338l-326 -338h326z" />
    <glyph glyph-name="onehalf" unicode="&#xbd;" horiz-adv-x="2420" 
d="M1654 1498l-785 -1498h-269l785 1498h269zM2283 0h-807v189q174 103 276.5 182.5t132 132t29.5 109.5q0 122 -160 122q-106 0 -249 -80h-23v237q184 61 352 61q386 0 386 -286q0 -110 -65 -205t-294 -256h422v-206zM691 559h-277v607h-234v182q252 0 269 145h242v-934z
" />
    <glyph glyph-name="threequarters" unicode="&#xbe;" horiz-adv-x="2420" 
d="M178 600v216h22q141 -70 277 -70q198 0 198 102q0 45 -31 68.5t-129 23.5h-153v195h137q151 0 151 93q0 87 -172 87q-119 0 -262 -70h-23v213q177 61 361 61q178 0 283.5 -60t105.5 -178q0 -169 -173 -226v-8q196 -42 196 -219q0 -286 -430 -286q-213 0 -358 58z
M1784 1498l-785 -1498h-269l785 1498h269zM2311 198h-167v-197h-262v197h-474v261l459 486h277v-561h167v-186zM1886 384v338l-326 -338h326z" />
    <glyph glyph-name="questiondown" unicode="&#xbf;" horiz-adv-x="1263" 
d="M901 1225h-404v264h404v-264zM1116 56q-223 -86 -467 -86q-247 0 -392 109t-145 285q0 184 101 300t312 197v228h352v-337q-192 -47 -283.5 -130.5t-91.5 -186.5q0 -185 246 -185q152 0 328 111h40v-305z" />
    <glyph glyph-name="Agrave" unicode="&#xc0;" horiz-adv-x="1590" 
d="M1566 0h-397l-103 301h-552l-103 -301h-387l550 1489h442zM973 574l-183 534l-183 -534h366zM1032 1656h-246l-352 373v20h351z" />
    <glyph glyph-name="Aacute" unicode="&#xc1;" horiz-adv-x="1590" 
d="M1566 0h-397l-103 301h-552l-103 -301h-387l550 1489h442zM973 574l-183 534l-183 -534h366zM1133 2049v-20l-352 -373h-246l247 393h351z" />
    <glyph glyph-name="Acircumflex" unicode="&#xc2;" horiz-adv-x="1590" 
d="M1566 0h-397l-103 301h-552l-103 -301h-387l550 1489h442zM973 574l-183 534l-183 -534h366zM1242 1646h-264l-185 219l-184 -219h-260l321 393h251z" />
    <glyph glyph-name="Atilde" unicode="&#xc3;" horiz-adv-x="1590" 
d="M1566 0h-397l-103 301h-552l-103 -301h-387l550 1489h442zM973 574l-183 534l-183 -534h366zM1199 1991q-18 -332 -285 -332q-70 0 -167 58q-93 58 -131 58q-82 0 -85 -122h-219q6 152 83.5 241.5t200.5 89.5q50 0 90.5 -17t148.5 -76q32 -18 59 -18q82 0 86 118h219z
" />
    <glyph glyph-name="Adieresis" unicode="&#xc4;" horiz-adv-x="1590" 
d="M1566 0h-397l-103 301h-552l-103 -301h-387l550 1489h442zM973 574l-183 534l-183 -534h366zM1214 1656h-297v273h297v-273zM677 1656h-297v273h297v-273z" />
    <glyph glyph-name="Aring" unicode="&#xc5;" horiz-adv-x="1590" 
d="M1566 0h-397l-103 301h-552l-103 -301h-387l524 1419q-95 93 -95 208q0 126 102 217t240 91t240 -91t102 -217q0 -116 -95 -208zM795 1780q-59 0 -97.5 -40.5t-38.5 -104.5t38.5 -105t97.5 -41q61 0 98.5 42.5t37.5 103.5q0 62 -38.5 103.5t-97.5 41.5zM973 574l-183 534
l-183 -534h366z" />
    <glyph glyph-name="AE" unicode="&#xc6;" horiz-adv-x="2240" 
d="M1034 404h-469l-162 -404h-399l611 1489h1493v-288h-695v-257h645v-288h-645v-368h695v-288h-1074v404zM679 688h355v527h-144z" />
    <glyph glyph-name="Ccedilla" unicode="&#xc7;" horiz-adv-x="1482" 
d="M858 -26q-354 2 -554.5 206t-200.5 563t206.5 567t554.5 208q280 0 526 -124v-361h-44q-229 198 -423 198q-189 0 -305 -126.5t-116 -362.5q0 -235 117 -359.5t306 -124.5q204 0 425 197h40v-356q-205 -90 -307 -106l1 -107q-1 -58 -22 -112.5t-66 -99.5t-113 -71
t-156 -26q-136 0 -213 24v200h23q87 -35 158 -35q163 0 163 160v48z" />
    <glyph glyph-name="Egrave" unicode="&#xc8;" horiz-adv-x="1399" 
d="M1267 0h-1077v1489h1077v-288h-695v-257h645v-288h-645v-368h695v-288zM979 1656h-246l-352 373v20h351z" />
    <glyph glyph-name="Eacute" unicode="&#xc9;" horiz-adv-x="1399" 
d="M1267 0h-1077v1489h1077v-288h-695v-257h645v-288h-645v-368h695v-288zM1099 2049v-20l-352 -373h-246l247 393h351z" />
    <glyph glyph-name="Ecircumflex" unicode="&#xca;" horiz-adv-x="1399" 
d="M1267 0h-1077v1489h1077v-288h-695v-257h645v-288h-645v-368h695v-288zM1175 1656h-264l-185 219l-184 -219h-260l321 393h251z" />
    <glyph glyph-name="Edieresis" unicode="&#xcb;" horiz-adv-x="1399" 
d="M1267 0h-1077v1489h1077v-288h-695v-257h645v-288h-645v-368h695v-288zM1145 1656h-297v273h297v-273zM608 1656h-297v273h297v-273z" />
    <glyph glyph-name="Igrave" unicode="&#xcc;" horiz-adv-x="1118" 
d="M995 0h-872v264h244v961h-244v264h872v-264h-244v-961h244v-264zM793 1656h-246l-352 373v20h351z" />
    <glyph glyph-name="Iacute" unicode="&#xcd;" horiz-adv-x="1118" 
d="M995 0h-872v264h244v961h-244v264h872v-264h-244v-961h244v-264zM914 2049v-20l-352 -373h-246l247 393h351z" />
    <glyph glyph-name="Icircumflex" unicode="&#xce;" horiz-adv-x="1118" 
d="M995 0h-872v264h244v961h-244v264h872v-264h-244v-961h244v-264zM1007 1656h-264l-185 219l-184 -219h-260l321 393h251z" />
    <glyph glyph-name="Idieresis" unicode="&#xcf;" horiz-adv-x="1118" 
d="M995 0h-872v264h244v961h-244v264h872v-264h-244v-961h244v-264zM977 1656h-297v273h297v-273zM440 1656h-297v273h297v-273z" />
    <glyph glyph-name="Eth" unicode="&#xd0;" horiz-adv-x="1700" 
d="M190 0v679h-162v233h162v577h540q456 0 661.5 -212t205.5 -534q0 -246 -126.5 -424t-300.5 -248.5t-455 -70.5h-525zM574 1211v-299h317v-233h-317v-400h97q180 0 282 36.5t174.5 140t72.5 290.5q0 179 -71 282.5t-175 143t-283 39.5h-97z" />
    <glyph glyph-name="Ntilde" unicode="&#xd1;" horiz-adv-x="1734" 
d="M1544 0h-370l-632 1022v-1022h-352v1489h459l543 -853v853h352v-1489zM1312 1991q-18 -332 -285 -332q-70 0 -167 58q-93 58 -131 58q-82 0 -85 -122h-219q6 152 83.5 241.5t200.5 89.5q50 0 90.5 -17t148.5 -76q32 -18 59 -18q82 0 86 118h219z" />
    <glyph glyph-name="Ograve" unicode="&#xd2;" horiz-adv-x="1741" 
d="M870 -31q-360 0 -563.5 209.5t-203.5 565.5q0 358 204 567t563 209q356 0 562 -208t206 -568q0 -356 -203.5 -565.5t-564.5 -209.5zM1239 745q0 239 -101 366.5t-267 127.5q-170 0 -269.5 -129t-99.5 -366t100 -365.5t269 -128.5q163 0 265.5 126t102.5 369zM1115 1656
h-246l-352 373v20h351z" />
    <glyph glyph-name="Oacute" unicode="&#xd3;" horiz-adv-x="1741" 
d="M870 -31q-360 0 -563.5 209.5t-203.5 565.5q0 358 204 567t563 209q356 0 562 -208t206 -568q0 -356 -203.5 -565.5t-564.5 -209.5zM1239 745q0 239 -101 366.5t-267 127.5q-170 0 -269.5 -129t-99.5 -366t100 -365.5t269 -128.5q163 0 265.5 126t102.5 369zM1224 2049
v-20l-352 -373h-246l247 393h351z" />
    <glyph glyph-name="Ocircumflex" unicode="&#xd4;" horiz-adv-x="1741" 
d="M870 -31q-360 0 -563.5 209.5t-203.5 565.5q0 358 204 567t563 209q356 0 562 -208t206 -568q0 -356 -203.5 -565.5t-564.5 -209.5zM1239 745q0 239 -101 366.5t-267 127.5q-170 0 -269.5 -129t-99.5 -366t100 -365.5t269 -128.5q163 0 265.5 126t102.5 369zM1318 1656
h-264l-185 219l-184 -219h-260l321 393h251z" />
    <glyph glyph-name="Otilde" unicode="&#xd5;" horiz-adv-x="1741" 
d="M870 -31q-360 0 -563.5 209.5t-203.5 565.5q0 358 204 567t563 209q356 0 562 -208t206 -568q0 -356 -203.5 -565.5t-564.5 -209.5zM1239 745q0 239 -101 366.5t-267 127.5q-170 0 -269.5 -129t-99.5 -366t100 -365.5t269 -128.5q163 0 265.5 126t102.5 369zM1315 1991
q-18 -332 -285 -332q-70 0 -167 58q-93 58 -131 58q-82 0 -85 -122h-219q6 152 83.5 241.5t200.5 89.5q50 0 90.5 -17t148.5 -76q32 -18 59 -18q82 0 86 118h219z" />
    <glyph glyph-name="Odieresis" unicode="&#xd6;" horiz-adv-x="1741" 
d="M870 -31q-360 0 -563.5 209.5t-203.5 565.5q0 358 204 567t563 209q356 0 562 -208t206 -568q0 -356 -203.5 -565.5t-564.5 -209.5zM1239 745q0 239 -101 366.5t-267 127.5q-170 0 -269.5 -129t-99.5 -366t100 -365.5t269 -128.5q163 0 265.5 126t102.5 369zM1288 1656
h-297v273h297v-273zM751 1656h-297v273h297v-273z" />
    <glyph glyph-name="multiply" unicode="&#xd7;" horiz-adv-x="1776" 
d="M1512 1099l-437 -437l437 -437l-187 -187l-437 437l-437 -437l-187 187l437 437l-437 437l187 187l437 -437l437 437z" />
    <glyph glyph-name="Oslash" unicode="&#xd8;" horiz-adv-x="1741" 
d="M329 162q-226 216 -226 582q0 358 204 567t563 209q229 0 402 -92l123 164h210l-196 -261q229 -214 229 -587q0 -356 -203.5 -565.5t-564.5 -209.5q-230 0 -407 96l-155 -207h-207zM547 445l538 732q-93 70 -214 70q-178 0 -277.5 -133.5t-99.5 -369.5q0 -176 53 -299z
M1192 1049l-541 -733q92 -74 220 -74q165 0 270.5 126.5t105.5 376.5q0 179 -55 304z" />
    <glyph glyph-name="Ugrave" unicode="&#xd9;" horiz-adv-x="1663" 
d="M1494 539q0 -276 -168 -423t-495 -147q-321 0 -491.5 144.5t-170.5 424.5v951h386v-929q0 -155 65 -231t211 -76q144 0 210.5 73t66.5 234v929h386v-950zM1112 1656h-246l-352 373v20h351z" />
    <glyph glyph-name="Uacute" unicode="&#xda;" horiz-adv-x="1663" 
d="M1494 539q0 -276 -168 -423t-495 -147q-321 0 -491.5 144.5t-170.5 424.5v951h386v-929q0 -155 65 -231t211 -76q144 0 210.5 73t66.5 234v929h386v-950zM1124 2049v-20l-352 -373h-246l247 393h351z" />
    <glyph glyph-name="Ucircumflex" unicode="&#xdb;" horiz-adv-x="1663" 
d="M1494 539q0 -276 -168 -423t-495 -147q-321 0 -491.5 144.5t-170.5 424.5v951h386v-929q0 -155 65 -231t211 -76q144 0 210.5 73t66.5 234v929h386v-950zM1279 1656h-264l-185 219l-184 -219h-260l321 393h251z" />
    <glyph glyph-name="Udieresis" unicode="&#xdc;" horiz-adv-x="1663" 
d="M1494 539q0 -276 -168 -423t-495 -147q-321 0 -491.5 144.5t-170.5 424.5v951h386v-929q0 -155 65 -231t211 -76q144 0 210.5 73t66.5 234v929h386v-950zM1249 1656h-297v273h297v-273zM712 1656h-297v273h297v-273z" />
    <glyph glyph-name="Yacute" unicode="&#xdd;" horiz-adv-x="1509" 
d="M1500 1489l-549 -913v-576h-384v558l-558 931h436l322 -576l311 576h422zM1083 2049v-20l-352 -373h-246l247 393h351z" />
    <glyph glyph-name="Thorn" unicode="&#xde;" horiz-adv-x="1505" 
d="M574 262v-262h-384v1489h384v-225h234q299 0 455 -120.5t156 -349.5q0 -237 -169.5 -384.5t-450.5 -147.5h-225zM574 986v-446h94q230 0 292 62.5t62 182.5q0 77 -41 122.5t-107.5 62t-230.5 16.5h-69z" />
    <glyph glyph-name="germandbls" unicode="&#xdf;" horiz-adv-x="1460" 
d="M648 0v272h40l39 -9q40 -9 76 -9q88 0 148.5 61.5t60.5 173.5q0 113 -78 160.5t-241 47.5v267q212 0 212 200q0 162 -176 162q-199 0 -199 -240v-1086h-360v1056q0 244 151 377t414 133q257 0 393 -100.5t136 -255.5q0 -135 -82.5 -230t-208.5 -112v-9
q184 -25 295.5 -129.5t111.5 -261.5q0 -238 -152 -360t-407 -122q-103 0 -173 14z" />
    <glyph glyph-name="agrave" unicode="&#xe0;" horiz-adv-x="1368" 
d="M850 119q-108 -85 -190 -117t-198 -32q-160 0 -268 99t-108 253q0 195 151 293.5t615 122.5v6q0 85 -68 124.5t-232 39.5q-115 0 -335 -80h-33v271q235 56 443 56q306 0 443 -95t137 -296v-764h-357v119zM850 293v234q-250 -20 -324 -55.5t-74 -120.5q0 -78 45 -108
t146 -30q111 0 207 80zM933 1283h-246l-352 373v20h351z" />
    <glyph glyph-name="aacute" unicode="&#xe1;" horiz-adv-x="1368" 
d="M850 119q-108 -85 -190 -117t-198 -32q-160 0 -268 99t-108 253q0 195 151 293.5t615 122.5v6q0 85 -68 124.5t-232 39.5q-115 0 -335 -80h-33v271q235 56 443 56q306 0 443 -95t137 -296v-764h-357v119zM850 293v234q-250 -20 -324 -55.5t-74 -120.5q0 -78 45 -108
t146 -30q111 0 207 80zM1044 1676v-20l-352 -373h-246l247 393h351z" />
    <glyph glyph-name="acircumflex" unicode="&#xe2;" horiz-adv-x="1368" 
d="M850 119q-108 -85 -190 -117t-198 -32q-160 0 -268 99t-108 253q0 195 151 293.5t615 122.5v6q0 85 -68 124.5t-232 39.5q-115 0 -335 -80h-33v271q235 56 443 56q306 0 443 -95t137 -296v-764h-357v119zM850 293v234q-250 -20 -324 -55.5t-74 -120.5q0 -78 45 -108
t146 -30q111 0 207 80zM1106 1283h-264l-185 219l-184 -219h-260l321 393h251z" />
    <glyph glyph-name="atilde" unicode="&#xe3;" horiz-adv-x="1368" 
d="M850 119q-108 -85 -190 -117t-198 -32q-160 0 -268 99t-108 253q0 195 151 293.5t615 122.5v6q0 85 -68 124.5t-232 39.5q-115 0 -335 -80h-33v271q235 56 443 56q306 0 443 -95t137 -296v-764h-357v119zM850 293v234q-250 -20 -324 -55.5t-74 -120.5q0 -78 45 -108
t146 -30q111 0 207 80zM1117 1618q-18 -332 -285 -332q-70 0 -167 58q-93 58 -131 58q-82 0 -85 -122h-219q6 152 83.5 241.5t200.5 89.5q50 0 90.5 -17t148.5 -76q32 -18 59 -18q82 0 86 118h219z" />
    <glyph glyph-name="adieresis" unicode="&#xe4;" horiz-adv-x="1368" 
d="M850 119q-108 -85 -190 -117t-198 -32q-160 0 -268 99t-108 253q0 195 151 293.5t615 122.5v6q0 85 -68 124.5t-232 39.5q-115 0 -335 -80h-33v271q235 56 443 56q306 0 443 -95t137 -296v-764h-357v119zM850 293v234q-250 -20 -324 -55.5t-74 -120.5q0 -78 45 -108
t146 -30q111 0 207 80zM1091 1283h-297v273h297v-273zM554 1283h-297v273h297v-273z" />
    <glyph glyph-name="aring" unicode="&#xe5;" horiz-adv-x="1368" 
d="M850 119q-108 -85 -190 -117t-198 -32q-160 0 -268 99t-108 253q0 195 151 293.5t615 122.5v6q0 85 -68 124.5t-232 39.5q-115 0 -335 -80h-33v271q167 42 352 51q-176 86 -176 271q0 130 93 215.5t225 85.5q133 0 225.5 -86.5t92.5 -214.5q0 -97 -53.5 -172t-136.5 -105
q401 -45 401 -380v-764h-357v119zM678 1568q-59 0 -97.5 -42.5t-38.5 -105.5q0 -64 38.5 -105t97.5 -41q61 0 98.5 42.5t37.5 103.5q0 60 -38 104t-98 44zM850 293v234q-250 -20 -324 -55.5t-74 -120.5q0 -78 45 -108t146 -30q111 0 207 80z" />
    <glyph glyph-name="ae" unicode="&#xe6;" horiz-adv-x="2085" 
d="M2001 495h-811q17 -272 367 -272q205 0 383 129h40v-289q-224 -93 -462 -93q-332 0 -541 184l-85 -60q-176 -124 -423 -124q-171 0 -277 98t-106 254q0 196 152 294t604 122v6q0 85 -63 124.5t-227 39.5q-115 0 -335 -80h-33v271q235 56 443 56q284 0 438 -111
q178 114 394 114q542 0 542 -537v-126zM1643 706q-6 227 -215 227q-222 0 -239 -227h454zM877 306q-41 98 -41 220q-234 -17 -309 -55t-75 -120q0 -79 46.5 -108.5t140.5 -29.5q114 0 238 93z" />
    <glyph glyph-name="ccedilla" unicode="&#xe7;" horiz-adv-x="1205" 
d="M726 -27q-303 8 -470.5 158.5t-167.5 425.5q0 289 179 443t477 154q202 0 393 -90v-307h-51q-155 140 -327 140q-144 0 -221.5 -91.5t-77.5 -248.5q0 -330 305 -330q185 0 321 137h51v-307q-123 -51 -187 -63l1 -107q-1 -59 -22 -113.5t-66 -99.5t-113 -71t-156 -26
q-136 0 -213 24v200h23q87 -35 158 -35q164 0 164 160v47z" />
    <glyph glyph-name="egrave" unicode="&#xe8;" horiz-adv-x="1360" 
d="M1276 495h-824q18 -272 373 -272q208 0 390 129h40v-289q-224 -93 -469 -93q-336 0 -517 151t-181 434q0 278 170.5 440.5t467.5 162.5q274 0 412 -138.5t138 -398.5v-126zM918 706q-5 227 -221 227q-229 0 -246 -227h467zM943 1283h-246l-352 373v20h351z" />
    <glyph glyph-name="eacute" unicode="&#xe9;" horiz-adv-x="1360" 
d="M1276 495h-824q18 -272 373 -272q208 0 390 129h40v-289q-224 -93 -469 -93q-336 0 -517 151t-181 434q0 278 170.5 440.5t467.5 162.5q274 0 412 -138.5t138 -398.5v-126zM918 706q-5 227 -221 227q-229 0 -246 -227h467zM1064 1676v-20l-352 -373h-246l247 393h351z
" />
    <glyph glyph-name="ecircumflex" unicode="&#xea;" horiz-adv-x="1360" 
d="M1276 495h-824q18 -272 373 -272q208 0 390 129h40v-289q-224 -93 -469 -93q-336 0 -517 151t-181 434q0 278 170.5 440.5t467.5 162.5q274 0 412 -138.5t138 -398.5v-126zM918 706q-5 227 -221 227q-229 0 -246 -227h467zM1164 1283h-264l-185 219l-184 -219h-260
l321 393h251z" />
    <glyph glyph-name="edieresis" unicode="&#xeb;" horiz-adv-x="1360" 
d="M1276 495h-824q18 -272 373 -272q208 0 390 129h40v-289q-224 -93 -469 -93q-336 0 -517 151t-181 434q0 278 170.5 440.5t467.5 162.5q274 0 412 -138.5t138 -398.5v-126zM918 706q-5 227 -221 227q-229 0 -246 -227h467zM1125 1283h-297v273h297v-273zM588 1283h-297
v273h297v-273z" />
    <glyph glyph-name="igrave" unicode="&#xec;" horiz-adv-x="700" 
d="M530 0h-360v1123h360v-1123zM593 1283h-246l-352 373v20h351z" />
    <glyph glyph-name="iacute" unicode="&#xed;" horiz-adv-x="700" 
d="M530 0h-360v1123h360v-1123zM703 1676v-20l-352 -373h-246l247 393h351z" />
    <glyph glyph-name="icircumflex" unicode="&#xee;" horiz-adv-x="700" 
d="M712 1283h-239l-125 213l-124 -213h-235l234 393h255zM530 0h-360v1123h360v-1123z" />
    <glyph glyph-name="idieresis" unicode="&#xef;" horiz-adv-x="700" 
d="M718 1283h-277v273h277v-273zM259 1283h-277v273h277v-273zM530 0h-360v1123h360v-1123z" />
    <glyph glyph-name="eth" unicode="&#xf0;" horiz-adv-x="1391" 
d="M894 973q-53 130 -179 252l-335 -132l-77 176l254 97q-172 133 -274 165v25h455q8 0 115 -76l228 94l76 -175l-143 -59q283 -289 283 -680q0 -326 -157.5 -510.5t-453.5 -184.5q-280 0 -439.5 147.5t-159.5 404.5q0 229 153.5 371.5t398.5 142.5q134 0 255 -58zM920 712
q-102 78 -217 78q-241 0 -241 -267q0 -147 61.5 -227t173.5 -80q231 0 231 391q0 43 -8 105z" />
    <glyph glyph-name="ntilde" unicode="&#xf1;" horiz-adv-x="1459" 
d="M1298 0h-362v557q0 179 -35 242.5t-162 63.5q-95 0 -209 -67v-796h-360v1123h360v-124q197 155 381 155q188 0 287.5 -110t99.5 -313v-731zM1184 1618q-18 -332 -285 -332q-70 0 -167 58q-93 58 -131 58q-82 0 -85 -122h-219q6 152 83.5 241.5t200.5 89.5q50 0 90.5 -17
t148.5 -76q32 -18 59 -18q82 0 86 118h219z" />
    <glyph glyph-name="ograve" unicode="&#xf2;" horiz-adv-x="1406" 
d="M703 -35q-294 0 -454.5 159.5t-160.5 436.5q0 280 162.5 438.5t452.5 158.5q295 0 455 -161t160 -436q0 -276 -161 -436t-454 -160zM945 559q0 348 -242 348t-242 -348q0 -343 245 -343q239 0 239 343zM948 1283h-246l-352 373v20h351z" />
    <glyph glyph-name="oacute" unicode="&#xf3;" horiz-adv-x="1406" 
d="M703 -35q-294 0 -454.5 159.5t-160.5 436.5q0 280 162.5 438.5t452.5 158.5q295 0 455 -161t160 -436q0 -276 -161 -436t-454 -160zM945 559q0 348 -242 348t-242 -348q0 -343 245 -343q239 0 239 343zM1059 1676v-20l-352 -373h-246l247 393h351z" />
    <glyph glyph-name="ocircumflex" unicode="&#xf4;" horiz-adv-x="1406" 
d="M703 -35q-294 0 -454.5 159.5t-160.5 436.5q0 280 162.5 438.5t452.5 158.5q295 0 455 -161t160 -436q0 -276 -161 -436t-454 -160zM945 559q0 348 -242 348t-242 -348q0 -343 245 -343q239 0 239 343zM1151 1283h-264l-185 219l-184 -219h-260l321 393h251z" />
    <glyph glyph-name="otilde" unicode="&#xf5;" horiz-adv-x="1406" 
d="M703 -35q-294 0 -454.5 159.5t-160.5 436.5q0 280 162.5 438.5t452.5 158.5q295 0 455 -161t160 -436q0 -276 -161 -436t-454 -160zM945 559q0 348 -242 348t-242 -348q0 -343 245 -343q239 0 239 343zM1148 1618q-18 -332 -285 -332q-70 0 -167 58q-93 58 -131 58
q-82 0 -85 -122h-219q6 152 83.5 241.5t200.5 89.5q50 0 90.5 -17t148.5 -76q32 -18 59 -18q82 0 86 118h219z" />
    <glyph glyph-name="odieresis" unicode="&#xf6;" horiz-adv-x="1406" 
d="M703 -35q-294 0 -454.5 159.5t-160.5 436.5q0 280 162.5 438.5t452.5 158.5q295 0 455 -161t160 -436q0 -276 -161 -436t-454 -160zM945 559q0 348 -242 348t-242 -348q0 -343 245 -343q239 0 239 343zM1121 1283h-297v273h297v-273zM584 1283h-297v273h297v-273z" />
    <glyph glyph-name="divide" unicode="&#xf7;" horiz-adv-x="1776" 
d="M1058 1001h-340v323h340v-323zM1558 528h-1340v268h1340v-268zM1058 0h-340v323h340v-323z" />
    <glyph glyph-name="oslash" unicode="&#xf8;" horiz-adv-x="1406" 
d="M284 100q-196 167 -196 461q0 280 162.5 438.5t452.5 158.5q175 0 319 -71l121 166h175l-182 -242q182 -163 182 -450q0 -276 -161 -436t-454 -160q-168 0 -302 63l-139 -190h-174zM479 356l375 509q-58 48 -151 48q-249 0 -249 -354q0 -115 25 -203zM933 745l-366 -498
q55 -37 139 -37q247 0 247 349q0 101 -20 186z" />
    <glyph glyph-name="ugrave" unicode="&#xf9;" horiz-adv-x="1459" 
d="M1289 0h-360v124q-126 -94 -202.5 -124.5t-178.5 -30.5q-186 0 -286.5 107t-100.5 316v731h362v-557q0 -213 44.5 -259.5t151.5 -46.5q104 0 210 67v796h360v-1123zM982 1283h-246l-352 373v20h351z" />
    <glyph glyph-name="uacute" unicode="&#xfa;" horiz-adv-x="1459" 
d="M1289 0h-360v124q-126 -94 -202.5 -124.5t-178.5 -30.5q-186 0 -286.5 107t-100.5 316v731h362v-557q0 -213 44.5 -259.5t151.5 -46.5q104 0 210 67v796h360v-1123zM1054 1676v-20l-352 -373h-246l247 393h351z" />
    <glyph glyph-name="ucircumflex" unicode="&#xfb;" horiz-adv-x="1459" 
d="M1289 0h-360v124q-126 -94 -202.5 -124.5t-178.5 -30.5q-186 0 -286.5 107t-100.5 316v731h362v-557q0 -213 44.5 -259.5t151.5 -46.5q104 0 210 67v796h360v-1123zM1177 1283h-264l-185 219l-184 -219h-260l321 393h251z" />
    <glyph glyph-name="udieresis" unicode="&#xfc;" horiz-adv-x="1459" 
d="M1289 0h-360v124q-126 -94 -202.5 -124.5t-178.5 -30.5q-186 0 -286.5 107t-100.5 316v731h362v-557q0 -213 44.5 -259.5t151.5 -46.5q104 0 210 67v796h360v-1123zM1144 1283h-297v273h297v-273zM607 1283h-297v273h297v-273z" />
    <glyph glyph-name="yacute" unicode="&#xfd;" horiz-adv-x="1333" 
d="M677 397l256 726h370l-624 -1535h-390l178 420l-437 1115h378zM1044 1676v-20l-352 -373h-246l247 393h351z" />
    <glyph glyph-name="thorn" unicode="&#xfe;" horiz-adv-x="1432" 
d="M530 56v-468h-360v1968h360v-550q184 148 369 148q212 0 327.5 -155.5t115.5 -421.5q0 -262 -145.5 -430.5t-366.5 -168.5q-155 0 -300 78zM530 822v-565q53 -22 158 -22q283 0 283 335q0 164 -56 238t-177 74q-106 0 -208 -60z" />
    <glyph glyph-name="ydieresis" unicode="&#xff;" horiz-adv-x="1333" 
d="M677 397l256 726h370l-624 -1535h-390l178 420l-437 1115h378zM1096 1283h-297v273h297v-273zM559 1283h-297v273h297v-273z" />
    <glyph glyph-name="Amacron" unicode="&#x100;" horiz-adv-x="1590" 
d="M1566 0h-397l-103 301h-552l-103 -301h-387l550 1489h442zM973 574l-183 534l-183 -534h366zM1196 1719h-802v210h802v-210z" />
    <glyph glyph-name="amacron" unicode="&#x101;" horiz-adv-x="1368" 
d="M850 119q-108 -85 -190 -117t-198 -32q-160 0 -268 99t-108 253q0 195 151 293.5t615 122.5v6q0 85 -68 124.5t-232 39.5q-115 0 -335 -80h-33v271q235 56 443 56q306 0 443 -95t137 -296v-764h-357v119zM850 293v234q-250 -20 -324 -55.5t-74 -120.5q0 -78 45 -108
t146 -30q111 0 207 80zM1081 1346h-802v210h802v-210z" />
    <glyph glyph-name="Abreve" unicode="&#x102;" horiz-adv-x="1590" 
d="M1566 0h-397l-103 301h-552l-103 -301h-387l550 1489h442zM973 574l-183 534l-183 -534h366zM1181 2009q0 -177 -100 -279t-286 -102q-184 0 -285.5 96.5t-101.5 284.5h223q0 -204 164 -204q163 0 163 204h223z" />
    <glyph glyph-name="abreve" unicode="&#x103;" horiz-adv-x="1368" 
d="M850 119q-108 -85 -190 -117t-198 -32q-160 0 -268 99t-108 253q0 195 151 293.5t615 122.5v6q0 85 -68 124.5t-232 39.5q-115 0 -335 -80h-33v271q235 56 443 56q306 0 443 -95t137 -296v-764h-357v119zM850 293v234q-250 -20 -324 -55.5t-74 -120.5q0 -78 45 -108
t146 -30q111 0 207 80zM1061 1636q0 -177 -100 -279t-286 -102q-184 0 -285.5 96.5t-101.5 284.5h223q0 -204 164 -204q163 0 163 204h223z" />
    <glyph glyph-name="Aogonek" unicode="&#x104;" horiz-adv-x="1590" 
d="M1144 73l-78 228h-552l-103 -301h-387l550 1489h442l550 -1489h-239q-4 -44 -4 -84q0 -62 49.5 -102.5t131.5 -40.5q81 0 158 34h9v-200q-82 -24 -211 -24q-353 0 -353 318q0 70 37 172zM973 574l-183 534l-183 -534h366z" />
    <glyph glyph-name="aogonek" unicode="&#x105;" horiz-adv-x="1368" 
d="M850 119q-107 -84 -188.5 -116.5t-199.5 -32.5q-160 0 -268 99t-108 253q0 192 147 291t619 125v6q0 85 -68 124.5t-232 39.5q-115 0 -335 -80h-33v271q235 56 443 56q306 0 443 -95t137 -296v-764h-145q-4 -44 -4 -84q0 -62 49.5 -102.5t131.5 -40.5q81 0 158 34h9v-200
q-82 -24 -211 -24q-154 0 -232 57.5t-102.5 135t-15.5 261.5zM850 293v234q-250 -20 -324 -55.5t-74 -120.5q0 -79 45.5 -108.5t145.5 -29.5q111 0 207 80z" />
    <glyph glyph-name="Cacute" unicode="&#x106;" horiz-adv-x="1482" 
d="M1390 1394v-361h-44q-229 198 -423 198q-189 0 -305 -126.5t-116 -362.5q0 -235 117 -359.5t306 -124.5q204 0 425 197h40v-356q-150 -70 -261.5 -99t-265.5 -29q-347 0 -553.5 201t-206.5 571q0 359 206.5 567t554.5 208q280 0 526 -124zM1185 2049v-20l-352 -373h-246
l247 393h351z" />
    <glyph glyph-name="cacute" unicode="&#x107;" horiz-adv-x="1205" 
d="M1137 1064v-307h-51q-155 140 -327 140q-144 0 -221.5 -91.5t-77.5 -248.5q0 -330 305 -330q185 0 321 137h51v-307q-185 -87 -382 -87q-312 0 -489.5 151.5t-177.5 435.5q0 289 179 443t477 154q202 0 393 -90zM1061 1676v-20l-352 -373h-246l247 393h351z" />
    <glyph glyph-name="Ccircumflex" unicode="&#x108;" horiz-adv-x="1482" 
d="M1390 1394v-361h-44q-229 198 -423 198q-189 0 -305 -126.5t-116 -362.5q0 -235 117 -359.5t306 -124.5q204 0 425 197h40v-356q-150 -70 -261.5 -99t-265.5 -29q-347 0 -553.5 201t-206.5 571q0 359 206.5 567t554.5 208q280 0 526 -124zM1287 1656h-264l-185 219
l-184 -219h-260l321 393h251z" />
    <glyph glyph-name="ccircumflex" unicode="&#x109;" horiz-adv-x="1205" 
d="M1137 1064v-307h-51q-155 140 -327 140q-144 0 -221.5 -91.5t-77.5 -248.5q0 -330 305 -330q185 0 321 137h51v-307q-185 -87 -382 -87q-312 0 -489.5 151.5t-177.5 435.5q0 289 179 443t477 154q202 0 393 -90zM1140 1283h-264l-185 219l-184 -219h-260l321 393h251z
" />
    <glyph glyph-name="Cdotaccent" unicode="&#x10a;" horiz-adv-x="1482" 
d="M1390 1394v-361h-44q-229 198 -423 198q-189 0 -305 -126.5t-116 -362.5q0 -235 117 -359.5t306 -124.5q204 0 425 197h40v-356q-150 -70 -261.5 -99t-265.5 -29q-347 0 -553.5 201t-206.5 571q0 359 206.5 567t554.5 208q280 0 526 -124zM1032 1656h-370v273h370v-273z
" />
    <glyph glyph-name="cdotaccent" unicode="&#x10b;" horiz-adv-x="1205" 
d="M1137 1064v-307h-51q-155 140 -327 140q-144 0 -221.5 -91.5t-77.5 -248.5q0 -330 305 -330q185 0 321 137h51v-307q-185 -87 -382 -87q-312 0 -489.5 151.5t-177.5 435.5q0 289 179 443t477 154q202 0 393 -90zM877 1283h-370v273h370v-273z" />
    <glyph glyph-name="Ccaron" unicode="&#x10c;" horiz-adv-x="1482" 
d="M1390 1394v-361h-44q-229 198 -423 198q-189 0 -305 -126.5t-116 -362.5q0 -235 117 -359.5t306 -124.5q204 0 425 197h40v-356q-150 -70 -261.5 -99t-265.5 -29q-347 0 -553.5 201t-206.5 571q0 359 206.5 567t554.5 208q280 0 526 -124zM1292 2049l-321 -393h-251
l-321 393h264l185 -227l184 227h260z" />
    <glyph glyph-name="ccaron" unicode="&#x10d;" horiz-adv-x="1205" 
d="M1137 1064v-307h-51q-155 140 -327 140q-144 0 -221.5 -91.5t-77.5 -248.5q0 -330 305 -330q185 0 321 137h51v-307q-185 -87 -382 -87q-312 0 -489.5 151.5t-177.5 435.5q0 289 179 443t477 154q202 0 393 -90zM1129 1676l-321 -393h-251l-321 393h264l185 -227l184 227
h260z" />
    <glyph glyph-name="Dcaron" unicode="&#x10e;" horiz-adv-x="1700" 
d="M190 0v1489h540q456 0 661.5 -212t205.5 -534q0 -246 -126.5 -424t-300.5 -248.5t-455 -70.5h-525zM574 1211v-932h97q180 0 282 36.5t174.5 140t72.5 290.5q0 179 -71 282.5t-175 143t-283 39.5h-97zM1267 2049l-321 -393h-251l-321 393h264l185 -227l184 227h260z" />
    <glyph glyph-name="dcaron" unicode="&#x10f;" horiz-adv-x="1802" 
d="M1262 0h-360v117q-179 -148 -361 -148q-205 0 -328 157.5t-123 426.5q0 270 148.5 435.5t365.5 165.5q143 0 298 -76v478h360v-1556zM902 310v551q-71 30 -157 30q-284 0 -284 -334q0 -165 57 -239.5t183 -74.5q104 0 201 67zM1901 1556l-291 -589h-234l157 589h368z" />
    <glyph glyph-name="Dcroat" unicode="&#x110;" horiz-adv-x="1700" 
d="M190 0v679h-162v233h162v577h540q456 0 661.5 -212t205.5 -534q0 -246 -126.5 -424t-300.5 -248.5t-455 -70.5h-525zM574 1211v-299h317v-233h-317v-400h97q180 0 282 36.5t174.5 140t72.5 290.5q0 179 -71 282.5t-175 143t-283 39.5h-97z" />
    <glyph glyph-name="dcroat" unicode="&#x111;" horiz-adv-x="1432" 
d="M1262 0h-360v117q-179 -148 -361 -148q-205 0 -328 157.5t-123 426.5q0 270 148.5 435.5t365.5 165.5q143 0 298 -76v159h-326v207h326v112h360v-112h129v-207h-129v-1237zM902 310v551q-71 30 -157 30q-284 0 -284 -334q0 -165 57 -239.5t183 -74.5q104 0 201 67z" />
    <glyph glyph-name="Emacron" unicode="&#x112;" horiz-adv-x="1399" 
d="M1267 0h-1077v1489h1077v-288h-695v-257h645v-288h-645v-368h695v-288zM1128 1719h-802v210h802v-210z" />
    <glyph glyph-name="emacron" unicode="&#x113;" horiz-adv-x="1360" 
d="M1276 495h-824q18 -272 373 -272q208 0 390 129h40v-289q-224 -93 -469 -93q-336 0 -517 151t-181 434q0 278 170.5 440.5t467.5 162.5q274 0 412 -138.5t138 -398.5v-126zM918 706q-5 227 -221 227q-229 0 -246 -227h467zM1109 1346h-802v210h802v-210z" />
    <glyph glyph-name="Ebreve" unicode="&#x114;" horiz-adv-x="1399" 
d="M1267 0h-1077v1489h1077v-288h-695v-257h645v-288h-645v-368h695v-288zM1120 2009q0 -177 -100 -279t-286 -102q-184 0 -285.5 96.5t-101.5 284.5h223q0 -204 164 -204q163 0 163 204h223z" />
    <glyph glyph-name="ebreve" unicode="&#x115;" horiz-adv-x="1360" 
d="M1276 495h-824q18 -272 373 -272q208 0 390 129h40v-289q-224 -93 -469 -93q-336 0 -517 151t-181 434q0 278 170.5 440.5t467.5 162.5q274 0 412 -138.5t138 -398.5v-126zM918 706q-5 227 -221 227q-229 0 -246 -227h467zM1108 1636q0 -177 -100 -279t-286 -102
q-184 0 -285.5 96.5t-101.5 284.5h223q0 -204 164 -204q163 0 163 204h223z" />
    <glyph glyph-name="Edotaccent" unicode="&#x116;" horiz-adv-x="1399" 
d="M1267 0h-1077v1489h1077v-288h-695v-257h645v-288h-645v-368h695v-288zM925 1656h-370v273h370v-273z" />
    <glyph glyph-name="edotaccent" unicode="&#x117;" horiz-adv-x="1360" 
d="M1276 495h-824q18 -272 373 -272q208 0 390 129h40v-289q-224 -93 -469 -93q-336 0 -517 151t-181 434q0 278 170.5 440.5t467.5 162.5q274 0 412 -138.5t138 -398.5v-126zM918 706q-5 227 -221 227q-229 0 -246 -227h467zM895 1283h-370v273h370v-273z" />
    <glyph glyph-name="Eogonek" unicode="&#x118;" horiz-adv-x="1399" 
d="M791 0h-601v1489h1077v-288h-695v-257h645v-288h-645v-368h695v-288h-261q-4 -48 -4 -84q0 -62 49.5 -102.5t131.5 -40.5q81 0 158 34h9v-200q-82 -24 -211 -24q-353 0 -353 318q0 31 5 99z" />
    <glyph glyph-name="eogonek" unicode="&#x119;" horiz-adv-x="1360" 
d="M1246 -193h9v-200q-82 -24 -211 -24q-385 0 -350 390q-293 20 -449.5 170.5t-156.5 411.5q0 278 170.5 440.5t467.5 162.5q274 0 412 -138.5t138 -398.5v-126h-824q18 -272 373 -272q208 0 390 129h40v-289q-189 -75 -347 -88l-1 -22q-8 -180 181 -180q81 0 158 34z
M918 706q-5 227 -221 227q-229 0 -246 -227h467z" />
    <glyph glyph-name="Ecaron" unicode="&#x11a;" horiz-adv-x="1399" 
d="M1267 0h-1077v1489h1077v-288h-695v-257h645v-288h-645v-368h695v-288zM1181 2049l-321 -393h-251l-321 393h264l185 -227l184 227h260z" />
    <glyph glyph-name="ecaron" unicode="&#x11b;" horiz-adv-x="1360" 
d="M1276 495h-824q18 -272 373 -272q208 0 390 129h40v-289q-224 -93 -469 -93q-336 0 -517 151t-181 434q0 278 170.5 440.5t467.5 162.5q274 0 412 -138.5t138 -398.5v-126zM918 706q-5 227 -221 227q-229 0 -246 -227h467zM1162 1676l-321 -393h-251l-321 393h264
l185 -227l184 227h260z" />
    <glyph glyph-name="Gcircumflex" unicode="&#x11c;" horiz-adv-x="1661" 
d="M1507 85q-318 -116 -594 -116q-381 0 -595.5 206.5t-214.5 570.5q0 348 218 560t604 212q315 0 576 -132v-349h-43q-258 203 -486 203q-218 0 -344 -132t-126 -356q0 -509 518 -509q53 0 97 4v292h-297v281h687v-735zM1341 1656h-264l-185 219l-184 -219h-260l321 393
h251z" />
    <glyph glyph-name="gcircumflex" unicode="&#x11d;" horiz-adv-x="1432" 
d="M1262 129q0 -282 -149 -417t-476 -135q-220 0 -427 48v281h44q188 -69 331 -69q169 0 243 57t74 216v21q-141 -115 -320 -115q-492 0 -492 574q0 264 147.5 414t361.5 150q171 0 301 -81l13 50h349v-994zM902 354v509q-72 28 -157 28q-284 0 -284 -309
q0 -163 60.5 -226.5t179.5 -63.5q104 0 201 62zM1176 1283h-264l-185 219l-184 -219h-260l321 393h251z" />
    <glyph glyph-name="Gbreve" unicode="&#x11e;" horiz-adv-x="1661" 
d="M1507 85q-318 -116 -594 -116q-381 0 -595.5 206.5t-214.5 570.5q0 348 218 560t604 212q315 0 576 -132v-349h-43q-258 203 -486 203q-218 0 -344 -132t-126 -356q0 -509 518 -509q53 0 97 4v292h-297v281h687v-735zM1271 2009q0 -177 -100 -279t-286 -102
q-184 0 -285.5 96.5t-101.5 284.5h223q0 -204 164 -204q163 0 163 204h223z" />
    <glyph glyph-name="gbreve" unicode="&#x11f;" horiz-adv-x="1432" 
d="M1262 129q0 -282 -149 -417t-476 -135q-220 0 -427 48v281h44q188 -69 331 -69q169 0 243 57t74 216v21q-141 -115 -320 -115q-492 0 -492 574q0 264 147.5 414t361.5 150q171 0 301 -81l13 50h349v-994zM902 354v509q-72 28 -157 28q-284 0 -284 -309
q0 -163 60.5 -226.5t179.5 -63.5q104 0 201 62zM1113 1636q0 -177 -100 -279t-286 -102q-184 0 -285.5 96.5t-101.5 284.5h223q0 -204 164 -204q163 0 163 204h223z" />
    <glyph glyph-name="Gdotaccent" unicode="&#x120;" horiz-adv-x="1661" 
d="M1507 85q-318 -116 -594 -116q-381 0 -595.5 206.5t-214.5 570.5q0 348 218 560t604 212q315 0 576 -132v-349h-43q-258 203 -486 203q-218 0 -344 -132t-126 -356q0 -509 518 -509q53 0 97 4v292h-297v281h687v-735zM1075 1656h-370v273h370v-273z" />
    <glyph glyph-name="gdotaccent" unicode="&#x121;" horiz-adv-x="1432" 
d="M1262 129q0 -282 -149 -417t-476 -135q-220 0 -427 48v281h44q188 -69 331 -69q169 0 243 57t74 216v21q-141 -115 -320 -115q-492 0 -492 574q0 264 147.5 414t361.5 150q171 0 301 -81l13 50h349v-994zM902 354v509q-72 28 -157 28q-284 0 -284 -309
q0 -163 60.5 -226.5t179.5 -63.5q104 0 201 62zM915 1283h-370v273h370v-273z" />
    <glyph glyph-name="uni0122" unicode="&#x122;" horiz-adv-x="1661" 
d="M1507 85q-318 -116 -594 -116q-381 0 -595.5 206.5t-214.5 570.5q0 348 218 560t604 212q315 0 576 -132v-349h-43q-258 203 -486 203q-218 0 -344 -132t-126 -356q0 -509 518 -509q53 0 97 4v292h-297v281h687v-735zM1099 -115l-215 -308h-216l140 308h291z" />
    <glyph glyph-name="uni0123" unicode="&#x123;" horiz-adv-x="1432" 
d="M1262 129q0 -282 -149 -417t-476 -135q-220 0 -427 48v281h44q188 -69 331 -69q169 0 243 57t74 216v21q-141 -115 -320 -115q-492 0 -492 574q0 264 147.5 414t361.5 150q171 0 301 -81l13 50h349v-994zM902 354v509q-72 28 -157 28q-284 0 -284 -309
q0 -163 60.5 -226.5t179.5 -63.5q104 0 201 62zM1035 1676l-227 -393h-351v20l332 373h246z" />
    <glyph glyph-name="Hcircumflex" unicode="&#x124;" horiz-adv-x="1715" 
d="M1525 0h-384v656h-567v-656h-384v1489h384v-545h567v545h384v-1489zM1304 1656h-264l-185 219l-184 -219h-260l321 393h251z" />
    <glyph glyph-name="hcircumflex" unicode="&#x125;" horiz-adv-x="1459" 
d="M1298 0h-362v557q0 179 -35 242.5t-162 63.5q-95 0 -209 -67v-796h-360v1556h360v-557q197 155 381 155q188 0 287.5 -110t99.5 -313v-731zM1202 1656h-264l-185 219l-184 -219h-260l321 393h251z" />
    <glyph glyph-name="Hbar" unicode="&#x126;" horiz-adv-x="1715" 
d="M1661 1104h-136v-1104h-384v656h-567v-656h-384v1104h-133v216h133v169h384v-169h567v169h384v-169h136v-216zM1141 944v160h-567v-160h567z" />
    <glyph glyph-name="hbar" unicode="&#x127;" horiz-adv-x="1459" 
d="M1298 0h-362v557q0 179 -35 242.5t-162 63.5q-95 0 -209 -67v-796h-360v1237h-129v207h129v112h360v-112h326v-207h-326v-238q197 155 381 155q188 0 287.5 -110t99.5 -313v-731z" />
    <glyph glyph-name="Itilde" unicode="&#x128;" horiz-adv-x="1118" 
d="M995 0h-872v264h244v961h-244v264h872v-264h-244v-961h244v-264zM1006 1991q-18 -332 -285 -332q-70 0 -167 58q-93 58 -131 58q-82 0 -85 -122h-219q6 152 83.5 241.5t200.5 89.5q50 0 90.5 -17t148.5 -76q32 -18 59 -18q82 0 86 118h219z" />
    <glyph glyph-name="itilde" unicode="&#x129;" horiz-adv-x="700" 
d="M712 1603q-11 -173 -65 -242.5t-167 -69.5q-64 0 -141 58q-78 58 -109 58q-35 0 -50.5 -25t-17.5 -97h-172q14 311 231 311q68 0 202 -95q22 -16 48 -16q67 0 69 118h172zM530 0h-360v1123h360v-1123z" />
    <glyph glyph-name="Imacron" unicode="&#x12a;" horiz-adv-x="1118" 
d="M960 1719h-802v210h802v-210zM995 0h-872v264h244v961h-244v264h872v-264h-244v-961h244v-264z" />
    <glyph glyph-name="imacron" unicode="&#x12b;" horiz-adv-x="700" 
d="M655 1346h-610v210h610v-210zM530 0h-360v1123h360v-1123z" />
    <glyph glyph-name="Ibreve" unicode="&#x12c;" horiz-adv-x="1118" 
d="M995 0h-872v264h244v961h-244v264h872v-264h-244v-961h244v-264zM949 2009q0 -177 -100 -279t-286 -102q-184 0 -285.5 96.5t-101.5 284.5h223q0 -204 164 -204q163 0 163 204h223z" />
    <glyph glyph-name="ibreve" unicode="&#x12d;" horiz-adv-x="700" 
d="M673 1636q0 -182 -84 -278.5t-238 -96.5q-323 0 -323 375h186q0 -98 28 -158.5t109 -60.5q136 0 136 219h186zM530 0h-360v1123h360v-1123z" />
    <glyph glyph-name="Iogonek" unicode="&#x12e;" horiz-adv-x="1118" 
d="M505 0h-382v264h244v961h-244v264h872v-264h-244v-961h244v-264h-275q-4 -54 -4 -84q0 -62 49.5 -102.5t131.5 -40.5q81 0 158 34h9v-200q-82 -24 -211 -24q-353 0 -353 318q0 27 5 99z" />
    <glyph glyph-name="iogonek" unicode="&#x12f;" horiz-adv-x="700" 
d="M540 1283h-380v273h380v-273zM170 119v1004h360v-1123h-150q-5 -51 -5 -84q0 -63 45.5 -103t124.5 -40q76 0 152 34h9v-200q-81 -24 -203 -24q-165 0 -254 81.5t-89 236.5q0 46 4 108q6 91 6 110z" />
    <glyph glyph-name="Idotaccent" unicode="&#x130;" horiz-adv-x="1118" 
d="M995 0h-872v264h244v961h-244v264h872v-264h-244v-961h244v-264zM744 1656h-370v273h370v-273z" />
    <glyph glyph-name="dotlessi" unicode="&#x131;" horiz-adv-x="700" 
d="M530 0h-360v1123h360v-1123z" />
    <glyph glyph-name="IJ" unicode="&#x132;" horiz-adv-x="2063" 
d="M995 0h-872v264h244v961h-244v264h872v-264h-244v-961h244v-264zM1892 437q0 -211 -127.5 -335.5t-364.5 -124.5q-173 0 -297 29v292h32q91 -49 187 -49q90 0 138 73.5t48 279.5v613h-291v274h675v-1052z" />
    <glyph glyph-name="ij" unicode="&#x133;" horiz-adv-x="1490" 
d="M1321 1283h-383v273h383v-273zM540 1283h-380v273h380v-273zM1321 -20q0 -191 -118 -297t-300 -106q-180 0 -296 26v258h28l49 -12q55 -12 97 -12q104 0 142 62t38 204v776h-213v244h573v-1143zM530 0h-360v1123h360v-1123z" />
    <glyph glyph-name="Jcircumflex" unicode="&#x134;" horiz-adv-x="1137" 
d="M966 437q0 -208 -145.5 -334t-424.5 -126q-209 0 -354 29v302h36q125 -49 233 -49q123 0 180 38t74 98t17 227v593h-341v274h725v-1052zM1056 1656h-264l-185 219l-184 -219h-260l321 393h251z" />
    <glyph glyph-name="jcircumflex" unicode="&#x135;" horiz-adv-x="825" 
d="M770 1283h-239l-145 213l-144 -213h-235l254 393h255zM656 -20q0 -191 -118 -297t-300 -106q-180 0 -296 26v258h28l49 -12q55 -12 97 -12q104 0 142 62t38 204v776h-213v244h573v-1143z" />
    <glyph glyph-name="uni0136" unicode="&#x136;" horiz-adv-x="1579" 
d="M1580 0h-471l-445 596l-90 -109v-487h-384v1489h384v-674l532 674h445l-582 -689zM1004 -115l-215 -308h-216l140 308h291z" />
    <glyph glyph-name="uni0137" unicode="&#x137;" horiz-adv-x="1374" 
d="M1362 0h-419l-315 489l-98 -119v-370h-360v1556h360v-929l388 496h415l-404 -484zM900 -115l-215 -308h-216l140 308h291z" />
    <glyph glyph-name="kgreenlandic" unicode="&#x138;" horiz-adv-x="1374" 
d="M1362 0h-419l-315 489l-98 -119v-370h-360v1123h360v-496l388 496h415l-404 -484z" />
    <glyph glyph-name="Lacute" unicode="&#x139;" horiz-adv-x="1305" 
d="M1264 0h-1074v1489h384v-1201h690v-288zM934 2049v-20l-352 -373h-246l247 393h351z" />
    <glyph glyph-name="lacute" unicode="&#x13a;" horiz-adv-x="700" 
d="M530 0h-360v1556h360v-1556zM720 2049v-20l-352 -373h-246l247 393h351z" />
    <glyph glyph-name="uni013B" unicode="&#x13b;" horiz-adv-x="1305" 
d="M1264 0h-1074v1489h384v-1201h690v-288zM898 -115l-215 -308h-216l140 308h291z" />
    <glyph glyph-name="uni013C" unicode="&#x13c;" horiz-adv-x="700" 
d="M530 0h-360v1556h360v-1556zM549 -115l-215 -308h-216l140 308h291z" />
    <glyph glyph-name="Lcaron" unicode="&#x13d;" horiz-adv-x="1305" 
d="M1291 1556l-291 -589h-234l157 589h368zM1264 0h-1074v1489h384v-1201h690v-288z" />
    <glyph glyph-name="lcaron" unicode="&#x13e;" horiz-adv-x="1070" 
d="M530 0h-360v1556h360v-1556zM1169 1556l-291 -589h-234l157 589h368z" />
    <glyph glyph-name="Ldot" unicode="&#x13f;" horiz-adv-x="1305" 
d="M1264 0h-1074v1489h384v-1201h690v-288zM1222 584h-374v393h374v-393z" />
    <glyph glyph-name="ldot" unicode="&#x140;" horiz-adv-x="1140" 
d="M530 0h-360v1556h360v-1556zM1102 584h-364v393h364v-393z" />
    <glyph glyph-name="Lslash" unicode="&#x141;" horiz-adv-x="1315" 
d="M1269 0h-1074v475l-171 -140v255l171 137v762h384v-486l342 276v-255l-342 -273v-463h690v-288z" />
    <glyph glyph-name="lslash" unicode="&#x142;" horiz-adv-x="720" 
d="M697 881l-157 -126v-755h-360v550l-156 -127v233l156 124v776h360v-570l157 128v-233z" />
    <glyph glyph-name="Nacute" unicode="&#x143;" horiz-adv-x="1734" 
d="M1544 0h-370l-632 1022v-1022h-352v1489h459l543 -853v853h352v-1489zM1251 2049v-20l-352 -373h-246l247 393h351z" />
    <glyph glyph-name="nacute" unicode="&#x144;" horiz-adv-x="1459" 
d="M1298 0h-362v557q0 179 -35 242.5t-162 63.5q-95 0 -209 -67v-796h-360v1123h360v-124q197 155 381 155q188 0 287.5 -110t99.5 -313v-731zM1099 1676v-20l-352 -373h-246l247 393h351z" />
    <glyph glyph-name="uni0145" unicode="&#x145;" horiz-adv-x="1734" 
d="M1544 0h-370l-632 1022v-1022h-352v1489h459l543 -853v853h352v-1489zM991 -115l-215 -308h-216l140 308h291z" />
    <glyph glyph-name="uni0146" unicode="&#x146;" horiz-adv-x="1459" 
d="M1298 0h-362v557q0 179 -35 242.5t-162 63.5q-95 0 -209 -67v-796h-360v1123h360v-124q197 155 381 155q188 0 287.5 -110t99.5 -313v-731zM888 -115l-215 -308h-216l140 308h291z" />
    <glyph glyph-name="Ncaron" unicode="&#x147;" horiz-adv-x="1734" 
d="M1544 0h-370l-632 1022v-1022h-352v1489h459l543 -853v853h352v-1489zM1333 2049l-321 -393h-251l-321 393h264l185 -227l184 227h260z" />
    <glyph glyph-name="ncaron" unicode="&#x148;" horiz-adv-x="1459" 
d="M1298 0h-362v557q0 179 -35 242.5t-162 63.5q-95 0 -209 -67v-796h-360v1123h360v-124q197 155 381 155q188 0 287.5 -110t99.5 -313v-731zM1189 1676l-321 -393h-251l-321 393h264l185 -227l184 227h260z" />
    <glyph glyph-name="napostrophe" unicode="&#x149;" horiz-adv-x="1690" 
d="M498 1556l-291 -589h-234l157 589h368zM1529 0h-362v557q0 179 -35 242.5t-162 63.5q-95 0 -209 -67v-796h-360v1123h360v-124q197 155 381 155q188 0 287.5 -110t99.5 -313v-731z" />
    <glyph glyph-name="Eng" unicode="&#x14a;" horiz-adv-x="1734" 
d="M1183 -3v14l-641 1011v-1022h-352v1489h459l543 -841v841h352v-1503q0 -189 -116 -299t-305 -110q-164 0 -294 26v264h27l55 -13q64 -14 107 -14q88 0 126.5 34t38.5 123z" />
    <glyph glyph-name="eng" unicode="&#x14b;" horiz-adv-x="1459" 
d="M936 100v457q0 179 -35 242.5t-162 63.5q-95 0 -209 -67v-796h-360v1123h360v-124q197 155 381 155q188 0 287.5 -110t99.5 -313v-723q0 -195 -117 -313t-300 -118q-162 0 -286 24v257h28l44 -11q48 -12 93 -12q95 0 135.5 57t40.5 208z" />
    <glyph glyph-name="Omacron" unicode="&#x14c;" horiz-adv-x="1741" 
d="M870 -31q-360 0 -563.5 209.5t-203.5 565.5q0 358 204 567t563 209q356 0 562 -208t206 -568q0 -356 -203.5 -565.5t-564.5 -209.5zM1239 745q0 239 -101 366.5t-267 127.5q-170 0 -269.5 -129t-99.5 -366t100 -365.5t269 -128.5q163 0 265.5 126t102.5 369zM1272 1719
h-802v210h802v-210z" />
    <glyph glyph-name="omacron" unicode="&#x14d;" horiz-adv-x="1406" 
d="M703 -35q-294 0 -454.5 159.5t-160.5 436.5q0 280 162.5 438.5t452.5 158.5q295 0 455 -161t160 -436q0 -276 -161 -436t-454 -160zM945 559q0 348 -242 348t-242 -348q0 -343 245 -343q239 0 239 343zM1105 1346h-802v210h802v-210z" />
    <glyph glyph-name="Obreve" unicode="&#x14e;" horiz-adv-x="1741" 
d="M870 -31q-360 0 -563.5 209.5t-203.5 565.5q0 358 204 567t563 209q356 0 562 -208t206 -568q0 -356 -203.5 -565.5t-564.5 -209.5zM1239 745q0 239 -101 366.5t-267 127.5q-170 0 -269.5 -129t-99.5 -366t100 -365.5t269 -128.5q163 0 265.5 126t102.5 369zM1257 2009
q0 -177 -100 -279t-286 -102q-184 0 -285.5 96.5t-101.5 284.5h223q0 -204 164 -204q163 0 163 204h223z" />
    <glyph glyph-name="obreve" unicode="&#x14f;" horiz-adv-x="1406" 
d="M703 -35q-294 0 -454.5 159.5t-160.5 436.5q0 280 162.5 438.5t452.5 158.5q295 0 455 -161t160 -436q0 -276 -161 -436t-454 -160zM945 559q0 348 -242 348t-242 -348q0 -343 245 -343q239 0 239 343zM1090 1636q0 -177 -100 -279t-286 -102q-184 0 -285.5 96.5
t-101.5 284.5h223q0 -204 164 -204q163 0 163 204h223z" />
    <glyph glyph-name="Ohungarumlaut" unicode="&#x150;" horiz-adv-x="1741" 
d="M870 -31q-360 0 -563.5 209.5t-203.5 565.5q0 358 204 567t563 209q356 0 562 -208t206 -568q0 -356 -203.5 -565.5t-564.5 -209.5zM1239 745q0 239 -101 366.5t-267 127.5q-170 0 -269.5 -129t-99.5 -366t100 -365.5t269 -128.5q163 0 265.5 126t102.5 369zM1395 2049
l-268 -393h-219l179 393h308zM971 2049l-268 -393h-219l179 393h308z" />
    <glyph glyph-name="ohungarumlaut" unicode="&#x151;" horiz-adv-x="1406" 
d="M703 -35q-294 0 -454.5 159.5t-160.5 436.5q0 280 162.5 438.5t452.5 158.5q295 0 455 -161t160 -436q0 -276 -161 -436t-454 -160zM945 559q0 348 -242 348t-242 -348q0 -343 245 -343q239 0 239 343zM1235 1676l-268 -393h-219l179 393h308zM811 1676l-268 -393h-219
l179 393h308z" />
    <glyph glyph-name="OE" unicode="&#x152;" horiz-adv-x="2325" 
d="M2192 1489v-288h-695v-257h645v-288h-645v-368h695v-288h-1172q-331 0 -504 76t-293 242.5t-120 427.5q0 297 206 520t672 223h1211zM899 282l100 -4h118v932h-127q-490 0 -490 -467q0 -219 117.5 -336.5t281.5 -124.5z" />
    <glyph glyph-name="oe" unicode="&#x153;" horiz-adv-x="2187" 
d="M2103 495h-811q17 -272 367 -272q205 0 383 129h40v-289q-224 -93 -462 -93q-293 0 -486 143q-170 -148 -431 -148q-289 0 -452 159t-163 437q0 280 162.5 438.5t452.5 158.5q257 0 428 -145q182 145 430 145q542 0 542 -537v-126zM1745 706q-6 227 -215 227
q-222 0 -239 -227h454zM703 907q-242 0 -242 -348q0 -343 245 -343q239 0 239 343q0 348 -242 348z" />
    <glyph glyph-name="Racute" unicode="&#x154;" horiz-adv-x="1602" 
d="M1624 0h-469l-406 546h-177v-546h-382v1489h644q327 0 457.5 -115.5t130.5 -293.5q0 -299 -295 -442zM572 1215v-401h118q211 0 273 59.5t62 159.5q0 73 -33.5 112.5t-91 54.5t-189.5 15h-139zM1163 2049v-20l-352 -373h-246l247 393h351z" />
    <glyph glyph-name="racute" unicode="&#x155;" horiz-adv-x="1018" 
d="M984 780h-32l-44 8q-54 8 -115 8q-143 0 -263 -44v-752h-360v1123h360v-165q190 169 369 169q48 0 85 -4v-343zM924 1676v-20l-352 -373h-246l247 393h351z" />
    <glyph glyph-name="uni0156" unicode="&#x156;" horiz-adv-x="1602" 
d="M1624 0h-469l-406 546h-177v-546h-382v1489h644q327 0 457.5 -115.5t130.5 -293.5q0 -299 -295 -442zM572 1215v-401h118q211 0 273 59.5t62 159.5q0 73 -33.5 112.5t-91 54.5t-189.5 15h-139zM1017 -115l-215 -308h-216l140 308h291z" />
    <glyph glyph-name="uni0157" unicode="&#x157;" horiz-adv-x="1018" 
d="M984 780h-32l-44 8q-54 8 -115 8q-143 0 -263 -44v-752h-360v1123h360v-165q190 169 369 169q48 0 85 -4v-343zM512 -115l-215 -308h-216l140 308h291z" />
    <glyph glyph-name="Rcaron" unicode="&#x158;" horiz-adv-x="1602" 
d="M1624 0h-469l-406 546h-177v-546h-382v1489h644q327 0 457.5 -115.5t130.5 -293.5q0 -299 -295 -442zM572 1215v-401h118q211 0 273 59.5t62 159.5q0 73 -33.5 112.5t-91 54.5t-189.5 15h-139zM1233 2049l-321 -393h-251l-321 393h264l185 -227l184 227h260z" />
    <glyph glyph-name="rcaron" unicode="&#x159;" horiz-adv-x="1018" 
d="M984 780h-32l-44 8q-54 8 -115 8q-143 0 -263 -44v-752h-360v1123h360v-165q190 169 369 169q48 0 85 -4v-343zM1000 1676l-321 -393h-251l-321 393h264l185 -227l184 227h260z" />
    <glyph glyph-name="Sacute" unicode="&#x15a;" horiz-adv-x="1455" 
d="M109 88v357h42q250 -197 550 -197q286 0 286 151q0 43 -39 83.5t-211 74.5q-221 44 -345.5 91.5t-199 147t-74.5 249.5q0 208 187 339.5t479 131.5q286 0 539 -100v-343h-41q-221 169 -487 169q-132 0 -207 -40.5t-75 -105.5q0 -59 46.5 -92t248.5 -72
q334 -66 454 -173.5t120 -290.5q0 -220 -186.5 -357.5t-506.5 -137.5q-302 0 -580 115zM1151 2049v-20l-352 -373h-246l247 393h351z" />
    <glyph glyph-name="sacute" unicode="&#x15b;" horiz-adv-x="1215" 
d="M95 59v296h33q211 -146 442 -146q208 0 208 93q0 43 -43.5 66.5t-209.5 47.5q-425 63 -425 361q0 162 154 269.5t419 107.5q223 0 422 -80v-284h-31q-187 124 -390 124q-87 0 -146.5 -24t-59.5 -68q0 -47 42 -70t231 -54q241 -40 323 -126.5t82 -215.5
q0 -175 -155.5 -281t-427.5 -106q-260 0 -468 90zM1011 1676v-20l-352 -373h-246l247 393h351z" />
    <glyph glyph-name="Scircumflex" unicode="&#x15c;" horiz-adv-x="1455" 
d="M109 88v357h42q250 -197 550 -197q286 0 286 151q0 43 -39 83.5t-211 74.5q-221 44 -345.5 91.5t-199 147t-74.5 249.5q0 208 187 339.5t479 131.5q286 0 539 -100v-343h-41q-221 169 -487 169q-132 0 -207 -40.5t-75 -105.5q0 -59 46.5 -92t248.5 -72
q334 -66 454 -173.5t120 -290.5q0 -220 -186.5 -357.5t-506.5 -137.5q-302 0 -580 115zM1218 1656h-264l-185 219l-184 -219h-260l321 393h251z" />
    <glyph glyph-name="scircumflex" unicode="&#x15d;" horiz-adv-x="1215" 
d="M95 59v296h33q211 -146 442 -146q208 0 208 93q0 43 -43.5 66.5t-209.5 47.5q-425 63 -425 361q0 162 154 269.5t419 107.5q223 0 422 -80v-284h-31q-187 124 -390 124q-87 0 -146.5 -24t-59.5 -68q0 -47 42 -70t231 -54q241 -40 323 -126.5t82 -215.5
q0 -175 -155.5 -281t-427.5 -106q-260 0 -468 90zM1078 1283h-264l-185 219l-184 -219h-260l321 393h251z" />
    <glyph glyph-name="Scedilla" unicode="&#x15e;" horiz-adv-x="1455" 
d="M793 -21q-48 -4 -104 -4q-311 0 -580 113v357h42q250 -197 550 -197q286 0 286 151q0 43 -39 83.5t-211 74.5q-221 44 -345.5 91.5t-199 147t-74.5 249.5q0 208 187 339.5t479 131.5q286 0 539 -100v-343h-41q-221 169 -487 169q-132 0 -207 -40.5t-75 -105.5
q0 -62 49 -94.5t246 -69.5q336 -65 455 -174t119 -290q0 -325 -368 -446q5 -55 5 -108q0 -161 -99.5 -249t-259.5 -88q-136 0 -213 24v200h23q87 -35 158 -35q165 0 165 160v53z" />
    <glyph glyph-name="scedilla" unicode="&#x15f;" horiz-adv-x="1215" 
d="M665 -25q-48 -4 -102 -4q-263 0 -468 88v296h33q211 -146 442 -146q208 0 208 93q0 41 -39.5 64.5t-213.5 49.5q-425 63 -425 361q0 162 154 269.5t419 107.5q223 0 422 -80v-284h-31q-187 124 -390 124q-87 0 -146.5 -24t-59.5 -68q0 -47 42 -70t231 -54
q241 -40 323 -126.5t82 -215.5q0 -231 -260 -333l5 -109q0 -161 -99.5 -249t-259.5 -88q-136 0 -213 24v200h23q87 -35 158 -35q165 0 165 160v49z" />
    <glyph glyph-name="Scaron" unicode="&#x160;" horiz-adv-x="1455" 
d="M109 88v357h42q250 -197 550 -197q286 0 286 151q0 43 -39 83.5t-211 74.5q-221 44 -345.5 91.5t-199 147t-74.5 249.5q0 208 187 339.5t479 131.5q286 0 539 -100v-343h-41q-221 169 -487 169q-132 0 -207 -40.5t-75 -105.5q0 -59 46.5 -92t248.5 -72
q334 -66 454 -173.5t120 -290.5q0 -220 -186.5 -357.5t-506.5 -137.5q-302 0 -580 115zM1196 2049l-321 -393h-251l-321 393h264l185 -227l184 227h260z" />
    <glyph glyph-name="scaron" unicode="&#x161;" horiz-adv-x="1215" 
d="M95 59v296h33q211 -146 442 -146q208 0 208 93q0 43 -43.5 66.5t-209.5 47.5q-425 63 -425 361q0 162 154 269.5t419 107.5q223 0 422 -80v-284h-31q-187 124 -390 124q-87 0 -146.5 -24t-59.5 -68q0 -47 42 -70t231 -54q241 -40 323 -126.5t82 -215.5
q0 -175 -155.5 -281t-427.5 -106q-260 0 -468 90zM1079 1676l-321 -393h-251l-321 393h264l185 -227l184 227h260z" />
    <glyph glyph-name="uni0162" unicode="&#x162;" horiz-adv-x="1396" 
d="M1355 1201h-465v-1181h89q5 -82 5 -106q0 -161 -99.5 -249t-259.5 -88q-136 0 -213 24v200h23q87 -35 158 -35q189 0 163 234h-250v1201h-465v288h1314v-288z" />
    <glyph glyph-name="uni0163" unicode="&#x163;" horiz-adv-x="933" 
d="M591 -22q-199 3 -299.5 88t-100.5 288v525h-148v244h148v321h360v-321h337v-244h-337v-398q0 -123 10 -163t45.5 -67.5t114.5 -27.5q68 0 137 34h30v-247l-36 -8q-19 -5 -38 -8q4 -66 4 -80q0 -161 -99.5 -249t-259.5 -88q-136 0 -213 24v200h23q87 -35 158 -35t108 28
t46.5 61.5t9.5 122.5z" />
    <glyph glyph-name="Tcaron" unicode="&#x164;" horiz-adv-x="1396" 
d="M1355 1201h-465v-1201h-384v1201h-465v288h1314v-288zM1145 2049l-321 -393h-251l-321 393h264l185 -227l184 227h260z" />
    <glyph glyph-name="tcaron" unicode="&#x165;" horiz-adv-x="953" 
d="M1176 1846l-233 -547h-224l119 547h338zM888 10q-116 -32 -282 -32q-210 0 -312.5 84.5t-102.5 291.5v525h-148v244h148v321h360v-321h337v-244h-337v-398q0 -123 10 -163t45.5 -67.5t114.5 -27.5q68 0 137 34h30v-247z" />
    <glyph glyph-name="Tbar" unicode="&#x166;" horiz-adv-x="1396" 
d="M506 605h-281v229h281v367h-465v288h1314v-288h-465v-367h281v-229h-281v-605h-384v605z" />
    <glyph glyph-name="tbar" unicode="&#x167;" horiz-adv-x="933" 
d="M888 10q-116 -32 -282 -32q-210 0 -312.5 84.5t-102.5 291.5v114h-138v212h138v199h-148v244h148v321h360v-321h337v-244h-337v-199h229v-212h-229q0 -113 10.5 -152.5t46 -66t113.5 -26.5q68 0 137 34h30v-247z" />
    <glyph glyph-name="Utilde" unicode="&#x168;" horiz-adv-x="1663" 
d="M1494 539q0 -276 -168 -423t-495 -147q-321 0 -491.5 144.5t-170.5 424.5v951h386v-929q0 -155 65 -231t211 -76q144 0 210.5 73t66.5 234v929h386v-950zM1275 1991q-18 -332 -285 -332q-70 0 -167 58q-93 58 -131 58q-82 0 -85 -122h-219q6 152 83.5 241.5t200.5 89.5
q50 0 90.5 -17t148.5 -76q32 -18 59 -18q82 0 86 118h219z" />
    <glyph glyph-name="utilde" unicode="&#x169;" horiz-adv-x="1459" 
d="M1289 0h-360v124q-126 -94 -202.5 -124.5t-178.5 -30.5q-186 0 -286.5 107t-100.5 316v731h362v-557q0 -213 44.5 -259.5t151.5 -46.5q104 0 210 67v796h360v-1123zM1190 1618q-18 -332 -285 -332q-70 0 -167 58q-93 58 -131 58q-82 0 -85 -122h-219q6 152 83.5 241.5
t200.5 89.5q50 0 90.5 -17t148.5 -76q32 -18 59 -18q82 0 86 118h219z" />
    <glyph glyph-name="Umacron" unicode="&#x16a;" horiz-adv-x="1663" 
d="M1494 539q0 -276 -168 -423t-495 -147q-321 0 -491.5 144.5t-170.5 424.5v951h386v-929q0 -155 65 -231t211 -76q144 0 210.5 73t66.5 234v929h386v-950zM1233 1719h-802v210h802v-210z" />
    <glyph glyph-name="umacron" unicode="&#x16b;" horiz-adv-x="1459" 
d="M1289 0h-360v124q-126 -94 -202.5 -124.5t-178.5 -30.5q-186 0 -286.5 107t-100.5 316v731h362v-557q0 -213 44.5 -259.5t151.5 -46.5q104 0 210 67v796h360v-1123zM1133 1346h-802v210h802v-210z" />
    <glyph glyph-name="Ubreve" unicode="&#x16c;" horiz-adv-x="1663" 
d="M1494 539q0 -276 -168 -423t-495 -147q-321 0 -491.5 144.5t-170.5 424.5v951h386v-929q0 -155 65 -231t211 -76q144 0 210.5 73t66.5 234v929h386v-950zM1220 2009q0 -177 -100 -279t-286 -102q-184 0 -285.5 96.5t-101.5 284.5h223q0 -204 164 -204q163 0 163 204h223z
" />
    <glyph glyph-name="ubreve" unicode="&#x16d;" horiz-adv-x="1459" 
d="M1289 0h-360v124q-126 -94 -202.5 -124.5t-178.5 -30.5q-186 0 -286.5 107t-100.5 316v731h362v-557q0 -213 44.5 -259.5t151.5 -46.5q104 0 210 67v796h360v-1123zM1115 1636q0 -177 -100 -279t-286 -102q-184 0 -285.5 96.5t-101.5 284.5h223q0 -204 164 -204
q163 0 163 204h223z" />
    <glyph glyph-name="Uring" unicode="&#x16e;" horiz-adv-x="1663" 
d="M1494 539q0 -276 -168 -423t-495 -147q-321 0 -491.5 144.5t-170.5 424.5v951h386v-929q0 -155 65 -231t211 -76q144 0 210.5 73t66.5 234v929h386v-950zM831 1430q-132 0 -225 85.5t-93 215.5t93 215.5t225 85.5q133 0 225.5 -86.5t92.5 -214.5t-91.5 -214.5
t-226.5 -86.5zM831 1878q-59 0 -97.5 -42.5t-38.5 -105.5q0 -64 38.5 -105t97.5 -41q61 0 98.5 42.5t37.5 103.5q0 60 -38 104t-98 44z" />
    <glyph glyph-name="uring" unicode="&#x16f;" horiz-adv-x="1459" 
d="M1289 0h-360v124q-126 -94 -202.5 -124.5t-178.5 -30.5q-186 0 -286.5 107t-100.5 316v731h362v-557q0 -213 44.5 -259.5t151.5 -46.5q104 0 210 67v796h360v-1123zM727 1120q-132 0 -225 85.5t-93 215.5t93 215.5t225 85.5q133 0 225.5 -86.5t92.5 -214.5t-91.5 -214.5
t-226.5 -86.5zM727 1568q-59 0 -97.5 -42.5t-38.5 -105.5q0 -64 38.5 -105t97.5 -41q61 0 98.5 42.5t37.5 103.5q0 60 -38 104t-98 44z" />
    <glyph glyph-name="Uhungarumlaut" unicode="&#x170;" horiz-adv-x="1663" 
d="M1494 539q0 -276 -168 -423t-495 -147q-321 0 -491.5 144.5t-170.5 424.5v951h386v-929q0 -155 65 -231t211 -76q144 0 210.5 73t66.5 234v929h386v-950zM1354 2049l-268 -393h-219l179 393h308zM930 2049l-268 -393h-219l179 393h308z" />
    <glyph glyph-name="uhungarumlaut" unicode="&#x171;" horiz-adv-x="1459" 
d="M1289 0h-360v124q-126 -94 -202.5 -124.5t-178.5 -30.5q-186 0 -286.5 107t-100.5 316v731h362v-557q0 -213 44.5 -259.5t151.5 -46.5q104 0 210 67v796h360v-1123zM1256 1676l-268 -393h-219l179 393h308zM832 1676l-268 -393h-219l179 393h308z" />
    <glyph glyph-name="Uogonek" unicode="&#x172;" horiz-adv-x="1663" 
d="M912 -27q-197 0 -303.5 18t-211.5 81.5t-166.5 180t-61.5 285.5v951h386v-929q0 -155 65 -231t211 -76q144 0 210.5 73t66.5 234v929h386v-950q0 -412 -366 -528l-3 -62q-9 -176 181 -176q81 0 158 34h9v-200q-82 -24 -211 -24q-92 0 -159.5 23t-108 63.5t-60.5 89
t-21.5 105t-0.5 109.5z" />
    <glyph glyph-name="uogonek" unicode="&#x173;" horiz-adv-x="1459" 
d="M929 124q-126 -94 -202.5 -124.5t-178.5 -30.5q-186 0 -286.5 107t-100.5 316v731h362v-557q0 -213 44.5 -259.5t151.5 -46.5q104 0 210 67v796h360v-1123h-151q-5 -52 -5 -84q0 -62 49.5 -102.5t131.5 -40.5q81 0 158 34h9v-200q-82 -24 -211 -24q-353 0 -353 318
q0 33 5 125z" />
    <glyph glyph-name="Wcircumflex" unicode="&#x174;" horiz-adv-x="2311" 
d="M2245 1489l-401 -1489h-425l-267 970l-260 -970h-425l-401 1489h401l229 -1025l274 1025h383l261 -1025l240 1025h391zM1608 1656h-264l-185 219l-184 -219h-260l321 393h251z" />
    <glyph glyph-name="wcircumflex" unicode="&#x175;" horiz-adv-x="2006" 
d="M1961 1123l-348 -1123h-382l-229 757l-225 -757h-387l-345 1123h378l192 -774l240 774h319l228 -774l189 774h370zM1463 1283h-264l-185 219l-184 -219h-260l321 393h251z" />
    <glyph glyph-name="Ycircumflex" unicode="&#x176;" horiz-adv-x="1509" 
d="M1500 1489l-549 -913v-576h-384v558l-558 931h436l322 -576l311 576h422zM1208 1656h-264l-185 219l-184 -219h-260l321 393h251z" />
    <glyph glyph-name="ycircumflex" unicode="&#x177;" horiz-adv-x="1333" 
d="M677 397l256 726h370l-624 -1535h-390l178 420l-437 1115h378zM1117 1283h-264l-185 219l-184 -219h-260l321 393h251z" />
    <glyph glyph-name="Ydieresis" unicode="&#x178;" horiz-adv-x="1509" 
d="M1500 1489l-549 -913v-576h-384v558l-558 931h436l322 -576l311 576h422zM1175 1656h-297v273h297v-273zM638 1656h-297v273h297v-273z" />
    <glyph glyph-name="Zacute" unicode="&#x179;" horiz-adv-x="1417" 
d="M1341 0h-1251v279l742 922h-706v288h1175v-284l-741 -917h781v-288zM1120 2049v-20l-352 -373h-246l247 393h351z" />
    <glyph glyph-name="zacute" unicode="&#x17a;" horiz-adv-x="1222" 
d="M1139 0h-1055v231l592 629h-568v263h1020v-227l-583 -628h594v-268zM1024 1676v-20l-352 -373h-246l247 393h351z" />
    <glyph glyph-name="Zdotaccent" unicode="&#x17b;" horiz-adv-x="1417" 
d="M1341 0h-1251v279l742 922h-706v288h1175v-284l-741 -917h781v-288zM913 1656h-370v273h370v-273z" />
    <glyph glyph-name="zdotaccent" unicode="&#x17c;" horiz-adv-x="1222" 
d="M1139 0h-1055v231l592 629h-568v263h1020v-227l-583 -628h594v-268zM816 1283h-370v273h370v-273z" />
    <glyph glyph-name="Zcaron" unicode="&#x17d;" horiz-adv-x="1417" 
d="M1341 0h-1251v279l742 922h-706v288h1175v-284l-741 -917h781v-288zM1155 2049l-321 -393h-251l-321 393h264l185 -227l184 227h260z" />
    <glyph glyph-name="zcaron" unicode="&#x17e;" horiz-adv-x="1222" 
d="M1139 0h-1055v231l592 629h-568v263h1020v-227l-583 -628h594v-268zM1059 1676l-321 -393h-251l-321 393h264l185 -227l184 227h260z" />
    <glyph glyph-name="longs" unicode="&#x17f;" horiz-adv-x="706" 
d="M871 1292h-27l-50 12q-52 13 -95 13q-92 0 -130.5 -36.5t-38.5 -148.5v-1132h-360v1154q0 412 441 412q147 0 260 -20v-254z" />
    <glyph glyph-name="florin" unicode="&#x192;" 
d="M1381 1221h-42l-54 13q-58 14 -104 14q-95 0 -151 -45t-72 -160l-23 -169h285v-217h-318l-64 -410q-70 -447 -556 -447q-110 0 -214 18v281h32l51 -14q56 -13 107 -13q98 0 153.5 48.5t72.5 165.5l56 371h-179v217h210l32 209q67 437 564 437q104 0 214 -18v-281z" />
    <glyph glyph-name="Ohorn" unicode="&#x1a0;" horiz-adv-x="1808" 
d="M309.5 1312q206.5 208 560.5 208q224 0 389.5 -84.5t261.5 -239.5q64 27 93.5 69.5t29.5 102.5q0 32 -9.5 77.5t-22.5 78.5h226q15 -37 22.5 -70t7.5 -72q0 -141 -65.5 -238t-196.5 -147q32 -117 32 -253q0 -358 -207 -566.5t-561 -208.5q-357 0 -562 209.5t-205 565.5
q0 360 206.5 568zM601 1108q-99 -131 -99 -364q0 -231 98.5 -362.5t270.5 -131.5q168 0 268 131t100 364q0 231 -99.5 362.5t-268.5 131.5q-171 0 -270 -131z" />
    <glyph glyph-name="ohorn" unicode="&#x1a1;" horiz-adv-x="1547" 
d="M252 1000q164 158 451 158q210 0 351.5 -82.5t207.5 -231.5q57 20 87.5 59.5t30.5 100.5q0 31 -9.5 76.5t-21.5 74.5h209q14 -35 21.5 -67.5t7.5 -70.5q0 -134 -69 -228t-205 -137l4 -45q0 -23 1 -46q0 -276 -163 -436t-452 -160t-452 157.5t-163 438.5t164 439zM461 559
q0 -343 245 -343q239 0 239 343q0 348 -242 348t-242 -348z" />
    <glyph glyph-name="Uhorn" unicode="&#x1af;" horiz-adv-x="1858" 
d="M1878 1524q15 -37 22.5 -70t7.5 -72q0 -180 -105 -286.5t-309 -135.5v-421q0 -276 -168 -423t-495 -147q-320 0 -491 144t-171 425v951h386v-929q0 -157 66 -232t210 -75t210.5 73t66.5 234v929h386v-311q98 19 144 68t46 122q0 32 -9.5 77.5t-22.5 78.5h226z" />
    <glyph glyph-name="uhorn" unicode="&#x1b0;" horiz-adv-x="1617" 
d="M1628 1155q14 -35 21.5 -67.5t7.5 -70.5q0 -159 -95 -259.5t-273 -126.5v-631h-360v124q-129 -96 -200 -125.5t-181 -29.5q-186 0 -286.5 107t-100.5 316v731h362v-557q0 -206 41.5 -256t154.5 -50q104 0 210 67v796h360v-291q82 18 121.5 61.5t39.5 110.5
q0 31 -9.5 76.5t-21.5 74.5h209z" />
    <glyph glyph-name="Aringacute" unicode="&#x1fa;" horiz-adv-x="1590" 
d="M1566 0h-397l-123 301h-522l-113 -301h-387l524 1299q-95 93 -95 208q0 189 199 276l189 265h337v-20l-270 -234q100 -30 164.5 -109t64.5 -178q0 -116 -95 -208zM795 1660q-59 0 -97.5 -40.5t-38.5 -104.5t38.5 -105t97.5 -41q61 0 98.5 42.5t37.5 103.5
q0 62 -38.5 103.5t-97.5 41.5zM953 574l-163 434l-173 -434h336z" />
    <glyph glyph-name="aringacute" unicode="&#x1fb;" horiz-adv-x="1368" 
d="M850 119q-108 -85 -190 -117t-198 -32q-160 0 -268 99t-108 253q0 195 151 293.5t615 122.5v6q0 85 -68 124.5t-232 39.5q-115 0 -335 -80h-33v271q167 42 352 51q-176 84 -176 265q0 192 187 272l187 291h334v-20l-291 -259q95 -27 157 -104t62 -180q0 -94 -53 -167
t-137 -104q401 -45 401 -380v-764h-357v119zM678 1558q-60 0 -98 -45t-38 -108t38 -102t98 -39t98 40.5t38 100.5t-38.5 106.5t-97.5 46.5zM850 293v234q-250 -20 -324 -55.5t-74 -120.5q0 -78 45 -108t146 -30q111 0 207 80z" />
    <glyph glyph-name="AEacute" unicode="&#x1fc;" horiz-adv-x="2240" 
d="M1034 404h-469l-162 -404h-399l611 1489h1493v-288h-695v-257h645v-288h-645v-368h695v-288h-1074v404zM679 688h355v527h-144zM1688 2049v-20l-352 -373h-246l247 393h351z" />
    <glyph glyph-name="aeacute" unicode="&#x1fd;" horiz-adv-x="2085" 
d="M2001 495h-811q17 -272 367 -272q205 0 383 129h40v-289q-224 -93 -462 -93q-332 0 -541 184l-85 -60q-176 -124 -423 -124q-171 0 -277 98t-106 254q0 196 152 294t604 122v6q0 85 -63 124.5t-227 39.5q-115 0 -335 -80h-33v271q235 56 443 56q284 0 438 -111
q178 114 394 114q542 0 542 -537v-126zM1643 706q-6 227 -215 227q-222 0 -239 -227h454zM877 306q-41 98 -41 220q-234 -17 -309 -55t-75 -120q0 -79 46.5 -108.5t140.5 -29.5q114 0 238 93zM1493 1676v-20l-352 -373h-246l247 393h351z" />
    <glyph glyph-name="Oslashacute" unicode="&#x1fe;" horiz-adv-x="1741" 
d="M329 162q-226 216 -226 582q0 358 204 567t563 209q229 0 402 -92l123 164h210l-196 -261q229 -214 229 -587q0 -356 -203.5 -565.5t-564.5 -209.5q-230 0 -407 96l-155 -207h-207zM547 445l538 732q-93 70 -214 70q-178 0 -277.5 -133.5t-99.5 -369.5q0 -176 53 -299z
M1192 1049l-541 -733q92 -74 220 -74q165 0 270.5 126.5t105.5 376.5q0 179 -55 304zM1224 2049v-20l-352 -373h-246l247 393h351z" />
    <glyph glyph-name="oslashacute" unicode="&#x1ff;" horiz-adv-x="1406" 
d="M284 100q-196 167 -196 461q0 280 162.5 438.5t452.5 158.5q175 0 319 -71l121 166h175l-182 -242q182 -163 182 -450q0 -276 -161 -436t-454 -160q-168 0 -302 63l-139 -190h-174zM479 356l375 509q-58 48 -151 48q-249 0 -249 -354q0 -115 25 -203zM933 745l-366 -498
q55 -37 139 -37q247 0 247 349q0 101 -20 186zM1059 1676v-20l-352 -373h-246l247 393h351z" />
    <glyph glyph-name="uni0218" unicode="&#x218;" horiz-adv-x="1455" 
d="M109 88v357h42q250 -197 550 -197q286 0 286 151q0 43 -39 83.5t-211 74.5q-221 44 -345.5 91.5t-199 147t-74.5 249.5q0 208 187 339.5t479 131.5q286 0 539 -100v-343h-41q-221 169 -487 169q-132 0 -207 -40.5t-75 -105.5q0 -59 46.5 -92t248.5 -72
q334 -66 454 -173.5t120 -290.5q0 -220 -186.5 -357.5t-506.5 -137.5q-302 0 -580 115zM915 -115l-215 -308h-216l140 308h291z" />
    <glyph glyph-name="uni0219" unicode="&#x219;" horiz-adv-x="1215" 
d="M95 59v296h33q211 -146 442 -146q208 0 208 93q0 43 -43.5 66.5t-209.5 47.5q-425 63 -425 361q0 162 154 269.5t419 107.5q223 0 422 -80v-284h-31q-187 124 -390 124q-87 0 -146.5 -24t-59.5 -68q0 -47 42 -70t231 -54q241 -40 323 -126.5t82 -215.5
q0 -175 -155.5 -281t-427.5 -106q-260 0 -468 90zM816 -115l-215 -308h-216l140 308h291z" />
    <glyph glyph-name="uni021A" unicode="&#x21a;" horiz-adv-x="1396" 
d="M1355 1201h-465v-1201h-384v1201h-465v288h1314v-288zM893 -115l-215 -308h-216l140 308h291z" />
    <glyph glyph-name="uni021B" unicode="&#x21b;" horiz-adv-x="933" 
d="M888 10q-116 -32 -282 -32q-210 0 -312.5 84.5t-102.5 291.5v525h-148v244h148v321h360v-321h337v-244h-337v-398q0 -123 10 -163t45.5 -67.5t114.5 -27.5q68 0 137 34h30v-247zM671 -115l-215 -308h-216l140 308h291z" />
    <glyph glyph-name="uni0237" unicode="&#x237;" horiz-adv-x="825" 
d="M656 -20q0 -191 -118 -297t-300 -106q-180 0 -296 26v258h28l49 -12q55 -12 97 -12q104 0 142 62t38 204v776h-213v244h573v-1143z" />
    <glyph glyph-name="circumflex" unicode="&#x2c6;" 
d="M1175 1283h-264l-185 219l-184 -219h-260l321 393h251z" />
    <glyph glyph-name="caron" unicode="&#x2c7;" 
d="M1176 1676l-321 -393h-251l-321 393h264l185 -227l184 227h260z" />
    <glyph glyph-name="uni02C9" unicode="&#x2c9;" 
d="M1129 1346h-802v210h802v-210z" />
    <glyph glyph-name="breve" unicode="&#x2d8;" 
d="M1115 1636q0 -177 -100 -279t-286 -102q-184 0 -285.5 96.5t-101.5 284.5h223q0 -204 164 -204q163 0 163 204h223z" />
    <glyph glyph-name="dotaccent" unicode="&#x2d9;" 
d="M913 1283h-370v273h370v-273z" />
    <glyph glyph-name="ring" unicode="&#x2da;" 
d="M728 1120q-132 0 -225 85.5t-93 215.5t93 215.5t225 85.5q133 0 225.5 -86.5t92.5 -214.5t-91.5 -214.5t-226.5 -86.5zM728 1568q-59 0 -97.5 -42.5t-38.5 -105.5q0 -64 38.5 -105t97.5 -41q61 0 98.5 42.5t37.5 103.5q0 60 -38 104t-98 44z" />
    <glyph glyph-name="ogonek" unicode="&#x2db;" 
d="M1012 -393q-82 -24 -211 -24q-353 0 -353 318q0 29 6 109h214l-3 -40l-1 -21q-8 -176 181 -176q81 0 158 34h9v-200z" />
    <glyph glyph-name="tilde" unicode="&#x2dc;" 
d="M1172 1618q-18 -332 -285 -332q-70 0 -167 58q-93 58 -131 58q-82 0 -85 -122h-219q6 152 83.5 241.5t200.5 89.5q50 0 90.5 -17t148.5 -76q32 -18 59 -18q82 0 86 118h219z" />
    <glyph glyph-name="hungarumlaut" unicode="&#x2dd;" 
d="M1245 1676l-268 -393h-219l179 393h308zM821 1676l-268 -393h-219l179 393h308z" />
    <glyph glyph-name="gravecomb" unicode="&#x300;" 
d="M972 1656h-246l-352 373v20h351z" />
    <glyph glyph-name="acutecomb" unicode="&#x301;" 
d="M1083 2049v-20l-352 -373h-246l247 393h351z" />
    <glyph glyph-name="uni0302" unicode="&#x302;" 
d="M1175 1656h-264l-185 219l-184 -219h-260l321 393h251z" />
    <glyph glyph-name="tildecomb" unicode="&#x303;" horiz-adv-x="0" 
d="M-224 1618q-18 -332 -285 -332q-73 0 -167.5 58t-130.5 58q-82 0 -85 -122h-219q6 149 84 240t200 91q45 0 70.5 -8t78.5 -36l90 -49q31 -18 59 -18q82 0 86 118h219z" />
    <glyph glyph-name="uni0306" unicode="&#x306;" 
d="M1115 2009q0 -177 -100 -279t-286 -102q-184 0 -285.5 96.5t-101.5 284.5h223q0 -204 164 -204q163 0 163 204h223z" />
    <glyph glyph-name="uni0308" unicode="&#x308;" 
d="M1145 1656h-297v273h297v-273zM608 1656h-297v273h297v-273z" />
    <glyph glyph-name="hookabovecomb" unicode="&#x309;" horiz-adv-x="0" 
d="M-791 1456q85 0 130.5 26.5t45.5 71.5q0 27 -25.5 49.5t-59.5 22.5q-30 0 -65.5 -13t-63.5 -47l-83 149q43 43 112.5 68t138.5 25q115 0 185 -65t70 -175q0 -79 -49 -133t-137 -72v-80h-199v173z" />
    <glyph glyph-name="uni030B" unicode="&#x30b;" 
d="M1245 2049l-268 -393h-219l179 393h308zM821 2049l-268 -393h-219l179 393h308z" />
    <glyph glyph-name="uni030C" unicode="&#x30c;" 
d="M1176 2049l-321 -393h-251l-321 393h264l185 -227l184 227h260z" />
    <glyph glyph-name="dotbelowcomb" unicode="&#x323;" horiz-adv-x="0" 
d="M-546 -388h-370v273h370v-273z" />
    <glyph glyph-name="uni0326" unicode="&#x326;" horiz-adv-x="1322" 
d="M900 -115l-215 -308h-216l140 308h291z" />
    <glyph glyph-name="tonos" unicode="&#x384;" 
d="M960 1678l-185 -394h-223l54 394h354z" />
    <glyph glyph-name="dieresistonos" unicode="&#x385;" 
d="M958 1678l-180 -394h-184l35 394h329zM1255 1284h-266v274h266v-274zM466 1284h-267v274h267v-274z" />
    <glyph glyph-name="Alphatonos" unicode="&#x386;" horiz-adv-x="1633" 
d="M1609 0h-397l-103 301h-552l-103 -301h-387l550 1489h442zM1016 574l-183 534l-183 -534h366zM403 1492l-185 -394h-223l54 394h354z" />
    <glyph glyph-name="anoteleia" unicode="&#x387;" horiz-adv-x="824" 
d="M599 730h-374v393h374v-393z" />
    <glyph glyph-name="Epsilontonos" unicode="&#x388;" horiz-adv-x="1736" 
d="M1603 0h-1077v1489h1077v-288h-695v-257h645v-288h-645v-368h695v-288zM403 1492l-185 -394h-223l54 394h354z" />
    <glyph glyph-name="Etatonos" unicode="&#x389;" horiz-adv-x="2050" 
d="M1860 0h-384v656h-567v-656h-384v1489h384v-545h567v545h384v-1489zM403 1492l-185 -394h-223l54 394h354z" />
    <glyph glyph-name="Iotatonos" unicode="&#x38a;" horiz-adv-x="1444" 
d="M1321 0h-872v264h244v961h-244v264h872v-264h-244v-961h244v-264zM403 1492l-185 -394h-223l54 394h354z" />
    <glyph glyph-name="Omicrontonos" unicode="&#x38c;" horiz-adv-x="1983" 
d="M1112 -31q-360 0 -563.5 209.5t-203.5 565.5q0 358 204 567t563 209q356 0 562 -208t206 -568q0 -356 -203.5 -565.5t-564.5 -209.5zM1481 745q0 239 -101 366.5t-267 127.5q-170 0 -269.5 -129t-99.5 -366t100 -365.5t269 -128.5q163 0 265.5 126t102.5 369zM403 1492
l-185 -394h-223l54 394h354z" />
    <glyph glyph-name="Upsilontonos" unicode="&#x38e;" horiz-adv-x="1924" 
d="M1915 1489l-549 -913v-576h-384v558l-558 931h436l322 -576l311 576h422zM403 1492l-185 -394h-223l54 394h354z" />
    <glyph glyph-name="Omegatonos" unicode="&#x38f;" horiz-adv-x="1987" 
d="M1934 0h-716v488q151 85 201 171.5t50 218.5q0 168 -93.5 264.5t-252.5 96.5t-252.5 -96.5t-93.5 -264.5q0 -128 48.5 -215t202.5 -175v-488h-716v288h474v63q-408 161 -408 567q0 263 204.5 432.5t540.5 169.5t540.5 -169.5t204.5 -432.5q0 -406 -408 -567v-63h474v-288
zM403 1492l-185 -394h-223l54 394h354z" />
    <glyph glyph-name="iotadieresistonos" unicode="&#x390;" horiz-adv-x="700" 
d="M537 1676l-133 -393h-172l27 393h278zM799 1283h-227v273h227v-273zM128 1283h-227v273h227v-273zM530 0h-360v1123h360v-1123z" />
    <glyph glyph-name="Alpha" unicode="&#x391;" horiz-adv-x="1590" 
d="M1566 0h-397l-103 301h-552l-103 -301h-387l550 1489h442zM973 574l-183 534l-183 -534h366z" />
    <glyph glyph-name="Beta" unicode="&#x392;" horiz-adv-x="1560" 
d="M190 0v1489h578q226 0 340 -29t185.5 -109.5t71.5 -207.5q0 -221 -218 -319v-8q317 -69 317 -360q0 -199 -152.5 -327.5t-471.5 -128.5h-650zM572 1216v-315h60q167 0 215.5 9.5t86.5 43.5t38 114q0 56 -31.5 93.5t-90.5 46t-242 8.5h-36zM572 644v-371h167
q125 0 187.5 13.5t101 57t38.5 118.5q0 92 -51 134.5t-194 46.5l-81 1h-168z" />
    <glyph glyph-name="Gamma" unicode="&#x393;" horiz-adv-x="1305" 
d="M1264 1201h-690v-1201h-384v1489h1074v-288z" />
    <glyph glyph-name="uni0394" unicode="&#x394;" horiz-adv-x="1650" 
d="M1616 0h-1582l570 1489h442zM1122 286l-302 822l-302 -822h604z" />
    <glyph glyph-name="Epsilon" unicode="&#x395;" horiz-adv-x="1399" 
d="M1267 0h-1077v1489h1077v-288h-695v-257h645v-288h-645v-368h695v-288z" />
    <glyph glyph-name="Zeta" unicode="&#x396;" horiz-adv-x="1417" 
d="M1341 0h-1251v279l742 922h-706v288h1175v-284l-741 -917h781v-288z" />
    <glyph glyph-name="Eta" unicode="&#x397;" horiz-adv-x="1715" 
d="M1525 0h-384v656h-567v-656h-384v1489h384v-545h567v545h384v-1489z" />
    <glyph glyph-name="Theta" unicode="&#x398;" horiz-adv-x="1741" 
d="M870 -31q-360 0 -563.5 209.5t-203.5 565.5q0 358 204 567t563 209q356 0 562 -208t206 -568q0 -356 -203.5 -565.5t-564.5 -209.5zM1239 745q0 239 -101 366.5t-267 127.5q-170 0 -269.5 -129t-99.5 -366t100 -365.5t269 -128.5q163 0 265.5 126t102.5 369zM1108 611
h-475v308h475v-308z" />
    <glyph glyph-name="Iota" unicode="&#x399;" horiz-adv-x="1118" 
d="M995 0h-872v264h244v961h-244v264h872v-264h-244v-961h244v-264z" />
    <glyph glyph-name="Kappa" unicode="&#x39a;" horiz-adv-x="1579" 
d="M1580 0h-471l-445 596l-90 -109v-487h-384v1489h384v-674l532 674h445l-582 -689z" />
    <glyph glyph-name="Lambda" unicode="&#x39b;" horiz-adv-x="1590" 
d="M1566 0h-400l-376 1077l-376 -1077h-390l559 1489h424z" />
    <glyph glyph-name="Mu" unicode="&#x39c;" horiz-adv-x="1941" 
d="M1751 0h-382v997l-276 -647h-265l-276 647v-997h-362v1489h446l335 -747l334 747h446v-1489z" />
    <glyph glyph-name="Nu" unicode="&#x39d;" horiz-adv-x="1734" 
d="M1544 0h-370l-632 1022v-1022h-352v1489h459l543 -853v853h352v-1489z" />
    <glyph glyph-name="Xi" unicode="&#x39e;" horiz-adv-x="1464" 
d="M1327 1181h-1190v308h1190v-308zM1277 618h-1090v308h1090v-308zM1327 0h-1190v308h1190v-308z" />
    <glyph glyph-name="Omicron" unicode="&#x39f;" horiz-adv-x="1741" 
d="M870 -31q-360 0 -563.5 209.5t-203.5 565.5q0 358 204 567t563 209q356 0 562 -208t206 -568q0 -356 -203.5 -565.5t-564.5 -209.5zM1239 745q0 239 -101 366.5t-267 127.5q-170 0 -269.5 -129t-99.5 -366t100 -365.5t269 -128.5q163 0 265.5 126t102.5 369z" />
    <glyph glyph-name="Pi" unicode="&#x3a0;" horiz-adv-x="1715" 
d="M1525 0h-384v1201h-567v-1201h-384v1489h1335v-1489z" />
    <glyph glyph-name="Rho" unicode="&#x3a1;" horiz-adv-x="1501" 
d="M574 485v-485h-384v1489h632q297 0 447 -123t150 -347q0 -232 -163 -383t-443 -151h-239zM574 1211v-446h110q208 0 273 62t65 183q0 74 -45 122.5t-106.5 63.5t-230.5 15h-66z" />
    <glyph glyph-name="Sigma" unicode="&#x3a3;" horiz-adv-x="1400" 
d="M1325 0h-1221v288l527 485l-509 433v283h1170v-288h-690l466 -392v-77l-492 -444h749v-288z" />
    <glyph glyph-name="Tau" unicode="&#x3a4;" horiz-adv-x="1396" 
d="M1355 1201h-465v-1201h-384v1201h-465v288h1314v-288z" />
    <glyph glyph-name="Upsilon" unicode="&#x3a5;" horiz-adv-x="1509" 
d="M1500 1489l-549 -913v-576h-384v558l-558 931h436l322 -576l311 576h422z" />
    <glyph glyph-name="Phi" unicode="&#x3a6;" horiz-adv-x="1950" 
d="M1166 149v-163h-382v163q-334 23 -512.5 184t-178.5 423q0 541 691 598v152h382v-152q342 -19 516.5 -174.5t174.5 -423.5t-183.5 -427t-507.5 -180zM1166 1105v-708q164 28 229 117t65 248q0 301 -294 343zM784 397v708q-294 -44 -294 -343q0 -158 66.5 -247.5
t227.5 -117.5z" />
    <glyph glyph-name="Chi" unicode="&#x3a7;" horiz-adv-x="1564" 
d="M1540 0h-444l-321 490l-327 -490h-424l528 750l-517 739h443l310 -464l319 464h425l-520 -724z" />
    <glyph glyph-name="Psi" unicode="&#x3a8;" horiz-adv-x="1999" 
d="M1860 937q0 -292 -165.5 -436.5t-505.5 -173.5v-327h-379v327q-347 31 -509 176.5t-162 433.5v552h379v-552q0 -308 292 -355v907h379v-907q143 24 217.5 104.5t74.5 250.5v552h379v-552z" />
    <glyph glyph-name="uni03A9" unicode="&#x3a9;" horiz-adv-x="1728" 
d="M1675 0h-716v488q151 85 201 171.5t50 218.5q0 168 -93.5 264.5t-252.5 96.5t-252.5 -96.5t-93.5 -264.5q0 -128 48.5 -215t202.5 -175v-488h-716v288h474v63q-408 161 -408 567q0 263 204.5 432.5t540.5 169.5t540.5 -169.5t204.5 -432.5q0 -406 -408 -567v-63h474v-288
z" />
    <glyph glyph-name="Iotadieresis" unicode="&#x3aa;" horiz-adv-x="1118" 
d="M995 0h-872v264h244v961h-244v264h872v-264h-244v-961h244v-264zM977 1656h-297v273h297v-273zM440 1656h-297v273h297v-273z" />
    <glyph glyph-name="Upsilondieresis" unicode="&#x3ab;" horiz-adv-x="1509" 
d="M1500 1489l-549 -913v-576h-384v558l-558 931h436l322 -576l311 576h422zM1175 1656h-297v273h297v-273zM638 1656h-297v273h297v-273z" />
    <glyph glyph-name="alphatonos" unicode="&#x3ac;" horiz-adv-x="1432" 
d="M1262 0h-360v117q-107 -86 -185 -117t-176 -31q-208 0 -329.5 157.5t-121.5 426.5q0 273 132 437t340 164q86 0 158 -26t182 -122v117h360v-1123zM902 310v505q-88 67 -181 67q-260 0 -260 -316q0 -181 57.5 -252t182.5 -71q104 0 201 67zM932 1678l-185 -394h-223
l54 394h354z" />
    <glyph glyph-name="epsilontonos" unicode="&#x3ad;" horiz-adv-x="1198" 
d="M1135 56q-239 -87 -490 -87q-257 0 -405.5 84.5t-148.5 249.5q0 205 235 279v7q-198 61 -198 249q0 148 148 232.5t400 84.5q192 0 416 -65v-268h-39q-180 81 -325 81q-226 0 -226 -107q0 -62 50.5 -83t217.5 -21h125v-228h-169q-178 0 -218.5 -32.5t-40.5 -87.5
q0 -123 265 -123q189 0 364 105h39v-270zM888 1678l-185 -394h-223l54 394h354z" />
    <glyph glyph-name="etatonos" unicode="&#x3ae;" horiz-adv-x="1459" 
d="M1298 -412h-362v969q0 179 -35 242.5t-162 63.5q-95 0 -209 -67v-796h-360v1123h360v-124q197 155 381 155q188 0 287.5 -110t99.5 -313v-1143zM991 1678l-185 -394h-223l54 394h354z" />
    <glyph glyph-name="iotatonos" unicode="&#x3af;" horiz-adv-x="700" 
d="M530 0h-360v1123h360v-1123zM585 1678l-185 -394h-223l54 394h354z" />
    <glyph glyph-name="upsilondieresistonos" unicode="&#x3b0;" horiz-adv-x="1446" 
d="M1287 412q0 -217 -145 -332t-420 -115q-266 0 -414.5 112t-148.5 335v711h362v-599q0 -134 15.5 -189t55.5 -87t131 -32q109 0 155.5 56.5t46.5 251.5v599h362v-711zM954 1678l-180 -394h-184l35 394h329zM1251 1284h-266v274h266v-274zM462 1284h-267v274h267v-274z" />
    <glyph glyph-name="alpha" unicode="&#x3b1;" horiz-adv-x="1432" 
d="M1262 0h-360v117q-107 -86 -185 -117t-176 -31q-208 0 -329.5 157.5t-121.5 426.5q0 273 132 437t340 164q86 0 158 -26t182 -122v117h360v-1123zM902 310v505q-88 67 -181 67q-260 0 -260 -316q0 -181 57.5 -252t182.5 -71q104 0 201 67z" />
    <glyph glyph-name="beta" unicode="&#x3b2;" horiz-adv-x="1467" 
d="M530 58v-470h-360v1480q0 241 155 368t444 127q248 0 389.5 -102t141.5 -273q0 -118 -67 -211.5t-189 -132.5v-17q333 -67 333 -382q0 -201 -140.5 -333.5t-360.5 -132.5q-200 0 -346 79zM629 696v234q155 0 228.5 45t73.5 166q0 83 -54 129t-132 46q-103 0 -159 -65
t-56 -180v-806q82 -30 186 -30q291 0 291 237q0 118 -78.5 171t-261.5 53h-38z" />
    <glyph glyph-name="gamma" unicode="&#x3b3;" horiz-adv-x="1333" 
d="M1303 1123l-465 -1096v-439h-360v439l-448 1096h378l269 -692l256 692h370z" />
    <glyph glyph-name="delta" unicode="&#x3b4;" horiz-adv-x="1406" 
d="M599 1099q-156 117 -377 228v229h1006v-248h-445v-6q320 -199 427 -363.5t107 -366.5q0 -279 -167 -443t-446 -164q-290 0 -453 154t-163 415q0 466 511 565zM771 942q-310 -65 -310 -389q0 -164 67.5 -250.5t176.5 -86.5q111 0 174.5 86t63.5 253q0 252 -172 387z" />
    <glyph glyph-name="epsilon" unicode="&#x3b5;" horiz-adv-x="1198" 
d="M1135 56q-239 -87 -490 -87q-257 0 -405.5 84.5t-148.5 249.5q0 205 235 279v7q-198 61 -198 249q0 148 148 232.5t400 84.5q192 0 416 -65v-268h-39q-180 81 -325 81q-226 0 -226 -107q0 -62 50.5 -83t217.5 -21h125v-228h-169q-178 0 -218.5 -32.5t-40.5 -87.5
q0 -123 265 -123q189 0 364 105h39v-270z" />
    <glyph glyph-name="zeta" unicode="&#x3b6;" horiz-adv-x="1125" 
d="M989 -412h-306v24q146 131 146 257q0 57 -39 95t-98 38h-136q-465 0 -465 433q0 425 548 865v8h-464v248h939v-225q-298 -177 -472 -395t-174 -413q0 -102 33.5 -160.5t88 -78.5t205.5 -20h61q130 0 210 -93.5t80 -219.5q0 -189 -157 -363z" />
    <glyph glyph-name="eta" unicode="&#x3b7;" horiz-adv-x="1459" 
d="M1298 -412h-362v969q0 179 -35 242.5t-162 63.5q-95 0 -209 -67v-796h-360v1123h360v-124q197 155 381 155q188 0 287.5 -110t99.5 -313v-1143z" />
    <glyph glyph-name="theta" unicode="&#x3b8;" horiz-adv-x="1434" 
d="M717 -34q-299 0 -448.5 190.5t-149.5 611.5q0 415 151.5 603t446.5 188q293 0 445.5 -188t152.5 -612q0 -400 -144.5 -596.5t-453.5 -196.5zM955 902q-10 201 -62.5 306t-175.5 105q-227 0 -238 -411h476zM955 653h-476q0 -441 238 -441q132 0 182.5 122t55.5 319z" />
    <glyph glyph-name="iota" unicode="&#x3b9;" horiz-adv-x="700" 
d="M530 0h-360v1123h360v-1123z" />
    <glyph glyph-name="kappa" unicode="&#x3ba;" horiz-adv-x="1374" 
d="M1362 0h-419l-315 489l-98 -123v-366h-360v1123h360v-496l277 346q122 152 302 152h35q20 0 44 -1l41 -1h29v-317h-17l-70 6q-107 0 -165 -78l-77 -95z" />
    <glyph glyph-name="lambda" unicode="&#x3bb;" horiz-adv-x="1333" 
d="M1312 0h-383l-248 728l-287 -728h-372l462 1112l-182 444h401z" />
    <glyph glyph-name="uni03BC" unicode="&#x3bc;" horiz-adv-x="1477" 
d="M988 0l-16 80h-7q-110 -95 -224 -95q-120 0 -211 87v-484h-360v1535h360v-799q83 -66 208 -66q124 0 209 66v799h360v-1123h-319z" />
    <glyph glyph-name="nu" unicode="&#x3bd;" horiz-adv-x="1331" 
d="M1301 1123l-433 -1123h-408l-430 1123h381l260 -772l257 772h373z" />
    <glyph glyph-name="xi" unicode="&#x3be;" horiz-adv-x="1189" 
d="M1041 -412h-306v24q146 135 146 257q0 51 -37 92t-100 41h-153q-234 0 -369.5 109.5t-135.5 296.5q0 304 347 392v11q-266 66 -266 257q0 144 184 234v10h-234v244h992v-248h-271q-151 0 -224 -54t-73 -140q0 -193 307 -193h215v-259h-319q-133 0 -208 -52t-75 -146
q0 -104 67 -152t289 -48h91q130 0 210 -93.5t80 -219.5q0 -189 -157 -363z" />
    <glyph glyph-name="omicron" unicode="&#x3bf;" horiz-adv-x="1406" 
d="M703 -35q-294 0 -454.5 159.5t-160.5 436.5q0 280 162.5 438.5t452.5 158.5q295 0 455 -161t160 -436q0 -276 -161 -436t-454 -160zM945 559q0 348 -242 348t-242 -348q0 -343 245 -343q239 0 239 343z" />
    <glyph glyph-name="pi" unicode="&#x3c0;" horiz-adv-x="1474" 
d="M1304 0h-360v879h-414v-879h-360v1123h1134v-1123z" />
    <glyph glyph-name="rho" unicode="&#x3c1;" horiz-adv-x="1432" 
d="M530 57v-469h-360v1061q0 240 159 374.5t421 134.5q279 0 435.5 -148.5t156.5 -428.5q0 -243 -133.5 -423t-377.5 -180q-161 0 -301 79zM530 257q54 -22 161 -22q280 0 280 333q0 339 -226 339q-103 0 -159 -67t-56 -176v-407z" />
    <glyph glyph-name="sigma1" unicode="&#x3c2;" horiz-adv-x="1151" 
d="M989 -412h-307v24q147 137 147 257q0 53 -37.5 93t-97.5 40h-55q-254 0 -402.5 147t-148.5 408q0 282 179 439.5t465 157.5q201 0 384 -87v-300h-47q-142 135 -324 135q-141 0 -212.5 -82.5t-71.5 -218.5q0 -175 83.5 -256t263.5 -81h50q124 0 206 -90.5t82 -222.5
q0 -182 -157 -363z" />
    <glyph glyph-name="sigma" unicode="&#x3c3;" horiz-adv-x="1486" 
d="M1476 1123v-244h-215q47 -143 47 -319q0 -288 -160.5 -441.5t-451.5 -153.5q-283 0 -445.5 159t-162.5 436q0 256 172 409.5t456 153.5h760zM894 879h-178q-135 0 -195 -74.5t-60 -250.5q0 -338 235 -338q249 0 249 336q0 151 -51 327z" />
    <glyph glyph-name="tau" unicode="&#x3c4;" horiz-adv-x="1096" 
d="M1086 879h-358v-879h-360v879h-358v244h1076v-244z" />
    <glyph glyph-name="upsilon" unicode="&#x3c5;" horiz-adv-x="1446" 
d="M1287 412q0 -217 -145 -332t-420 -115q-266 0 -414.5 112t-148.5 335v711h362v-599q0 -134 15.5 -189t55.5 -87t131 -32q109 0 155.5 56.5t46.5 251.5v599h362v-711z" />
    <glyph glyph-name="phi" unicode="&#x3c6;" horiz-adv-x="1873" 
d="M1112 -19v-393h-358v396q-309 24 -487.5 177.5t-178.5 397.5q0 324 224 564h367v-33q-218 -207 -218 -484q0 -332 293 -380v922q153 7 268 7q763 0 763 -571q0 -262 -180 -423t-493 -180zM1112 916v-695q302 31 302 371q0 307 -302 324z" />
    <glyph glyph-name="chi" unicode="&#x3c7;" horiz-adv-x="1301" 
d="M1296 -412h-377l-270 529l-274 -529h-370l425 777l-410 758h377l255 -503l260 503h369l-411 -751z" />
    <glyph glyph-name="psi" unicode="&#x3c8;" horiz-adv-x="1928" 
d="M1770 482q0 -446 -625 -501v-393h-362v393q-625 58 -625 501v641h362v-607q0 -140 59 -209.5t204 -84.5v901h362v-901q142 15 202.5 82t60.5 212v607h362v-641z" />
    <glyph glyph-name="omega" unicode="&#x3c9;" horiz-adv-x="1831" 
d="M921 128h-12q-131 -161 -342 -161q-225 0 -350.5 150t-125.5 384q0 334 261 622h386v-23q-282 -243 -282 -592q0 -138 44.5 -214t118.5 -76q71 0 116 27v593h360v-593q42 -27 116 -27q77 0 120.5 82t43.5 208q0 347 -283 592v23h386q262 -279 262 -622
q0 -229 -123.5 -381.5t-353.5 -152.5q-211 0 -342 161z" />
    <glyph glyph-name="iotadieresis" unicode="&#x3ca;" horiz-adv-x="700" 
d="M718 1283h-277v273h277v-273zM259 1283h-277v273h277v-273zM530 0h-360v1123h360v-1123z" />
    <glyph glyph-name="upsilondieresis" unicode="&#x3cb;" horiz-adv-x="1446" 
d="M1287 412q0 -217 -145 -332t-420 -115q-266 0 -414.5 112t-148.5 335v711h362v-599q0 -134 15.5 -189t55.5 -87t131 -32q109 0 155.5 56.5t46.5 251.5v599h362v-711zM1141 1283h-297v273h297v-273zM604 1283h-297v273h297v-273z" />
    <glyph glyph-name="omicrontonos" unicode="&#x3cc;" horiz-adv-x="1406" 
d="M703 -35q-294 0 -454.5 159.5t-160.5 436.5q0 280 162.5 438.5t452.5 158.5q295 0 455 -161t160 -436q0 -276 -161 -436t-454 -160zM945 559q0 348 -242 348t-242 -348q0 -343 245 -343q239 0 239 343zM937 1678l-185 -394h-223l54 394h354z" />
    <glyph glyph-name="upsilontonos" unicode="&#x3cd;" horiz-adv-x="1446" 
d="M1287 412q0 -217 -145 -332t-420 -115q-266 0 -414.5 112t-148.5 335v711h362v-599q0 -134 15.5 -189t55.5 -87t131 -32q109 0 155.5 56.5t46.5 251.5v599h362v-711zM956 1678l-185 -394h-223l54 394h354z" />
    <glyph glyph-name="omegatonos" unicode="&#x3ce;" horiz-adv-x="1831" 
d="M921 128h-12q-131 -161 -342 -161q-225 0 -350.5 150t-125.5 384q0 334 261 622h386v-23q-282 -243 -282 -592q0 -138 44.5 -214t118.5 -76q71 0 116 27v593h360v-593q42 -27 116 -27q77 0 120.5 82t43.5 208q0 347 -283 592v23h386q262 -279 262 -622
q0 -229 -123.5 -381.5t-353.5 -152.5q-211 0 -342 161zM1149 1678l-185 -394h-223l54 394h354z" />
    <glyph glyph-name="uni0401" unicode="&#x401;" horiz-adv-x="1399" 
d="M1267 0h-1077v1489h1077v-288h-695v-257h645v-288h-645v-368h695v-288zM1145 1656h-297v273h297v-273zM608 1656h-297v273h297v-273z" />
    <glyph glyph-name="uni0402" unicode="&#x402;" horiz-adv-x="1865" 
d="M1085 0v282h54q237 0 237 185q0 106 -62 148t-185 42h-270v-657h-384v1201h-434v288h1283v-288h-465v-267h337q336 0 456.5 -127t120.5 -329q0 -201 -141.5 -339.5t-434.5 -138.5h-112z" />
    <glyph glyph-name="uni0403" unicode="&#x403;" horiz-adv-x="1305" 
d="M1264 1201h-690v-1201h-384v1489h1074v-288zM1119 2049v-20l-352 -373h-246l247 393h351z" />
    <glyph glyph-name="uni0404" unicode="&#x404;" horiz-adv-x="1519" 
d="M1417 86q-258 -115 -538 -115q-358 0 -567 203.5t-209 568.5q0 358 211 566.5t566 208.5q292 0 537 -114v-342h-41l-34 27q-197 156 -426 156q-163 0 -277.5 -85.5t-143.5 -239.5h652v-284h-666q16 -189 135 -290.5t302 -101.5q243 0 460 179h39v-337z" />
    <glyph glyph-name="uni0405" unicode="&#x405;" horiz-adv-x="1455" 
d="M109 88v357h42q250 -197 550 -197q286 0 286 151q0 43 -39 83.5t-211 74.5q-221 44 -345.5 91.5t-199 147t-74.5 249.5q0 208 187 339.5t479 131.5q286 0 539 -100v-343h-41q-221 169 -487 169q-132 0 -207 -40.5t-75 -105.5q0 -59 46.5 -92t248.5 -72
q334 -66 454 -173.5t120 -290.5q0 -220 -186.5 -357.5t-506.5 -137.5q-302 0 -580 115z" />
    <glyph glyph-name="uni0406" unicode="&#x406;" horiz-adv-x="1118" 
d="M995 0h-872v264h244v961h-244v264h872v-264h-244v-961h244v-264z" />
    <glyph glyph-name="uni0407" unicode="&#x407;" horiz-adv-x="1118" 
d="M995 0h-872v264h244v961h-244v264h872v-264h-244v-961h244v-264zM977 1656h-297v273h297v-273zM440 1656h-297v273h297v-273z" />
    <glyph glyph-name="uni0408" unicode="&#x408;" horiz-adv-x="1137" 
d="M966 437q0 -208 -145.5 -334t-424.5 -126q-209 0 -354 29v302h36q125 -49 233 -49q123 0 180 38t74 98t17 227v593h-341v274h725v-1052z" />
    <glyph glyph-name="uni0409" unicode="&#x409;" horiz-adv-x="2503" 
d="M1141 0v1201h-410l-17 -302q-28 -467 -155.5 -688t-368.5 -221q-50 0 -104 4l-68 6v333h14q109 0 135.5 4.5t71 53.5t72.5 168.5t41.5 350.5t20.5 579h1152v-555h309q336 0 456.5 -126.5t120.5 -329.5q0 -206 -145 -342t-438 -136h-687zM1525 657v-379h242
q114 0 180.5 48.5t66.5 140.5q0 106 -62 148t-185 42h-242z" />
    <glyph glyph-name="uni040A" unicode="&#x40a;" horiz-adv-x="2487" 
d="M1125 0v657h-551v-657h-384v1489h384v-555h551v555h384v-555h309q331 0 454 -124.5t123 -331.5q0 -206 -145 -342t-438 -136h-687zM1509 657v-379h242q114 0 180.5 48.5t66.5 140.5q0 106 -62 148t-185 42h-242z" />
    <glyph glyph-name="uni040B" unicode="&#x40b;" horiz-adv-x="1917" 
d="M879 0h-384v1201h-454v288h1303v-288h-465v-303q248 49 414 49q230 0 361.5 -115.5t131.5 -321.5v-510h-386v313q0 145 -26.5 209.5t-90.5 99.5t-196 35q-89 0 -208 -18v-639z" />
    <glyph glyph-name="uni040C" unicode="&#x40c;" horiz-adv-x="1579" 
d="M1579 0h-471l-440 601h-94v-601h-384v1489h384v-607q110 -2 175.5 76.5t129.5 201.5l45 82q45 82 106 147.5t157.5 86t128.5 17t177 -3.5v-323h-111q-80 0 -125.5 -40t-102.5 -150q-94 -178 -158 -208zM1179 2049v-20l-352 -373h-246l247 393h351z" />
    <glyph glyph-name="uni040E" unicode="&#x40e;" horiz-adv-x="1509" 
d="M1501 1489l-542 -1191q-68 -150 -180.5 -229t-308.5 -79q-178 0 -293 10v325h23l51 -9q58 -10 128 -10q200 0 236 69l-605 1114h417l370 -706l305 706h399zM1300 1980q-1 -184 -140 -291t-396 -107t-396 107t-140 291h336q2 -109 46.5 -157.5t153.5 -48.5t153.5 48.5
t46.5 157.5h336z" />
    <glyph glyph-name="uni040F" unicode="&#x40f;" horiz-adv-x="1715" 
d="M681 0h-491v1489h384v-1203h567v1203h384v-1489h-491v-352h-353v352z" />
    <glyph glyph-name="uni0410" unicode="&#x410;" horiz-adv-x="1590" 
d="M1566 0h-397l-103 301h-552l-103 -301h-387l550 1489h442zM973 574l-183 534l-183 -534h366z" />
    <glyph glyph-name="uni0411" unicode="&#x411;" horiz-adv-x="1552" 
d="M190 0v1489h1157v-288h-775v-267h311q331 0 454 -124.5t123 -331.5q0 -206 -145 -342t-438 -136h-687zM572 657v-379h244q114 0 180.5 48.5t66.5 140.5q0 106 -62 148t-185 42h-244z" />
    <glyph glyph-name="uni0412" unicode="&#x412;" horiz-adv-x="1560" 
d="M190 0v1489h578q226 0 340 -29t185.5 -109.5t71.5 -207.5q0 -221 -218 -319v-8q317 -69 317 -360q0 -199 -152.5 -327.5t-471.5 -128.5h-650zM572 1216v-315h60q167 0 215.5 9.5t86.5 43.5t38 114q0 56 -31.5 93.5t-90.5 46t-242 8.5h-36zM572 644v-371h167
q125 0 187.5 13.5t101 57t38.5 118.5q0 92 -51 134.5t-194 46.5l-81 1h-168z" />
    <glyph glyph-name="uni0413" unicode="&#x413;" horiz-adv-x="1305" 
d="M1264 1201h-690v-1201h-384v1489h1074v-288z" />
    <glyph glyph-name="uni0414" unicode="&#x414;" horiz-adv-x="1723" 
d="M1652 -342h-353v347h-904v-347h-353v631h113q239 502 239 1200h1111v-1200h147v-631zM1121 289v912h-372q-34 -510 -226 -912h598z" />
    <glyph glyph-name="uni0415" unicode="&#x415;" horiz-adv-x="1399" 
d="M1267 0h-1077v1489h1077v-288h-695v-257h645v-288h-645v-368h695v-288z" />
    <glyph glyph-name="uni0416" unicode="&#x416;" horiz-adv-x="2284" 
d="M2266 0h-461l-379 611h-93v-611h-382v611h-98l-379 -611h-456l499 762q-68 38 -132 210q-72 190 -206 190h-88v327q14 0 131.5 3t196.5 -22.5t138.5 -90.5t103.5 -173q85 -211 141 -273t149 -62v618h382v-618q114 0 166 76.5t89 164.5q9 23 19 46q10 22 19 44
q36 89 78 145t90 86.5t108 44.5t137 13l154 -2v-323h-88q-75 0 -113 -34.5t-91 -154.5q-83 -185 -137 -211z" />
    <glyph glyph-name="uni0417" unicode="&#x417;" horiz-adv-x="1447" 
d="M78 68v336h36q268 -154 474 -154q350 0 350 220q0 102 -61 146t-234 44h-274v266h264q128 0 196.5 35t68.5 135q0 143 -278 143q-187 0 -373 -93q-38 -19 -82 -39h-37v313q279 98 557 98q300 0 456.5 -94t156.5 -267q0 -127 -83 -219t-213 -123v-15q336 -62 336 -356
q0 -222 -180.5 -347.5t-525.5 -125.5q-302 0 -554 97z" />
    <glyph glyph-name="uni0418" unicode="&#x418;" horiz-adv-x="1732" 
d="M1548 0h-374v991l-618 -991h-366v1489h374v-897l575 897h409v-1489z" />
    <glyph glyph-name="uni0419" unicode="&#x419;" horiz-adv-x="1732" 
d="M1548 0h-374v991l-618 -991h-366v1489h374v-897l575 897h409v-1489zM1407 1980q-1 -184 -140 -291t-396 -107t-396 107t-140 291h336q2 -109 46.5 -157.5t153.5 -48.5t153.5 48.5t46.5 157.5h336z" />
    <glyph glyph-name="uni041A" unicode="&#x41a;" horiz-adv-x="1579" 
d="M1579 0h-471l-440 601h-94v-601h-384v1489h384v-607q110 -2 175.5 76.5t129.5 201.5l45 82q45 82 106 147.5t157.5 86t128.5 17t177 -3.5v-323h-111q-80 0 -125.5 -40t-102.5 -150q-94 -178 -158 -208z" />
    <glyph glyph-name="uni041B" unicode="&#x41b;" horiz-adv-x="1731" 
d="M1541 0h-384v1201h-426l-17 -302q-28 -467 -155.5 -688t-368.5 -221q-50 0 -104 4l-68 6v333h14q48 -1 92.5 0.5t78 22.5t66 82t53.5 183t33 325.5t18 542.5h1168v-1489z" />
    <glyph glyph-name="uni041C" unicode="&#x41c;" horiz-adv-x="1941" 
d="M1751 0h-382v997l-276 -647h-265l-276 647v-997h-362v1489h446l335 -747l334 747h446v-1489z" />
    <glyph glyph-name="uni041D" unicode="&#x41d;" horiz-adv-x="1715" 
d="M1525 0h-384v656h-567v-656h-384v1489h384v-545h567v545h384v-1489z" />
    <glyph glyph-name="uni041E" unicode="&#x41e;" horiz-adv-x="1741" 
d="M870 -31q-360 0 -563.5 209.5t-203.5 565.5q0 358 204 567t563 209q356 0 562 -208t206 -568q0 -356 -203.5 -565.5t-564.5 -209.5zM1239 745q0 239 -101 366.5t-267 127.5q-170 0 -269.5 -129t-99.5 -366t100 -365.5t269 -128.5q163 0 265.5 126t102.5 369z" />
    <glyph glyph-name="uni041F" unicode="&#x41f;" horiz-adv-x="1715" 
d="M1525 0h-384v1201h-567v-1201h-384v1489h1335v-1489z" />
    <glyph glyph-name="uni0420" unicode="&#x420;" horiz-adv-x="1501" 
d="M574 485v-485h-384v1489h632q297 0 447 -123t150 -347q0 -232 -163 -383t-443 -151h-239zM574 1211v-446h110q208 0 273 62t65 183q0 74 -45 122.5t-106.5 63.5t-230.5 15h-66z" />
    <glyph glyph-name="uni0421" unicode="&#x421;" horiz-adv-x="1482" 
d="M1390 1394v-361h-44q-229 198 -423 198q-189 0 -305 -126.5t-116 -362.5q0 -235 117 -359.5t306 -124.5q204 0 425 197h40v-356q-150 -70 -261.5 -99t-265.5 -29q-347 0 -553.5 201t-206.5 571q0 359 206.5 567t554.5 208q280 0 526 -124z" />
    <glyph glyph-name="uni0422" unicode="&#x422;" horiz-adv-x="1396" 
d="M1355 1201h-465v-1201h-384v1201h-465v288h1314v-288z" />
    <glyph glyph-name="uni0423" unicode="&#x423;" horiz-adv-x="1509" 
d="M1501 1489l-542 -1191q-68 -150 -180.5 -229t-308.5 -79q-178 0 -293 10v325h23l51 -9q58 -10 128 -10q200 0 236 69l-605 1114h417l370 -706l305 706h399z" />
    <glyph glyph-name="uni0424" unicode="&#x424;" horiz-adv-x="1950" 
d="M1166 149v-163h-382v163q-334 23 -512.5 184t-178.5 423q0 541 691 598v152h382v-152q342 -19 516.5 -174.5t174.5 -423.5t-183.5 -427t-507.5 -180zM1166 1105v-708q164 28 229 117t65 248q0 301 -294 343zM784 397v708q-294 -44 -294 -343q0 -158 66.5 -247.5
t227.5 -117.5z" />
    <glyph glyph-name="uni0425" unicode="&#x425;" horiz-adv-x="1564" 
d="M1540 0h-444l-321 490l-327 -490h-424l528 750l-517 739h443l310 -464l319 464h425l-520 -724z" />
    <glyph glyph-name="uni0426" unicode="&#x426;" horiz-adv-x="1740" 
d="M1316 0h-1126v1489h384v-1204h564v1204h384v-1204h147v-627h-353v342z" />
    <glyph glyph-name="uni0427" unicode="&#x427;" horiz-adv-x="1612" 
d="M1422 0h-384v551q-222 -49 -414 -49q-229 0 -361 114.5t-132 322.5v550h386v-353q0 -134 22 -200.5t88.5 -104.5t202.5 -38q121 0 208 17v679h384v-1489z" />
    <glyph glyph-name="uni0428" unicode="&#x428;" horiz-adv-x="2383" 
d="M2193 0h-2003v1489h383v-1206h427v1206h383v-1206h427v1206h383v-1489z" />
    <glyph glyph-name="uni0429" unicode="&#x429;" horiz-adv-x="2411" 
d="M1988 0h-1798v1489h383v-1206h427v1206h383v-1206h427v1206h383v-1204h148v-627h-353v342z" />
    <glyph glyph-name="uni042A" unicode="&#x42a;" horiz-adv-x="1858" 
d="M496 0v1201h-455v288h839v-555h309q332 0 454.5 -125t122.5 -331t-145 -342t-438 -136h-687zM880 657v-379h242q114 0 180.5 48.5t66.5 140.5q0 106 -62 148t-185 42h-242z" />
    <glyph glyph-name="uni042B" unicode="&#x42b;" horiz-adv-x="2176" 
d="M190 0v1489h384v-555h309q332 0 454.5 -125t122.5 -331t-145 -342t-438 -136h-687zM574 657v-379h242q114 0 180.5 48.5t66.5 140.5q0 106 -62 148t-185 42h-242zM1986 0h-384v1489h384v-1489z" />
    <glyph glyph-name="uni042C" unicode="&#x42c;" horiz-adv-x="1552" 
d="M190 0v1489h384v-555h309q332 0 454.5 -125t122.5 -331t-145 -342t-438 -136h-687zM574 657v-379h242q114 0 180.5 48.5t66.5 140.5q0 106 -62 148t-185 42h-242z" />
    <glyph glyph-name="uni042D" unicode="&#x42d;" horiz-adv-x="1519" 
d="M92 86v337h37q215 -179 461 -179q181 0 303.5 100.5t141.5 291.5h-663v284h654q-26 155 -140 240t-274 85q-233 0 -458 -183h-42v340q260 116 541 116q348 0 555.5 -201t207.5 -551q0 -373 -213 -584t-578 -211q-255 0 -533 115z" />
    <glyph glyph-name="uni042E" unicode="&#x42e;" horiz-adv-x="2448" 
d="M846 659h-272v-659h-384v1489h384v-544h287q50 268 241 421.5t491 153.5q353 0 552.5 -209.5t199.5 -566.5q0 -358 -199.5 -566.5t-552.5 -208.5q-327 0 -524.5 182.5t-222.5 507.5zM1946 745q0 230 -94.5 362t-261.5 132t-262.5 -131.5t-95.5 -363.5q0 -237 97 -365.5
t261 -128.5q162 0 259 128.5t97 366.5z" />
    <glyph glyph-name="uni042F" unicode="&#x42f;" horiz-adv-x="1628" 
d="M1438 0h-382v546h-209l-375 -546h-455l445 617q-288 123 -288 442q0 179 135 304.5t433 125.5h696v-1489zM1056 814v401h-190q-126 0 -174.5 -15.5t-84.5 -63t-36 -120.5q0 -76 39.5 -125.5t92 -63t165.5 -13.5h188z" />
    <glyph glyph-name="uni0430" unicode="&#x430;" horiz-adv-x="1368" 
d="M850 119q-108 -85 -190 -117t-198 -32q-160 0 -268 99t-108 253q0 195 151 293.5t615 122.5v6q0 85 -68 124.5t-232 39.5q-115 0 -335 -80h-33v271q235 56 443 56q306 0 443 -95t137 -296v-764h-357v119zM850 293v234q-250 -20 -324 -55.5t-74 -120.5q0 -78 45 -108
t146 -30q111 0 207 80z" />
    <glyph glyph-name="uni0431" unicode="&#x431;" horiz-adv-x="1427" 
d="M1258 1565v-267l-121 -6q-304 -15 -410 -38.5t-164 -89.5t-72 -212q171 117 360 117q218 0 353 -137t135 -385q0 -265 -165.5 -423.5t-447.5 -158.5q-611 0 -611 755q0 171 45 338t114 256t180.5 143t280.5 75.5t523 32.5zM487 747q0 -253 24 -345.5t80 -139t139 -46.5
q102 0 168.5 75.5t66.5 243.5q0 119 -68.5 193.5t-179.5 74.5q-130 0 -230 -56z" />
    <glyph glyph-name="uni0432" unicode="&#x432;" horiz-adv-x="1387" 
d="M170 0v1123h655q156 0 231 -18.5t128.5 -79t53.5 -160.5q0 -155 -162 -241v-11q220 -62 220 -274q0 -141 -106.5 -240t-335.5 -99h-684zM527 899v-224h196q152 0 152 110q0 63 -37 88.5t-121 25.5h-190zM527 482v-257h240q158 0 158 125q0 132 -164 132h-234z" />
    <glyph glyph-name="uni0433" unicode="&#x433;" horiz-adv-x="1088" 
d="M1078 873h-548v-873h-360v1123h908v-250z" />
    <glyph glyph-name="uni0434" unicode="&#x434;" horiz-adv-x="1416" 
d="M1341 -278h-321v282h-662v-282h-321v529h93q167 360 167 872h928v-872h116v-529zM867 251v621h-247q-34 -366 -155 -621h402z" />
    <glyph glyph-name="uni0435" unicode="&#x435;" horiz-adv-x="1360" 
d="M1276 495h-824q18 -272 373 -272q208 0 390 129h40v-289q-224 -93 -469 -93q-336 0 -517 151t-181 434q0 278 170.5 440.5t467.5 162.5q274 0 412 -138.5t138 -398.5v-126zM918 706q-5 227 -221 227q-229 0 -246 -227h467z" />
    <glyph glyph-name="uni0436" unicode="&#x436;" horiz-adv-x="2046" 
d="M2001 0h-414l-283 445h-102v-445h-358v445h-102l-283 -445h-414l387 578q-44 29 -86 126q-53 119 -157 119h-98v300q90 0 173.5 -2t135.5 -25t97.5 -73.5t96.5 -152.5q74 -143 112.5 -170.5t137.5 -27.5v451h358v-451q106 2 142.5 30.5t87.5 129.5q8 17 19 37l33 63
q43 82 117 137.5t216 55.5h39q20 0 41 -1l36 -1h22v-300h-98q-105 0 -157 -119q-45 -100 -86 -126z" />
    <glyph glyph-name="uni0437" unicode="&#x437;" horiz-adv-x="1204" 
d="M65 56v273h40q196 -109 377 -109q112 0 185.5 25t73.5 101q0 70 -53 94t-206 24h-172v228h181q143 0 185.5 26t42.5 81q0 105 -226 105q-155 0 -333 -87h-39v269q240 69 435 69q245 0 389.5 -80.5t144.5 -230.5q0 -90 -62 -161t-147 -95v-9q231 -65 231 -261
q0 -167 -146 -258t-419 -91q-235 0 -482 87z" />
    <glyph glyph-name="uni0438" unicode="&#x438;" horiz-adv-x="1475" 
d="M1305 0h-349v687l-488 -687h-298v1123h349v-615l452 615h334v-1123z" />
    <glyph glyph-name="uni0439" unicode="&#x439;" horiz-adv-x="1475" 
d="M1305 0h-349v687l-488 -687h-298v1123h349v-615l452 615h334v-1123zM1181 1621q0 -162 -111 -265.5t-331 -103.5q-218 0 -330 103t-112 266h278q2 -99 38 -147.5t126 -48.5q89 0 125.5 46t38.5 150h278z" />
    <glyph glyph-name="uni043A" unicode="&#x43a;" horiz-adv-x="1374" 
d="M1362 0h-416l-301 445h-115v-445h-360v1123h360v-451q114 1 154.5 32.5t88.5 127.5q8 17 19 37l33 63q43 82 116.5 137.5t216.5 55.5h39q20 0 41 -1l36 -1h22v-300h-98q-105 0 -157 -119q-45 -100 -86 -126z" />
    <glyph glyph-name="uni043B" unicode="&#x43b;" horiz-adv-x="1453" 
d="M1283 0h-360v872h-297l-8 -213q-21 -666 -441 -666l-152 7v288h11q86 0 118.5 13t72 87.5t55.5 245.5t24 489h977v-1123z" />
    <glyph glyph-name="uni043C" unicode="&#x43c;" horiz-adv-x="1700" 
d="M1530 0h-351v697l-255 -460h-158l-255 460v-697h-341v1123h391l289 -510l289 510h391v-1123z" />
    <glyph glyph-name="uni043D" unicode="&#x43d;" horiz-adv-x="1474" 
d="M1304 0h-360v479h-414v-479h-360v1123h360v-387h414v387h360v-1123z" />
    <glyph glyph-name="uni043E" unicode="&#x43e;" horiz-adv-x="1406" 
d="M703 -35q-294 0 -454.5 159.5t-160.5 436.5q0 280 162.5 438.5t452.5 158.5q295 0 455 -161t160 -436q0 -276 -161 -436t-454 -160zM945 559q0 348 -242 348t-242 -348q0 -343 245 -343q239 0 239 343z" />
    <glyph glyph-name="uni043F" unicode="&#x43f;" horiz-adv-x="1474" 
d="M1304 0h-360v879h-414v-879h-360v1123h1134v-1123z" />
    <glyph glyph-name="uni0440" unicode="&#x440;" horiz-adv-x="1432" 
d="M530 56v-468h-360v1535h360v-117q184 148 369 148q212 0 327.5 -155.5t115.5 -421.5q0 -262 -145.5 -430.5t-366.5 -168.5q-155 0 -300 78zM530 822v-565q53 -22 158 -22q283 0 283 335q0 164 -56 238t-177 74q-106 0 -208 -60z" />
    <glyph glyph-name="uni0441" unicode="&#x441;" horiz-adv-x="1225" 
d="M1137 1064v-307h-51q-155 140 -327 140q-144 0 -221.5 -91.5t-77.5 -248.5q0 -330 305 -330q185 0 321 137h51v-307q-185 -87 -382 -87q-312 0 -489.5 151.5t-177.5 435.5q0 289 179 443t477 154q202 0 393 -90z" />
    <glyph glyph-name="uni0442" unicode="&#x442;" horiz-adv-x="1096" 
d="M1086 879h-358v-879h-360v879h-358v244h1076v-244z" />
    <glyph glyph-name="uni0443" unicode="&#x443;" horiz-adv-x="1333" 
d="M677 397l256 726h370l-624 -1535h-390l178 420l-437 1115h378z" />
    <glyph glyph-name="uni0444" unicode="&#x444;" horiz-adv-x="1978" 
d="M1167 41v-453h-356v454q-100 -57 -241 -57q-226 0 -353 151t-127 418q0 270 139 429.5t355 159.5q126 0 227 -59v472h356v-471q123 58 252 58q226 0 347.5 -145.5t121.5 -410.5q0 -277 -135 -439.5t-364 -162.5q-112 0 -222 56zM1167 880v-634q42 -8 88 -8q268 0 268 330
q0 168 -64.5 244.5t-201.5 76.5q-48 0 -90 -9zM811 246v635q-42 8 -90 8q-266 0 -266 -330q0 -168 65.5 -244.5t202.5 -76.5q53 0 88 8z" />
    <glyph glyph-name="uni0445" unicode="&#x445;" horiz-adv-x="1370" 
d="M1344 0h-420l-240 336l-246 -336h-412l443 561l-436 562h420l236 -330l237 330h413l-437 -553z" />
    <glyph glyph-name="uni0446" unicode="&#x446;" horiz-adv-x="1493" 
d="M1097 0h-927v1123h360v-876h412v876h360v-876h116v-525h-321v278z" />
    <glyph glyph-name="uni0447" unicode="&#x447;" horiz-adv-x="1401" 
d="M1231 0h-360v386q-208 -44 -363 -44q-185 0 -288.5 91.5t-103.5 255.5v434h362v-258q0 -110 12 -149.5t61 -78.5t187 -39q67 0 133 9v516h360v-1123z" />
    <glyph glyph-name="uni0448" unicode="&#x448;" horiz-adv-x="2053" 
d="M1883 0h-1713v1123h359v-876h318v876h359v-876h318v876h359v-1123z" />
    <glyph glyph-name="uni0449" unicode="&#x449;" horiz-adv-x="2074" 
d="M1678 0h-1508v1123h359v-876h318v876h359v-876h318v876h359v-876h116v-525h-321v278z" />
    <glyph glyph-name="uni044A" unicode="&#x44a;" horiz-adv-x="1522" 
d="M362 0v879h-352v244h711v-375h275q259 0 358.5 -102.5t99.5 -266.5q0 -155 -110 -267t-349 -112h-633zM721 520v-293h196q167 0 167 149q0 144 -167 144h-196z" />
    <glyph glyph-name="uni044B" unicode="&#x44b;" horiz-adv-x="1919" 
d="M170 0v1123h359v-375h275q259 0 358.5 -102.5t99.5 -266.5q0 -155 -110 -267t-349 -112h-633zM529 520v-293h196q167 0 167 149q0 144 -167 144h-196zM1748 0h-360v1123h360v-1123z" />
    <glyph glyph-name="uni044C" unicode="&#x44c;" horiz-adv-x="1330" 
d="M170 0v1123h359v-375h275q259 0 358.5 -102.5t99.5 -266.5q0 -155 -110 -267t-349 -112h-633zM529 520v-293h196q167 0 167 149q0 144 -167 144h-196z" />
    <glyph glyph-name="uni044D" unicode="&#x44d;" horiz-adv-x="1241" 
d="M87 52v285h49q146 -130 350 -130q288 0 321 257h-515v229h510q-19 111 -102 167t-195 56q-185 0 -351 -132h-49v285q201 85 406 85q294 0 468 -147.5t174 -428.5q0 -289 -181.5 -448.5t-500.5 -159.5q-187 0 -384 82z" />
    <glyph glyph-name="uni044E" unicode="&#x44e;" horiz-adv-x="2036" 
d="M749 482h-219v-482h-360v1123h360v-390h233q97 425 579 425q289 0 447.5 -160.5t158.5 -436.5q0 -278 -160 -437t-446 -159q-257 0 -413.5 132t-179.5 385zM1575 559q0 348 -236 348t-236 -348q0 -343 239 -343q233 0 233 343z" />
    <glyph glyph-name="uni044F" unicode="&#x44f;" horiz-adv-x="1396" 
d="M1226 0h-359v390h-161l-269 -390h-403l322 440q-114 52 -172 128.5t-58 214.5q0 150 110.5 245t320.5 95h669v-1123zM867 610v280h-213q-157 0 -157 -131q0 -149 163 -149h207z" />
    <glyph glyph-name="uni0451" unicode="&#x451;" horiz-adv-x="1360" 
d="M1276 495h-824q18 -272 373 -272q208 0 390 129h40v-289q-224 -93 -469 -93q-336 0 -517 151t-181 434q0 278 170.5 440.5t467.5 162.5q274 0 412 -138.5t138 -398.5v-126zM918 706q-5 227 -221 227q-229 0 -246 -227h467zM1125 1283h-297v273h297v-273zM588 1283h-297
v273h297v-273z" />
    <glyph glyph-name="uni0452" unicode="&#x452;" horiz-adv-x="1459" 
d="M530 796v-796h-360v1237h-129v207h129v112h360v-112h326v-207h-326v-238q196 155 382 155q189 0 287 -112.5t98 -311.5v-363q0 -211 -23 -338t-96 -231t-173.5 -155.5t-231.5 -51.5q-146 0 -198 4v262h39q171 0 223 48t75.5 158.5t23.5 413.5v62q0 196 -38 260t-157 64
q-99 0 -211 -67z" />
    <glyph glyph-name="uni0453" unicode="&#x453;" horiz-adv-x="1088" 
d="M1078 873h-548v-873h-360v1123h908v-250zM1014 1676v-20l-352 -373h-246l247 393h351z" />
    <glyph glyph-name="uni0454" unicode="&#x454;" horiz-adv-x="1240" 
d="M1144 52q-188 -82 -387 -82q-310 0 -489.5 150t-179.5 437q0 285 178 441t481 156q209 0 397 -85v-285h-49q-166 132 -353 132q-249 0 -298 -223h508v-229h-517q31 -257 313 -257q208 0 347 130h49v-285z" />
    <glyph glyph-name="uni0455" unicode="&#x455;" horiz-adv-x="1215" 
d="M95 59v296h33q211 -146 442 -146q208 0 208 93q0 43 -43.5 66.5t-209.5 47.5q-425 63 -425 361q0 162 154 269.5t419 107.5q223 0 422 -80v-284h-31q-187 124 -390 124q-87 0 -146.5 -24t-59.5 -68q0 -47 42 -70t231 -54q241 -40 323 -126.5t82 -215.5
q0 -175 -155.5 -281t-427.5 -106q-260 0 -468 90z" />
    <glyph glyph-name="uni0456" unicode="&#x456;" horiz-adv-x="700" 
d="M540 1283h-380v273h380v-273zM530 0h-360v1123h360v-1123z" />
    <glyph glyph-name="uni0457" unicode="&#x457;" horiz-adv-x="700" 
d="M718 1283h-277v273h277v-273zM259 1283h-277v273h277v-273zM530 0h-360v1123h360v-1123z" />
    <glyph glyph-name="uni0458" unicode="&#x458;" horiz-adv-x="825" 
d="M656 1283h-383v273h383v-273zM656 -20q0 -191 -118 -297t-300 -106q-180 0 -296 26v258h28l49 -12q55 -12 97 -12q104 0 142 62t38 204v776h-213v244h573v-1143z" />
    <glyph glyph-name="uni0459" unicode="&#x459;" horiz-adv-x="2073" 
d="M913 0v872h-287l-8 -213q-21 -666 -441 -666l-152 7v288h11q86 0 118.5 13t72 87.5t55.5 245.5t24 489h966v-375h275q259 0 358.5 -102.5t99.5 -266.5q0 -155 -110 -267t-349 -112h-633zM1272 520v-293h196q167 0 167 149q0 144 -167 144h-196z" />
    <glyph glyph-name="uni045A" unicode="&#x45a;" horiz-adv-x="2088" 
d="M928 0v514h-398v-514h-360v1123h360v-379h398v379h359v-375h275q259 0 358.5 -102.5t99.5 -266.5q0 -155 -110 -267t-349 -112h-633zM1287 520v-293h196q167 0 167 149q0 144 -167 144h-196z" />
    <glyph glyph-name="uni045B" unicode="&#x45b;" horiz-adv-x="1459" 
d="M1298 0h-362v557q0 179 -35 242.5t-162 63.5q-95 0 -209 -67v-796h-360v1237h-129v207h129v112h360v-112h326v-207h-326v-238q197 155 381 155q188 0 287.5 -110t99.5 -313v-731z" />
    <glyph glyph-name="uni045C" unicode="&#x45c;" horiz-adv-x="1374" 
d="M1362 0h-416l-301 445h-115v-445h-360v1123h360v-451q114 1 154.5 32.5t88.5 127.5q8 17 19 37l33 63q43 82 116.5 137.5t216.5 55.5h39q20 0 41 -1l36 -1h22v-300h-98q-105 0 -157 -119q-45 -100 -86 -126zM1118 1676v-20l-352 -373h-246l247 393h351z" />
    <glyph glyph-name="uni045E" unicode="&#x45e;" horiz-adv-x="1333" 
d="M677 397l256 726h370l-624 -1535h-390l178 420l-437 1115h378zM1123 1621q0 -162 -111 -265.5t-331 -103.5q-218 0 -330 103t-112 266h278q2 -99 38 -147.5t126 -48.5q89 0 125.5 46t38.5 150h278z" />
    <glyph glyph-name="uni045F" unicode="&#x45f;" horiz-adv-x="1474" 
d="M1304 0h-407v-280h-320v280h-407v1123h360v-881h414v881h360v-1123z" />
    <glyph glyph-name="uni0490" unicode="&#x490;" horiz-adv-x="1305" 
d="M574 1201v-1201h-384v1489h733v410h341v-698h-690z" />
    <glyph glyph-name="uni0491" unicode="&#x491;" horiz-adv-x="1088" 
d="M530 873v-873h-360v1123h601v363h307v-613h-548z" />
    <glyph glyph-name="uni0496" unicode="&#x496;" horiz-adv-x="2329" 
d="M1936 0h-131l-379 611h-93v-611h-382v611h-98l-379 -611h-456l499 762q-67 37 -136 218.5t-202 181.5h-88v327h154q175 0 267.5 -69.5t153 -224.5t118.5 -239.5t167 -84.5v618h382v-618q57 0 100 19.5t76.5 72t80.5 157.5l36 82q66 152 149.5 219.5t263.5 67.5h154v-323
h-88q-91 0 -126.5 -47t-99.5 -187t-115 -166l315 -481h210v-627h-353v342z" />
    <glyph glyph-name="uni0497" unicode="&#x497;" horiz-adv-x="2058" 
d="M1697 0h-110l-283 445h-102v-445h-358v445h-102l-283 -445h-414l387 578q-41 27 -91 136t-152 109h-98v300h115q135 0 189 -25t98 -71t112 -177.5t105 -153.5t134 -24v451h358v-451q71 0 112 14.5t71.5 65t65.5 117.5l33 63q53 102 132.5 146.5t200.5 44.5h138v-300h-98
q-102 0 -153 -110t-90 -135l221 -331h183v-525h-321v278z" />
    <glyph glyph-name="uni049A" unicode="&#x49a;" horiz-adv-x="1629" 
d="M1236 0h-128l-440 601h-94v-601h-384v1489h384v-607q83 0 142 48t103 125l60 105l45 82q29 53 62.5 98.5t84.5 83.5t128 53.5t104 15.5l50 -2q44 -2 140 -2v-323h-111q-85 0 -129 -41t-119 -184.5t-138 -172.5l366 -483h227v-627h-353v342z" />
    <glyph glyph-name="uni049B" unicode="&#x49b;" horiz-adv-x="1418" 
d="M1057 0h-111l-301 445h-115v-445h-360v1123h360v-451q91 0 122.5 16t52.5 36t87 145l33 63q52 102 132.5 146.5t200.5 44.5h138v-300h-98q-102 0 -153 -110t-90 -135l233 -331h190v-525h-321v278z" />
    <glyph glyph-name="uni04B0" unicode="&#x4b0;" horiz-adv-x="1509" 
d="M1500 1489l-546 -908h297v-233h-300v-348h-384v348h-300v233h286l-544 908h436l322 -576l311 576h422z" />
    <glyph glyph-name="uni04B1" unicode="&#x4b1;" horiz-adv-x="1331" 
d="M1126 0h-282v-412h-360v412h-282v233h247l-419 890h381l260 -622l257 622h373l-423 -890h248v-233z" />
    <glyph glyph-name="uni04B2" unicode="&#x4b2;" horiz-adv-x="1589" 
d="M1196 0h-100l-321 490l-327 -490h-424l528 750l-517 739h443l310 -464l319 464h425l-520 -724l331 -480h206v-627h-353v342z" />
    <glyph glyph-name="uni04B3" unicode="&#x4b3;" horiz-adv-x="1398" 
d="M1037 0h-113l-240 336l-246 -336h-412l443 561l-436 562h420l236 -330l237 330h413l-437 -553l250 -323h206v-525h-321v278z" />
    <glyph glyph-name="uni04B6" unicode="&#x4b6;" horiz-adv-x="1639" 
d="M1216 0h-178v551q-220 -49 -414 -49q-229 0 -361 115.5t-132 321.5v550h386v-353q0 -209 65 -276t248 -67q61 0 112.5 4.5t95.5 12.5v679h384v-1204h147v-627h-353v342z" />
    <glyph glyph-name="uni04B7" unicode="&#x4b7;" horiz-adv-x="1423" 
d="M1027 0h-156v386q-211 -44 -363 -44q-182 0 -287 90.5t-105 256.5v434h362v-258q0 -132 14.5 -162.5t61 -67.5t184.5 -37q67 0 133 9v516h360v-876h117v-525h-321v278z" />
    <glyph glyph-name="uni0E3F" unicode="&#xe3f;" 
d="M801 -281h-174v281h-477v1489h477v167h174v-168q298 -9 406 -98t108 -247q0 -111 -59.5 -195.5t-168.5 -133.5v-8q154 -33 225.5 -116t71.5 -234q0 -217 -148 -335.5t-435 -120.5v-281zM801 642v-378q111 5 161.5 53.5t50.5 144.5q0 85 -56 129t-156 51zM512 644v-381
h115v381h-115zM801 1222v-328q86 10 117 52t31 122q0 66 -34 105t-114 49zM512 1226v-335h115v335h-115z" />
    <glyph glyph-name="Wgrave" unicode="&#x1e80;" horiz-adv-x="2311" 
d="M2245 1489l-401 -1489h-425l-267 970l-260 -970h-425l-401 1489h401l229 -1025l274 1025h383l261 -1025l240 1025h391zM1391 1656h-246l-352 373v20h351z" />
    <glyph glyph-name="wgrave" unicode="&#x1e81;" horiz-adv-x="2006" 
d="M1961 1123l-348 -1123h-382l-229 757l-225 -757h-387l-345 1123h378l192 -774l240 774h319l228 -774l189 774h370zM1217 1283h-246l-352 373v20h351z" />
    <glyph glyph-name="Wacute" unicode="&#x1e82;" horiz-adv-x="2311" 
d="M2245 1489l-401 -1489h-425l-267 970l-260 -970h-425l-401 1489h401l229 -1025l274 1025h383l261 -1025l240 1025h391zM1529 2049v-20l-352 -373h-246l247 393h351z" />
    <glyph glyph-name="wacute" unicode="&#x1e83;" horiz-adv-x="2006" 
d="M1961 1123l-348 -1123h-382l-229 757l-225 -757h-387l-345 1123h378l192 -774l240 774h319l228 -774l189 774h370zM1409 1676v-20l-352 -373h-246l247 393h351z" />
    <glyph glyph-name="Wdieresis" unicode="&#x1e84;" horiz-adv-x="2311" 
d="M2245 1489l-401 -1489h-425l-267 970l-260 -970h-425l-401 1489h401l229 -1025l274 1025h383l261 -1025l240 1025h391zM1579 1656h-297v273h297v-273zM1042 1656h-297v273h297v-273z" />
    <glyph glyph-name="wdieresis" unicode="&#x1e85;" horiz-adv-x="2006" 
d="M1961 1123l-348 -1123h-382l-229 757l-225 -757h-387l-345 1123h378l192 -774l240 774h319l228 -774l189 774h370zM1432 1283h-297v273h297v-273zM895 1283h-297v273h297v-273z" />
    <glyph glyph-name="uni1E9E" unicode="&#x1e9e;" horiz-adv-x="1664" 
d="M190 1489h1233v-272l-246 -287q193 -39 299 -159t106 -302q0 -228 -154.5 -355.5t-420.5 -127.5q-130 0 -274 23v286h37q85 -42 185 -42q110 0 185 66.5t75 183.5q0 136 -90.5 199t-315.5 63v152l245 285h-489v-1202h-375v1489z" />
    <glyph glyph-name="Ygrave" unicode="&#x1ef2;" horiz-adv-x="1509" 
d="M1500 1489l-549 -913v-576h-384v558l-558 931h436l322 -576l311 576h422zM1037 1656h-246l-352 373v20h351z" />
    <glyph glyph-name="ygrave" unicode="&#x1ef3;" horiz-adv-x="1333" 
d="M677 397l256 726h370l-624 -1535h-390l178 420l-437 1115h378zM923 1283h-246l-352 373v20h351z" />
    <glyph glyph-name="endash" unicode="&#x2013;" 
d="M1303 528h-1150v268h1150v-268z" />
    <glyph glyph-name="emdash" unicode="&#x2014;" horiz-adv-x="2048" 
d="M1895 528h-1742v268h1742v-268z" />
    <glyph glyph-name="uni2015" unicode="&#x2015;" horiz-adv-x="2048" 
d="M1845 528h-1641v268h1641v-268z" />
    <glyph glyph-name="underscoredbl" unicode="&#x2017;" 
d="M1472 -202h-1488v120h1488v-120zM1472 -423h-1488v120h1488v-120z" />
    <glyph glyph-name="quoteleft" unicode="&#x2018;" horiz-adv-x="760" 
d="M480 966h-368l291 590h234z" />
    <glyph glyph-name="quoteright" unicode="&#x2019;" horiz-adv-x="760" 
d="M648 1556l-291 -589h-234l157 589h368z" />
    <glyph glyph-name="quotesinglbase" unicode="&#x201a;" horiz-adv-x="760" 
d="M658 393l-291 -589h-234l157 589h368z" />
    <glyph glyph-name="quotereversed" unicode="&#x201b;" horiz-adv-x="760" 
d="M637 966h-234l-291 590h368z" />
    <glyph glyph-name="quotedblleft" unicode="&#x201c;" horiz-adv-x="1283" 
d="M459 966h-368l291 590h234zM1003 966h-368l291 590h234z" />
    <glyph glyph-name="quotedblright" unicode="&#x201d;" horiz-adv-x="1283" 
d="M648 1556l-291 -589h-234l157 589h368zM1192 1556l-291 -589h-234l157 589h368z" />
    <glyph glyph-name="quotedblbase" unicode="&#x201e;" horiz-adv-x="1283" 
d="M658 393l-291 -589h-234l157 589h368zM1202 393l-291 -589h-234l157 589h368z" />
    <glyph glyph-name="dagger" unicode="&#x2020;" 
d="M1214 938l-364 5l5 -808h-254l5 808l-364 -5v230l364 -5l-5 393h254l-5 -393l364 5v-230z" />
    <glyph glyph-name="daggerdbl" unicode="&#x2021;" 
d="M1214 510l-364 5l5 -380h-254l5 380l-364 -5v230l365 -5v230l-365 -5v230l364 -5l-5 371h254l-5 -371l364 5v-230l-365 5v-230l365 5v-230z" />
    <glyph glyph-name="bullet" unicode="&#x2022;" 
d="M728 1189q210 0 358.5 -149t148.5 -357t-148.5 -357t-358.5 -149q-211 0 -359 148t-148 358t148 358t359 148z" />
    <glyph glyph-name="ellipsis" unicode="&#x2026;" horiz-adv-x="2148" 
d="M533 0h-350v393h350v-393zM1249 0h-350v393h350v-393zM1965 0h-350v393h350v-393z" />
    <glyph glyph-name="perthousand" unicode="&#x2030;" horiz-adv-x="3640" 
d="M599 547q-456 0 -456 485q0 486 456 486q450 0 450 -482q0 -489 -450 -489zM596 1305q-82 0 -120 -54.5t-38 -218.5t38 -218.5t120 -54.5t120 54.5t38 219.5q0 163 -38 217.5t-120 54.5zM1829 1489l-780 -1489h-269l780 1489h269zM2012 -31q-456 0 -456 485
q0 486 456 486q450 0 450 -482q0 -489 -450 -489zM2009 727q-82 0 -120 -54.5t-38 -218.5t38 -218.5t120 -54.5t120 54.5t38 219.5q0 163 -38 217.5t-120 54.5zM3046 -31q-456 0 -456 485q0 486 456 486q450 0 450 -482q0 -489 -450 -489zM3043 727q-82 0 -120 -54.5
t-38 -218.5t38 -218.5t120 -54.5t120 54.5t38 219.5q0 163 -38 217.5t-120 54.5z" />
    <glyph glyph-name="minute" unicode="&#x2032;" horiz-adv-x="722" 
d="M707 1489l-352 -639h-238l224 639h366z" />
    <glyph glyph-name="second" unicode="&#x2033;" horiz-adv-x="1262" 
d="M1247 1489l-352 -639h-238l224 639h366zM707 1489l-352 -639h-238l224 639h366z" />
    <glyph glyph-name="guilsinglleft" unicode="&#x2039;" horiz-adv-x="1113" 
d="M819 128l-602 463v135l602 462v-307l-302 -223l302 -223v-307z" />
    <glyph glyph-name="guilsinglright" unicode="&#x203a;" horiz-adv-x="1113" 
d="M896 591l-602 -463v307l302 223l-302 223v307l602 -462v-135z" />
    <glyph glyph-name="exclamdbl" unicode="&#x203c;" horiz-adv-x="1440" 
d="M1237 1489l-46 -1060h-326l-46 1060h418zM1230 0h-404v264h404v-264zM621 1489l-46 -1060h-326l-46 1060h418zM614 0h-404v264h404v-264z" />
    <glyph glyph-name="uni203E" unicode="&#x203e;" 
d="M1472 1628h-1488v211h1488v-211z" />
    <glyph glyph-name="fraction" unicode="&#x2044;" horiz-adv-x="900" 
d="M977 1498l-785 -1498h-269l785 1498h269z" />
    <glyph glyph-name="fraction" unicode="&#x2215;" horiz-adv-x="900" 
d="M977 1498l-785 -1498h-269l785 1498h269z" />
    <glyph glyph-name="uni2070" unicode="&#x2070;" horiz-adv-x="1224" 
d="M612 546q-213 0 -315 117t-102 363q0 479 417 479t417 -479q0 -246 -101.5 -363t-315.5 -117zM761 1026q0 161 -34 223.5t-115 62.5q-82 0 -116 -64t-34 -223q0 -156 34.5 -221.5t115.5 -65.5q78 0 113.5 61.5t35.5 226.5z" />
    <glyph glyph-name="uni2074" unicode="&#x2074;" horiz-adv-x="1224" 
d="M1069 763h-167v-197h-262v197h-474v261l459 486h277v-561h167v-186zM644 949v338l-326 -338h326z" />
    <glyph glyph-name="uni2075" unicode="&#x2075;" horiz-adv-x="1224" 
d="M231 602v225h30q139 -77 262 -77q210 0 210 123q0 54 -64 82t-155 28q-88 0 -210 -32h-38v538h705v-197h-455v-127q47 7 120 7q160 0 263 -73t103 -216q0 -158 -119 -247.5t-317 -89.5q-193 0 -335 56z" />
    <glyph glyph-name="uni2076" unicode="&#x2076;" horiz-adv-x="1224" 
d="M951 1488v-200h-30q-62 29 -164 29q-242 0 -279 -196q115 54 238 54q144 0 229.5 -79t85.5 -212q0 -153 -112 -245.5t-291 -92.5q-202 0 -310.5 112t-108.5 320q0 252 136 389t406 137q58 0 200 -16zM475 987v-50q0 -96 40 -157.5t112 -61.5q64 0 100 41.5t36 110.5
q0 145 -163 145q-62 0 -125 -28z" />
    <glyph glyph-name="uni2077" unicode="&#x2077;" horiz-adv-x="1224" 
d="M1004 1298l-446 -732h-299l454 724h-483v199h774v-191z" />
    <glyph glyph-name="uni2078" unicode="&#x2078;" horiz-adv-x="1224" 
d="M380 1021v4q-166 66 -166 234q0 115 118 181.5t282 66.5q170 0 285 -61t115 -168q0 -130 -177 -203v-3q201 -70 201 -242q0 -133 -126.5 -210t-300.5 -77q-185 0 -304.5 70.5t-119.5 197.5q0 138 193 210zM691 1129q64 45 64 110q0 45 -40 70t-101 25q-64 0 -104.5 -22.5
t-40.5 -62.5q0 -21 17.5 -38t101.5 -48t103 -34zM520 963q-73 -52 -73 -117q0 -58 49.5 -93.5t129.5 -35.5q149 0 149 103q0 45 -43.5 71t-160.5 57q-22 6 -51 15z" />
    <glyph glyph-name="uni2079" unicode="&#x2079;" horiz-adv-x="1224" 
d="M271 564v200h32q65 -28 154 -28q252 0 288 192q-116 -50 -234 -50q-146 0 -232 78t-86 211q0 152 115.5 246t291.5 94q415 0 415 -430q0 -257 -143 -393t-416 -136q-102 0 -185 16zM748 1064q20 268 -150 268q-137 0 -137 -152q0 -138 170 -138q60 0 117 22z" />
    <glyph glyph-name="uni207F" unicode="&#x207f;" horiz-adv-x="1224" 
d="M1082 596h-298v446q0 139 -27 192t-134 53q-78 0 -169 -54v-637h-296v894h296v-94q157 124 310 124q318 0 318 -339v-585z" />
    <glyph glyph-name="uni2080" unicode="&#x2080;" horiz-adv-x="1224" 
d="M612 -18q-213 0 -315 117t-102 363q0 479 417 479t417 -479q0 -246 -101.5 -363t-315.5 -117zM761 462q0 161 -34 223.5t-115 62.5q-82 0 -116 -64t-34 -223q0 -156 34.5 -221.5t115.5 -65.5q78 0 113.5 61.5t35.5 226.5z" />
    <glyph glyph-name="uni2081" unicode="&#x2081;" horiz-adv-x="1224" 
d="M986 2h-698v188h217v426h-226v178q247 0 262 135h238v-739h207v-188z" />
    <glyph glyph-name="uni2082" unicode="&#x2082;" horiz-adv-x="1224" 
d="M1037 2h-807v189q174 103 276.5 182.5t132 132t29.5 109.5q0 122 -160 122q-106 0 -249 -80h-23v237q184 61 352 61q386 0 386 -286q0 -110 -65 -205t-294 -256h422v-206z" />
    <glyph glyph-name="uni2083" unicode="&#x2083;" horiz-adv-x="1224" 
d="M224 36v216h22q141 -70 277 -70q198 0 198 102q0 45 -31 68.5t-129 23.5h-153v195h137q151 0 151 93q0 87 -172 87q-119 0 -262 -70h-23v213q177 61 361 61q178 0 283.5 -60t105.5 -178q0 -169 -173 -226v-8q196 -42 196 -219q0 -286 -430 -286q-213 0 -358 58z" />
    <glyph glyph-name="uni2084" unicode="&#x2084;" horiz-adv-x="1224" 
d="M1069 199h-167v-197h-262v197h-474v261l459 486h277v-561h167v-186zM644 385v338l-326 -338h326z" />
    <glyph glyph-name="uni2085" unicode="&#x2085;" horiz-adv-x="1224" 
d="M225 38v225h30q139 -77 262 -77q210 0 210 123q0 54 -64 82t-155 28q-88 0 -210 -32h-38v538h705v-197h-455v-127q47 7 120 7q160 0 263 -73t103 -216q0 -158 -119 -247.5t-317 -89.5q-193 0 -335 56z" />
    <glyph glyph-name="uni2086" unicode="&#x2086;" horiz-adv-x="1224" 
d="M945 924v-200h-30q-62 29 -164 29q-242 0 -279 -196q115 54 238 54q144 0 229.5 -79t85.5 -212q0 -153 -112 -245.5t-291 -92.5q-202 0 -310.5 112t-108.5 320q0 252 136 389t406 137q58 0 200 -16zM469 423v-50q0 -96 40 -157.5t112 -61.5q64 0 100 41.5t36 110.5
q0 145 -163 145q-62 0 -125 -28z" />
    <glyph glyph-name="uni2087" unicode="&#x2087;" horiz-adv-x="1224" 
d="M998 734l-446 -732h-299l454 724h-483v199h774v-191z" />
    <glyph glyph-name="uni2088" unicode="&#x2088;" horiz-adv-x="1224" 
d="M374 457v4q-166 66 -166 234q0 115 118 181.5t282 66.5q170 0 285 -61t115 -168q0 -130 -177 -203v-3q201 -70 201 -242q0 -133 -126.5 -210t-300.5 -77q-185 0 -304.5 70.5t-119.5 197.5q0 138 193 210zM685 565q64 45 64 110q0 45 -40 70t-101 25q-64 0 -104.5 -22.5
t-40.5 -62.5q0 -21 17.5 -38t101.5 -48t103 -34zM514 399q-73 -52 -73 -117q0 -58 49.5 -93.5t129.5 -35.5q149 0 149 103q0 45 -43.5 71t-160.5 57q-22 6 -51 15z" />
    <glyph glyph-name="uni2089" unicode="&#x2089;" horiz-adv-x="1224" 
d="M265 0v200h32q65 -28 154 -28q252 0 288 192q-116 -50 -234 -50q-146 0 -232 78t-86 211q0 152 115.5 246t291.5 94q415 0 415 -430q0 -257 -143 -393t-416 -136q-102 0 -185 16zM742 500q20 268 -150 268q-137 0 -137 -152q0 -138 170 -138q60 0 117 22z" />
    <glyph glyph-name="uni20A0" unicode="&#x20a0;" 
d="M1381 0h-770v437h-29q-243 0 -380 145t-137 400q0 250 136 393.5t382 143.5q96 0 189.5 -21t177.5 -63v-236h-30q-57 47 -129 71t-138 24q-137 0 -212 -81t-75 -231q0 -142 65.5 -224t179.5 -94v379h770v-226h-470v-165h436v-226h-436v-200h470v-226z" />
    <glyph glyph-name="colonmonetary" unicode="&#x20a1;" 
d="M971 -281h-164l26 252q-30 0 -58.5 2t-56.5 6l-27 -260h-164l31 298q-215 76 -330.5 265.5t-115.5 458.5q0 298 162 508t437 257l16 150h164l-14 -138q29 0 57.5 -2.5t57.5 -5.5l15 146h164l-19 -178q104 -28 210 -80v-312h-42q-40 35 -90 62.5t-107 46.5l-96 -929
q91 14 165.5 48t131.5 88h38v-307q-92 -44 -182.5 -71.5t-181.5 -41.5zM847 1227l-98 -945q51 -19 113 -24l101 970q-29 3 -58 3q-15 0 -29.5 -1t-28.5 -3zM597 396l80 773q-91 -60 -135.5 -170.5t-44.5 -256.5q0 -102 24.5 -191t75.5 -155z" />
    <glyph glyph-name="uni20A2" unicode="&#x20a2;" 
d="M1270 703h-23q-43 9 -68.5 11t-47.5 2q-38 0 -73 -5t-69 -14v-436q103 11 188 46.5t147 94.5h38v-307q-260 -124 -518 -124q-338 0 -535 206.5t-197 563.5q0 341 206 559t539 218q263 0 505 -120v-312h-42q-83 72 -193.5 108.5t-221.5 36.5q-196 0 -302 -129t-106 -360
q0 -164 60.5 -282.5t169.5 -168.5v661h262v-89q113 92 219 92q35 0 62 -3v-249z" />
    <glyph glyph-name="franc" unicode="&#x20a3;" 
d="M1309 1201h-660v-251h620v-288h-620v-186h352v-219h-352v-257h-372v257h-176v219h176v1013h1032v-288z" />
    <glyph glyph-name="lira" unicode="&#x20a4;" 
d="M1325 0h-1171v278q171 41 200 199h-169v174h181v136h-181v174h179v120q0 192 146.5 314.5t388.5 122.5q194 0 368 -48v-312h-45q-136 86 -268 86q-102 0 -167 -59t-65 -167v-57h437v-174h-439v-136h439v-174h-458q-31 -115 -151 -184v-11h775v-282z" />
    <glyph glyph-name="uni20A5" unicode="&#x20a5;" horiz-adv-x="1765" 
d="M1058 0h-352v53l-112 -226h-164l276 557v266q0 97 -10.5 139.5t-26.5 62t-71 19.5q-27 0 -61.5 -16t-66.5 -39v-816h-350v1123h350v-111q59 57 135.5 92.5t153.5 35.5q94 0 155 -38t95 -107l174 352h164l-111 -224q29 9 56 13t54 4q152 0 225.5 -102t73.5 -302v-736h-352
v650q0 97 -10.5 139.5t-26.5 62t-71 19.5q-17 0 -38 -5t-47 -17l-43 -87l1 -12v-750z" />
    <glyph glyph-name="uni20A6" unicode="&#x20a6;" horiz-adv-x="1514" 
d="M1479 598v-174h-145v-424h-370l-176 424h-276v-424h-332v424h-145v174h145v136h-145v174h145v581h459l227 -581h136v581h332v-581h145v-174h-145v-136h145zM512 598h204l-56 136h-148v-136zM512 908h76l-76 184v-184zM988 598h14v136h-68z" />
    <glyph glyph-name="peseta" unicode="&#x20a7;" horiz-adv-x="2751" 
d="M1805 60v282h21q179 -141 346 -141q156 0 156 97q0 39 -30 65t-129 61l-126 45q-72 27 -120 71.5t-72 98.5t-26.5 106.5t-2.5 96.5h-165v-842h-347v842h-156q-134 -259 -471 -259h-134v-583h-360v1489h497q491 0 512 -400h116v215h343v-215h305q132 65 311 65
q187 0 353 -75v-274h-23q-151 118 -281 118q-155 0 -155 -95q0 -77 141 -124l129 -44q244 -83 244 -318q0 -162 -125.5 -267.5t-354.5 -105.5q-207 0 -396 91zM549 1239v-409h29q136 0 170 24t62 67.5t28 124.5q0 88 -44.5 140.5t-196.5 52.5h-48z" />
    <glyph glyph-name="uni20A8" unicode="&#x20a8;" horiz-adv-x="2226" 
d="M1264 0h-459l-286 546h-27v-546h-372v1489h474q326 0 457 -116.5t131 -292.5q0 -300 -295 -442zM492 1215v-401h48q118 0 164 20t68.5 66t22.5 133q0 93 -48.5 137.5t-174.5 44.5h-80zM1337 335h25q79 -71 157 -101.5t164 -30.5q156 0 156 90q0 65 -53.5 93.5
t-151.5 51.5t-180.5 61t-132.5 100.5t-50 156.5q0 164 134.5 265.5t355.5 101.5q75 0 162.5 -15t153.5 -43l10 -266h-23q-51 39 -133.5 64.5t-159.5 25.5q-65 0 -109.5 -23.5t-44.5 -65.5q0 -75 204 -122t284.5 -121.5t80.5 -210.5q0 -177 -133 -277t-375 -100
q-98 0 -180.5 16.5t-160.5 61.5v288z" />
    <glyph glyph-name="uni20A9" unicode="&#x20a9;" horiz-adv-x="1819" 
d="M25 1024v174h82l-57 291h351l42 -291h251l50 291h343l46 -291h249l46 291h341l-57 -291h82v-174h-116l-27 -136h143v-174h-177l-139 -714h-405l-116 714h-107l-104 -714h-405l-140 714h-176v174h142l-26 136h-116zM489 888h153l23 136h-196zM1182 888h152l21 136h-195z
M560 404l52 310h-98zM1258 404l48 310h-97zM876 888h52l-22 136h-10z" />
    <glyph glyph-name="uni20AA" unicode="&#x20aa;" horiz-adv-x="1836" 
d="M1324 360h-350v400q0 67 -21 93t-82 26h-471v-879h-350v1123h902q179 0 275.5 -78.5t96.5 -215.5v-469zM1786 294q0 -138 -97 -216t-275 -78h-902v763h350v-519h471q61 0 82 26t21 93v760h350v-829z" />
    <glyph glyph-name="dong" unicode="&#x20ab;" 
d="M1213 -345h-1002v210h1002v-210zM1262 0h-360v117q-178 -148 -361 -148q-205 0 -328 159.5t-123 424.5q0 263 148 432t366 169q145 0 298 -76v159h-326v207h326v112h360v-112h129v-207h-129v-1237zM902 861q-71 30 -157 30q-284 0 -284 -334q0 -165 57 -239.5t183 -74.5
q104 0 201 67v551z" />
    <glyph glyph-name="Euro" unicode="&#x20ac;" 
d="M149 491h-152l66 188h53l-2 32q-2 35 2 101h-116l66 185h85q61 236 260 378.5t459 142.5q263 0 505 -120v-342h-42q-172 175 -415 175q-260 0 -356 -234h445l-69 -185h-424q-7 -73 0 -133h376l-64 -188h-264q37 -110 131.5 -172t216.5 -62q266 0 427 175h38v-337
q-261 -124 -518 -124q-254 0 -450.5 141.5t-257.5 378.5z" />
    <glyph glyph-name="uni20AD" unicode="&#x20ad;" 
d="M40 683v217h162v589h362v-509l392 509h425l-532 -589h411v-217h-366l516 -683h-451l-395 583v-583h-362v683h-162z" />
    <glyph glyph-name="uni20AE" unicode="&#x20ae;" 
d="M276 247v203l270 110v107l-270 -110v203l270 110v341h-455v278h1274v-278h-455v-192l270 111v-203l-270 -111v-107l270 111v-203l-270 -111v-506h-364v357z" />
    <glyph glyph-name="uni20AF" unicode="&#x20af;" horiz-adv-x="2190" 
d="M30 893q33 293 213 460t472 167q271 0 446 -170.5t175 -441.5q0 -411 -232 -659.5t-593 -248.5h-470l51 245h144q17 37 31.5 76.5t22.5 83.5l154 797q-74 -44 -113.5 -121t-53.5 -188h-247zM1475 -412h-272l157 833q51 266 166.5 402.5t305.5 136.5q150 0 234 -95.5
t84 -268.5l-1 -33q-11 -292 -128.5 -438.5t-333.5 -146.5q-26 0 -64 2.5t-79 10.5zM536 254q246 33 368 191.5t122 447.5q0 163 -76 255t-216 105l-152 -845q-8 -46 -20 -84t-26 -70zM1864 678q-21 39 -67 39q-59 0 -91 -50t-57.5 -133.5t-46.5 -207.5l-21 -120
q26 -5 45.5 -6.5t30.5 -1.5q111 0 169.5 105.5t58.5 263.5q0 72 -21 111z" />
    <glyph glyph-name="uni20B0" unicode="&#x20b0;" 
d="M665 177q27 -3 55 -3t60 -1q120 0 196 65t76 158q0 70 -33 126t-86 106q-71 -88 -150 -177.5t-163 -181.5l-208 208l-114 -204h-248l328 566l215 -222q35 37 73 79t75 89q-156 125 -207.5 222.5t-51.5 201.5q0 126 101.5 218t262.5 92q179 0 278 -82t99 -227
q0 -89 -37.5 -183.5t-102.5 -194.5q160 -111 214.5 -212t54.5 -219q0 -200 -156 -321t-405 -121h-63h-36.5t-26.5 2v216zM870 975q29 56 47 111t18 109q0 56 -23.5 83t-65.5 27q-48 0 -76 -37t-28 -73q0 -71 35.5 -123t92.5 -97z" />
    <glyph glyph-name="uni20B1" unicode="&#x20b1;" 
d="M35 994v174h155v321h519q214 0 360 -81.5t205 -239.5h152v-174h-117l1 -36q0 -52 -6 -100h122v-174h-168q-69 -158 -214.5 -243.5t-336.5 -85.5h-155v-355h-362v684h-155v174h155v136h-155zM971 973l-2 21h-417v-136h414l4 46q0 23 1 47v22zM684 605q78 0 130 21t84 58
h-346v-79h132zM552 1239v-71h345q-37 35 -93 53t-138 18h-114z" />
    <glyph glyph-name="uni20B2" unicode="&#x20b2;" 
d="M995 1509q95 -11 186.5 -39t180.5 -72v-312h-42q-66 57 -157.5 95t-196.5 47l-42 -408h438v-725q-260 -124 -518 -124h-7l-26 -252h-164l27 267q-261 48 -411.5 245.5t-150.5 509.5q0 336 199 552t521 224l15 139h164zM707 301l95 919q-149 -33 -227 -156.5t-78 -321.5
q0 -158 55.5 -273t154.5 -168zM895 539l-29 -281q8 0 16 -1h15q54 0 105 6v276h-107z" />
    <glyph glyph-name="uni20B3" unicode="&#x20b3;" 
d="M35 734v174h284l188 581h442l187 -581h290v-174h-234l44 -136h190v-174h-134l137 -424h-372l-124 424h-421l-123 -424h-362l136 424h-128v174h184l44 136h-228zM563 598h320l-40 136h-241zM723 1148l-70 -240h140z" />
    <glyph glyph-name="uni20B4" unicode="&#x20b4;" 
d="M1086 784q-55 -42 -120 -73.5t-134 -62.5h524v-174h-775q-11 -20 -17.5 -43.5t-6.5 -50.5q0 -76 62 -109.5t187 -33.5q108 0 195.5 24t188.5 81h36v-276q-69 -37 -207.5 -65t-275.5 -28q-551 0 -551 386q0 63 13 115h-110v174h208q35 38 81 71t102 65h-391v174h727
q35 28 55.5 64.5t20.5 89.5q0 66 -65 102t-180 36q-94 0 -189 -33.5t-193 -104.5h-36v301q219 100 469 100q262 0 411.5 -98t149.5 -268q0 -57 -9.5 -103.5t-26.5 -85.5h127v-174h-270z" />
    <glyph glyph-name="uni20B5" unicode="&#x20b5;" 
d="M961 -281h-174v254q-314 18 -494.5 222t-180.5 546q0 320 185 535.5t490 238.5v141h174v-143q209 -20 401 -115v-312h-42q-67 59 -160 96.5t-199 46.5v-970q112 8 204.5 44t158.5 99h38v-307q-201 -95 -401 -118v-258zM787 270v947q-140 -36 -215 -157.5t-75 -317.5
q0 -184 76 -310.5t214 -161.5z" />
    <glyph glyph-name="uni2105" unicode="&#x2105;" horiz-adv-x="2605" 
d="M948 619q-145 -72 -295 -72q-239 0 -373.5 125.5t-134.5 356.5q0 229 134 359t367 130q159 0 302 -74v-248h-46q-111 114 -235 114q-102 0 -160 -74.5t-58 -206.5q0 -274 222 -274q139 0 231 112h46v-248zM1816 1489l-780 -1489h-269l780 1489h269zM2012 -31
q-456 0 -456 485q0 486 456 486q450 0 450 -482q0 -489 -450 -489zM2009 727q-82 0 -120 -54.5t-38 -218.5t38 -218.5t120 -54.5t120 54.5t38 219.5q0 163 -38 217.5t-120 54.5z" />
    <glyph glyph-name="uni2113" unicode="&#x2113;" horiz-adv-x="848" 
d="M15 455l177 192v435q0 177 95 293t258 116q115 0 179.5 -62.5t64.5 -176.5q0 -183 -309 -536v-466q0 -116 69 -116q68 0 202 99v-170q-106 -87 -242 -87q-176 0 -246.5 70.5t-70.5 200.5v170l-71 -75zM480 946q65 91 105 162.5t40 142.5q0 102 -70 102q-33 0 -54 -43
t-21 -214v-150z" />
    <glyph glyph-name="uni2116" unicode="&#x2116;" horiz-adv-x="2650" 
d="M2040 566q-229 0 -357 127t-128 350q0 221 128 349t357 128q231 0 358 -128t127 -349t-128 -349t-357 -128zM2040 1320q-189 0 -189 -279q0 -274 191 -274q187 0 187 274q0 279 -189 279zM1396 0h-350l-514 1018v-1018h-342v1489h449l415 -833v833h342v-1489zM1688 388
h704v-212h-704v212z" />
    <glyph glyph-name="uni2120" unicode="&#x2120;" horiz-adv-x="2745" 
d="M95 425v296h33q209 -146 442 -146q208 0 208 93q0 37 -24.5 55t-119.5 40q-344 52 -439 147.5t-95 232.5q0 179 166 278t407 99q242 0 422 -80v-284h-31q-179 124 -390 124q-206 0 -206 -92q0 -42 29.5 -62.5t124.5 -40.5q150 -26 265 -54t187 -106t72 -203
q0 -185 -164.5 -286t-418.5 -101q-272 0 -468 90zM2575 366h-351v697l-255 -460h-158l-255 460v-697h-341v1123h391l289 -510l289 510h391v-1123z" />
    <glyph glyph-name="trademark" unicode="&#x2122;" horiz-adv-x="1974" 
d="M1785 765h-194v566h-21l-178 -396h-136l-180 403h-26v-573h-184v724h315l146 -354l152 354h306v-724zM751 1332h-207v-567h-195v567h-207v157h609v-157z" />
    <glyph glyph-name="Omega" unicode="&#x2126;" horiz-adv-x="1728" 
d="M1675 0h-716v488q151 85 201 171.5t50 218.5q0 162 -89.5 261.5t-256.5 99.5q-162 0 -254 -97.5t-92 -263.5q0 -128 48.5 -215t202.5 -175v-488h-716v288h474v63q-408 163 -408 567q0 262 205 432t540 170q345 0 545 -169.5t200 -432.5q0 -408 -408 -567v-63h474v-288z
" />
    <glyph glyph-name="estimated" unicode="&#x212e;" horiz-adv-x="1532" 
d="M1406 575h-899q21 -325 413 -325q208 0 420 152h45v-322q-252 -106 -504 -106q-366 0 -559 176t-193 491q0 318 187 502.5t499 184.5q591 0 591 -612v-141zM1023 809q-6 273 -241 273q-113 0 -187.5 -65.5t-83.5 -207.5h512z" />
    <glyph glyph-name="oneeighth" unicode="&#x215b;" horiz-adv-x="2420" 
d="M1611 457v4q-166 66 -166 234q0 115 118 181.5t282 66.5q170 0 285 -61t115 -168q0 -130 -177 -203v-3q201 -70 201 -242q0 -133 -126.5 -210t-300.5 -77q-185 0 -304.5 70.5t-119.5 197.5q0 138 193 210zM1922 565q64 45 64 110q0 45 -40 70t-101 25q-64 0 -104.5 -22.5
t-40.5 -62.5q0 -21 17.5 -38t101.5 -48t103 -34zM1751 399q-73 -52 -73 -117q0 -58 49.5 -93.5t129.5 -35.5q149 0 149 103q0 45 -43.5 71t-160.5 57q-22 6 -51 15zM1654 1498l-785 -1498h-269l785 1498h269zM691 559h-277v607h-234v182q252 0 269 145h242v-934z" />
    <glyph glyph-name="threeeighths" unicode="&#x215c;" horiz-adv-x="2420" 
d="M1701 456v4q-166 66 -166 234q0 115 118 181.5t282 66.5q170 0 285 -61t115 -168q0 -130 -177 -203v-3q201 -70 201 -242q0 -133 -126.5 -210t-300.5 -77q-185 0 -304.5 70.5t-119.5 197.5q0 138 193 210zM2012 564q64 45 64 110q0 45 -40 70t-101 25q-64 0 -104.5 -22.5
t-40.5 -62.5q0 -21 17.5 -38t101.5 -48t103 -34zM1841 398q-73 -52 -73 -117q0 -58 49.5 -93.5t129.5 -35.5q149 0 149 103q0 45 -43.5 71t-160.5 57q-22 6 -51 15zM178 600v216h22q141 -70 277 -70q198 0 198 102q0 45 -31 68.5t-129 23.5h-153v195h137q151 0 151 93
q0 87 -172 87q-119 0 -262 -70h-23v213q177 61 361 61q178 0 283.5 -60t105.5 -178q0 -169 -173 -226v-8q196 -42 196 -219q0 -286 -430 -286q-213 0 -358 58zM1734 1498l-785 -1498h-269l785 1498h269z" />
    <glyph glyph-name="fiveeighths" unicode="&#x215d;" horiz-adv-x="2420" 
d="M1701 456v4q-166 66 -166 234q0 115 118 181.5t282 66.5q170 0 285 -61t115 -168q0 -130 -177 -203v-3q201 -70 201 -242q0 -133 -126.5 -210t-300.5 -77q-185 0 -304.5 70.5t-119.5 197.5q0 138 193 210zM2012 564q64 45 64 110q0 45 -40 70t-101 25q-64 0 -104.5 -22.5
t-40.5 -62.5q0 -21 17.5 -38t101.5 -48t103 -34zM1841 398q-73 -52 -73 -117q0 -58 49.5 -93.5t129.5 -35.5q149 0 149 103q0 45 -43.5 71t-160.5 57q-22 6 -51 15zM187 602v225h30q139 -77 262 -77q210 0 210 123q0 54 -64 82t-155 28q-88 0 -210 -32h-38v538h705v-197
h-455v-127q47 7 120 7q160 0 263 -73t103 -216q0 -158 -119 -247.5t-317 -89.5q-193 0 -335 56zM1769 1498l-785 -1498h-269l785 1498h269z" />
    <glyph glyph-name="seveneighths" unicode="&#x215e;" horiz-adv-x="2420" 
d="M1634 463v4q-166 66 -166 234q0 115 118 181.5t282 66.5q170 0 285 -61t115 -168q0 -130 -177 -203v-3q201 -70 201 -242q0 -133 -126.5 -210t-300.5 -77q-185 0 -304.5 70.5t-119.5 197.5q0 138 193 210zM1945 571q64 45 64 110q0 45 -40 70t-101 25q-64 0 -104.5 -22.5
t-40.5 -62.5q0 -21 17.5 -38t101.5 -48t103 -34zM1774 405q-73 -52 -73 -117q0 -58 49.5 -93.5t129.5 -35.5q149 0 149 103q0 45 -43.5 71t-160.5 57q-22 6 -51 15zM1621 1498l-785 -1498h-269l785 1498h269zM985 1298l-446 -732h-299l454 724h-483v199h774v-191z" />
    <glyph glyph-name="partialdiff" unicode="&#x2202;" 
d="M949 866q0 140 -19.5 211.5t-84.5 121t-191 49.5q-131 0 -332 -104h-28v286q217 89 437 89q307 0 449.5 -161.5t142.5 -510.5q0 -353 -172 -616t-511 -263q-233 0 -374.5 132.5t-141.5 341.5q0 239 142.5 391t353.5 152q187 0 329 -119zM937 650q-92 82 -196 82
q-111 0 -173.5 -75t-62.5 -213q0 -109 49 -165.5t131 -56.5q213 0 252 428z" />
    <glyph glyph-name="Delta" unicode="&#x2206;" horiz-adv-x="1650" 
d="M1616 0h-1582l570 1489h442zM1122 286l-302 822l-302 -822h604z" />
    <glyph glyph-name="product" unicode="&#x220f;" horiz-adv-x="1780" 
d="M1739 1203h-233v-1396h-384v1396h-464v-1396h-384v1396h-233v286h1698v-286z" />
    <glyph glyph-name="summation" unicode="&#x2211;" horiz-adv-x="1430" 
d="M1351 -189h-1251v279l529 547l-518 568v284h1215v-288h-740l475 -522v-85l-485 -495h775v-288z" />
    <glyph glyph-name="minus" unicode="&#x2212;" horiz-adv-x="1776" 
d="M1540 528h-1304v268h1304v-268z" />
    <glyph glyph-name="radical" unicode="&#x221a;" horiz-adv-x="1776" 
d="M1897 1839l-895 -2050h-177l-452 981h-239v211h497l338 -752l701 1610h227z" />
    <glyph glyph-name="infinity" unicode="&#x221e;" horiz-adv-x="2168" 
d="M1073 363q-160 -267 -435 -267q-208 0 -334.5 152.5t-126.5 393.5q0 265 136 416t360 151q268 0 423 -267q158 267 434 267q207 0 334 -153t127 -393q0 -260 -133 -413.5t-363 -153.5q-269 0 -422 267zM1191 577q110 -200 292 -200q118 0 183.5 73.5t65.5 212.5
q0 126 -54 195.5t-148 69.5q-102 0 -176.5 -70.5t-162.5 -280.5zM977 728q-114 200 -292 200q-118 0 -183.5 -76t-65.5 -210q0 -120 52.5 -192.5t149.5 -72.5q68 0 115.5 23.5t104.5 103.5t119 224z" />
    <glyph glyph-name="integral" unicode="&#x222b;" horiz-adv-x="1102" 
d="M1072 1292h-27l-50 13q-52 12 -95 12q-89 0 -129 -39.5t-40 -165.5v-1093q0 -442 -441 -442q-151 0 -260 20v254h27l53 -13q53 -12 92 -12q94 0 131.5 41.5t37.5 163.5v1093q0 442 441 442q147 0 260 -20v-254z" />
    <glyph glyph-name="approxequal" unicode="&#x2248;" horiz-adv-x="1776" 
d="M1618 1217q-33 -520 -450 -520q-164 0 -345 149q-144 116 -228 116q-72 0 -112.5 -51.5t-55.5 -199.5h-269q18 260 126.5 385.5t323.5 125.5q151 0 345 -149q155 -116 228 -116q151 0 168 260h269zM1618 586q-18 -262 -126.5 -386.5t-323.5 -124.5q-164 0 -345 149
q-144 116 -228 116q-146 0 -168 -260h-269q35 520 450 520q151 0 345 -149q154 -116 228 -116q152 0 168 251h269z" />
    <glyph glyph-name="notequal" unicode="&#x2260;" horiz-adv-x="1776" 
d="M1527 270h-667l-150 -357h-271l149 357h-338v268h451l106 248h-557v268h666l136 326h275l-138 -326h338v-268h-451l-107 -248h558v-268z" />
    <glyph glyph-name="lessequal" unicode="&#x2264;" horiz-adv-x="1776" 
d="M1558 348l-1340 432v274l1340 432v-287l-939 -283l939 -281v-287zM1558 0h-1340v268h1340v-268z" />
    <glyph glyph-name="greaterequal" unicode="&#x2265;" horiz-adv-x="1776" 
d="M1558 780l-1340 -432v287l939 281l-939 283v287l1340 -432v-274zM1558 0h-1340v268h1340v-268z" />
    <glyph glyph-name="SF100000" unicode="&#x2500;" horiz-adv-x="1451" 
d="M1473 534h-1496v175h1496v-175z" />
    <glyph glyph-name="SF110000" unicode="&#x2502;" horiz-adv-x="1451" 
d="M638 -621v2485h175v-2485h-175z" />
    <glyph glyph-name="SF010000" unicode="&#x250c;" horiz-adv-x="1451" 
d="M1474 709v-175h-661v-1155h-175v1330h836z" />
    <glyph glyph-name="SF030000" unicode="&#x2510;" horiz-adv-x="1451" 
d="M637 534h-660v175h835v-1330h-175v1155z" />
    <glyph glyph-name="SF020000" unicode="&#x2514;" horiz-adv-x="1451" 
d="M638 534v1330h175v-1155h661v-175h-836z" />
    <glyph glyph-name="SF040000" unicode="&#x2518;" horiz-adv-x="1451" 
d="M812 534h-835v175h660v1155h175v-1330z" />
    <glyph glyph-name="H22073" unicode="&#x25a1;" horiz-adv-x="1237" 
d="M146 944h944v-944h-944v944zM222 868v-792h792v792h-792z" />
    <glyph glyph-name="H18543" unicode="&#x25aa;" horiz-adv-x="726" 
d="M594 908v-463h-463v463h463z" />
    <glyph glyph-name="H18551" unicode="&#x25ab;" horiz-adv-x="726" 
d="M594 908v-463h-463v463h463zM518 832h-311v-311h311v311z" />
    <glyph glyph-name="lozenge" unicode="&#x25ca;" horiz-adv-x="1776" 
d="M1669 704l-781 -845l-781 845l781 845zM1289 704l-401 433l-401 -433l401 -433z" />
    <glyph glyph-name="H18533" unicode="&#x25cf;" horiz-adv-x="1237" 
d="M618 1017q182 0 311 -129t129 -312q0 -182 -129 -311t-311 -129q-183 0 -312 129t-129 311q0 183 129 312t312 129z" />
    <glyph glyph-name="openbullet" unicode="&#x25e6;" horiz-adv-x="726" 
d="M614 677q0 -103 -73.5 -177t-177.5 -74q-105 0 -178 73t-73 178q0 104 74 177.5t177 73.5t177 -74t74 -177zM188 677q0 -74 51.5 -124.5t123.5 -50.5t123.5 51.5t51.5 123.5t-51.5 123.5t-123.5 51.5t-123.5 -51.5t-51.5 -123.5z" />
    <glyph glyph-name="musicalnote" unicode="&#x266a;" horiz-adv-x="1024" 
d="M486 1363h38q179 0 260.5 -23.5t142 -112t60.5 -252.5v-103h-99v43q0 118 -79 169t-196 51h-28v-835q0 -202 -96.5 -269.5t-215.5 -67.5q-109 0 -172.5 60.5t-63.5 162.5q0 106 77 177t198 71q79 0 174 -46v975z" />
    <glyph glyph-name="glyph418" horiz-adv-x="1452" 
d="M1409 879h-157v-879h-360v879h-332v-879h-360v879h-157v244h1366v-244z" />
    <glyph glyph-name="iacute.locl" horiz-adv-x="700" 
d="M540 1283h-380v273h380v-273zM530 0h-360v1123h360v-1123zM751 2076v-20l-352 -373h-246l247 393h351z" />
    <glyph glyph-name="zero.oldstyle.lnum" horiz-adv-x="1432" 
d="M716 -31q-309 0 -456.5 184t-147.5 591q0 406 148 590.5t456 184.5q309 0 456.5 -186.5t147.5 -588.5q0 -396 -149.5 -585.5t-454.5 -189.5zM716 1238q-151 0 -190 -130t-39 -364q0 -255 44.5 -375t184.5 -120q121 0 175 105t54 391q0 239 -40 366t-189 127z" />
    <glyph glyph-name="one.oldstyle.lnum" horiz-adv-x="1198" 
d="M1089 0h-959v299h299v738h-299v253q189 0 265.5 48t85.5 158h326v-1197h282v-299z" />
    <glyph glyph-name="two.oldstyle.lnum" horiz-adv-x="1273" 
d="M1195 0h-1117v262q357 284 506.5 462t149.5 305q0 185 -204 185q-195 0 -382 -134h-32v338q209 100 448 100q271 0 417 -115.5t146 -329.5q0 -369 -605 -775h673v-298z" />
    <glyph glyph-name="three.oldstyle.lnum" horiz-adv-x="1294" 
d="M870 787q153 -15 243.5 -108t90.5 -229q0 -227 -169.5 -354t-492.5 -127q-287 0 -482 95v315l38 1q213 -126 422 -126q144 0 213.5 48.5t69.5 169.5q0 75 -54.5 120.5t-154.5 45.5h-172v280h100q257 0 257 173q0 145 -221 145q-192 0 -415 -124h-38v314q238 94 464 94
q265 0 429.5 -95t164.5 -274q0 -132 -78.5 -226.5t-214.5 -123.5v-14z" />
    <glyph glyph-name="four.oldstyle.lnum" horiz-adv-x="1347" 
d="M1302 358h-205v-358h-356v358h-702v291l669 840h389v-843h205v-288zM741 646v503l-395 -503h395z" />
    <glyph glyph-name="five.oldstyle.lnum" horiz-adv-x="1295" 
d="M95 58v307h41q199 -122 392 -122q302 0 302 240q0 222 -323 222q-162 0 -325 -48h-29v832h990v-291h-686v-249q75 10 183 10q267 0 415 -115.5t148 -336.5q0 -251 -168.5 -394.5t-439.5 -143.5q-296 0 -500 89z" />
    <glyph glyph-name="six.oldstyle.lnum" horiz-adv-x="1421" 
d="M1203 1485v-287h-39q-118 51 -257 51q-188 0 -283 -88.5t-117 -283.5q144 115 342 115q207 0 345.5 -127.5t138.5 -360.5q0 -240 -164 -387.5t-435 -147.5q-300 0 -462.5 181.5t-162.5 512.5q0 406 209 630t607 224q152 0 278 -32zM498 555q0 -331 222 -331q103 0 163 66
t60 197q0 252 -248 252q-105 0 -196 -52l-1 -109v-23z" />
    <glyph glyph-name="seven.oldstyle.lnum" horiz-adv-x="1232" 
d="M1166 1214l-586 -1214h-424l622 1198h-729v291h1117v-275z" />
    <glyph glyph-name="eight.oldstyle.lnum" horiz-adv-x="1358" 
d="M355 755v6q-233 111 -233 365q0 174 154.5 285.5t402.5 111.5q256 0 405.5 -102t149.5 -268q0 -117 -60.5 -192.5t-196.5 -135.5v-6q293 -116 293 -386q0 -202 -161.5 -334t-427.5 -132q-289 0 -443 115t-154 321q0 235 271 352zM805 908q92 85 92 190q0 70 -55.5 114
t-142.5 44q-83 0 -139 -42t-56 -105q0 -56 44.5 -90.5t141 -70.5t115.5 -40zM579 656q-116 -93 -116 -214q0 -99 67 -159t179 -60q88 0 152 48.5t64 129.5q0 73 -44.5 118t-197.5 99z" />
    <glyph glyph-name="nine.oldstyle.lnum" horiz-adv-x="1411" 
d="M206 -2v288h44q90 -49 230 -49q379 0 427 367q-126 -107 -357 -107q-209 0 -341.5 132.5t-132.5 352.5q0 238 168.5 387.5t434.5 149.5q300 0 461.5 -177.5t161.5 -512.5q0 -419 -212 -638.5t-616 -219.5q-170 0 -268 27zM912 801q0 153 -3.5 203.5t-29.5 113t-75 94.5
t-122 32q-96 0 -155.5 -64.5t-59.5 -181.5q0 -241 255 -241q70 0 190 44z" />
    <glyph glyph-name="dollar.oldstyle.lnum" horiz-adv-x="1368" 
d="M763 1v-325h-168v320q-295 9 -484 93v278h44q166 -89 446 -108v290q-286 54 -398 152t-112 261q0 167 134 277t370 133v197h168v-195q252 -20 407 -78v-278h-41q-152 85 -366 99v-272q270 -43 389.5 -136t119.5 -268q0 -170 -139.5 -297.5t-369.5 -142.5zM612 848v269
q-200 -16 -200 -132q0 -57 39 -86t161 -51zM759 535v-283q187 18 187 150q0 53 -37 82t-150 51z" />
    <glyph glyph-name="cent.oldstyle.lnum" horiz-adv-x="1288" 
d="M707 -23q-283 20 -435 168.5t-152 411.5q0 267 153 424.5t434 179.5v314h167v-317q134 -12 293 -86v-278h-53q-127 108 -240 127v-707q131 16 240 129h53v-276q-128 -71 -293 -88v-340h-167v338zM707 220v696q-244 -48 -244 -359q0 -293 244 -337z" />
    <glyph glyph-name="sterling.oldstyle.lnum" horiz-adv-x="1345" 
d="M650 605q-20 -213 -169 -293v-11h779v-301h-1154v302q111 31 160.5 91t49.5 211v1h-176v206h176v268q0 197 144.5 318t382.5 121q204 0 363 -54v-329h-45q-120 89 -268 89q-111 0 -174 -61.5t-63 -175.5v-176h393v-206h-399z" />
    <glyph glyph-name="currency.oldstyle.lnum" horiz-adv-x="1299" 
d="M1200 269l-151 -152l-209 210q-80 -49 -188 -49q-105 0 -188 49l-211 -211l-153 152l213 210q-47 80 -47 185q0 108 51 193l-210 212l145 147l211 -211q86 47 190 47q101 0 184 -46l212 210l150 -152l-210 -210q50 -84 50 -188q0 -109 -48 -187zM649 839q-74 0 -124 -50
t-50 -123t50 -122.5t124 -49.5q73 0 123.5 49.5t50.5 122.5t-51 123t-123 50z" />
    <glyph glyph-name="yen.oldstyle.lnum" horiz-adv-x="1431" 
d="M1405 1489l-519 -856v-54h341v-186h-339v-92h339v-186h-339v-115h-346v115h-340v186h340v92h-340v186h342v36l-518 874h394l302 -548l302 548h381z" />
    <glyph glyph-name="franc.oldstyle.lnum" horiz-adv-x="1252" 
d="M588 224v-224h-370v224h-144v222h144v1043h999v-287h-629v-262h573v-288h-573v-206h332v-222h-332z" />
    <glyph glyph-name="lira.oldstyle.lnum" horiz-adv-x="1345" 
d="M604 451q-41 -111 -123 -153v-11h779v-287h-1154v288q152 51 186 163h-152v193h175l1 47v74h-176v192h176v122q0 197 145.5 318t381.5 121q204 0 363 -54v-315h-45q-118 88 -268 88q-237 0 -237 -280h414v-192h-414v-75q0 -31 -2 -46h416v-193h-466z" />
    <glyph glyph-name="Euro.oldstyle.lnum" horiz-adv-x="1299" 
d="M152 503h-138l61 185h52q-6 64 1 125h-114l60 185h81q63 250 235.5 385t420.5 135t426 -94v-346h-36q-169 139 -339 139q-247 0 -337 -219h430l-66 -185h-403q-4 -34 -4 -71q0 -32 4 -54h386l-63 -185h-287q33 -109 122 -170t211 -61q225 0 350 137h32v-336
q-203 -104 -439 -104q-247 0 -419 142t-227 392z" />
    <glyph glyph-name="florin.oldstyle.lnum" horiz-adv-x="1214" 
d="M775 670l-69 -456q-63 -416 -494 -416q-89 0 -200 20v261h31l48 -12q50 -13 94 -13q92 0 133.5 51.5t60.5 176.5l58 388h-186v205h212q8 66 19 134q11 67 13 84q31 210 169 317t353 107q113 0 200 -19v-261h-41l-51 12q-55 11 -97 11q-98 0 -141 -50.5t-59 -162.5
l-26 -172h290v-205h-317z" />
    <glyph glyph-name="zero.oldstyle" horiz-adv-x="1421" 
d="M711 -30q-290 0 -445.5 155t-155.5 435q0 279 155.5 437t445.5 158q289 0 444.5 -159.5t155.5 -436.5q0 -271 -157 -430t-443 -159zM711 880q-237 0 -237 -324t237 -324q236 0 236 325q0 323 -236 323z" />
    <glyph glyph-name="one.oldstyle" horiz-adv-x="1091" 
d="M1018 0h-893v276h277v449h-277v255q170 0 243.5 41.5t85.5 128.5h312v-874h252v-276z" />
    <glyph glyph-name="two.oldstyle" horiz-adv-x="1113" 
d="M1057 0h-998v248q397 277 468 356t71 145q0 123 -169 123q-150 0 -312 -82h-24v293q190 71 397 71q237 0 361.5 -85t124.5 -237q0 -290 -433 -557h514v-275z" />
    <glyph glyph-name="three.oldstyle" horiz-adv-x="1186" 
d="M787 424q144 -11 232 -111.5t88 -245.5q0 -227 -154.5 -359.5t-429.5 -132.5q-281 0 -470 82v312h36q180 -116 398 -116q252 0 252 236q0 86 -57 137.5t-154 51.5h-170v277h103q121 0 183.5 47t62.5 124q0 146 -192 146q-190 0 -386 -119h-35v311q214 90 455 90
q217 0 363.5 -94.5t146.5 -273.5q0 -127 -71.5 -223t-200.5 -125v-14z" />
    <glyph glyph-name="four.oldstyle" horiz-adv-x="1325" 
d="M1291 55h-211v-455h-350v455h-691v270l658 819h383v-823h211v-266zM733 321v483l-380 -483h380z" />
    <glyph glyph-name="five.oldstyle" horiz-adv-x="1166" 
d="M61 -349v304h41q171 -104 374 -104q269 0 269 253q0 242 -311 242q-126 0 -286 -48h-29v824h927v-277h-633v-257q63 9 143 9q256 0 405 -124t149 -356q0 -255 -153.5 -398.5t-433.5 -143.5q-269 0 -462 76z" />
    <glyph glyph-name="six.oldstyle" horiz-adv-x="1377" 
d="M1177 1487v-287h-39q-108 47 -250 47q-352 0 -396 -350q157 117 338 117q206 0 338.5 -131t132.5 -368q0 -251 -155.5 -398t-426.5 -147q-301 0 -460 178t-159 515q0 407 204 630.5t602 223.5q146 0 271 -30zM483 568q0 -342 231 -342q93 0 146 72t53 199q0 263 -232 263
q-103 0 -197 -56l-1 -112v-24z" />
    <glyph glyph-name="seven.oldstyle" horiz-adv-x="1147" 
d="M1091 851l-586 -1229h-400l613 1223h-679v278h1052v-272z" />
    <glyph glyph-name="eight.oldstyle" horiz-adv-x="1337" 
d="M362 759v6q-209 102 -209 346q0 177 148 294.5t385 117.5q226 0 361 -103t135 -267q0 -239 -236 -327l2 -11q306 -124 306 -379q0 -206 -153 -338t-433 -132q-282 0 -433 114t-151 301q0 254 278 378zM786 892q90 79 90 199q0 73 -56 119t-139 46q-82 0 -133.5 -40
t-51.5 -100q0 -72 63 -120.5t227 -103.5zM571 665q-116 -99 -116 -223q0 -100 68 -160.5t180 -60.5q87 0 150 49t63 130q0 84 -50.5 128.5t-190.5 97.5z" />
    <glyph glyph-name="nine.oldstyle" horiz-adv-x="1403" 
d="M225 -387v296h42q93 -50 227 -50q374 0 421 375q-129 -112 -351 -112q-211 0 -339 134t-128 363q0 233 166 384t425 151q298 0 455.5 -178t157.5 -513q0 -421 -208.5 -651t-595.5 -230q-164 0 -272 31zM922 398q37 483 -231 483q-97 0 -155.5 -67.5t-58.5 -196.5
q0 -128 64 -196t176 -68q116 0 205 45z" />
    <glyph glyph-name="dollar.oldstyle" horiz-adv-x="1217" 
d="M695 -7v-298h-168v294q-253 7 -420 78v260h38q156 -91 395 -109v231q-257 46 -353.5 128t-96.5 219q0 140 113 229.5t322 108.5v262h168l-1 -260q202 -13 360 -65v-248h-36q-149 79 -328 90v-221q238 -34 346 -110.5t108 -222.5q0 -148 -119.5 -251t-327.5 -115zM540 707
v206q-90 -7 -131.5 -28t-41.5 -72t41.5 -71.5t131.5 -34.5zM688 438v-226q161 13 161 115q0 42 -29.5 66.5t-131.5 44.5z" />
    <glyph glyph-name="cent.oldstyle" horiz-adv-x="1166" 
d="M632 49q-250 18 -393.5 158.5t-143.5 349.5q0 224 142 367t395 163v333h167v-336q130 -12 269 -72v-247h-48q-77 56 -221 74v-547q145 16 221 79h48v-246q-103 -58 -269 -75v-344h-167v343zM632 296v540q-204 -39 -204 -270q0 -234 204 -270z" />
    <glyph glyph-name="sterling.oldstyle" horiz-adv-x="1160" 
d="M601 452q-6 -121 -101 -173l1 -8l614 1v-272h-1009l-1 266q176 38 176 166v20h-149v182h149v177q0 157 116 251t308 94q165 0 292 -42l2 -287h-30q-83 47 -190 47q-167 0 -167 -143v-97h300v-182h-311z" />
    <glyph glyph-name="currency.oldstyle" horiz-adv-x="1246" 
d="M1135 205l-158 -158l-156 156q-88 -52 -197 -52q-107 0 -197 52l-158 -157l-160 158l160 157q-49 88 -49 194q0 115 54 202l-157 159l151 154l158 -158q88 49 199 49q102 0 193 -48l159 157l157 -159l-158 -156q54 -94 54 -198q0 -109 -51 -196zM621 737
q-76 0 -127.5 -52t-51.5 -126t51.5 -126t127.5 -52t127.5 51.5t51.5 126.5q0 73 -52 125.5t-127 52.5z" />
    <glyph glyph-name="yen.oldstyle" horiz-adv-x="1292" 
d="M1220 1122l-391 -581h349v-184h-360v-75h360v-183h-360v-99h-344v99h-361v183h361v75h-361v184h346l-385 582h394l183 -327l188 326h381z" />
    <glyph glyph-name="franc.oldstyle" horiz-adv-x="1150" 
d="M558 125v-125h-366v125h-139v182h139v817h921v-277h-555v-184h499v-230h-499v-126h268v-182h-268z" />
    <glyph glyph-name="lira.oldstyle" horiz-adv-x="1185" 
d="M557 379q-31 -71 -86 -100v-7h646v-272h-1012v266q151 26 169 113h-139v117h155v77h-155v117h154v77q0 182 118.5 287t327.5 105q179 0 311 -40v-298h-39q-103 54 -228 54q-158 0 -187 -122q-8 -12 -8 -63h355v-117h-355v-40q0 -26 -2 -37h357v-117h-382z" />
    <glyph glyph-name="Euro.oldstyle" horiz-adv-x="1168" 
d="M178 403h-139l42 118h80v48q0 31 5 56l-113 -1q31 76 54 118h74q46 202 201.5 311t390.5 109q198 0 352 -73l-1 -266h-31q-133 100 -284 100q-226 0 -268 -181h381l-49 -117h-355q-5 -55 0 -104h352l-38 -96q-8 -18 -9 -21h-287q35 -193 264 -193q196 0 296 102h28
l1 -264q-169 -78 -388 -78q-218 0 -365.5 112t-193.5 320z" />
    <glyph glyph-name="florin.oldstyle" horiz-adv-x="1032" 
d="M614 431l-49 -368q-55 -416 -506 -416q-73 0 -171 20v259h26l47 -13q48 -13 89 -13q89 0 128.5 47t60.5 184l39 300h-186v203h212l16 109q61 416 506 416q116 0 197 -18v-266h-39l-52 14q-55 15 -96 15q-86 0 -126.5 -51t-57.5 -159l-11 -60h292v-203h-319z" />
    <glyph glyph-name="A.aalt" horiz-adv-x="1347" 
d="M872 189h-403l-67 -189h-375l453 1123h386l454 -1123h-378zM544 415h257l-129 393z" />
    <glyph glyph-name="B.aalt" horiz-adv-x="1307" 
d="M164 1123h462q312 0 417 -66.5t105 -200.5q0 -178 -187 -244v-7q261 -48 261 -262q0 -166 -132.5 -254.5t-377.5 -88.5h-548v1123zM634 668q161 0 161 115q0 108 -182 108h-109v-223h130zM649 219q219 0 219 136q0 131 -200 131h-164v-267h145z" />
    <glyph glyph-name="C.aalt" horiz-adv-x="1274" 
d="M1182 1053v-328h-42q-151 134 -347 134q-288 0 -288 -299q0 -301 289 -301q211 0 350 113h38v-300q-190 -94 -441 -94q-282 0 -456 160t-174 421t175 423.5t456 162.5q237 0 440 -92z" />
    <glyph glyph-name="D.aalt" horiz-adv-x="1448" 
d="M164 0v1123h422q750 0 750 -562q0 -277 -193 -419t-546 -142h-433zM522 848v-573h82q346 0 346 288q0 285 -343 285h-85z" />
    <glyph glyph-name="E.aalt" horiz-adv-x="1229" 
d="M1106 0h-942v1123h942v-265h-583v-155h530v-232h-530v-207h583v-264z" />
    <glyph glyph-name="F.aalt" horiz-adv-x="1131" 
d="M1055 857h-536v-159h505v-254h-505v-444h-355v1123h891v-266z" />
    <glyph glyph-name="G.aalt" horiz-adv-x="1420" 
d="M1286 72q-57 -32 -207 -63.5t-288 -31.5q-309 0 -493.5 160t-184.5 426q0 246 183 414t477 168q269 0 475 -93v-268h-38q-186 101 -410 101q-317 0 -317 -320q0 -185 77 -266t244 -81q111 0 181 28v148h-275v222h576v-544z" />
    <glyph glyph-name="H.aalt" horiz-adv-x="1446" 
d="M1281 0h-367v452h-382v-452h-368v1123h368v-379h382v379h367v-1123z" />
    <glyph glyph-name="dotlessi.aalt" horiz-adv-x="1015" 
d="M890 0h-766v255h200v613h-200v255h766v-255h-199v-613h199v-255z" />
    <glyph glyph-name="J.aalt" horiz-adv-x="1032" 
d="M865 432q0 -232 -129 -341t-394 -109q-165 0 -285 35v286h34q100 -42 212 -42q116 0 153 54t37 157v396h-273v255h645v-691z" />
    <glyph glyph-name="K.aalt" horiz-adv-x="1397" 
d="M1402 0h-450l-364 430l-59 -54v-376h-365v1123h365v-437l405 437h404l-472 -495z" />
    <glyph glyph-name="L.aalt" horiz-adv-x="1130" 
d="M1069 0h-905v1123h371v-843h534v-280z" />
    <glyph glyph-name="M.aalt" horiz-adv-x="1672" 
d="M1507 0h-349v668l-218 -437h-223l-221 437v-668h-332v1123h401l272 -557l274 557h396v-1123z" />
    <glyph glyph-name="N.aalt" horiz-adv-x="1462" 
d="M1296 0h-347l-457 602v-602h-326v1123h362l440 -585v585h328v-1123z" />
    <glyph glyph-name="O.aalt" horiz-adv-x="1504" 
d="M1392 561q0 -257 -173 -420.5t-468 -163.5q-298 0 -468.5 162t-170.5 422q0 255 177.5 420t461.5 165q281 0 461 -166t180 -419zM752 877q-260 0 -260 -320q0 -150 66.5 -235.5t193.5 -85.5q259 0 259 321q0 320 -259 320z" />
    <glyph glyph-name="P.aalt" horiz-adv-x="1289" 
d="M532 346v-346h-368v1123h429q313 0 464 -91.5t151 -287.5q0 -182 -138 -290t-360 -108h-178zM523 872v-293h110q214 0 214 150q0 143 -210 143h-114z" />
    <glyph glyph-name="Q.aalt" horiz-adv-x="1504" 
d="M992 18q7 -111 160 -111q84 0 167 25h33v-236q-125 -34 -295 -34q-359 0 -384 329q-256 19 -408.5 176.5t-152.5 393.5q0 264 175 424.5t464 160.5q287 0 463.5 -160t176.5 -425q0 -195 -106.5 -340.5t-292.5 -202.5zM751 877q-259 0 -259 -320q0 -147 66 -234t193 -87
q260 0 260 321q0 320 -260 320z" />
    <glyph glyph-name="R.aalt" horiz-adv-x="1388" 
d="M1398 0h-444l-315 395h-107v-395h-368v1123h526q246 0 390 -84.5t144 -247.5q0 -214 -231 -314zM532 878v-285h111q212 0 212 150q0 135 -189 135h-134z" />
    <glyph glyph-name="S.aalt" horiz-adv-x="1229" 
d="M93 66v290h42q235 -137 454 -137q157 0 157 90q0 34 -39 53t-203 62l-49 12q-195 48 -280 129.5t-85 209.5q0 157 148.5 262.5t371.5 105.5q233 0 469 -74v-268h-40q-176 103 -397 103q-83 0 -123.5 -25t-40.5 -59q0 -40 38 -59.5t158 -40.5q183 -35 276.5 -72
t146 -108.5t52.5 -175.5q0 -183 -150.5 -283.5t-386.5 -100.5q-299 0 -519 86z" />
    <glyph glyph-name="T.aalt" horiz-adv-x="1229" 
d="M1192 852h-394v-852h-367v852h-395v271h1156v-271z" />
    <glyph glyph-name="U.aalt" horiz-adv-x="1406" 
d="M1260 410q0 -200 -147.5 -316.5t-409.5 -116.5q-263 0 -409 116.5t-146 317.5v712h366v-616q0 -239 189 -239q111 0 150.5 56t39.5 184v615h367v-713z" />
    <glyph glyph-name="V.aalt" horiz-adv-x="1320" 
d="M1293 1123l-447 -1123h-374l-445 1123h373l267 -711l272 711h354z" />
    <glyph glyph-name="W.aalt" horiz-adv-x="1964" 
d="M1899 1123l-328 -1123h-381l-211 657l-205 -657h-384l-324 1123h360l170 -715l219 715h345l205 -711l180 711h354z" />
    <glyph glyph-name="X.aalt" horiz-adv-x="1342" 
d="M439 1123l236 -311l244 311h382l-424 -543l432 -580h-398l-247 334l-251 -334h-381l430 568l-422 555h399z" />
    <glyph glyph-name="Y.aalt" horiz-adv-x="1321" 
d="M1309 1123l-456 -711v-412h-379v400l-465 723h394l269 -411l256 411h381z" />
    <glyph glyph-name="Z.aalt" horiz-adv-x="1205" 
d="M1131 0h-1043v236l558 620h-529v267h979v-243l-562 -616h597v-264z" />
    <glyph glyph-name="Aacute.aalt" horiz-adv-x="1347" 
d="M872 189h-403l-67 -189h-375l453 1123h386l454 -1123h-378zM544 415h257l-129 393zM1100 1676v-20l-352 -373h-246l247 393h351z" />
    <glyph glyph-name="Abreve.aalt" horiz-adv-x="1347" 
d="M872 189h-403l-67 -189h-375l453 1123h386l454 -1123h-378zM544 415h257l-129 393zM1060 1636q0 -177 -100 -279t-286 -102q-184 0 -285.5 96.5t-101.5 284.5h223q0 -204 164 -204q163 0 163 204h223z" />
    <glyph glyph-name="Acircumflex.aalt" horiz-adv-x="1347" 
d="M872 189h-403l-67 -189h-375l453 1123h386l454 -1123h-378zM544 415h257l-129 393zM1124 1283h-264l-185 219l-184 -219h-260l321 393h251z" />
    <glyph glyph-name="Adieresis.aalt" horiz-adv-x="1347" 
d="M872 189h-403l-67 -189h-375l453 1123h386l454 -1123h-378zM544 415h257l-129 393zM1093 1283h-297v273h297v-273zM556 1283h-297v273h297v-273z" />
    <glyph glyph-name="Agrave.aalt" horiz-adv-x="1347" 
d="M872 189h-403l-67 -189h-375l453 1123h386l454 -1123h-378zM544 415h257l-129 393zM898 1283h-246l-352 373v20h351z" />
    <glyph glyph-name="Amacron.aalt" horiz-adv-x="1347" 
d="M872 189h-403l-67 -189h-375l453 1123h386l454 -1123h-378zM544 415h257l-129 393zM1076 1346h-802v210h802v-210z" />
    <glyph glyph-name="Aogonek.aalt" horiz-adv-x="1347" 
d="M1500 -393q-82 -24 -211 -24q-353 0 -353 318q0 29 5 100l-69 188h-403l-67 -189h-375l453 1123h386l454 -1123h-165l-2 -30l-1 -21q-8 -176 181 -176q81 0 158 34h9v-200zM544 415h257l-129 393z" />
    <glyph glyph-name="Aring.aalt" horiz-adv-x="1347" 
d="M872 189h-403l-67 -189h-375l423 1048l-10 9q-92 83 -92 215q0 130 93 215.5t225 85.5q133 0 225.5 -86.5t92.5 -214.5t-92 -215l428 -1057h-378zM666 1419q-59 0 -97.5 -42.5t-38.5 -105.5q0 -64 38.5 -105t97.5 -41q61 0 98.5 42.5t37.5 103.5q0 60 -38 104t-98 44z
M544 415h257l-129 393z" />
    <glyph glyph-name="Aringacute.aalt" horiz-adv-x="1347" 
d="M1092 1769v-20l-257 -250q149 -92 149 -257q0 -128 -92 -215l428 -1027h-378l-70 189h-403l-67 -189h-375l423 1018l-10 9q-92 83 -92 215q0 111 67 189t165 102l161 236h351zM666 1389q-59 0 -97.5 -42.5t-38.5 -105.5q0 -64 38.5 -105t97.5 -41q61 0 98.5 42.5
t37.5 103.5q0 60 -38 104t-98 44zM544 415h257l-129 373z" />
    <glyph glyph-name="Atilde.aalt" horiz-adv-x="1347" 
d="M872 189h-403l-67 -189h-375l453 1123h386l454 -1123h-378zM544 415h257l-129 393zM1114 1618q-18 -332 -285 -332q-70 0 -167 58q-93 58 -131 58q-82 0 -85 -122h-219q6 152 83.5 241.5t200.5 89.5q50 0 90.5 -17t148.5 -76q32 -18 59 -18q82 0 86 118h219z" />
    <glyph glyph-name="AE.aalt" horiz-adv-x="1906" 
d="M492 263l-115 -263h-358l500 1123h1264v-265h-567v-157h515v-232h-515v-205h567v-264h-911v263h-380zM603 509h269v349h-115z" />
    <glyph glyph-name="AEacute.aalt" horiz-adv-x="1906" 
d="M492 263l-115 -263h-358l500 1123h1264v-265h-567v-157h515v-232h-515v-205h567v-264h-911v263h-380zM603 509h269v349h-115zM1546 1676v-20l-352 -373h-246l247 393h351z" />
    <glyph glyph-name="Cacute.aalt" horiz-adv-x="1274" 
d="M1182 1053v-328h-42q-151 134 -347 134q-288 0 -288 -299q0 -301 289 -301q211 0 350 113h38v-300q-190 -94 -441 -94q-282 0 -456 160t-174 421t175 423.5t456 162.5q237 0 440 -92zM1143 1676v-20l-352 -373h-246l247 393h351z" />
    <glyph glyph-name="Ccaron.aalt" horiz-adv-x="1274" 
d="M1182 1053v-328h-42q-151 134 -347 134q-288 0 -288 -299q0 -301 289 -301q211 0 350 113h38v-300q-190 -94 -441 -94q-282 0 -456 160t-174 421t175 423.5t456 162.5q237 0 440 -92zM1178 1676l-321 -393h-251l-321 393h264l185 -227l184 227h260z" />
    <glyph glyph-name="Ccedilla.aalt" horiz-adv-x="1274" 
d="M430 -396v187h23q77 -36 156 -36t127.5 50t48.5 134v21l-1 19q-132 0 -228.5 19t-205 88t-174 193t-65.5 280q0 261 175 423.5t456 162.5q237 0 440 -92v-328h-42q-151 134 -347 134q-288 0 -288 -299q0 -301 289 -301q211 0 350 113h38v-300q-92 -47 -183 -66
q4 -71 4 -88q0 -156 -100.5 -247.5t-267.5 -91.5q-133 0 -205 25z" />
    <glyph glyph-name="Ccircumflex.aalt" horiz-adv-x="1274" 
d="M1182 1053v-328h-42q-151 134 -347 134q-288 0 -288 -299q0 -301 289 -301q211 0 350 113h38v-300q-190 -94 -441 -94q-282 0 -456 160t-174 421t175 423.5t456 162.5q237 0 440 -92zM1179 1283h-264l-185 219l-184 -219h-260l321 393h251z" />
    <glyph glyph-name="Cdotaccent.aalt" horiz-adv-x="1274" 
d="M1182 1053v-328h-42q-151 134 -347 134q-288 0 -288 -299q0 -301 289 -301q211 0 350 113h38v-300q-190 -94 -441 -94q-282 0 -456 160t-174 421t175 423.5t456 162.5q237 0 440 -92zM927 1283h-370v273h370v-273z" />
    <glyph glyph-name="Dcaron.aalt" horiz-adv-x="1448" 
d="M164 0v1123h422q750 0 750 -562q0 -277 -193 -419t-546 -142h-433zM522 848v-573h82q346 0 346 288q0 285 -343 285h-85zM1157 1676l-321 -393h-251l-321 393h264l185 -227l184 227h260z" />
    <glyph glyph-name="Dcroat.aalt" horiz-adv-x="1448" 
d="M164 0v495h-118v201h118v427h422q750 0 750 -562q0 -277 -193 -419t-546 -142h-433zM512 869v-173h213v-201h-213v-240h54q226 0 313.5 77.5t87.5 230.5q0 156 -91 231t-307 75h-57z" />
    <glyph glyph-name="Eacute.aalt" horiz-adv-x="1229" 
d="M1106 0h-942v1123h942v-265h-583v-155h530v-232h-530v-207h583v-264zM1090 1676v-20l-352 -373h-246l247 393h351z" />
    <glyph glyph-name="Ebreve.aalt" horiz-adv-x="1229" 
d="M1106 0h-942v1123h942v-265h-583v-155h530v-232h-530v-207h583v-264zM1025 1636q0 -177 -100 -279t-286 -102q-184 0 -285.5 96.5t-101.5 284.5h223q0 -204 164 -204q163 0 163 204h223z" />
    <glyph glyph-name="Ecaron.aalt" horiz-adv-x="1229" 
d="M1106 0h-942v1123h942v-265h-583v-155h530v-232h-530v-207h583v-264zM1096 1676l-321 -393h-251l-321 393h264l185 -227l184 227h260z" />
    <glyph glyph-name="Ecircumflex.aalt" horiz-adv-x="1229" 
d="M1106 0h-942v1123h942v-265h-583v-155h530v-232h-530v-207h583v-264zM1094 1283h-264l-185 219l-184 -219h-260l321 393h251z" />
    <glyph glyph-name="Edieresis.aalt" horiz-adv-x="1229" 
d="M1106 0h-942v1123h942v-265h-583v-155h530v-232h-530v-207h583v-264zM1054 1283h-297v273h297v-273zM517 1283h-297v273h297v-273z" />
    <glyph glyph-name="Edotaccent.aalt" horiz-adv-x="1229" 
d="M1106 0h-942v1123h942v-265h-583v-155h530v-232h-530v-207h583v-264zM819 1283h-370v273h370v-273z" />
    <glyph glyph-name="Egrave.aalt" horiz-adv-x="1229" 
d="M1106 0h-942v1123h942v-265h-583v-155h530v-232h-530v-207h583v-264zM802 1283h-246l-352 373v20h351z" />
    <glyph glyph-name="Emacron.aalt" horiz-adv-x="1229" 
d="M1106 0h-942v1123h942v-265h-583v-155h530v-232h-530v-207h583v-264zM1035 1346h-802v210h802v-210z" />
    <glyph glyph-name="Eng.aalt" horiz-adv-x="1462" 
d="M1296 55q0 -190 -111 -303t-305 -113q-136 0 -230 27v266h36l43 -11q47 -10 95 -10q78 0 110 41t34 132l-476 518v-602h-326v1123h362l440 -481v481h328v-1068z" />
    <glyph glyph-name="Eogonek.aalt" horiz-adv-x="1229" 
d="M1106 0h-345l-2 -30l-1 -21q-8 -176 181 -176q81 0 158 34h9v-200q-82 -24 -211 -24q-353 0 -353 318q0 28 5 99h-383v1123h942v-265h-583v-155h530v-232h-530v-207h583v-264z" />
    <glyph glyph-name="Eth.aalt" horiz-adv-x="1448" 
d="M164 0v495h-118v201h118v427h422q750 0 750 -562q0 -277 -193 -419t-546 -142h-433zM512 869v-173h213v-201h-213v-240h54q226 0 313.5 77.5t87.5 230.5q0 156 -91 231t-307 75h-57z" />
    <glyph glyph-name="Gbreve.aalt" horiz-adv-x="1420" 
d="M1286 72q-57 -32 -207 -63.5t-288 -31.5q-309 0 -493.5 160t-184.5 426q0 246 183 414t477 168q269 0 475 -93v-268h-38q-186 101 -410 101q-317 0 -317 -320q0 -185 77 -266t244 -81q111 0 181 28v148h-275v222h576v-544zM1152 1636q0 -177 -100 -279t-286 -102
q-184 0 -285.5 96.5t-101.5 284.5h223q0 -204 164 -204q163 0 163 204h223z" />
    <glyph glyph-name="Gcircumflex.aalt" horiz-adv-x="1420" 
d="M1286 72q-57 -32 -207 -63.5t-288 -31.5q-309 0 -493.5 160t-184.5 426q0 246 183 414t477 168q269 0 475 -93v-268h-38q-186 101 -410 101q-317 0 -317 -320q0 -185 77 -266t244 -81q111 0 181 28v148h-275v222h576v-544zM1199 1283h-264l-185 219l-184 -219h-260
l321 393h251z" />
    <glyph glyph-name="uni0122.aalt" horiz-adv-x="1420" 
d="M1286 72q-57 -32 -207 -63.5t-288 -31.5q-309 0 -493.5 160t-184.5 426q0 246 183 414t477 168q269 0 475 -93v-268h-38q-186 101 -410 101q-317 0 -317 -320q0 -185 77 -266t244 -81q111 0 181 28v148h-275v222h576v-544zM1016 -115l-215 -308h-216l140 308h291z" />
    <glyph glyph-name="Gdotaccent.aalt" horiz-adv-x="1420" 
d="M1286 72q-57 -32 -207 -63.5t-288 -31.5q-309 0 -493.5 160t-184.5 426q0 246 183 414t477 168q269 0 475 -93v-268h-38q-186 101 -410 101q-317 0 -317 -320q0 -185 77 -266t244 -81q111 0 181 28v148h-275v222h576v-544zM960 1283h-370v273h370v-273z" />
    <glyph glyph-name="Hbar.aalt" horiz-adv-x="1446" 
d="M1281 739v-739h-367v312h-382v-312h-368v739h-110v199h110v185h368v-185h382v185h367v-185h110v-199h-110zM914 577v162h-382v-162h382z" />
    <glyph glyph-name="Hcircumflex.aalt" horiz-adv-x="1446" 
d="M1281 0h-367v452h-382v-452h-368v1123h368v-379h382v379h367v-1123zM1173 1283h-264l-185 219l-184 -219h-260l321 393h251z" />
    <glyph glyph-name="Iacute.c2sc" horiz-adv-x="1015" 
d="M890 0h-766v255h200v613h-200v255h766v-255h-199v-613h199v-255zM880 1676v-20l-352 -373h-246l247 393h351z" />
    <glyph glyph-name="ibreve.aalt" horiz-adv-x="1015" 
d="M890 0h-766v255h200v613h-200v255h766v-255h-199v-613h199v-255zM894 1636q0 -177 -100 -279t-286 -102q-184 0 -285.5 96.5t-101.5 284.5h223q0 -204 164 -204q163 0 163 204h223z" />
    <glyph glyph-name="icircumflex.aalt" horiz-adv-x="1015" 
d="M890 0h-766v255h200v613h-200v255h766v-255h-199v-613h199v-255zM958 1283h-264l-185 219l-184 -219h-260l321 393h251z" />
    <glyph glyph-name="idieresis.aalt" horiz-adv-x="1015" 
d="M890 0h-766v255h200v613h-200v255h766v-255h-199v-613h199v-255zM927 1283h-297v273h297v-273zM390 1283h-297v273h297v-273z" />
    <glyph glyph-name="Idotaccent.c2sc" horiz-adv-x="1015" 
d="M890 0h-766v255h200v613h-200v255h766v-255h-199v-613h199v-255zM695 1283h-370v273h370v-273z" />
    <glyph glyph-name="igrave.aalt" horiz-adv-x="1015" 
d="M890 0h-766v255h200v613h-200v255h766v-255h-199v-613h199v-255zM732 1283h-246l-352 373v20h351z" />
    <glyph glyph-name="ij.aalt" horiz-adv-x="1975" 
d="M1808 356q0 -170 -135 -272t-372 -102q-157 0 -269 35v286h35q89 -42 194 -42q106 0 140.5 53t34.5 158v396h-273v255h645v-767zM890 0h-766v255h200v613h-200v255h766v-255h-199v-613h199v-255z" />
    <glyph glyph-name="imacron.aalt" horiz-adv-x="1015" 
d="M890 0h-766v255h200v613h-200v255h766v-255h-199v-613h199v-255zM910 1346h-802v210h802v-210z" />
    <glyph glyph-name="iogonek.aalt" horiz-adv-x="1015" 
d="M890 0h-193l-2 -30l-1 -21q-8 -176 181 -176q81 0 158 34h9v-200q-82 -24 -211 -24q-353 0 -353 318q0 28 5 99h-359v255h200v613h-200v255h766v-255h-199v-613h199v-255z" />
    <glyph glyph-name="itilde.aalt" horiz-adv-x="1015" 
d="M890 0h-766v255h200v613h-200v255h766v-255h-199v-613h199v-255zM949 1618q-18 -332 -285 -332q-70 0 -167 58q-93 58 -131 58q-82 0 -85 -122h-219q6 152 83.5 241.5t200.5 89.5q50 0 90.5 -17t148.5 -76q32 -18 59 -18q82 0 86 118h219z" />
    <glyph glyph-name="Jcircumflex.aalt" horiz-adv-x="1032" 
d="M865 432q0 -232 -129 -341t-394 -109q-165 0 -285 35v286h34q100 -42 212 -42q116 0 153 54t37 157v396h-273v255h645v-691zM985 1283h-264l-185 219l-184 -219h-260l321 393h251z" />
    <glyph glyph-name="uni0136.aalt" horiz-adv-x="1397" 
d="M1402 0h-450l-364 430l-59 -54v-376h-365v1123h365v-437l405 437h404l-472 -495zM912 -115l-215 -308h-216l140 308h291z" />
    <glyph glyph-name="Lacute.aalt" horiz-adv-x="1130" 
d="M1069 0h-905v1123h371v-843h534v-280zM782 1676v-20l-352 -373h-246l247 393h351z" />
    <glyph glyph-name="Lcaron.aalt" horiz-adv-x="1130" 
d="M1183 1123l-243 -449h-234l119 449h358zM1069 0h-905v1123h371v-843h534v-280z" />
    <glyph glyph-name="uni013B.aalt" horiz-adv-x="1130" 
d="M1069 0h-905v1123h371v-843h534v-280zM820 -115l-215 -308h-216l140 308h291z" />
    <glyph glyph-name="Ldot.aalt" horiz-adv-x="1166" 
d="M1069 0h-905v1123h371v-843h534v-280zM1065 508h-305v250h305v-250z" />
    <glyph glyph-name="Lslash.aalt" horiz-adv-x="1138" 
d="M1077 0h-905v276l-134 -97v227l134 97v620h371v-351l271 197v-227l-271 -197v-265h534v-280z" />
    <glyph glyph-name="Nacute.aalt" horiz-adv-x="1462" 
d="M1296 0h-347l-457 602v-602h-326v1123h362l440 -585v585h328v-1123zM1143 1676v-20l-352 -373h-246l247 393h351z" />
    <glyph glyph-name="Ncaron.aalt" horiz-adv-x="1462" 
d="M1296 0h-347l-457 602v-602h-326v1123h362l440 -585v585h328v-1123zM1190 1676l-321 -393h-251l-321 393h264l185 -227l184 227h260z" />
    <glyph glyph-name="uni0145.aalt" horiz-adv-x="1462" 
d="M1296 0h-347l-457 602v-602h-326v1123h362l440 -585v585h328v-1123zM937 -115l-215 -308h-216l140 308h291z" />
    <glyph glyph-name="Ntilde.aalt" horiz-adv-x="1462" 
d="M1296 0h-347l-457 602v-602h-326v1123h362l440 -585v585h328v-1123zM1180 1618q-18 -332 -285 -332q-70 0 -167 58q-93 58 -131 58q-82 0 -85 -122h-219q6 152 83.5 241.5t200.5 89.5q50 0 90.5 -17t148.5 -76q32 -18 59 -18q82 0 86 118h219z" />
    <glyph glyph-name="Oacute.aalt" horiz-adv-x="1504" 
d="M1392 561q0 -257 -173 -420.5t-468 -163.5q-298 0 -468.5 162t-170.5 422q0 255 177.5 420t461.5 165q281 0 461 -166t180 -419zM752 877q-260 0 -260 -320q0 -150 66.5 -235.5t193.5 -85.5q259 0 259 321q0 320 -259 320zM1122 1676v-20l-352 -373h-246l247 393h351z
" />
    <glyph glyph-name="Obreve.aalt" horiz-adv-x="1504" 
d="M1392 561q0 -257 -173 -420.5t-468 -163.5q-298 0 -468.5 162t-170.5 422q0 255 177.5 420t461.5 165q281 0 461 -166t180 -419zM752 877q-260 0 -260 -320q0 -150 66.5 -235.5t193.5 -85.5q259 0 259 321q0 320 -259 320zM1138 1636q0 -177 -100 -279t-286 -102
q-184 0 -285.5 96.5t-101.5 284.5h223q0 -204 164 -204q163 0 163 204h223z" />
    <glyph glyph-name="Ocircumflex.aalt" horiz-adv-x="1504" 
d="M1392 561q0 -257 -173 -420.5t-468 -163.5q-298 0 -468.5 162t-170.5 422q0 255 177.5 420t461.5 165q281 0 461 -166t180 -419zM752 877q-260 0 -260 -320q0 -150 66.5 -235.5t193.5 -85.5q259 0 259 321q0 320 -259 320zM1200 1283h-264l-185 219l-184 -219h-260
l321 393h251z" />
    <glyph glyph-name="Odieresis.aalt" horiz-adv-x="1504" 
d="M1392 561q0 -257 -173 -420.5t-468 -163.5q-298 0 -468.5 162t-170.5 422q0 255 177.5 420t461.5 165q281 0 461 -166t180 -419zM752 877q-260 0 -260 -320q0 -150 66.5 -235.5t193.5 -85.5q259 0 259 321q0 320 -259 320zM1169 1283h-297v273h297v-273zM632 1283h-297
v273h297v-273z" />
    <glyph glyph-name="Ograve.aalt" horiz-adv-x="1504" 
d="M1392 561q0 -257 -173 -420.5t-468 -163.5q-298 0 -468.5 162t-170.5 422q0 255 177.5 420t461.5 165q281 0 461 -166t180 -419zM752 877q-260 0 -260 -320q0 -150 66.5 -235.5t193.5 -85.5q259 0 259 321q0 320 -259 320zM960 1283h-246l-352 373v20h351z" />
    <glyph glyph-name="Ohungarumlaut.aalt" horiz-adv-x="1504" 
d="M1392 561q0 -257 -173 -420.5t-468 -163.5q-298 0 -468.5 162t-170.5 422q0 255 177.5 420t461.5 165q281 0 461 -166t180 -419zM752 877q-260 0 -260 -320q0 -150 66.5 -235.5t193.5 -85.5q259 0 259 321q0 320 -259 320zM1277 1676l-268 -393h-219l179 393h308z
M853 1676l-268 -393h-219l179 393h308z" />
    <glyph glyph-name="Omacron.aalt" horiz-adv-x="1504" 
d="M1392 561q0 -257 -173 -420.5t-468 -163.5q-298 0 -468.5 162t-170.5 422q0 255 177.5 420t461.5 165q281 0 461 -166t180 -419zM752 877q-260 0 -260 -320q0 -150 66.5 -235.5t193.5 -85.5q259 0 259 321q0 320 -259 320zM1153 1346h-802v210h802v-210z" />
    <glyph glyph-name="Oslash.aalt" horiz-adv-x="1504" 
d="M1191 999q201 -170 201 -438q0 -257 -173 -420.5t-468 -163.5q-195 0 -339 71l-128 -154h-181l192 232q-183 160 -183 435q0 255 177.5 420t461.5 165q178 0 321 -70l99 119h184zM518 380l376 465q-58 32 -142 32q-267 0 -267 -320q0 -103 33 -177zM978 758l-385 -476
q61 -46 159 -46q266 0 266 321q0 126 -40 201z" />
    <glyph glyph-name="Oslashacute.aalt" horiz-adv-x="1504" 
d="M1191 999q201 -170 201 -438q0 -257 -173 -420.5t-468 -163.5q-195 0 -339 71l-128 -154h-181l192 232q-183 160 -183 435q0 255 177.5 420t461.5 165q178 0 321 -70l99 119h184zM518 380l376 465q-58 32 -142 32q-267 0 -267 -320q0 -103 33 -177zM978 758l-385 -476
q61 -46 159 -46q266 0 266 321q0 126 -40 201zM1111 1676v-20l-352 -373h-246l247 393h351z" />
    <glyph glyph-name="Otilde.aalt" horiz-adv-x="1504" 
d="M1392 561q0 -257 -173 -420.5t-468 -163.5q-298 0 -468.5 162t-170.5 422q0 255 177.5 420t461.5 165q281 0 461 -166t180 -419zM752 877q-260 0 -260 -320q0 -150 66.5 -235.5t193.5 -85.5q259 0 259 321q0 320 -259 320zM1191 1618q-18 -332 -285 -332q-70 0 -167 58
q-93 58 -131 58q-82 0 -85 -122h-219q6 152 83.5 241.5t200.5 89.5q50 0 90.5 -17t148.5 -76q32 -18 59 -18q82 0 86 118h219z" />
    <glyph glyph-name="OE.aalt" horiz-adv-x="1950" 
d="M1827 0h-987q-347 0 -538 141.5t-191 419.5q0 562 741 562h975v-265h-568v-156h515v-233h-515v-205h568v-264zM914 848h-55q-193 0 -277.5 -68t-84.5 -217q0 -146 82.5 -217t281.5 -71h53v573z" />
    <glyph glyph-name="Thorn.aalt" horiz-adv-x="1291" 
d="M509 181v-181h-345v1123h345v-158h197q245 0 375 -93t130 -271q0 -190 -134.5 -305t-376.5 -115h-191zM509 727v-307h78q156 0 211.5 37t55.5 123q0 76 -52.5 111.5t-204.5 35.5h-88z" />
    <glyph glyph-name="Racute.aalt" horiz-adv-x="1388" 
d="M1398 0h-444l-315 395h-107v-395h-368v1123h526q246 0 390 -84.5t144 -247.5q0 -214 -231 -314zM532 878v-285h111q212 0 212 150q0 135 -189 135h-134zM1090 1676v-20l-352 -373h-246l247 393h351z" />
    <glyph glyph-name="Rcaron.aalt" horiz-adv-x="1388" 
d="M1398 0h-444l-315 395h-107v-395h-368v1123h526q246 0 390 -84.5t144 -247.5q0 -214 -231 -314zM532 878v-285h111q212 0 212 150q0 135 -189 135h-134zM1130 1676l-321 -393h-251l-321 393h264l185 -227l184 227h260z" />
    <glyph glyph-name="uni0156.aalt" horiz-adv-x="1388" 
d="M1398 0h-444l-315 395h-107v-395h-368v1123h526q246 0 390 -84.5t144 -247.5q0 -214 -231 -314zM532 878v-285h111q212 0 212 150q0 135 -189 135h-134zM924 -115l-215 -308h-216l140 308h291z" />
    <glyph glyph-name="Sacute.aalt" horiz-adv-x="1229" 
d="M93 66v290h42q235 -137 454 -137q157 0 157 90q0 34 -39 53t-203 62l-49 12q-195 48 -280 129.5t-85 209.5q0 157 148.5 262.5t371.5 105.5q233 0 469 -74v-268h-40q-176 103 -397 103q-83 0 -123.5 -25t-40.5 -59q0 -40 38 -59.5t158 -40.5q183 -35 276.5 -72
t146 -108.5t52.5 -175.5q0 -183 -150.5 -283.5t-386.5 -100.5q-299 0 -519 86zM1009 1676v-20l-352 -373h-246l247 393h351z" />
    <glyph glyph-name="Scaron.aalt" horiz-adv-x="1229" 
d="M93 66v290h42q235 -137 454 -137q157 0 157 90q0 34 -39 53t-203 62l-49 12q-195 48 -280 129.5t-85 209.5q0 157 148.5 262.5t371.5 105.5q233 0 469 -74v-268h-40q-176 103 -397 103q-83 0 -123.5 -25t-40.5 -59q0 -40 38 -59.5t158 -40.5q183 -35 276.5 -72
t146 -108.5t52.5 -175.5q0 -183 -150.5 -283.5t-386.5 -100.5q-299 0 -519 86zM1077 1676l-321 -393h-251l-321 393h264l185 -227l184 227h260z" />
    <glyph glyph-name="Scedilla.c2sc" horiz-adv-x="1229" 
d="M839 9q5 -52 5 -95q0 -161 -99.5 -249t-259.5 -88q-136 0 -213 24v200h23q87 -35 158 -35t108 28.5t46.5 61.5t9.5 124h-5q-299 0 -519 86v290h42q235 -137 454 -137q157 0 157 90q0 34 -39 53t-203 62l-49 12q-195 48 -280 129.5t-85 209.5q0 157 148.5 262.5
t371.5 105.5q233 0 469 -74v-268h-40q-176 103 -397 103q-83 0 -123.5 -25t-40.5 -59q0 -40 38 -59.5t158 -40.5q183 -35 276.5 -72t146 -108.5t52.5 -175.5q0 -266 -310 -355z" />
    <glyph glyph-name="Scircumflex.aalt" horiz-adv-x="1229" 
d="M93 66v290h42q235 -137 454 -137q157 0 157 90q0 34 -39 53t-203 62l-49 12q-195 48 -280 129.5t-85 209.5q0 157 148.5 262.5t371.5 105.5q233 0 469 -74v-268h-40q-176 103 -397 103q-83 0 -123.5 -25t-40.5 -59q0 -40 38 -59.5t158 -40.5q183 -35 276.5 -72
t146 -108.5t52.5 -175.5q0 -183 -150.5 -283.5t-386.5 -100.5q-299 0 -519 86zM1068 1283h-264l-185 219l-184 -219h-260l321 393h251z" />
    </font>
</defs>
</svg>
